<?xml version="1.0" encoding="UTF-8"?>
<svg id="_レイヤー_2" data-name="レイヤー 2" xmlns="http://www.w3.org/2000/svg" viewBox="0 0 137.53 137.53">
  <defs>
    <style>
      .cls-1 {
        fill: #7d5337;
      }
    </style>
  </defs>
  <g id="_レイヤー_1-2" data-name="レイヤー 1">
    <path id="Icon_material-error-outline" data-name="Icon material-error-outline" class="cls-1" d="m68.77,89.4h0c3.8,0,6.88,3.08,6.88,6.88h0c0,3.8-3.08,6.88-6.88,6.88h0c-3.8,0-6.88-3.08-6.88-6.88h0c0-3.8,3.08-6.88,6.88-6.88Zm0-55.01h0c3.8,0,6.88,3.08,6.88,6.88v27.51c0,3.8-3.08,6.88-6.88,6.88h0c-3.8,0-6.88-3.08-6.88-6.88v-27.51c0-3.8,3.08-6.88,6.88-6.88ZM68.7,0C30.72.04-.04,30.85,0,68.83s30.85,68.74,68.83,68.7c37.95-.04,68.7-30.81,68.7-68.76C137.55,30.81,106.79.02,68.83,0c-.04,0-.09,0-.13,0Zm.07,123.78c-30.38,0-55.01-24.63-55.01-55.01S38.39,13.75,68.77,13.75s55.01,24.63,55.01,55.01h0c0,30.38-24.61,55.01-54.99,55.01h-.03,0Z"/>
  </g>
</svg>