<svg width="16" height="12" viewBox="0 0 16 12" fill="none" xmlns="http://www.w3.org/2000/svg">
<path d="M6.2777 11.6084L15.6091 2.27825C15.8594 2.02797 16 1.68851 16 1.33457C16 0.980617 15.8594 0.641165 15.6091 0.390886C15.3588 0.140606 15.0193 0 14.6653 0C14.3113 0 13.9718 0.140606 13.7215 0.390886L5.3339 8.78004L2.27854 5.72241C2.1546 5.59849 2.00746 5.50018 1.84552 5.43311C1.68358 5.36605 1.51002 5.33153 1.33474 5.33153C0.980743 5.33153 0.641248 5.47213 0.390936 5.72241C0.266994 5.84634 0.168678 5.99346 0.101601 6.15538C0.0345241 6.31729 0 6.49083 0 6.66609C0 6.84135 0.0345241 7.01489 0.101601 7.17681C0.168678 7.33873 0.266994 7.48585 0.390936 7.60977L4.39009 11.6084C4.51392 11.7325 4.66103 11.831 4.82298 11.8982C4.98493 11.9654 5.15855 12 5.3339 12C5.50924 12 5.68286 11.9654 5.84481 11.8982C6.00676 11.831 6.15387 11.7325 6.2777 11.6084Z" fill="#37AD00"/>
</svg>
