<svg width="16" height="16" viewBox="0 0 16 16" fill="none" xmlns="http://www.w3.org/2000/svg">
<path d="M9.57021 8.00015L15.008 2.56281C15.2104 2.35326 15.3224 2.07259 15.3198 1.78126C15.3173 1.48993 15.2005 1.21125 14.9945 1.00524C14.7884 0.799228 14.5098 0.682374 14.2184 0.679842C13.9271 0.677311 13.6464 0.789305 13.4369 0.991702L7.9991 6.42904L2.56177 0.991702C2.45866 0.888456 2.3362 0.806548 2.20141 0.750664C2.06662 0.69478 1.92213 0.666016 1.77621 0.666016C1.63029 0.666016 1.48581 0.69478 1.35102 0.750664C1.21622 0.806548 1.09377 0.888456 0.990657 0.991702C0.88741 1.09481 0.805503 1.21727 0.749619 1.35206C0.693735 1.48685 0.66497 1.63134 0.66497 1.77726C0.66497 1.92318 0.693735 2.06766 0.749619 2.20245C0.805503 2.33725 0.88741 2.4597 0.990657 2.56281L6.42799 8.00015L0.978213 13.4504C0.822496 13.6056 0.716387 13.8036 0.67334 14.0192C0.630292 14.2349 0.652244 14.4584 0.736413 14.6616C0.820583 14.8647 0.963177 15.0383 1.14612 15.1603C1.32906 15.2823 1.5441 15.3472 1.76399 15.3468C2.04843 15.3468 2.33288 15.2384 2.54977 15.0215L7.99955 9.57126L13.4369 15.0086C13.54 15.1119 13.6625 15.1938 13.7973 15.2497C13.9322 15.3055 14.0767 15.3341 14.2227 15.3339C14.4424 15.3339 14.6571 15.2687 14.8398 15.1466C15.0224 15.0246 15.1648 14.8511 15.2489 14.6481C15.333 14.4452 15.355 14.2218 15.3122 14.0063C15.2694 13.7909 15.1637 13.5929 15.0084 13.4375L9.57021 8.00015Z" fill="#FF4747"/>
</svg>
