<?xml version="1.0" encoding="UTF-8"?>
<svg id="_レイヤー_2" data-name="レイヤー 2" xmlns="http://www.w3.org/2000/svg" viewBox="0 0 318.01 318.03">
  <defs>
    <style>
      .cls-1 {
        fill: #7d5337;
      }
    </style>
  </defs>
  <g id="_レイヤー_1-2" data-name="レイヤー 1">
    <path class="cls-1" d="m17.62,318.03c-4.7,0-9.13-1.83-12.45-5.16C1.84,309.55,0,305.12,0,300.42c0-4.71,1.83-9.13,5.15-12.46l158.03-157.87c2.58-2.61,2.58-6.87-.02-9.49-1.27-1.28-2.96-1.99-4.76-2h-.03c-1.79,0-3.48.69-4.75,1.96l-114.37,114.25.33-7.69c.81-18.93,1.98-34.52,3.67-49.08,3.62-35.53,18.74-66.81,44.92-92.92,21.27-21.21,49.93-39.12,85.2-53.24C236.31,6.67,302.04,1.1,314.58.24l3.44-.24-.24,3.44c-.88,12.83-6.62,80.08-32.87,143.92l-.43,1.04-54.5,27.22h41.76l-2.45,4.45c-5.55,10.08-11.86,19.85-18.77,29.05l-.56.75-72.72,24.22h51.06l-6.14,5.28c-23.31,20.04-51.81,32.19-82.4,35.14-25.01,2.87-50.51,4.38-75.75,4.49l-33.92,33.88c-3.32,3.33-7.75,5.16-12.46,5.17h-.01ZM158.37,112.6h.06c3.41.02,6.6,1.36,9,3.77,4.9,4.94,4.9,12.99,0,17.94L9.4,292.19c-2.19,2.19-3.4,5.11-3.4,8.22s1.21,6.02,3.41,8.22c2.19,2.19,5.11,3.4,8.21,3.4h0c3.1,0,6.02-1.21,8.22-3.41l35.67-35.63h1.24c25.42-.07,51.12-1.57,76.37-4.47,26.62-2.57,51.54-12.36,72.61-28.45h-53.01l-.95-5.85,88.5-29.47c5.51-7.39,10.62-15.15,15.24-23.14h-44.27l-1.34-5.68,63.87-31.9c23.72-58.23,30.24-119.1,31.75-137.55-18.23,1.48-78.29,7.88-135.92,30.96-34.51,13.82-62.5,31.29-83.19,51.92-25.18,25.1-39.71,55.15-43.19,89.32-1.44,12.42-2.49,25.59-3.27,40.96l103.45-103.34c2.41-2.39,5.6-3.7,8.98-3.7Z"/>
  </g>
</svg>