<?xml version="1.0" encoding="UTF-8"?>
<svg id="_レイヤー_2" data-name="レイヤー 2" xmlns="http://www.w3.org/2000/svg" viewBox="0 0 311.78 328.65">
  <defs>
    <style>
      .cls-1 {
        fill: #7d5337;
      }
    </style>
  </defs>
  <g id="_レイヤー_1-2" data-name="レイヤー 1">
    <path class="cls-1" d="m254.76,214.61s0,0,0,0c-16.99,0-32.24,7.44-42.68,19.23h-56.35l89.39-29.77c6.85-9.12,13.05-18.7,18.54-28.7h-49.41l64.88-32.4c25.52-62.07,31.55-126.99,32.65-142.98C280.25,2.17,58.72,23.26,43.23,175.15c-1.88,16.23-2.95,32.54-3.65,48.86l108.93-108.82c3.82-3.79,10-3.76,13.79.06,3.76,3.8,3.77,9.92,0,13.72L4.28,286.84c-5.71,5.71-5.7,14.97.01,20.68,5.71,5.71,14.97,5.7,20.68-.01l34.79-34.75c25.63-.06,51.24-1.56,76.71-4.48,24.91-2.4,48.68-11.21,69.08-25.43-4.95,8.45-7.81,18.28-7.81,28.79,0,31.49,25.53,57.02,57.02,57.02s57.02-25.53,57.02-57.02-25.53-57.02-57.02-57.02Zm35.71,44.91l-42.31,42.31h0c-1.44,1.43-3.76,1.43-5.2,0l-23.91-23.92c-1.43-1.44-1.43-3.76,0-5.2l5.2-5.2c1.44-1.43,3.76-1.43,5.2,0l16.11,16.11,34.5-34.5c1.44-1.43,3.76-1.43,5.2,0l5.2,5.2c1.43,1.44,1.43,3.76,0,5.2Z"/>
  </g>
</svg>