<?xml version="1.0" encoding="UTF-8"?>
<svg id="_レイヤー_2" data-name="レイヤー 2" xmlns="http://www.w3.org/2000/svg" viewBox="0 0 35.67 35.67">
  <defs>
    <style>
      .cls-1 {
        fill: #745032;
      }
    </style>
  </defs>
  <g id="_レイヤー_1-2" data-name="レイヤー 1">
    <path class="cls-1" d="m24.47,35.67h-1.66c-4.87,0-7.55,0-9.38-1.82-1.67-1.67-1.8-4.03-1.82-7.71,0-.69.55-1.25,1.24-1.26h0c.69,0,1.25.55,1.25,1.24.02,3.39.18,5.05,1.09,5.96,1.09,1.09,3.27,1.09,7.61,1.09h1.66c4.34,0,6.52,0,7.61-1.09,1.09-1.09,1.09-3.27,1.09-7.61v-13.27c0-4.34,0-6.52-1.09-7.61-1.09-1.09-3.27-1.09-7.61-1.09h-1.66c-4.34,0-6.52,0-7.61,1.09-.91.91-1.07,2.5-1.09,5.96,0,.69-.58,1.23-1.26,1.24-.69,0-1.25-.57-1.24-1.26.02-3.69.15-6.04,1.82-7.71,1.82-1.82,4.51-1.82,9.38-1.82h1.66c4.87,0,7.55,0,9.38,1.82,1.82,1.82,1.82,4.51,1.82,9.38v13.27c0,4.87,0,7.55-1.82,9.38-1.83,1.82-4.51,1.82-9.38,1.82Z"/>
    <path class="cls-1" d="m7.05,24.06c-.29,0-.58-.1-.81-.3L.45,18.8s-.06-.05-.09-.08c-.1-.1-.19-.22-.25-.35-.01-.03-.03-.06-.04-.08,0,0,0,0,0,0,0,0,0,0,0,0H.08c-.04-.09-.06-.19-.07-.29,0-.05-.01-.11-.01-.16s0-.11.01-.16c.01-.1.04-.2.07-.29H.08s0,0,0,0H.08s.02-.06.04-.09c.06-.13.14-.24.25-.35.03-.03.06-.05.09-.08l5.79-4.96c.52-.45,1.31-.39,1.76.14.45.52.39,1.31-.14,1.76l-3.24,2.78h18.18c.69,0,1.25.56,1.25,1.25s-.56,1.25-1.25,1.25H4.63l3.24,2.78c.52.45.58,1.24.14,1.76-.25.29-.6.44-.95.44Z"/>
  </g>
</svg>