<svg width="141" height="141" viewBox="0 0 141 141" fill="none" xmlns="http://www.w3.org/2000/svg">
<g id="material-symbols:mail-outline">
<path id="Vector" d="M23.5 117.5C20.2688 117.5 17.5036 116.35 15.2045 114.051C12.9054 111.752 11.7539 108.985 11.75 105.75V35.25C11.75 32.0188 12.9015 29.2536 15.2045 26.9545C17.5075 24.6554 20.2727 23.5039 23.5 23.5H117.5C120.731 23.5 123.498 24.6515 125.801 26.9545C128.104 29.2575 129.254 32.0227 129.25 35.25V105.75C129.25 108.981 128.1 111.748 125.801 114.051C123.502 116.354 120.735 117.504 117.5 117.5H23.5ZM70.5 76.375L23.5 47V105.75H117.5V47L70.5 76.375ZM70.5 64.625L117.5 35.25H23.5L70.5 64.625ZM23.5 47V35.25V105.75V47Z" fill="#7C5236"/>
</g>
</svg>
