<?xml version="1.0" encoding="UTF-8"?>
<svg id="_レイヤー_2" data-name="レイヤー 2" xmlns="http://www.w3.org/2000/svg" viewBox="0 0 43.92 43.93">
  <defs>
    <style>
      .cls-1 {
        fill: #745032;
      }
    </style>
  </defs>
  <g id="_レイヤー_1-2" data-name="レイヤー 1">
    <g id="Icon_ionic-md-photos" data-name="Icon ionic-md-photos">
      <path id="_パス_751" data-name="パス 751" class="cls-1" d="m37.16,39.41V11.27c0-2.49-2.02-4.5-4.51-4.51H4.51c-2.49,0-4.5,2.02-4.51,4.51v28.16c0,2.49,2.02,4.5,4.51,4.51h28.16c2.48-.02,4.49-2.03,4.5-4.52Zm-25.62-12.38l4.79,6.76,7.04-10.14,9.29,13.51H4.51l7.03-10.13Z"/>
      <path id="_パス_752" data-name="パス 752" class="cls-1" d="m39.41,0H11.27c-2.49,0-4.5,2.02-4.51,4.51v.56h27.59c2.49,0,4.5,2.02,4.51,4.51v27.59h.56c2.49,0,4.5-2.02,4.51-4.51V4.51c0-2.49-2.02-4.5-4.51-4.51Z"/>
    </g>
  </g>
</svg>