<?xml version="1.0" encoding="UTF-8"?>
<svg id="_レイヤー_2" data-name="レイヤー 2" xmlns="http://www.w3.org/2000/svg" viewBox="0 0 194.14 194.14">
  <defs>
    <style>
      .cls-1 {
        fill: #fff;
      }

      .cls-2 {
        fill: #b3b3b3;
      }
    </style>
  </defs>
  <g id="_編集モード" data-name="編集モード">
    <g>
      <circle class="cls-2" cx="97.07" cy="97.07" r="97.07" transform="translate(-7.68 8.34) rotate(-4.73)"/>
      <g>
        <path class="cls-1" d="m29.57,161.28c-.4-.35-.42-1.04-.09-1.41.16-.18.44-.29.81-.22,1.1.22,2.17.28,3.14.13.7-.75,1.34-1.38,1.91-2.02.44-.5.57-.67-.01-1.18-.23-.2-.42-.35-.64-.54-.2-.18-.67-.62-.14-1.22.28-.31.77-.46,1.14-.13.33.29.58.52.86.77,1.01.9,1.69,1.71.6,2.93-.73.82-1.65,1.74-2.46,2.64-.02.36.02.75.11,1.17.02-.16.1-.32.2-.43.2-.23.53-.31.87-.06.7.53,1.77.99,2.86,1.1.15,0,.27.07.36.14.27.24.23.74-.02,1.02-.14.16-.34.26-.58.22-1.1-.14-2.44-.6-3.34-1.2l-.17-.15c.29.76.83,1.76,2.81,3.53,1.47,1.32,3.22,2.59,4.37,3.47l.07.06c.44.39.38.95.07,1.29-.29.33-.81.48-1.34.08-.97-.71-2.38-1.82-3.72-3.02-3.57-3.19-4.11-4.82-4.14-6.83-.8.1-2.97.36-3.52-.14Zm10.75,2.44l-3.8-3.34c-.35-.32-.3-.72-.08-.96.23-.25.61-.34.97-.03l1.87,1.7.77-.86-1.37-1.2c-.35-.32-.31-.71-.08-.96.21-.24.6-.33.96-.01l1.35,1.23.35-.4c.18-.2.42-.21.65-.13-.17-.13-.32-.26-.48-.4-1.4-1.25-1.78-1.92-.57-3.27.41-.45,1.07-1.16,2.17-.18.13.11.52.47.82.74.41.37.54.48.83.16.18-.2.2-.28.01-.47l-1.81-1.62c-.34-.3-.28-.68-.05-.94.23-.25.63-.36.95-.09.14.13.31.28.48.43.67.6,1.42,1.29,1.65,1.5.75.67.76,1.24-.14,2.24-1.08,1.21-1.4.91-3.29-.77-.23-.2-.34-.13-.67.24-.32.35-.22.47.51,1.12.48.43.88.73,1.3.32.29-.3.67-.21.93.01.31.28.46.74.15,1.08-.51.57-1.3.88-2.29.25.2.26.3.6.06.87l-.35.4.67.62.65.58.37-.41c.24-.27.61-.22.89-.02-.8-1.05-.2-1.71.19-2.15.57-.64,1.22-1.33,2.31-.36.13.11.55.49.86.77.51.46.57.48.84.17.18-.2.2-.28.01-.47l-1.91-1.71c-.33-.29-.27-.67-.05-.91.24-.27.64-.37.96-.11.14.13.31.28.48.43.69.62,1.49,1.36,1.72,1.56.82.73.71,1.32-.13,2.25-1.05,1.18-1.35.96-3.36-.83-.27-.24-.38-.11-.67.21-.32.35-.29.43.55,1.18.71.63,1.06.9,1.54.41.29-.3.67-.21.93.02.31.28.46.77.16,1.11-1.17,1.3-2.5.32-3.48-.56-.21-.19-.4-.38-.58-.57.11.22.12.46-.06.66l-.35.4,1.49,1.3c.35.32.31.71.09.95-.23.25-.61.34-.97.03l-1.46-1.33-.77.87,2.08,1.83c.35.32.31.71.08.96-.22.24-.61.34-.97.03l-3.9-3.54Zm-.81-10.25c.14-.9-.09-1.89-.29-2.47-.1-.29-.04-.52.11-.69.28-.31.91-.33,1.29,0,.43.38,1.22,3.05.58,3.78-.37.41-1.09.45-1.47.11-.17-.15-.28-.4-.22-.73Zm.36,11.89c-.1-.26-.03-.48.11-.64.25-.28.76-.34,1.06-.07.08.08.16.19.21.31.37,1.1,1.1,2.25,1.77,2.96.33.34.27.72.04.98-.28.31-.81.42-1.21.07-.52-.47-1.52-2.18-1.98-3.6Zm2.72-2.87l-.64-.6-.69-.59-.77.86.68.63.65.56.77-.87Z"/>
        <path class="cls-1" d="m50.14,169.99c-1.47-.21-1.96-.39-2.07-.46-.51-.29-.58-.83-.36-1.22.18-.32.56-.54,1.04-.42.74.19,1.52.37,2.28.51l1.41-2.52-1.64-.92c-.48-.27-.51-.76-.31-1.13.2-.37.64-.6,1.12-.33l1.64.92,1.46-2.67c.29-.51.83-.56,1.23-.34s.64.68.35,1.21l-1.48,2.66,1.36.76c.5.28.53.77.32,1.14-.2.37-.64.6-1.14.32l-1.36-.76-1.11,1.99c.54.08,1.06.13,1.54.16.13,0,.24.04.32.09.37.2.45.68.25,1.03-.3.53-.66.48-2.98.23l-1.06,1.91c-.15.27-.94,1.8-1.25,2.39,0,.02-.03.05-.04.07-.58,1.04-1.72,1.48-3.16.68-.88-.49-1.41-.98-1-1.73.21-.38.66-.63,1.07-.4.05.03.1.05.14.1.13.12.31.26.49.36.35.19.75.26.99-.17l1.93-3.47Zm7,.83c-1.81,2.78-4.11,5.5-6.73,6.34-.28.08-.55.04-.76-.08-.46-.26-.72-.9-.49-1.32.08-.15.22-.27.42-.33,3.17-1.08,5.3-4.01,7-7.06.5-.9.97-1.81,1.4-2.68l.04-.07c.55-1,1.59-1.29,2.59-.78.65.32,1.28.67,1.91,1.02.63.35,1.26.7,1.84,1.07,1.07.66,1.23,1.71.91,2.4-.23.48-.58,1.2-.93,1.83-1.03,1.84-1.64,2.72-4.18,1.3-.95,3.19-.99,5.84-.12,8.18.11.3.09.55-.02.75-.28.5-1.03.67-1.56.37-.22-.12-.41-.32-.49-.6-.78-2.39-.43-6.29.65-9.53l-1.48-.82Zm1.73-.88c2.72,1.52,3.02,1.68,3.43,1.11.18-.25.39-.59.6-.95.22-.4.45-.84.59-1.17.26-.55.05-.67-1.73-1.66-1.49-.83-1.95-1.07-2.31-.42l-.03.05c-.23.46-.5.94-.78,1.44-.2.37-.42.75-.65,1.12.3.17.6.33.88.49Z"/>
        <path class="cls-1" d="m71.29,185.59c-3.65-1.07-3.17-3.23-2.64-5.04.61-2.08,1.61-4.66,2.24-6.81.23-.78.4-1.51.5-2.11.02-.05.02-.13.04-.19.18-.6.74-.77,1.22-.63.47.14.88.59.76,1.17-.08.41-.19.86-.33,1.33-.66,2.24-1.88,4.99-2.6,7.44-.44,1.5-.63,2.43,1.17,2.96,2.01.59,4.25.38,4.64.33.25-.03.44,0,.6.04.57.17.77.68.64,1.14-.13.44-.54.83-1.23.89-.44.03-2.63.18-5-.52Z"/>
        <path class="cls-1" d="m95.05,189.14c-.06,0-.11,0-.19-.01-4.09-.64-6.51-3.66-6.32-6.58.05-.74.3-2.02,1.59-3.38.06-.07.1-.13.11-.16,0-.02-.02-.04-.04-.04-.04,0-.12.03-.19.06-3.08,1.34-3.44,1.44-3.86,1.41-.7-.05-1.13-.57-1.09-1.1.02-.38.32-.78.94-.93.41-.11,1.51-.36,2.09-.53.91-.26,2.52-.66,4.44-1.28,1.44-.46,3.34-.97,5.1-.85.95.06,1.26.52,1.23,1.01-.06.97-.87,1.12-1.59,1.08-.13,0-.28-.02-.44-.05-.15-.03-.3-.04-.45-.05-2.94-.19-5.98,2.13-6.15,4.67-.15,2.28,1.89,4.35,4.87,4.54.95.06,1.37.64,1.33,1.21-.03.53-.5,1.03-1.38.98Z"/>
        <path class="cls-1" d="m105.73,189l-.96-6.52c-.9.29-1.87.56-1.97.58-.43.07-.72-.29-.78-.67-.05-.34.08-.69.46-.76.22-.05.48-.11.78-.18.26-.44.54-.97.82-1.55-.64-.52-1.8-1.2-2.26-1.43-.25-.13-.38-.34-.42-.57-.06-.38.17-.78.58-.84.11-.02.21,0,.5.1.36-.9.78-2.39.87-3.42.04-.39.29-.58.61-.63.43-.07.93.16,1,.61.1.62-.83,3.32-1.2,4.15.32.2.66.43.92.62.41-1.06.74-2.13.91-2.91.06-.36.3-.53.58-.57.43-.07.93.2,1.01.69.08.51-1,3.21-2.06,5.28.5-.14.96-.26,1.34-.38-.41-.53-.46-.6-.48-.73-.05-.32.22-.59.53-.64.84-.13,1.94,1.74,2.02,2.24.08.51-.24.9-.62.96s-.55-.2-.77-.73c-.25.1-.56.2-.91.32l1.09,6.75c.09.56-.28.93-.69.99-.39.06-.83-.16-.92-.72v-.02Zm-2.22-.06c-.39.06-.83-.16-.9-.61-.02-.13,0-.29.06-.47.32-.92.5-2.33.41-3.43-.03-.46.23-.73.57-.78.39-.06.84.18.92.72.07.43.07,2.78-.41,4.02-.12.33-.38.5-.65.54Zm13.78-4.71l-.92.14.44,2.8c.07.43-.22.71-.55.76-.32.05-.67-.13-.74-.56l-.44-2.8-.75.12.44,2.8c.07.43-.22.71-.54.76-.32.05-.67-.13-.74-.56l-.44-2.8-.86.13.49,3.15v.02c.08.47-.21.76-.54.82s-.71-.14-.81-.62c-.03-.21-.07-.47-.12-.77-.21-1.35-.52-3.46-.68-4.7.21,4.54-.58,5.24-1.19,5.34-.45.07-.92-.2-.98-.63-.03-.17,0-.35.09-.53.19-.41.35-.86.44-1.36-.12.11-.28.2-.45.22-.28.04-.59-.1-.71-.49-.2-.66-.55-1.28-.97-1.77-.09-.1-.13-.21-.14-.3-.05-.32.22-.59.55-.64.83-.13,1.67,1.47,1.85,1.88.09-1.4-.08-2.99-.33-4.56-.13-.84-.28-1.69-.43-2.51,0-.02,0-.04,0-.06-.13-.83.17-1.51,1.37-1.71.86-.15,1.78-.32,2.72-.46s1.88-.27,2.75-.39c1.56-.21,1.88.34,2.13,1.92.21,1.37.09,1.81-1.48,2.1-1.16.2-2.36.41-3.79.63-.53.08-1.09.17-1.69.26.07.57.13,1.19.18,1.8.09-.65.48-1.02,1.32-1.17.86-.15,1.8-.32,2.75-.47.62-.1,1.24-.17,1.86-.25,1.04-.12,1.65.38,1.86,1.46.17.84.67,4.03.78,4.65,0,.06.02.13.03.19.16,1.05-.16,1.7-1.08,1.84-.58.09-1.01.06-1.13-.69-.06-.38.07-.78.39-.83.02,0,.04,0,.06,0,.02,0,.04,0,.06,0,.15-.02.25-.13.16-.72l-.22-1.41Zm-9.13-9.09c-.54.08-.89-.27-.95-.66-.06-.39.16-.83.7-.92l8.33-1.3c.56-.09.89.26.95.66.06.39-.14.83-.7.92l-8.33,1.3Zm3.49,3.03c3.77-.59,3.9-.61,3.89-.97,0-.08-.01-.19-.03-.3-.01-.09-.03-.21-.06-.28-.11-.31-.29-.28-2.45.06-.86.13-1.73.27-2.55.42-.43.07-.52.35-.46.75.03.19.04.38.07.58.56-.09,1.09-.17,1.6-.25Zm.9,3.53l-.3.07c-.37.08-.51.29-.45.69.05.32.1.75.18,1.26l.86-.13-.29-1.88Zm2.02-.34l-.75.12.3,1.9.75-.12-.3-1.9Zm2.3.3c-.06-.36-.23-.58-.62-.52l-.38.04.29,1.88.9-.14-.2-1.26Z"/>
        <path class="cls-1" d="m136.25,176.86l-5.02,1.87c2.24.54,4.2.44,6.37.25.41-.04.68.18.8.48.17.44.02,1.08-.51,1.29-.39.15-3.98.17-7.03-.73l1.16,2.81v.02c.18.44-.13.83-.56,1-.41.16-.9.11-1.08-.35v-.02s-1.06-2.77-1.06-2.77c-1.59,2.84-4.25,5.26-4.69,5.44-.49.2-.97-.07-1.12-.45-.12-.3-.06-.67.32-.99,1.82-1.48,3.12-2.81,4.24-4.72l-4.78,2.02h-.02c-.49.2-.86-.06-1-.41-.15-.37-.05-.86.44-1.05l5.64-2.22-.22-.5c-.06-.14-.09-.27-.08-.4-1.11.44-2.1.83-2.8,1.09-1.85.69-2.33-.51-2.64-1.3-.27-.69-.61-1.6-.89-2.4-.44,1.01-.64,1.33-.97,1.47-.44.17-.95-.07-1.1-.46-.09-.23-.07-.48.11-.76.97-1.43,1.5-3.07,1.82-5.03.06-.35.26-.57.51-.67.44-.17,1.01.03,1.18.45.06.14.08.31.02.5-.08.26-.16.51-.23.76.65-.26,1.46-.6,2.34-.95.06-.46.13-1.05.17-1.72.02-.31.23-.54.5-.65.42-.17,1-.05,1.17.37.08.19.03.58-.1,1.3,1.75-.69,3.48-1.36,4.39-1.7.35-.14.66.12.79.44.13.32.08.72-.31.88h-.02c-.91.35-2.71,1.06-4.51,1.78l.32.79,3.57-1.42c.32-.13.58.08.69.36.1.26.05.59-.27.72l-3.57,1.42.31.78,3.57-1.41c.34-.13.6.07.7.33.11.28.06.61-.28.74l-3.57,1.42.36.9c1.86-.76,3.8-1.55,4.8-1.96h.02c.37-.15.69.09.82.42.13.32.06.71-.31.86-1.09.43-3.13,1.28-5.12,2.07.1.08.18.19.24.33l.19.52,5.73-2.29c.49-.2.86.07,1.01.44s.05.84-.43,1.03h-.02Zm-10.31-5.43c-1.11.44-2.08.84-2.68,1.08-.3.12-.5.34-.36.8l.07.22,3.28-1.3-.32-.79Zm.74,1.87l-3.32,1.32c.1.25.19.52.29.78l3.34-1.32-.31-.78Zm.74,1.85l-3.34,1.32.08.19c.15.37.46.59,1.01.39.59-.21,1.54-.59,2.6-1.01l-.36-.9Z"/>
        <path class="cls-1" d="m147.37,170.27c-1.46,1-3.26.15-4.03-.97-.73-1.07-.53-2.36.54-3.08.24-.16.51-.3.79-.4-.4-.49-.75-.93-1.09-1.35-1.86,1.52-3.54,3.25-4.91,5.18-.09.11-.16.2-.25.27-.46.31-1.02.12-1.29-.27-.24-.34-.26-.86.16-1.35,1.61-1.88,3.38-3.6,5.28-5.17-.12-.17-.24-.34-.34-.5-.94-1.38-1.45-2.12-.59-2.71.42-.29,1.06-.31,1.37.15.03.05.06.09.08.15.25.57.49,1.09.9,1.75,1.2-.94,2.45-1.84,3.72-2.71.66-.45,1.26-.28,1.52.11.27.39.21,1.01-.39,1.42-.03.02-.05.03-.08.05-.79.49-1.6,1-2.38,1.54-.49.33-.97.67-1.44,1.03.73,1.07,1.5,1.99,1.65,2.18.79.11,1.6.56,2.11,1.3.34.5.54,1.15.58,1.93.25,4.48-2.92,7.2-3,7.26-.55.38-1.11.23-1.38-.16-.21-.31-.22-.79.24-1.27,1.04-1.1,2.05-2.32,2.37-4.45-.05.03-.09.06-.14.1Zm-2.4-2.94c-.45.31-.49.8-.22,1.19.48.71,1.36.75,1.77.47.33-.22.46-.64.21-1.14-.03-.05-.04-.09-.07-.14-.09-.13-.26-.28-.46-.44-.5-.23-.93-.15-1.23.06Z"/>
        <path class="cls-1" d="m163.43,153.76c-1.46-1.36-3.1.4-3.22.53-1.45,1.55-1.43,3.81-1.25,5.04.05.33-.06.62-.24.81-.35.38-.98.46-1.35.11-.18-.17-.3-.43-.31-.81-.11-3.84-.69-8.17-.84-8.31-.03-.03-.05-.03-.08,0-.03.03-.04.07-.06.12-.32,1.65-1.19,3.31-1.58,3.72-.44.47-1.02.4-1.35.09-.29-.27-.4-.71-.07-1.15,1.16-1.49,2.17-3.82,2.33-4.39.07-.24.21-.45.36-.6.48-.51,1.23-.57,1.67-.15.22.21.37.52.38.95.02,1.79.2,3.96.36,5.74.17-.96.66-1.82,1.3-2.5,1.37-1.47,3.64-2.09,5.18-.65,1.86,1.74,1.85,5.31-.39,7.71-1.55,1.67-3.33,1.65-4.15.88-.75-.7-.66-1.91.15-2.77,1.13-1.21,2.57-1.42,3.76-.55.4-.74.49-2.81-.59-3.82Zm-2.05,5.18c-.44.47-.15.77-.09.82.54.5,1.49-.38,1.82-.72.03-.03.06-.07.09-.1-.64-.51-1.3-.56-1.81,0Z"/>
      </g>
      <path class="cls-1" d="m126.73,153.86c-.32.42-.82.66-1.35.66h-56.62c-.53,0-1.02-.24-1.35-.66-.32-.42-.44-.96-.31-1.47l15.31-60.32c-8.43-5.11-13.62-14.25-13.62-24.18,0-15.59,12.68-28.27,28.27-28.27s28.26,12.68,28.26,28.27c0,9.92-5.18,19.07-13.61,24.18l15.31,60.32c.13.51.02,1.06-.31,1.47Z"/>
    </g>
  </g>
</svg>