<?xml version="1.0" encoding="UTF-8"?>
<svg id="_レイヤー_2" data-name="レイヤー 2" xmlns="http://www.w3.org/2000/svg" viewBox="0 0 46.84 36.05">
  <defs>
    <style>
      .cls-1 {
        fill: #745032;
      }
    </style>
  </defs>
  <g id="_レイヤー_1-2" data-name="レイヤー 1">
    <g id="Icon_ionic-ios-barcode" data-name="Icon ionic-ios-barcode">
      <path id="_パス_742" data-name="パス 742" class="cls-1" d="m8.29,32.89H3.7c-.25,0-.45-.2-.45-.45V3.61c0-.25.2-.45.45-.45h4.56c.88,0,1.61-.69,1.65-1.58.02-.42-.15-.84-.46-1.13-.38-.31-.85-.47-1.34-.45H2.03C1.02-.09.11.64.01,1.65c0,.05,0,.11,0,.16v32.43c-.03.96.72,1.77,1.68,1.81.08,0,.16,0,.23,0h6.34c.83.08,1.57-.54,1.65-1.37.04-.46-.13-.91-.46-1.23-.3-.33-.71-.53-1.16-.55Z"/>
      <path id="_パス_743" data-name="パス 743" class="cls-1" d="m44.93,0h-6.34c-.87-.04-1.61.63-1.65,1.5,0,.19.02.38.07.56.02.07.05.15.09.21.27.55.84.89,1.45.88h4.59c.25,0,.45.2.45.45v28.81c0,.25-.2.45-.45.45h-4.56c-.88,0-1.61.68-1.66,1.56-.02.44.15.86.46,1.17.31.3.73.45,1.16.43h6.37c.97.09,1.82-.62,1.91-1.59,0-.09,0-.17,0-.26V1.81c.04-.96-.72-1.77-1.68-1.81-.08,0-.16,0-.24,0Z"/>
      <path id="_パス_744" data-name="パス 744" class="cls-1" d="m8.39,9.02c-.87,0-1.57.7-1.58,1.56v14.87c0,.87.71,1.58,1.58,1.58s1.58-.71,1.58-1.58h0v-14.87c0-.87-.71-1.56-1.58-1.56Z"/>
      <path id="_パス_745" data-name="パス 745" class="cls-1" d="m38.45,27.03c.87,0,1.57-.7,1.58-1.57v-14.88c0-.87-.71-1.58-1.58-1.58s-1.58.71-1.58,1.58v14.87c0,.87.71,1.57,1.58,1.58Z"/>
      <path id="_パス_746" data-name="パス 746" class="cls-1" d="m31.36,5.41c-.88.02-1.58.74-1.58,1.62v21.97c-.02.87.67,1.59,1.54,1.62.87.02,1.59-.67,1.62-1.54,0-.03,0-.05,0-.08V7.03c0-.88-.7-1.61-1.58-1.62Z"/>
      <path id="_パス_747" data-name="パス 747" class="cls-1" d="m15.48,5.41c-.88.02-1.58.74-1.58,1.62v21.97c-.02.87.67,1.59,1.54,1.62.87.02,1.59-.67,1.62-1.54,0-.03,0-.05,0-.08V7.03c.01-.88-.69-1.61-1.58-1.62Z"/>
      <path id="_パス_748" data-name="パス 748" class="cls-1" d="m23.42,7.22c-.88,0-1.58.72-1.58,1.6v18.41c0,.87.71,1.58,1.58,1.58s1.58-.71,1.58-1.58V8.81c0-.88-.7-1.59-1.58-1.6Z"/>
    </g>
  </g>
</svg>