<?xml version="1.0" encoding="UTF-8"?>
<svg id="_レイヤー_2" data-name="レイヤー 2" xmlns="http://www.w3.org/2000/svg" viewBox="0 0 47.24 47.24">
  <defs>
    <style>
      .cls-1 {
        fill: #745032;
        stroke: #745032;
        stroke-linecap: round;
        stroke-linejoin: round;
        stroke-width: 3px;
      }
    </style>
  </defs>
  <g id="_レイヤー_1-2" data-name="レイヤー 1">
    <path id="_中マド_2" data-name="中マド 2" class="cls-1" d="m23.78,45.74c-2.22,0-4.02-1.8-4.02-4.02v-.18c-.03-1.36-.89-2.57-2.17-3.03-1.24-.55-2.69-.28-3.66.66l-.12.12c-1.57,1.57-4.12,1.57-5.69,0-1.57-1.57-1.57-4.12,0-5.69l.12-.12c1.28-1.33,1.25-3.45-.08-4.73-.62-.59-1.44-.93-2.29-.94h-.34c-2.22,0-4.02-1.8-4.02-4.02s1.8-4.02,4.02-4.02h.18c1.36-.03,2.57-.89,3.04-2.17.55-1.24.29-2.69-.66-3.66l-.12-.12c-1.57-1.57-1.57-4.12,0-5.69,0,0,0,0,0,0,1.57-1.57,4.12-1.57,5.69,0,0,0,0,0,0,0l.12.12c.97.95,2.42,1.21,3.66.66h.16c1.22-.52,2.01-1.71,2.02-3.04v-.34c0-2.22,1.8-4.02,4.02-4.02s4.02,1.8,4.02,4.02v.18c.01,1.85,1.52,3.33,3.36,3.32.86,0,1.69-.34,2.31-.95l.12-.12c1.56-1.59,4.1-1.61,5.69-.06,1.59,1.56,1.61,4.1.06,5.69-.02.02-.04.04-.06.06l-.12.12c-.95.97-1.22,2.42-.66,3.66v.16c.52,1.22,1.71,2.01,3.03,2.02h.34c2.22,0,4.02,1.8,4.02,4.02s-1.8,4.02-4.02,4.02h-.18c-1.85.02-3.33,1.53-3.31,3.37,0,.86.34,1.68.94,2.3l.12.12c1.57,1.57,1.57,4.12,0,5.69,0,0,0,0,0,0-1.57,1.57-4.12,1.57-5.69,0h0s-.12-.13-.12-.13c-1.33-1.28-3.45-1.25-4.73.08-.6.62-.93,1.44-.94,2.29v.34c0,2.22-1.8,4.02-4.02,4.02Zm.07-28.74c-3.78,0-6.85,3.06-6.85,6.85,0,3.78,3.06,6.85,6.85,6.85,3.78,0,6.85-3.06,6.85-6.85h0c0-3.79-3.07-6.85-6.85-6.85Z"/>
  </g>
</svg>