<svg width="136" height="136" viewBox="0 0 136 136" fill="none" xmlns="http://www.w3.org/2000/svg">
<g id="Setting_journal 1">
<path id="&#228;&#184;&#173;&#227;&#131;&#158;&#227;&#131;&#137; 2" d="M68.4608 131.682C62.0696 131.682 56.8875 126.5 56.8875 120.108V119.59C56.8011 115.675 54.3253 112.191 50.6403 110.867C47.0704 109.284 42.896 110.061 40.1034 112.767L39.758 113.113C35.2381 117.633 27.8968 117.633 23.3769 113.113C18.857 108.593 18.857 101.251 23.3769 96.7316L23.7224 96.3861C27.4074 92.5572 27.321 86.4539 23.4921 82.7688C21.7072 81.0703 19.3464 80.0915 16.8994 80.0627H15.9205C9.52934 80.0627 4.34729 74.8806 4.34729 68.4894C4.34729 62.0982 9.52934 56.9162 15.9205 56.9162H16.4387C20.3541 56.8298 23.8376 54.3539 25.1906 50.6689C26.774 47.0991 26.0255 42.9246 23.2906 40.1321L22.9451 39.7866C18.4252 35.2667 18.4252 27.9255 22.9451 23.4056C27.465 18.8857 34.8062 18.8857 39.3261 23.4056L39.6716 23.7511C42.4641 26.486 46.6386 27.2346 50.2084 25.6511H50.6691C54.1813 24.1541 56.4557 20.7282 56.4845 16.8992V15.9204C56.4845 9.52922 61.6665 4.34717 68.0577 4.34717C74.4489 4.34717 79.631 9.52922 79.631 15.9204V16.4386C79.6597 21.7646 84.0069 26.0254 89.3041 25.9966C91.78 25.9966 94.1695 25.0178 95.9544 23.2616L96.2999 22.9162C100.791 18.3387 108.103 18.2811 112.681 22.7434C117.258 27.2346 117.316 34.547 112.854 39.1245C112.796 39.1821 112.738 39.2396 112.681 39.2972L112.335 39.6427C109.6 42.4352 108.823 46.6097 110.435 50.1795V50.6401C111.932 54.1524 115.358 56.4268 119.158 56.4556H120.137C126.529 56.4556 131.711 61.6376 131.711 68.0288C131.711 74.42 126.529 79.602 120.137 79.602H119.619C114.293 79.6596 110.032 84.0068 110.09 89.304C110.09 91.7799 111.069 94.1406 112.796 95.9255L113.142 96.271C117.661 100.791 117.661 108.132 113.142 112.652C108.622 117.172 101.28 117.172 96.7605 112.652L96.415 112.278C92.5861 108.593 86.4828 108.679 82.7978 112.508C81.0704 114.293 80.1204 116.654 80.0916 119.101V120.08C80.0916 126.471 74.9095 131.653 68.5183 131.653L68.4608 131.682ZM68.6623 48.9416C57.78 48.9416 48.9417 57.7511 48.9417 68.6622C48.9417 79.5445 57.7512 88.3827 68.6623 88.3827C79.5446 88.3827 88.3829 79.5732 88.3829 68.6622C88.3829 57.7511 79.5446 48.9416 68.6623 48.9416Z" fill="#745032" stroke="#745032" stroke-width="3" stroke-linecap="round" stroke-linejoin="round"/>
</g>
</svg>
