<?xml version="1.0" encoding="UTF-8"?>
<svg id="_レイヤー_2" data-name="レイヤー 2" xmlns="http://www.w3.org/2000/svg" xmlns:xlink="http://www.w3.org/1999/xlink" viewBox="0 0 555.14 555.13">
  <defs>
    <style>
      .cls-1 {
        fill: none;
      }

      .cls-2 {
        clip-path: url(#clippath);
      }

      <!-- .cls-3 {
        mask: url(#mask);
      }

      .cls-4 {
        filter: url(#luminosity-invert);
      }

      .cls-5 {
        fill: #303030;
      }

      .cls-6 {
        fill: #231f20;
      } -->
    </style>
    <filter id="luminosity-invert" x="-20.41" y="10.76" width="566.73" height="537.53" color-interpolation-filters="sRGB" filterUnits="userSpaceOnUse">
      <feColorMatrix result="cm" values="-1 0 0 0 1 0 -1 0 0 1 0 0 -1 0 1 0 0 0 1 0"/>
    </filter>
    <mask id="mask" x="-20.41" y="10.76" width="566.73" height="537.53" maskUnits="userSpaceOnUse">
      <g class="cls-4">
        <g>
          <path class="cls-5" d="m178.11,419.37c.23.2.47.4.7.6,1.31-.67,2.62-1.35,3.94-2.03-.22-.8-.46-1.64-.87-3.13-1.43,1.73-2.6,3.14-3.76,4.55Z"/>
          <path class="cls-5" d="m130.8,355.17c-1.35,1.69-2.28,2.85-3.46,4.33,2.47-.38,4.66-.72,7.92-1.22-1.77-1.24-3.21-2.25-4.46-3.11Z"/>
          <path class="cls-5" d="m133.58,274.87c-.11-.26-.22-.52-.34-.79-1.14.1-2.29.21-3.65.33.36,1.33.6,2.22,1.04,3.82,1.26-1.44,2.1-2.4,2.95-3.36Z"/>
          <path class="cls-5" d="m457.89,311.73c.59-.14,1.19-.27,2.04-.47,0,.82,0,1.59,0,1.69,4.03-.27,7.98-.5,11.92-.81.17-.01.34-.05.51-.09l-7.36-3.01c-.86.42-1.75.86-2.7,1.32-.3-.85-.6-1.72-.99-2.83l-2.1-.86c-.3.21-.58.41-.89.63-.09-.33-.19-.71-.3-1.12l-1.59-.65c-1.14,1.79-.12,2.69,3.49,3.87-.82.55-1.6,1.09-2.39,1.62.12.24.24.48.36.71Z"/>
          <path class="cls-5" d="m213.08,303.31c-1.35,3.48-.1,6.32,3.65,7.63.62-3.56-1.42-5.64-3.65-7.63Z"/>
          <path class="cls-5" d="m260.01,316.6c-3.13,1.63-6.42,1.15-7.64,4.54-.12.33-1.5.25-2.32.35.29.79.57,1.56.86,2.33-.26-.09-.52-.18-.78-.27-.77,2.24-1.76,4.45-2.19,6.75-.17.89.92,1.97,1.43,2.96.32-.06.64-.12.95-.18.96-1.86,1.92-3.73,3.06-5.93,1.87.72,1.88-.98,1.65-2.76,1.04,0,1.85.01,2,.02,1-2.63,1.85-4.87,2.97-7.81Z"/>
          <path class="cls-5" d="m292.05,264.1c1.73-.21,3.24-.38,5.02-.6-.46-1.09-.75-1.78-1.17-2.78-1.25,1.27-4.48-.77-3.85,3.37Z"/>
          <path class="cls-5" d="m279.99,263.43c-1.98.6-3.47,1.06-4.96,1.51q3.49,1.7,4.96-1.51Z"/>
          <path class="cls-5" d="m150.21,158.29c.14-.14.27-.28.41-.42-.36-.58-.7-1.18-1.04-1.78l-1.21.84c.62.45,1.23.91,1.84,1.36Z"/>
          <path class="cls-5" d="m266.77,278.22c-.16.12.34,1.02.43,1.58.12.75.1,1.53.22,2.29.15.89.38,1.77.57,2.66.81-.56,1.99-.96,2.37-1.72,1.55-3.07,2.89-6.24,4.21-9.42.17-.42-.22-1.06-.29-1.37-2.7.16-5.16.32-8.1.49,1.23,2.06,3.11,3.58.59,5.5Z"/>
          <path class="cls-5" d="m481.34,339.06c-1.63-.86-3.09-1.64-4.94-2.61-.71,1.65-1.18,2.74-1.53,3.58-1.4.53-2.63,1-4.11,1.57,2.34,1.88,7.18.68,10.58-2.53Z"/>
          <path class="cls-5" d="m464.47,327.6c1.12-1.71,1.93-2.95,2.98-4.56-3.42-.24-3.83.42-2.98,4.56Z"/>
          <path class="cls-5" d="m262.26,306.35c.19-.54-.35-1.31-.55-1.97-.51.43-1.2.76-1.48,1.3-.6,1.12-1.13,2.31-1.4,3.53-.15.69.28,1.48.44,2.23.26-.1.52-.21.78-.31.76-1.59,1.62-3.14,2.21-4.78Z"/>
          <path class="cls-5" d="m168,144.12c.1-.02.18-.02.27-.04l-.65-.45-3.67,2.53c1.3.39,2.54.76,3.75,1.13.1-1,.19-2,.3-3.17Z"/>
          <path class="cls-5" d="m493.95,393.07c-.47,1.47-3.84.15-2.92,2.95,2.49.52,4.97,1.07,7.47,1.53.43.08.95-.04,1.38-.22l-3.02-2.64v-.13c-.96-.5-1.94-.99-2.91-1.48Z"/>
          <path class="cls-5" d="m440.36,300.39c1.35.28,2.77.33,4.19.29l-4.63-1.89c.1.89.2,1.56.45,1.61Z"/>
          <path d="m36.78,399.04c.18-.01.35-.03.53-.04,2.86,3.33,6.29,6.66,5.26,11.04,26.96,48.43,68.44,87.67,118.58,111.8.21-3.9,1.58-7.57.41-9.82,3.12-6.37,5.06-10.92,7.54-15.13,1.22-2.06,3.46-3.47,4.94-4.9,1.8,2.94,3.27,5.35,5.1,8.35-3.08,2.1-6.37,4.34-9.8,6.67,1.21,3.15,2.33,6.09,3.45,9.02-.68.39-1.36.78-2.04,1.17-1.26-1.13-2.52-2.26-4-3.59-4.01,3.28-4.78,7.69-.3,10.14,1.12.61,1.94,1.17,2.52,1.69,33.2,14.68,69.93,22.85,108.57,22.85s71.61-7.35,103.46-20.65c2.18-5.75,4.38-11.28,9.94-15,3.57-2.39,3.03-3.2-1.92-11.92,3.06-2.13,6.38-6.24,8.8-5.69,3.49.79,6.32,4.96,9.43,7.69-.35.65-.69,1.29-1.04,1.94-2.35-.06-4.69-.13-8.19-.22,2.45,10.2-3.13,15.31-13.52,17.43,1.34,1.1,2.41,1.98,3.41,2.8,93.4-42.11,158.42-136.03,158.42-245.14,0-75.94-31.51-144.52-82.15-193.4-.51.39-1.02.78-1.55,1.18-.16-1.07-.22-2.01-.2-2.87-7.59-7.19-15.59-13.95-23.97-20.22-.65.63-1.3,1.27-1.95,1.91-.67-.33-1.34-.67-2-1,.32-1.02.65-2.03.98-3.07-44.34-32.25-98.9-51.29-157.92-51.29-73.45,0-140,29.47-188.51,77.22.67,1.36,1.31,2.51,2.18,3.43,1.62,1.7,4.12,2.54,6.24,3.76-.09.84-.18,1.68-.27,2.53-2.51.08-5.42,1.07-7.45.08-2.98-1.45-4.4-3.39-4.72-5.75C37.86,140.45,8.79,206.59,8.79,279.52c0,42.94,10.09,83.51,27.99,119.51Zm421.75-22.05c-2.38-7.96-2.11-8.21,12-10.69-4.49,4-8.2,7.3-12,10.69Zm15.58-15c-.68-.07-1.37-.14-2.05-.21.25-3.37-.08-7,1.13-9.94.36-.86,5.12.26,9.66.61-4.05,4.42-6.4,6.98-8.74,9.54Zm-7.51-262.24c3.38,1.01,6.6,2.63,9.88,4.03-.31.81-.63,1.62-.94,2.42-2.99-.16-6.05.01-8.94-.65-1.29-.3-2.25-2.29-3.36-3.52,1.14-.82,2.51-2.54,3.37-2.29Zm-26.99-23.3c3.08,4.84,5.94,9.81,9.15,14.56,4.01,5.94,8.37,10.43,13.87-1.32.57,1.13,1.13,2.25,1.7,3.38-.62,2.08-.7,5.56-1.93,6.01-8.29,2.99-16.82,5.34-24.2,7.56-.05-4.33-.03-7.39-.14-10.45-.05-1.26-1.02-3.11-.5-3.69,5.7-6.34,1.49-12.29-.33-18.89.8.94,1.73,1.8,2.39,2.84Zm-11.43,409.1c.69-3.71,10.27-6.47,15.23-1.95-4.06,1.95-8.06,4.04-12.26,5.64-.49.19-3.16-2.66-2.97-3.69Zm-24.37-229.35c-1.69,4.46-2.74,7.22-3.79,9.99-2.42-2.24-4.84-4.47-8.86-8.19,5.12-.73,7.86-1.11,12.64-1.79Zm-9.74,87.53c.23-.61,1.78-1.17,2.54-.97.79.22,2.01,1.52,1.91,2.12-.7,4.1.45,9.51-8.02,10.3,1.37-4.51,2.32-8.04,3.57-11.45Zm-134.01,71.85c-1.09-.09-2.11,2.65-3.54,3.32-1.87.88-4.1,1.01-7.78,1.81,4.6-7.22,7.84-12.31,12.28-19.27,1.82,3.34,3.81,5.88,4.63,8.74,1.37,4.79-1.35,5.76-5.59,5.4Zm5.92-110.97c-4.01-1.61-8.02-3.22-13.78-5.53,3.02-2.29,5.45-5.15,6.42-4.69,3.26,1.56,6.01,4.29,8.95,6.58-.53,1.21-1.06,2.43-1.59,3.64Zm52.22,211.39c-1.46.61-3.85-.94-5.83-1.52.91-1.52,1.85-3.02,2.73-4.56,1.22-2.11,2.4-4.25,3.69-6.55,1.1,1.44,2.85,3.74,5.6,7.34-2.08,1.88-3.83,4.29-6.19,5.29Zm-5.42-354.1c6.82-4.25,5.53,3.12,7.63,5.13.71.67-.22,3.12-.41,4.75-1.31-.78-3.07-1.26-3.82-2.4-1.37-2.1-2.14-4.6-3.4-7.47Zm24.48.1c-.15,2.74-1.67,5.36-2.81,8.64-1.61-.8-4.53-2.02-4.47-2.24,2.3-7.63-4.18-11.77-8.85-17.9,5.89,2.05,10.12,2.95,13.72,5.04,1.55.9,2.53,4.31,2.41,6.46Zm-15.29-28.29c-.18-.98-.37-1.96-.56-2.95,7.55-1.47,15.1-2.93,22.65-4.4.23.81.45,1.62.68,2.44-6.9,3.98-14.59,5.3-22.77,4.9Zm27.5,265.59c7.61-.75,15.72,1.33,22.67-3.56.28-.2,2.17,1.9,2.86,2.52-5.42,3.31-9.53,5.81-13.62,8.33-6.93,4.26-9.4-1.51-12.77-5.27.48-1.17.62-2,.86-2.02Zm-16.59-326.29c4.23,1.89,8.49,3.71,13.34,7.75-7.77,3.45-15.4,7.31-23.43,10.06-2.05.71-5.36-2.07-10.02-4.08,9.37-2.85,16.19-4.92,23.01-6.99-.26-1.09-.53-2.19-.79-3.28-2.85.29-5.7.57-8.53.86.93-6.68,1.02-6.73,6.43-4.32Zm-4.76-31.61c-.64,7.1-19.28,26.59-27.81,28.42,9.56-9.77,18.47-18.88,27.81-28.42Zm-46.66,6.25c.94,2.49,1.48,6.25,3.55,8.72,2.23,2.68,5.88,4.17,9.1,6.3-1.43.4-3.12.88-5.43,1.54,1.09,2.38,1.99,4.34,2.88,6.3-6.54-5.05-8.92-15.07-20.63-13.1,4.68-4.33,7.41-6.86,10.53-9.75Zm16.25,24.46c.62.63,1.24,1.26,1.86,1.9-6.69,7.99-13.37,15.98-20.41,24.39.41.39,1.62,1.57,4.19,4.06-5.15,1.88-9.88,3.61-14.62,5.34-.68-.92-1.36-1.84-2.04-2.76,10.34-10.98,20.68-21.96,31.02-32.94Zm-58.68,42.93c8.13-3.51,15.67-7.62,25.45-5.75-1.4,3.48-2.75,6.81-4.46,11.06-4.58-8.26-9.74-8.36-20.6-3.43-7.34,3.33-15.26,5.44-22.98,7.91-.99.32-2.34-.45-3.52-.71-.12-.71-.24-1.43-.36-2.14,8.87-2.21,18.2-3.37,26.47-6.94Zm-12.83,31.19c.87.82,1.74,1.65,2.61,2.47-6.91,7.56-13.83,15.11-20.74,22.67-.83-.78-1.66-1.57-2.49-2.35,6.87-7.6,13.75-15.19,20.62-22.79Zm-50.03-73.7c2.16,3.89,4.31,7.78,6.68,12.05-7,.81-7.14.56-6.68-12.05Zm-69.32,388.48c-2.64-.77-7.24.15-4.98-6.62,1.16-3.48-5.12-8.46-8.86-7.51-1.63.41-3.13,1.32-5.81,2.5,1.05-4.18,3.76-8.93-3.71-6.97-3.28.86-9.91-11.42-8.12-15.2,1.86-3.94,4.69-7.39,7.37-11.49-1.28-.74-2.64-1.53-5.19-3,8.08-2.25,15.03-4.18,22.56-6.28,7.82,7.07,10.26,15.95,9.95,26.24-.12,4.14,2.25,8.42,3.7,13.37-1.89,4.09-4.27,9.23-6.91,14.95Zm3.38-245.02c1.12,1.64,2.22,2.56,2.33,3.56.47,4.25-.03,7.37-5.57,8.04-5.46.66-7.31-1.26-8.02-6.83,3.21.42,5.75.76,8.4,1.11.79-1.62,1.61-3.32,2.86-5.88Zm-6.97-.25c-6.77-2.73-13.54-5.47-21.48-8.67,10.21-8.28,16.51-5.73,21.48,8.67Zm-7.28,61.07c.56.66,1.12,1.32,1.68,1.98-8.8,7.45-17.61,14.91-26.41,22.37-.77-.91-1.54-1.81-2.32-2.72,9.02-7.21,18.03-14.42,27.05-21.63Zm-31.52-110.01c-.39,6.98-4.57,9.96-16,9.77,6.11-3.73,10.88-6.65,16-9.77Z"/>
        </g>
      </g>
    </mask>
    <clipPath id="clippath">
      <path class="cls-1" d="m309.01,299.33c0,2.97-2.41,5.37-5.39,5.37s-5.39-2.41-5.39-5.37,2.41-5.37,5.39-5.37,5.39,2.41,5.39,5.37Zm33.95-90.57h-137.8c-.55,0-.72.33-.72.73v32.63c0,.4.17.73.72.73h46.42c.4,0,.72.32.72.72v111.7c0,.47.18.73.73.73,0,0,67.87,0,67.87,0,.99,0,1.14-1.07.55-1.39,0,0-22.81-13.04-25.99-14.86-.23-.13-.37-.37-.37-.63v-86.82c-.02-.89.15-1.79,1.45-2.19l24.66-7.03c.21-.08.81-.22,1.01-.22h20.75c.55,0,.73-.33.73-.73v-32.64c0-.4-.17-.72-.73-.72Z"/>
    </clipPath>
  </defs>
  <g id="_編集モード" data-name="編集モード">
    <g>
      <g>
        <g>
          <path class="cls-6" d="m129.01,182.12l26.75,17.18c3.73-5.8,7.87-11.32,12.38-16.54l-8.74-7.57c-3.52,1.39-6.98,2.66-9-.15-.37-2.09,1.46-2.45,4.22-3.99l-10.51-9.11-.03-.03c-5.5,6.34-10.55,13.08-15.11,20.17l.05.03Z"/>
          <path class="cls-6" d="m122.17,206.85c-2.33.27-4.58.49-6.77.68-.89,2.07-1.75,4.16-2.57,6.28.01,0,.02,0,.03.01,1.3.57,2.37,1.42,2.12,2.33-1.36-.43-2.29-.46-2.95-.24-.6,1.62-1.18,3.25-1.73,4.89-.08.62-.23,1.17-.54,1.6-.59,1.79-1.15,3.59-1.68,5.4l.06.02,30.47,8.95c1.96-6.65,4.38-13.12,7.24-19.36l-28.92-13.21-.05-.02c-.2.43-.38.86-.58,1.29,1.94.47,3.89.93,5.86,1.39Z"/>
          <path class="cls-6" d="m132.77,277.57c0-6.96.48-13.83,1.44-20.58l-31.41-4.51h-.04c-1.17,8.19-1.77,16.57-1.77,25.09h31.78Z"/>
          <path class="cls-6" d="m108.14,327.31l30.48-8.95c-1.91-6.54-3.38-13.29-4.37-20.22l-.88.13c-2.29,2-4.18,3.89-5.94,5.76-3.94,4.19-7.19,8.21-12.53,12.47,1.57-2.99,4.79-6.31,2.13-7.3-4.38,1.71-8.3,2.56-12.29,4.82.94,4.5,2.05,8.95,3.33,13.32l.06-.02Z"/>
          <path class="cls-6" d="m102.75,302.66c.24,1.73.52,3.44.82,5.15,6.35-2.5,12.91-5.21,19.54-8.07l-20.31,2.91h-.04Z"/>
          <path class="cls-6" d="m151.53,348.91c-2.05-3.62-3.95-7.35-5.7-11.18l-28.9,13.2-.05.02c2.68,5.87,5.68,11.56,8.96,17.07,8.84-8.74,17.3-8.45,25.68-19.11Z"/>
          <path class="cls-6" d="m168.12,372.37l-24.03,20.81-.03.03c4.23,4.88,8.73,9.53,13.47,13.92.3-.22.6-.43.9-.65,5.65-4.05,11.57-8.06,17.82-11.97l6.51-7.51c-5.21-4.51-10.11-9.4-14.64-14.62Z"/>
          <path class="cls-6" d="m161.92,411.06l.03-.03,2.27-2.61c-1.08.57-2.16,1.17-3.25,1.8.32.28.64.57.96.85Z"/>
          <path class="cls-6" d="m204.19,438.19l13.21-28.92c-6.27-2.87-12.32-6.18-18.1-9.9l-17.18,26.75-.03.05c7.03,4.52,14.41,8.56,22.08,12.07l.02-.05Z"/>
          <path class="cls-6" d="m246.66,445.97l-1.79,5.15c2.51.47,5.04.89,7.59,1.25v-.04s4.52-31.41,4.52-31.41c-6.89-.99-13.64-2.46-20.22-4.4l-8.95,30.47-.02.06c4.01,1.18,8.08,2.21,12.2,3.1,3.52-4.4,5.95-11.17,6.67-4.18Z"/>
          <path class="cls-6" d="m302.66,452.37v-.04s-4.52-31.46-4.52-31.46c-.31.04-.61.1-.92.14-6.6.9-13.16,1.34-19.65,1.35v31.78c8.52,0,16.9-.6,25.1-1.77h0Z"/>
          <path class="cls-6" d="m350.93,438.19l-13.2-28.9c-6.21,2.84-12.68,5.26-19.37,7.21l8.95,30.48.02.06c8.14-2.38,16.03-5.33,23.63-8.8l-.02-.05Z"/>
          <path class="cls-6" d="m393.18,411.03l-1.98-2.28c-2.14,1.09-3.6,2.34-2.73,5.48-11.83,5.48-1.02-2.47-4.47-6.91l4.93-1.19-16.56-19.12c-5.19,4.5-10.71,8.64-16.53,12.39l17.17,26.72.03.05c7.09-4.56,13.83-9.61,20.17-15.11l-.03-.03Z"/>
          <path class="cls-6" d="m426.11,373.01l-26.75-17.18c-3.73,5.8-7.87,11.33-12.38,16.54l24.04,20.82.03.03c5.5-6.34,10.55-13.08,15.11-20.17l-.05-.03Z"/>
          <path class="cls-6" d="m446.98,327.31l-30.47-8.95c-1.96,6.65-4.38,13.11-7.24,19.36l28.92,13.21.05.02c3.48-7.6,6.43-15.49,8.8-23.63l-.06-.02Z"/>
          <path class="cls-6" d="m453.11,296.65c-2.04,1.54-3.63,3.45-4.99,5.4l4.2.6h.04s0,0,0,0c.28-1.99.53-3.99.75-6.01Z"/>
          <path class="cls-6" d="m445.43,294.77c-2.23,7.3,5.06,1.32,7.7,1.8.3-2.85.54-5.72.7-8.6l-2.36,1c.58-.66,1.43-1.31,2.42-1.96.16-3.13.25-6.28.25-9.45h-23.88l-.34,2.71-3.29-2.71h-4.27c0,6.96-.48,13.83-1.44,20.58l19.94,2.86c1.26-2.49,2.71-4.84,4.58-6.24Z"/>
          <path class="cls-6" d="m442.5,235.02c-7.98,4.69-10.57,3.83-11.42,1.06-.29-.97-.37-2.18-.38-3.49l-14.2,4.17c1.64,5.62,2.96,11.39,3.93,17.3,7.8-2.24,19.02-7.39,26.84-4.41-1.18,2.8-6.52,3.28-10.46,5.05l15.52-2.23h.04c-1.08-7.65-2.66-15.12-4.69-22.41-2.46.76-4.46,2.13-5.18,4.96Z"/>
          <path class="cls-6" d="m426.11,182.12l-26.72,17.17c3.7,5.75,7.01,11.8,9.89,18.11l28.9-13.2.05-.02c-3.5-7.67-7.54-15.05-12.07-22.08l-.05.03Zm-19.93,16.25c-1.72-6.33,7.41-3.58,10.26-4.45-4.23,9.53-5.02-2.59-10.26,4.45Z"/>
          <path class="cls-6" d="m393.2,144.07l-.02.03-20.82,24.04c5.21,4.51,10.11,9.4,14.64,14.62l24.02-20.81.03-.03c-5.52-6.37-11.49-12.33-17.85-17.85Z"/>
          <path class="cls-6" d="m356.96,121.26l1.48-.42-11.03,3.92s-.04.02-.07.04l-9.62,21.06c6.27,2.87,12.32,6.18,18.1,9.9l17.18-26.75.03-.05c-5.02-3.23-10.21-6.2-15.56-8.92-.17.42-.34.82-.51,1.22Z"/>
          <path class="cls-6" d="m349.55,119.97l-2.2,4.82.06-.02c3.2-1.66,2.27-3.1,2.14-4.79Z"/>
          <path class="cls-6" d="m302.65,102.8l-.45,3.12c.89-.83,1.78-1.8,2.63-2.84-.72-.11-1.45-.22-2.17-.33v.04Z"/>
          <path class="cls-6" d="m303.17,112.28l8.27.55c-4.47,2.04-8.14,4.29-11.19,6.67l-2.11,14.71c6.89.99,13.64,2.46,20.22,4.4l6.59-22.45c-4.98,2.53-10.38,10.55-13.6,9.06-1.96-3.58,3.29-2.27,3.98-5.18l-7.89-2.06,17.64-2.24,2.23-7.59.02-.06c-5.93-1.74-11.99-3.17-18.17-4.28-3.77,2.2-7.13,4.83-5.99,8.48Z"/>
          <path class="cls-6" d="m277.56,127.87v-26.88c-8.52,0-16.9.6-25.1,1.77h0s0,.05,0,.05l4.52,31.46c.31-.04.61-.1.92-.14,6.6-.9,13.16-1.34,19.65-1.35v-3.9l-.67-.24c.24-.28.46-.53.67-.76Z"/>
          <path class="cls-6" d="m210.5,118.38l6.78-6.85c-4.46,1.62-8.83,3.4-13.12,5.36l.02.05,13.2,28.9c6.21-2.84,12.68-5.26,19.37-7.21l-6.52-22.22c-3.13,2.88-6.68,5.53-11.2,6.99-7.43.27,5.17-15.05-8.54-5.02Z"/>
          <path class="cls-6" d="m185.03,164.65c-1.35.91-2.52,1.57-3.53,2.03l1.25,1.45c2.23-1.93,4.52-3.81,6.87-5.61-.05-1.45-.73-2.01-4.6,2.13Z"/>
          <path class="cls-6" d="m161.94,144.1l15.25,17.6c.81-1.65,2.1-3.38,3.76-4.76l6.08,2.54,2.1-5.22,4.02,5.65c2-1.44,4.05-2.83,6.13-4.17l-17.17-26.72-.03-.05c-7.09,4.56-13.82,9.61-20.17,15.11l.02.03Z"/>
          <path class="cls-6" d="m503.9,153.02c-7.73-14.04-16.7-27.24-26.83-39.53-.4.1-.82.17-1.28.17-.7.01-1.4.01-2.1.02,28.34,33.82,48.23,75.14,56.03,120.82.81-.32,1.59-.67,2.32-1.05-4.89-28.34-14.34-55.36-28.14-80.43Z"/>
          <path class="cls-6" d="m227.75,531.04c.65-.68,1.28-1.4,1.89-2.14-23.22-4.45-45.43-12.09-66.12-22.47-.37.8-.67,1.62-.85,2.47,20.61,10.25,42.49,17.7,65.07,22.14Z"/>
          <path class="cls-6" d="m108.45,472.78c13.59,11.76,28.26,21.99,43.75,30.6l.84-1.99,5.96,5.09c.68-.49,1.3-.96,1.88-1.4-60.36-31.17-107.34-85.81-127.87-152.5-.83.2-1.65.39-2.45.59,5.17,16.96,12.07,33.32,20.66,48.93,14.75,26.79,34,50.57,57.23,70.68Z"/>
          <path class="cls-6" d="m277.24,533.41c-14.95,0-29.66-1.32-43.99-3.85-.95.75-2.02,1.42-3.17,1.92,15.47,2.89,31.25,4.38,47.16,4.38,11.75,0,23.65-.81,35.38-2.42,4.37-.6,8.71-1.3,13.01-2.11,6.34-5.59,16.8-2.02,22.29-7.77-11.59,3.29-23.49,5.79-35.64,7.45-11.62,1.59-23.4,2.4-35.04,2.4Z"/>
          <path class="cls-6" d="m349.68,525.61c2.79-.81,5.55-1.66,8.31-2.55,1.79-1.6,3.57-3.06,5.35-4.4-4.48,1.58-9,3.05-13.58,4.38l-.07,2.57Z"/>
          <path class="cls-6" d="m530.99,242.68c.15-.19.31-.37.46-.54.9.05,1.56.32,2.05.74-.02-.12-.03-.25-.05-.37-.41-2.97-.86-5.93-1.37-8.87-.73.64-1.47,1.29-2.17,1.95.39,2.35.75,4.71,1.08,7.09Z"/>
          <path class="cls-6" d="m445.31,474.01l-.43-1.04c.27.31.46.61.59.9,3.08-2.64,6.1-5.35,9.05-8.13.04-.21.09-.42.13-.63.24-1.18.48-2.38.74-3.58-2.1,2.03-4.22,4.03-6.38,5.99,0,.34.01.69.02,1.05-.15-.25-.3-.47-.47-.66-14.93,13.47-31.31,25.05-48.85,34.56-.77.55-1.55,1.1-2.31,1.64-2.97,2.12-5.78,4.17-7.91,6.28,6.78-3.26,13.44-6.83,19.95-10.71,12.73-7.57,24.7-16.15,35.85-25.68Z"/>
          <path class="cls-6" d="m466.14,454.06c6.03-6.46,11.75-13.24,17.14-20.34,20.28-26.72,34.98-56.61,43.7-88.85,8.36-30.93,10.84-62.77,7.39-94.76-.03.25-.06.5-.1.75-.77-.66-1.6-1.12-2.45-1.47,7.3,65.48-10.51,130.18-50.5,182.85-3.89,5.13-7.95,10.08-12.17,14.86.15.51.31,1.02.51,1.52-1.23,1.39-2.4,3.28-3.53,5.45Z"/>
          <path class="cls-6" d="m60.68,141.61c.12-.02.22-.01.31,0,3.17-5.04,6.51-9.96,10.01-14.76-.92-.13-1.83-.38-2.72-.65-18.45,25.48-31.95,53.73-40.15,84.06-4.32,15.99-7.07,32.23-8.24,48.61.46-.01.92-.02,1.39-.02.4,0,.76,0,1.12-.03,3.1-42.38,16.74-82.46,38.58-117.2-.1,0-.21,0-.31,0Z"/>
          <path class="cls-6" d="m21.79,271.84c-.81.54-1.65,1.04-2.51,1.51-.19,13.04.61,26.15,2.4,39.27,1.33,9.69,3.18,19.24,5.55,28.62.92-.23,1.69-.55,2.33-.95-2.32-9.14-4.15-18.48-5.45-28.01-1.87-13.61-2.61-27.12-2.32-40.45Z"/>
          <path class="cls-6" d="m448.88,72.17c.42-.39.87-.8,1.39-1.25,4.19-.13,4.49,2.86,4.23,6.08,2.23,1.97,4.43,3.98,6.6,6.03.3-.15.61-.31.94-.48-.26.23-.52.44-.77.64,43.14,40.76,73,95.79,81.53,158.05,12.99,94.81-25.6,185-94.19,242.19-1.2,3-1.92,5.66-.34,6.7-2.25,3.8-4.51,7.62-6.76,11.46,21.6-15.81,40.74-34.64,57.12-56.22,21.79-28.71,37.59-60.83,46.95-95.47,9.7-35.87,12.03-72.87,6.95-109.99-4.66-34.01-15.34-66.36-31.74-96.16-14.21-25.81-32.32-49.02-53.9-69.12-3.19,2.37-6.17,4.63-6.45.24l4.69-1.86c-1.92-1.76-3.87-3.5-5.84-5.2-8.63-7.47-17.66-14.36-27.03-20.66-2.32,2.42-4.57,4.96-6.78,7.54,8.11,5.41,15.93,11.25,23.4,17.5Z"/>
          <path class="cls-6" d="m12.46,341.97c2.43,1.29,4.15,1.29,5.44.73-2.36-9.4-4.24-19.01-5.58-28.8-.82-6.01-1.44-12.02-1.86-18.01-3.11,1.24-6.34,2.61-9.56,3.86.42,5.16.98,10.32,1.69,15.49,1.52,11.1,3.69,22.03,6.48,32.75,2-1.43,3.54-3.27,3.38-6.02Z"/>
          <path class="cls-6" d="m10.36,259.76c2.88-44.58,16.91-87.62,41.2-125.73-.14-.29-.3-.56-.47-.82-.73-1.11-1.7-2.04-2.3-3.06-1.2-2.04-.94-4.42,5.41-9.32-.5.03-.99.06-1.46.13l1.6-.23s-.09.07-.14.11c2.47-.14,5.28-.03,7.51-1.63.26-.36.52-.71.79-1.07-2.34-.48-.46-3.34,1.82-6.43,2.39-3.23,5.21-6.71,4.2-7.94,2.29.41,3.33,1.12,3.71,2.02,20.9-25.03,45.77-45.71,73.51-61.38-.28-1.78-1.09-3.2-3.37-3.26,6.88-3.84,7.2,4.19,13.91-3.73-1.03-1.18-2.17-2.3-4.03-.64,3.35-8.68,7.53-9.77,12.46-9.66,4.92.11,10.56,1.42,16.63-2.45-1.79,3.74-6.5,5.31-11.45,7.07-3.85,1.37-7.84,2.86-10.74,5.59,25.49-12.53,53.11-21.02,82.08-24.98,5.25-.72,10.53-1.27,15.81-1.69.24-.47.46-.93.71-1.4l-4.96-.87c2.91-.47,5.9-3.3,9.24-5.46,3.33-2.15,6.96-3.59,10.51-.92-6.47.22-8.63,2.03-10.35,4.52-.83,1.2-1.56,2.56-2.57,3.94,6.1-.42,12.21-.63,18.27-.63,50.75,0,98.73,14.5,139.65,39.77,2.66-2.74,5.42-4.98,8.59-6.44C381.95,15.12,330.57,0,277.9,0c-12.62,0-25.41.87-38.01,2.6-16.85,2.31-33.27,6.09-49.16,11.3-1.07.53-2.19.89-3.33,1.11-17.92,6.13-35.16,14.09-51.58,23.86-30.85,18.33-57.54,42.19-79.33,70.9-7.41,9.76-14.12,19.91-20.12,30.42.71-.18,1.45-.37,2.24-.56-.94.47-1.88,1-2.81,1.57-11.38,20.12-20.18,41.55-26.26,64.04-4.54,16.78-7.46,33.82-8.77,51,2.57,3.42,5.7,3.83,9.59,3.53ZM206.45,15.57c-10.96,9.02-4.85,2.33-13.03,1.34l13.03-1.34Z"/>
          <path class="cls-6" d="m425.32,503.59c.49-1.27.99-2.56,1.5-3.81-15.62,10.53-32.46,19.48-50.33,26.58-7.69,5.08-15.63,11.16-19.74,6.96-.86.26-1.72.52-2.58.78-4.67,3.93-5.7,8.15-7.61,12.32,24.75-6.31,48.36-15.97,70.52-28.86.37-2.45.68-4.98.9-7.62,2.55,5.79,4.83.13,7.34-6.35Z"/>
          <path class="cls-6" d="m441.68,492.05c-.48-.81-1.03-.6-1.09-2.21-.76.58-1.52,1.17-2.29,1.74,1.43-.11,2.71-.05,3.37.47Z"/>
          <path class="cls-6" d="m313.89,542.8c-12.16,1.67-24.5,2.51-36.68,2.51-32.73,0-64.29-6.03-93.56-17.09l-2.39,1.73.33-2.52c-10.93-4.23-21.53-9.16-31.74-14.75-.73.48-1.58,1.25-2.59,2.39l1.31-3.1c-59.95-33.2-106.39-88.86-127.04-156.25-2.9.96-5.43,1.99-7.4,3.12l6.5-6.11c-.05-.17-.1-.33-.14-.5-3.08.13-6.58.61-9.82,1.59,5.69,20.01,13.6,39.27,23.67,57.56,15.85,28.79,36.54,54.34,61.5,75.95,50.5,43.72,114.92,67.79,181.38,67.79,12.43,0,25.02-.85,37.43-2.53,2.59-3.53,4.78-7.25,6.15-10.84-2.29.37-4.59.72-6.9,1.04Z"/>
          <path class="cls-6" d="m3.79,287.14c-3.25,4.09-1.39,6.61-1.08,9.29l7.61-2.82c-.34-5.5-.51-10.99-.51-16.46-3.3,1.08-6.65,2.09-9.8,3.34.03,2.15.08,4.31.16,6.46,1.1-.06,2.3-.01,3.63.18Z"/>
          <path class="cls-6" d="m148.94,246.16c12.57-51.23,55.3-92.19,110.66-99.77,6.01-.82,12.11-1.24,18.14-1.24,45.83,0,87.08,23.91,110.89,60.5,1.09.07,2.1-.55,3.03-1.56-6.93-10.77-15.4-20.58-25.24-29.1-24.69-21.37-56.19-33.15-88.68-33.15-6.17,0-12.43.43-18.59,1.27-35.91,4.92-67.76,23.53-89.67,52.4-12.04,15.86-20.28,33.78-24.46,52.66l.04.05c1.45-.75,2.73-1.44,3.88-2.07Z"/>
          <path class="cls-6" d="m157.32,340.47c.93-.62,2.13-1.32,2.77-1.95-.27-.51-.53-1.03-.79-1.54-.18-.04-.38-.07-.6-.1l.43-.24c-6.34-12.65-10.74-26.47-12.75-41.11-1.97-14.39-1.53-28.57.99-42.12-1.5,1.03-2.74,1.75-3.8,2.25-1.88,11.57-2.24,23.44-1.04,35.37.63-.29,1.26-.58,1.89-.88-.64.41-1.26.81-1.86,1.2.16,1.54.33,3.08.54,4.63,2.15,15.68,7,30.71,14.2,44.49Z"/>
          <path class="cls-6" d="m161.81,341.7c-1.58.2-2.77.31-3.66.35.21.39.43.78.64,1.17l3.33-.95c-.11-.19-.21-.38-.32-.57Z"/>
          <path class="cls-6" d="m163.72,345.02c-.86.78-1.71,1.56-2.55,2.33,7.33,12.22,16.59,23.31,27.54,32.79,1.67,1.45,3.38,2.85,5.11,4.2,1.1-.59,2.2-1.17,3.32-1.74-13.35-10.25-24.73-22.99-33.42-37.58Z"/>
          <path class="cls-6" d="m388.88,206.04c10.21,15.81,17.17,33.96,19.86,53.56,4.8,35.04-4.33,69.85-25.71,98.02-21.38,28.17-52.45,46.33-87.49,51.12-6.01.82-12.11,1.24-18.14,1.24-28.66,0-55.52-9.35-77.45-25.3-.72.92-1.45,1.8-2.18,2.63,23.12,16.81,50.99,25.97,79.63,25.97,6.17,0,12.43-.43,18.58-1.27,35.91-4.92,67.76-23.53,89.67-52.4,21.91-28.87,31.27-64.55,26.36-100.46-2.67-19.52-9.53-38.04-19.92-54.39-1.18.91-2.28,1.45-3.21,1.28Z"/>
          <path class="cls-6" d="m432.51,173.35c.56-.34,1.08-.7,1.57-1.08-1.77-2.62-3.6-5.2-5.5-7.74-.21-.02-.42-.05-.64-.1-.07-.35-.11-.66-.15-.95-5.96-7.84-12.54-15.23-19.72-22.11-.74.14-1.52.29-2.32.49,10.01,9.46,19,20.01,26.76,31.49Z"/>
          <path class="cls-6" d="m412.82,406.38c-.21,1.36-.1,2.11.23,2.45,1.88-1.94,3.71-3.93,5.5-5.96-1.28.55-2.52.98-3.61,1.24-.7.76-1.41,1.52-2.12,2.27Z"/>
          <path class="cls-6" d="m92.27,301.69c-3.59-27.55-.95-54.52,6.83-79.48l-.83-.16c-.31-.05-.62-.15-.93-.29-.68,2.2-1.34,4.41-1.94,6.65-6.56,24.27-8.16,49.32-4.76,74.44.02-.02.04-.03.06-.04.52-.36,1.05-.74,1.57-1.12Z"/>
          <path class="cls-6" d="m427.2,389.33l.61.5c.23.35.39.71.53,1.06,14.53-19.33,25.1-40.91,31.38-64.17,3.24-12,5.27-24.18,6.09-36.47-.63.52-1.26,1.03-1.91,1.54-2.74,35.96-15.86,69.64-36.69,97.54Z"/>
          <path class="cls-6" d="m91.04,305.6c.33,2.2.69,4.39,1.1,6.57.56-.21,1.12-.41,1.68-.62-.41-2.23-.78-4.49-1.11-6.75-.59.28-1.15.55-1.67.8Z"/>
          <path class="cls-6" d="m152.26,415.94c-.52.4-1.04.8-1.57,1.22,1.11,1.01,2.23,2,3.36,2.98,21.84,18.91,47.51,32.4,74.93,39.72l.44-1.73c-28.96-7.78-55.35-22.42-77.16-42.18Z"/>
          <path class="cls-6" d="m456.79,224.79c.7.15,1.38.35,2.02.57-2.79-9.72-6.36-19.16-10.64-28.25l-1.46,1.2c4,8.49,7.38,17.33,10.08,26.48Z"/>
          <path class="cls-6" d="m370.88,441.55c1.01-.57,2.01-1.15,3.01-1.75,1.67-.99,3.32-2.02,4.96-3.06-.07-.68-.17-1.34-.19-2.04-22.23,14.35-47.85,24.18-75.74,28-8.48,1.16-17.09,1.75-25.6,1.75-15.1,0-29.85-1.85-44.01-5.33-.83.49-1.68.91-2.53,1.21,15.12,3.88,30.74,5.89,46.54,5.89,8.58,0,17.27-.59,25.84-1.77,22.86-3.13,44.55-10.24,64.57-21.14.81-.65,1.8-1.26,3.02-1.83l.13.06Z"/>
          <path class="cls-6" d="m104.81,206.44c-.65-.03-1.31-.06-1.96-.08-1.92,4.72-3.65,9.52-5.2,14.4.49.48.99.93,1.51,1.25,1.66-5.29,3.54-10.48,5.65-15.57Z"/>
          <path class="cls-6" d="m130.08,392.06c-14.62-18.77-25.79-40.42-32.44-64.05-.46.43-.96.84-1.49,1.23,6.58,23.12,17.5,44.72,32.15,63.67.64-.29,1.24-.58,1.78-.86Z"/>
          <path class="cls-6" d="m446.42,197.69l1.39-1.36c-3.55-7.45-7.6-14.67-12.1-21.59l-1.49,1.19c4.53,6.94,8.61,14.21,12.2,21.76Z"/>
          <path class="cls-6" d="m131.93,394.4c-.94-.14-1.87-.29-2.81-.44,5.67,7.23,11.88,14.08,18.61,20.46.52-.4,1.05-.8,1.58-1.2-6.2-5.86-12.02-12.15-17.38-18.81Z"/>
          <path class="cls-6" d="m108.21,197.44c.05.31.12.61.18.89.63-1.33,1.27-2.65,1.92-3.97-2.22-.36-2.39,1.44-2.11,3.08Z"/>
          <path class="cls-6" d="m462.69,252.21c1.17,8.52,1.73,16.99,1.74,25.36l1.78,1.04c.02-5.1-.17-10.22-.56-15.34l-.13.13-1.21-1.03,1.2-.78c-.28-3.2-.63-6.41-1.07-9.61-1.13-8.23-2.8-16.33-4.97-24.26-.5.25-1.07.44-1.68.6,2.13,7.77,3.78,15.74,4.9,23.89Z"/>
          <path class="cls-6" d="m358.35,109.16c.87.42,1.73.85,2.59,1.28.22-.61.44-1.19.66-1.76-1.55-.77-3.12-1.53-4.69-2.26-.11.57-.23,1.13-.37,1.67.8.16,1.39.54,1.82,1.07Z"/>
          <path class="cls-6" d="m111.01,192.98c.48-.94.97-1.87,1.46-2.8-1.07.5-2.07,1.3-1.46,2.8Z"/>
          <path class="cls-6" d="m385.05,432.62c3.14-2.18,6.21-4.46,9.2-6.81,1.49-2,2.57-3.66,2.79-4.63-3.6,3.01-7.33,5.88-11.16,8.62-.19.84-.49,1.81-.83,2.82Z"/>
          <path class="cls-6" d="m133.67,158.49c-1.09.47-2.12.77-3.08.85-1.11,1.38-2.2,2.77-3.27,4.18-6.04,7.96-11.39,16.31-16.06,24.99.82.15,1.44.26,1.91.37,5.83-10.78,12.71-20.96,20.51-30.39Z"/>
          <path class="cls-6" d="m404.53,140.72l3,.13c-2.1-2-4.25-3.95-6.46-5.86-11.7-10.13-24.5-18.7-38.07-25.6l-1.2,1.49c15.59,7.93,29.97,18,42.73,29.84Z"/>
          <path class="cls-6" d="m107.99,199.18c-.15-.2-.33-.45-.54-.75-.3-.29-.55-.57-.76-.83-1.15,2.45-2.24,4.93-3.29,7.44.53.33,1.05.66,1.58,1,.96-2.31,1.96-4.59,3.01-6.85Z"/>
          <path class="cls-6" d="m109.29,192.27c-.11.21-.21.42-.32.63.17-.04.35-.08.52-.1-.04-.17-.11-.35-.2-.53Z"/>
          <path class="cls-6" d="m421.26,399.76c1.22-1.43,2.42-2.88,3.6-4.36l1.21-4.56c-1.93,2.53-3.92,5-5.97,7.43.3.56.69,1.06,1.16,1.5Z"/>
          <path class="cls-6" d="m144.66,142.65c-.83.81-1.65,1.63-2.46,2.46-1.36,1.39-2.69,2.8-4.01,4.23.24.64.5,1.25.7,1.92,17.82-19.55,40.08-35.6,66.07-46.43,7.9-3.29,16.08-6.06,24.3-8.23,14.6-3.86,29.33-5.84,43.91-6.1.68-.69,1.39-1.31,2.14-1.82-15.6.12-31.23,2.17-46.5,6.2-8.3,2.19-16.55,4.99-24.53,8.31-21.3,8.87-40.45,21.28-57.02,36.94-.62.84-1.42,1.68-2.45,2.54l-.15-.03Z"/>
        </g>
        <g class="cls-3">
          <g class="cls-2">
            <rect x="273.92" y="208.77" width="69.76" height="143.62" transform="translate(617.6 561.15) rotate(180)"/>
            <path d="m320.22,359.43c-.07,0-.14,0-.21,0h-66.98c-.05,0-.11,0-.16,0h0c-1.17-.02-2.28-.46-3.1-1.23-.85-.8-1.32-1.87-1.32-3.02v-108.75s-43.77-.05-43.77-.05c-2.51,0-4.55-1.92-4.55-4.28l-.05-32.67c0-2.36,2.04-4.28,4.55-4.28l136.99.55c2.51,0,4.54,1.92,4.54,4.28l-.09,32.18c0,2.35-2.04,4.27-4.55,4.27h-19.59s-24.11,7.45-24.11,7.45v38c1.42-.97,3.14-1.53,4.99-1.53,4.93,0,8.95,4.01,8.95,8.93s-4.01,8.93-8.95,8.93c-1.86,0-3.58-.57-5.01-1.54v31.2s24.56,13.57,24.56,13.57c1.76.98,2.59,3.09,1.99,5.01-.56,1.81-2.23,2.99-4.14,2.99Zm-67.92-120.2c2,0,3.63,1.62,3.63,3.63v108.79c0,.4.32.72.73.72h53.27c.3,0,.4-.39.14-.54l-14.97-8.17c-2.5-1.36-3.63-1.65-3.63-3.63v-89.35c0-1.63,1.08-3.07,2.65-3.53l24.91-7.21c.44-.16,2.2-.73,2.9-.73h17.41c.4,0,.73-.32.73-.73v-25.39c0-.4-.32-.72-.72-.72h-130.55c-.4,0-.73.33-.73.73v25.39c0,.39.32.71.71.71h43.53Zm45.5,100.39h0s0,0,0,0Zm41.17-97.5v.02-.02Zm-131.73-.04h0s0,0,0,0Zm-2.56-2.82h0,0Z"/>
          </g>
        </g>
      </g>
      <g>
        <path d="m321.52,82.52c.71-.18,2.05-.64,4.01-1.35,1.96-.72,4.13-1.93,6.52-3.65,2.38-1.71,4.78-3.99,7.19-6.83,2.41-2.84,4.47-6.54,6.19-11.12.43-1.25.87-2.62,1.31-4.12.44-1.5.84-3.09,1.19-4.77.73-3.44,1.02-6.92.88-10.42-.14-3.5-.64-6.79-1.5-9.85-.86-3.07-2.01-5.84-3.45-8.32-1.44-2.48-3.13-4.51-5.05-6.08l-8.77-1.85c-.24,1.12-.64,3.32-1.2,6.59s-1.21,7.11-1.92,11.51c-.72,4.41-1.55,9.13-2.48,14.16-.93,5.03-1.89,9.87-2.87,14.51-.76,3.6-1.54,7.12-2.35,10.55-.81,3.43-1.57,6.57-2.3,9.43s-1.38,5.27-1.96,7.24c-.53,1.8-.94,3.02-1.23,3.68l6.32,1.33c.17-.88.35-2.19.53-3.96.19-1.88.51-4.12.97-6.7Zm3.83-21.15c1.06-5.05,2.09-9.93,3.09-14.66,1.06-5.05,2.22-9.88,3.48-14.51,1.26-4.63,2.3-8.44,3.12-11.45,1.04.64,2.27,1.73,3.7,3.29,1.43,1.56,2.7,3.58,3.8,6.07s1.85,5.49,2.24,9c.39,3.51.1,7.55-.86,12.11-.78,3.69-1.98,6.99-3.6,9.91-1.63,2.92-3.44,5.42-5.44,7.51s-4.08,3.74-6.23,4.96c-2.15,1.22-4.14,1.93-5.95,2.13.7-4.54,1.59-9.33,2.65-14.37Z"/>
        <path d="m422.19,141.37c1.96-.92,3.97-2.06,6.03-3.44,2.06-1.38,4.03-3.06,5.9-5.06,1.86-2.22,3.26-4.64,4.19-7.24.93-2.6,1.77-5.23,2.53-7.88.76-2.65,1.64-5.29,2.66-7.92,1.01-2.63,2.57-5.06,4.66-7.29,1.04-1.11,2.25-2.1,3.63-2.97s2.75-1.58,4.13-2.16c1.38-.58,2.67-1.02,3.87-1.33,1.19-.31,2.13-.53,2.82-.67,2.31-.59,4.15-.9,5.52-.95,1.36-.04,6.15-.26,6.15-.37l-2.73-2.56-3.43-3.22c-1.3.44-4.73,1.06-6.53,1.75-1.8.69-3.67,1.47-5.6,2.36-1.94.89-3.84,1.92-5.7,3.09-1.87,1.17-3.52,2.52-4.95,4.05-2.04,2.17-3.56,4.6-4.59,7.28-1.02,2.68-1.92,5.4-2.68,8.15-.76,2.76-1.63,5.44-2.6,8.06-.97,2.62-2.41,4.96-4.34,7.01-2.48,2.53-5.15,4.41-8.01,5.64-2.86,1.23-5.49,2.13-7.89,2.69-2.4.56-4.35.88-5.86.96-1.51.08-1.86.24-2.39.39l.68.64,4.96,4.65c1.09-.37,2.44-.83,4.06-1.39,1.72-.6,3.55-1.35,5.52-2.27Z"/>
        <path d="m405.26,133.78c-1.54-.84-3.18-1.87-4.93-3.1l-1.33-1.09c.42-.51,1.03-1.35,1.85-2.54.81-1.18,1.81-2.59,2.99-4.22,1.18-1.63,2.49-3.41,3.93-5.36,1.44-1.94,3.02-3.96,4.73-6.04l4.18-5.47,8.89-10.81,4.48-5.06c1.61-1.96,3.23-3.83,4.86-5.62,1.63-1.79,3.11-3.4,4.46-4.84,1.34-1.44,2.54-2.7,3.6-3.8,1.06-1.09,1.84-1.95,2.36-2.59,2.15,1.77,3.82,3.44,5.02,5,1.2,1.57,1.83,2.38,1.89,2.43l2.96-3.6-20.39-16.76-2.96,3.6c.06.05.4.22,1.01.51.61.29,1.33.67,2.16,1.14.83.47,1.71,1.01,2.64,1.62.93.61,1.78,1.22,2.54,1.85-.09.24-.26.5-.49.79s-.45.61-.65.98l-4.91,6.93c-2.21,2.95-4.71,6.22-7.5,9.8-2.79,3.59-5.62,7.12-8.47,10.6-1.45,1.89-2.94,3.7-4.48,5.45-1.54,1.75-3.05,3.45-4.52,5.11l-7.93,9.06-5.85,6.15c-.32.26-.6.54-.84.82s-.46.49-.68.63l-1.04-.86c-1.35-1.32-2.57-2.61-3.65-3.87-1.08-1.26-1.73-2.08-1.94-2.47l-2.84,3.45,20.39,16.76,2.84-3.45c-.05.06-.85-.32-2.38-1.16Z"/>
        <path d="m381.18,114.11c1.5-.07,3.5-.19,6.02-.35,2.74-.21,4.98-.16,6.71.16,1.44.26,2.21.41,2.33.44l-.6-6.89c-.88.32-1.79.62-2.73.89-.83.25-1.78.48-2.83.69-1.05.21-2.13.35-3.24.43l-10.3.93c-1.32-.05-2.48-.06-3.47,0,1.12-2.1,2.55-4.72,4.3-7.88,1.74-3.16,3.77-6.57,6.07-10.25l16.06-25.58c1.57-2.5,3.11-4.84,4.63-7.02,1.52-2.19,2.91-4.17,4.16-5.94,1.26-1.77,2.35-3.28,3.28-4.53.93-1.25,1.59-2.19,1.98-2.81l-5.61-3.53c-.06.25-.19.53-.39.84s-.39.7-.58,1.16l-4.44,8.23c-1.95,3.41-4.19,7.25-6.72,11.51-2.53,4.26-5.12,8.5-7.78,12.73-1.28,2.19-2.64,4.36-4.08,6.5-1.44,2.14-2.83,4.19-4.16,6.16l-7.3,10.93-5.48,7.57c-.33.37-.59.71-.79,1.03-.15.24-.3.42-.45.57l7.94,4.99,3.14-.55c1.38-.2,2.82-.33,4.31-.41Z"/>
        <path d="m152.57,111.89c-2.96-3.4-6.01-6.99-9.16-10.76-3.15-3.77-5.99-7.26-8.53-10.47-2.14-2.69-4.15-5.33-6.03-7.91-1.89-2.58-3.61-4.97-5.16-7.19-1.55-2.22-1.87-2.86-3.07-4.57-1.2-1.71-2.18-3.05-2.95-4.01,2.24-1.25,4.16-2.07,5.74-2.44,1.59-.37,3.07-.48,4.45-.32l-1.25-8.69-27.23,21.59,8.66,2.82c-.33-1.73.1-3.4,1.28-5.01,1.18-1.61,2.3-3,3.36-4.16,1.02,1.28,2.58,3.15,4.68,5.61,2.11,2.46,3.48,3.96,6.23,7.16,2.75,3.2,5.66,6.64,8.73,10.32,3.07,3.68,6.06,7.34,8.95,11,2.19,2.76,4.32,5.48,6.4,8.17,2.08,2.69,3.97,5.21,5.68,7.56,1.71,2.35,3.15,4.4,4.32,6.14,1.09,1.63,1.83,2.86,2.22,3.71l5.06-4.01c-.84-1.05-2.34-2.85-4.52-5.41-2.28-2.68-4.9-5.72-7.86-9.12Z"/>
        <g>
          <polygon points="164.09 80.01 173.11 84.28 173.22 72.99 163.99 68.85 164.09 80.01"/>
          <path d="m191.76,91.54c-1.7-6.25-4.75-13.17-9.16-20.74-2.02-3.47-4.27-6.89-6.76-10.27-2.49-3.38-5.08-6.44-7.76-9.19-2.69-2.74-5.41-5.11-8.18-7.1-2.77-1.99-5.44-3.32-8.01-4l-8.38,4.88c-.5,1.9-.62,4.22-.36,6.95.27,2.74.83,5.7,1.69,8.89.86,3.19,2.03,6.54,3.5,10.04,1.47,3.5,3.15,6.88,5.05,10.13,2.1,3.61,4.44,7.17,7.01,10.7,2.57,3.52,5.25,6.75,8.04,9.67,2.79,2.92,5.61,5.4,8.45,7.44,2.75,1.97,5.41,3.28,7.97,3.94l8.45-4.92c.02-.18.06-.4.14-.71.58-4.22.01-9.45-1.69-15.71Zm-4.49,14.48c-.12.45-.23.75-.33.9-.86-.16-2.13-.47-3.81-.91-1.69-.44-3.72-1.44-6.1-2.99-2.38-1.55-5.1-3.9-8.17-7.04-3.07-3.14-6.45-7.56-10.15-13.27-1.73-2.97-3.31-6.05-4.74-9.24-1.43-3.19-2.57-6.34-3.42-9.44-.85-3.1-1.38-6.18-1.59-9.23-.21-3.05.05-5.93.77-8.62,1.01.26,2.23.6,3.65,1,1.42.4,3.09,1.18,5.01,2.34,1.87,1.09,3.69,2.42,5.47,3.99,1.77,1.57,3.49,3.3,5.15,5.17,1.66,1.87,3.26,3.84,4.78,5.88,1.53,2.05,2.94,4.02,4.23,5.92,1.73,2.97,3.32,6.07,4.77,9.3,1.45,3.23,2.63,6.4,3.54,9.52.91,3.12,1.46,6.11,1.66,8.98.19,2.87-.04,5.45-.71,7.73Z"/>
        </g>
        <path d="m222.22,87.69c.67-2.4,1.02-5.03,1.03-7.88.02-2.85-.57-5.85-1.76-8.98-1.47-3.64-3.73-6.75-6.77-9.31-3.04-2.56-6.13-4.26-9.26-5.09l-2.05-.53.22-.48c.74-1.07,1.49-2.29,2.24-3.67.75-1.38,1.39-2.89,1.91-4.53s.81-3.37.87-5.19c.06-1.82-.29-3.72-1.05-5.71-.67-1.76-1.63-3.3-2.88-4.62-1.25-1.32-2.63-2.46-4.14-3.42-1.51-.96-3.01-1.72-4.5-2.3-1.49-.57-2.86-.97-4.09-1.21l-2.44-.52-9.46,3.59c.16.2.31.47.44.82s.32.73.57,1.16l3.89,8.51,5.01,12.15c.92,2.19,1.85,4.47,2.79,6.82.94,2.36,1.87,4.76,2.8,7.21s1.76,4.76,2.59,7.16c.82,2.4,1.67,4.75,2.54,7.05l4.32,12.41,2.74,8.94c.1.49.21.9.34,1.25.1.26.15.49.18.71l8.31-3.15c.93-1.29,1.91-2.83,2.94-4.65,1.11-1.95,2-4.13,2.67-6.53Zm-28.2-38.74c-.84-2.22-1.63-4.39-2.35-6.53-.72-2.13-1.34-4.11-1.86-5.93l-2.23-6.9c.08-.03.14-.03.19,0,.05.03.12.02.19,0l3.05.15c.93.17,1.99.38,3.17.64,1.18.25,2.38.67,3.6,1.26,1.22.59,2.36,1.36,3.41,2.31,1.06.96,1.97,2.21,2.73,3.76.7,1.84.87,3.67.53,5.51-.34,1.84-.94,3.53-1.78,5.08-.84,1.55-1.83,2.89-2.96,4.01-1.13,1.13-2.11,1.98-2.93,2.56l-.54-.06-2.22-5.85Zm18.36,45.95l-2.52-5.61c-.82-1.7-1.63-3.6-2.43-5.71s-1.66-4.25-2.58-6.44l-2.84-6.8-3.36-8.84c.09-.21.22-.35.37-.4,1.66-.19,3.69-.04,6.09.45,2.4.49,4.77,1.65,7.11,3.47,2.71,2.12,4.71,4.87,5.99,8.23,1.24,4.17,1.24,8.2.03,12.07-1.22,3.88-3.17,7.07-5.86,9.58Z"/>
        <path d="m278.69,86.96c-.77-1.01-1.64-2.16-2.6-3.44-.96-1.28-1.87-2.51-2.74-3.67-.87-1.17-1.39-1.91-1.58-2.22-.67-1.26-1.33-2.4-1.98-3.42-.65-1.02-1.13-1.97-1.44-2.85,1.27-1.65,2.4-3.54,3.39-5.67.99-2.12,1.79-4.38,2.39-6.76.6-2.38,1.04-4.8,1.31-7.24.27-2.44.32-4.84.14-7.21l-.19-2.57c-.29-3.84-1.03-7.43-2.22-10.79-1.19-3.36-2.69-6.41-4.5-9.14-1.8-2.74-3.87-5.09-6.19-7.05-2.32-1.96-4.75-3.46-7.29-4.5l-7.22.54c.37,1.62.8,4.46,1.31,8.52.51,4.07,1,8.77,1.48,14.11.48,5.34.94,11.01,1.39,17.01.45,6,.83,11.68,1.15,17.03.32,5.35.52,10.08.62,14.17.1,3.94.09,6.7-.03,8.3l6.58-.49c-.07-.75-.23-1.93-.51-3.58-.3-1.78-.62-3.85-.96-6.21.87-.47,1.77-1.01,2.71-1.62.94-.6,1.94-1.48,3.01-2.62.88.84,1.8,1.84,2.75,3,.95,1.16,1.7,2.17,2.26,3.03.37.55.72,1.2,1.07,1.95.34.76.69,1.51,1.03,2.26.34.76.66,1.41.95,1.96.2.4.38.68.53.87l6.49-.48c-.24-.15-.6-.53-1.11-1.2Zm-13.42-19.81c-1.39,1.75-2.83,3.12-4.31,4.14-.55.37-1.04.67-1.47.91-.43.24-.85.49-1.24.77-.59-4.55-1.08-9.52-1.48-14.91s-.78-10.53-1.15-15.43c-.12-4.92-.33-9.68-.63-14.3-.3-4.61-.45-8.48-.43-11.6,1,.25,2.38.85,4.13,1.78,1.75.94,3.54,2.43,5.38,4.46,1.83,2.04,3.47,4.71,4.91,8.01,1.43,3.3,2.34,7.48,2.72,12.54.26,3.43.12,6.6-.4,9.51-.52,2.91-1.31,5.56-2.36,7.93-1.05,2.38-2.28,4.44-3.66,6.18Z"/>
        <path d="m249.66,86.61c-1.62.65-3.47,1.26-5.52,1.83l-1.69.33c-.13-.64-.39-1.65-.78-3.04-.4-1.38-.85-3.04-1.35-4.99-.51-1.94-1.05-4.09-1.63-6.44-.58-2.34-1.14-4.84-1.65-7.5l-1.56-6.7-2.69-13.74-1.06-6.67c-.49-2.49-.9-4.93-1.25-7.32-.34-2.39-.64-4.57-.9-6.52-.26-1.95-.47-3.68-.64-5.19-.17-1.51-.33-2.66-.49-3.47,2.73-.53,5.08-.76,7.06-.69,1.97.07,3,.1,3.08.08l-.9-4.58-25.9,5.07.9,4.58c.08-.02.43-.17,1.04-.45.61-.29,1.36-.6,2.26-.94.89-.34,1.87-.68,2.93-1.01,1.06-.33,2.07-.59,3.04-.78.13.23.23.52.3.88s.19.74.34,1.12l2.23,8.2c.87,3.58,1.8,7.59,2.79,12.03.99,4.43,1.92,8.86,2.79,13.28.54,2.32.99,4.62,1.36,6.93.37,2.3.72,4.55,1.07,6.73l1.95,11.88,1.03,8.43c0,.42.03.81.1,1.17s.09.67.06.93l-1.32.26c-1.88.2-3.65.32-5.31.35-1.66.03-2.71.01-3.14-.07l.86,4.39,25.9-5.07-.86-4.39c.02.08-.79.45-2.41,1.1Z"/>
        <path d="m311.42,70.05c-.89.09-2.23.18-4,.28l.41-7.73c2.61.47,4.37.99,5.29,1.56l.58-6.85c-.58.2-1.33.32-2.26.36s-2,.1-3.21.16l.65-7.71c-.03-.66-.01-1.31.04-1.97l.17-1.96.1-4.06c.14-6.56-.31-12.59-1.35-18.1-1.04-5.51-2.05-9.83-3.04-12.95l-.21-.39-8.56-.73-.28.34c-.7,1.42-1.48,3.11-2.34,5.09-.87,1.97-1.76,4.22-2.66,6.72-.91,2.5-1.74,5.28-2.49,8.33-.75,3.05-1.39,6.27-1.93,9.67l-.59,4-.98,11.59c-2.92-.46-4.89-.92-5.92-1.36l-.58,6.85c1.01-.32,3-.49,5.96-.48l-1.01,7.55c-.88-.24-1.67-.43-2.35-.57-.69-.14-1.23-.27-1.63-.38-.56-.13-1.01-.25-1.33-.36l-.58,6.85c.08,0,.21-.02.38-.09.17-.07.36-.09.56-.08s.43,0,.68-.07l3.72-.3c-.3,3.51-.69,6.72-1.19,9.63-.46,2.72-.81,4.5-1.04,5.38l6.57.56c.09-1.24.12-3.2.07-5.9-.05-2.84.08-6.05.39-9.64l1.1.09c1.07-.07,2.14-.07,3.2.02l1.23.1.32-3.79-1.36-.11-4.26-.61c0-.9.03-1.76.1-2.58l.22-2.57.14-3.07c1.89.04,3.88.11,5.91.21l.34-4.01c-2.06-.2-4.02-.45-5.86-.73l.54-7.82.58-3.88c.27-3.17.78-6.24,1.52-9.21.74-2.97,1.61-5.7,2.6-8.19.99-2.5,2.02-4.76,3.1-6.8,1.08-2.04,2.08-3.71,3.01-5.03.97,2.13,1.95,4.83,2.95,8.11.99,3.28,1.64,7.02,1.94,11.22.07,1.15.15,2.35.25,3.58.1,1.24.14,2.51.11,3.82l-.08,3.8c-.03,1.31-.08,2.62-.15,3.92-.07,1.3-.16,2.61-.27,3.91l-.33,3.9c-2.46-.04-2.64.02-5.45-.22-.31-.03-.62-.06-.93-.09l-.34,3.96c.33.02.65.03.99.05,2.78.15,2.93.21,5.36.58l-1.08,8.41-4.42-.13-1.59-.13-.32,3.79.87.07c1.14.1-.21-.02.85.07s1.93.26,3.04.5l1.1.09c-.06.65-.13,1.3-.23,1.95-.1.65-.17,1.3-.23,1.95-.39,2.68-.72,5.07-.98,7.19-.25,1.98-.52,3.4-.82,4.29l6.68.57c.09-1.23.11-3.13.06-5.71-.06-2.72.06-5.83.36-9.33,1.58.3,2.8.59,3.66.86.86.28,1.33.42,1.41.43l.58-6.85c-.08,0-.57.03-1.46.12Z"/>
        <g>
          <path d="m365.39,95.17c3.87-5.2,7.43-11.86,10.67-20,1.48-3.73,2.79-7.61,3.91-11.66,1.12-4.05,1.94-7.97,2.44-11.78.5-3.81.68-7.41.54-10.82-.14-3.4-.74-6.33-1.79-8.77l-9.01-3.59c-1.81.78-3.71,2.12-5.69,4.01-1.99,1.9-3.97,4.17-5.95,6.82-1.98,2.65-3.89,5.63-5.74,8.95-1.85,3.32-3.47,6.73-4.86,10.22-1.54,3.88-2.91,7.92-4.09,12.11-1.19,4.2-2.07,8.29-2.64,12.29-.58,4-.79,7.75-.64,11.24.15,3.38.75,6.28,1.81,8.7l9.09,3.62c.16-.1.35-.2.64-.33,3.67-2.15,7.45-5.82,11.32-11.02Zm-14.16,5.4c-.43.18-.73.28-.91.3-.4-.78-.95-1.96-1.64-3.56-.69-1.6-1.16-3.81-1.41-6.64-.25-2.83-.08-6.42.5-10.77.58-4.35,1.97-9.74,4.18-16.18,1.27-3.19,2.72-6.34,4.35-9.43,1.63-3.09,3.4-5.93,5.32-8.52,1.91-2.59,4.01-4.9,6.28-6.95,2.27-2.05,4.69-3.62,7.26-4.71.42.96.9,2.12,1.47,3.49.56,1.37.98,3.16,1.25,5.38.3,2.15.38,4.4.23,6.77-.14,2.37-.44,4.78-.89,7.24-.45,2.46-1.01,4.93-1.68,7.39-.67,2.46-1.35,4.79-2.05,6.98-1.27,3.19-2.73,6.36-4.37,9.49-1.65,3.13-3.41,6.02-5.31,8.66-1.89,2.64-3.91,4.92-6.04,6.85-2.14,1.92-4.31,3.33-6.52,4.21Z"/>
          <path d="m361.08,65.7c-.07.13-.15.29-.23.47-1.05,2.38-2.33,4.65-3.75,6.84-.25.39-.47.76-.63,1.07l6.23,2.48.22-1.34c.44-2.72,1.2-5.37,2.26-7.91h0c1.48-.32,2.74-1.47,3.08-3.15.32-1.57-.38-3.23-1.73-4.1-2.19-1.41-4.99-.43-5.9,1.87-.52,1.3-.3,2.71.45,3.77Z"/>
        </g>
      </g>
    </g>
  </g>
</svg>