<?xml version="1.0" encoding="UTF-8"?>
<svg id="_レイヤー_2" data-name="レイヤー 2" xmlns="http://www.w3.org/2000/svg" xmlns:xlink="http://www.w3.org/1999/xlink" viewBox="0 0 555.14 555.13">
  <defs>
    <style>
      .cls-1 {
        fill: none;
      }

      .cls-2 {
        clip-path: url(#clippath);
      }

      <!-- .cls-3 {
        mask: url(#mask);
      }

      .cls-4 {
        filter: url(#luminosity-invert);
      } -->
<!-- 
      .cls-5 {
        fill: #303030;
      } -->

      <!-- .cls-6 {
        fill: #231f20;
      } -->
    </style>
    <filter id="luminosity-invert" x="-20.41" y="10.76" width="566.73" height="537.53" color-interpolation-filters="sRGB" filterUnits="userSpaceOnUse">
      <feColorMatrix result="cm" values="-1 0 0 0 1 0 -1 0 0 1 0 0 -1 0 1 0 0 0 1 0"/>
    </filter>
    <mask id="mask" x="-20.41" y="10.76" width="566.73" height="537.53" maskUnits="userSpaceOnUse">
      <g class="cls-4">
        <g>
          <path class="cls-5" d="m178.11,419.37c.23.2.47.4.7.6,1.31-.67,2.62-1.35,3.94-2.03-.22-.8-.46-1.64-.87-3.13-1.43,1.73-2.6,3.14-3.76,4.55Z"/>
          <path class="cls-5" d="m130.8,355.17c-1.35,1.69-2.28,2.85-3.46,4.33,2.47-.38,4.66-.72,7.92-1.22-1.77-1.24-3.21-2.25-4.46-3.11Z"/>
          <path class="cls-5" d="m133.58,274.87c-.11-.26-.22-.52-.34-.79-1.14.1-2.29.21-3.65.33.36,1.33.6,2.22,1.04,3.82,1.26-1.44,2.1-2.4,2.95-3.36Z"/>
          <path class="cls-5" d="m457.89,311.73c.59-.14,1.19-.27,2.04-.47,0,.82,0,1.59,0,1.69,4.03-.27,7.98-.5,11.92-.81.17-.01.34-.05.51-.09l-7.36-3.01c-.86.42-1.75.86-2.7,1.32-.3-.85-.6-1.72-.99-2.83l-2.1-.86c-.3.21-.58.41-.89.63-.09-.33-.19-.71-.3-1.12l-1.59-.65c-1.14,1.79-.12,2.69,3.49,3.87-.82.55-1.6,1.09-2.39,1.62.12.24.24.48.36.71Z"/>
          <path class="cls-5" d="m213.08,303.31c-1.35,3.48-.1,6.32,3.65,7.63.62-3.56-1.42-5.64-3.65-7.63Z"/>
          <path class="cls-5" d="m260.01,316.6c-3.13,1.63-6.42,1.15-7.64,4.54-.12.33-1.5.25-2.32.35.29.79.57,1.56.86,2.33-.26-.09-.52-.18-.78-.27-.77,2.24-1.76,4.45-2.19,6.75-.17.89.92,1.97,1.43,2.96.32-.06.64-.12.95-.18.96-1.86,1.92-3.73,3.06-5.93,1.87.72,1.88-.98,1.65-2.76,1.04,0,1.85.01,2,.02,1-2.63,1.85-4.87,2.97-7.81Z"/>
          <path class="cls-5" d="m292.05,264.1c1.73-.21,3.24-.38,5.02-.6-.46-1.09-.75-1.78-1.17-2.78-1.25,1.27-4.48-.77-3.85,3.37Z"/>
          <path class="cls-5" d="m279.99,263.43c-1.98.6-3.47,1.06-4.96,1.51q3.49,1.7,4.96-1.51Z"/>
          <path class="cls-5" d="m150.21,158.29c.14-.14.27-.28.41-.42-.36-.58-.7-1.18-1.04-1.78l-1.21.84c.62.45,1.23.91,1.84,1.36Z"/>
          <path class="cls-5" d="m266.77,278.22c-.16.12.34,1.02.43,1.58.12.75.1,1.53.22,2.29.15.89.38,1.77.57,2.66.81-.56,1.99-.96,2.37-1.72,1.55-3.07,2.89-6.24,4.21-9.42.17-.42-.22-1.06-.29-1.37-2.7.16-5.16.32-8.1.49,1.23,2.06,3.11,3.58.59,5.5Z"/>
          <path class="cls-5" d="m481.34,339.06c-1.63-.86-3.09-1.64-4.94-2.61-.71,1.65-1.18,2.74-1.53,3.58-1.4.53-2.63,1-4.11,1.57,2.34,1.88,7.18.68,10.58-2.53Z"/>
          <path class="cls-5" d="m464.47,327.6c1.12-1.71,1.93-2.95,2.98-4.56-3.42-.24-3.83.42-2.98,4.56Z"/>
          <path class="cls-5" d="m262.26,306.35c.19-.54-.35-1.31-.55-1.97-.51.43-1.2.76-1.48,1.3-.6,1.12-1.13,2.31-1.4,3.53-.15.69.28,1.48.44,2.23.26-.1.52-.21.78-.31.76-1.59,1.62-3.14,2.21-4.78Z"/>
          <path class="cls-5" d="m168,144.12c.1-.02.18-.02.27-.04l-.65-.45-3.67,2.53c1.3.39,2.54.76,3.75,1.13.1-1,.19-2,.3-3.17Z"/>
          <path class="cls-5" d="m493.95,393.07c-.47,1.47-3.84.15-2.92,2.95,2.49.52,4.97,1.07,7.47,1.53.43.08.95-.04,1.38-.22l-3.02-2.64v-.13c-.96-.5-1.94-.99-2.91-1.48Z"/>
          <path class="cls-5" d="m440.36,300.39c1.35.28,2.77.33,4.19.29l-4.63-1.89c.1.89.2,1.56.45,1.61Z"/>
          <path d="m36.78,399.04c.18-.01.35-.03.53-.04,2.86,3.33,6.29,6.66,5.26,11.04,26.96,48.43,68.44,87.67,118.58,111.8.21-3.9,1.58-7.57.41-9.82,3.12-6.37,5.06-10.92,7.54-15.13,1.22-2.06,3.46-3.47,4.94-4.9,1.8,2.94,3.27,5.35,5.1,8.35-3.08,2.1-6.37,4.34-9.8,6.67,1.21,3.15,2.33,6.09,3.45,9.02-.68.39-1.36.78-2.04,1.17-1.26-1.13-2.52-2.26-4-3.59-4.01,3.28-4.78,7.69-.3,10.14,1.12.61,1.94,1.17,2.52,1.69,33.2,14.68,69.93,22.85,108.57,22.85s71.61-7.35,103.46-20.65c2.18-5.75,4.38-11.28,9.94-15,3.57-2.39,3.03-3.2-1.92-11.92,3.06-2.13,6.38-6.24,8.8-5.69,3.49.79,6.32,4.96,9.43,7.69-.35.65-.69,1.29-1.04,1.94-2.35-.06-4.69-.13-8.19-.22,2.45,10.2-3.13,15.31-13.52,17.43,1.34,1.1,2.41,1.98,3.41,2.8,93.4-42.11,158.42-136.03,158.42-245.14,0-75.94-31.51-144.52-82.15-193.4-.51.39-1.02.78-1.55,1.18-.16-1.07-.22-2.01-.2-2.87-7.59-7.19-15.59-13.95-23.97-20.22-.65.63-1.3,1.27-1.95,1.91-.67-.33-1.34-.67-2-1,.32-1.02.65-2.03.98-3.07-44.34-32.25-98.9-51.29-157.92-51.29-73.45,0-140,29.47-188.51,77.22.67,1.36,1.31,2.51,2.18,3.43,1.62,1.7,4.12,2.54,6.24,3.76-.09.84-.18,1.68-.27,2.53-2.51.08-5.42,1.07-7.45.08-2.98-1.45-4.4-3.39-4.72-5.75C37.86,140.45,8.79,206.59,8.79,279.52c0,42.94,10.09,83.51,27.99,119.51Zm421.75-22.05c-2.38-7.96-2.11-8.21,12-10.69-4.49,4-8.2,7.3-12,10.69Zm15.58-15c-.68-.07-1.37-.14-2.05-.21.25-3.37-.08-7,1.13-9.94.36-.86,5.12.26,9.66.61-4.05,4.42-6.4,6.98-8.74,9.54Zm-7.51-262.24c3.38,1.01,6.6,2.63,9.88,4.03-.31.81-.63,1.62-.94,2.42-2.99-.16-6.05.01-8.94-.65-1.29-.3-2.25-2.29-3.36-3.52,1.14-.82,2.51-2.54,3.37-2.29Zm-26.99-23.3c3.08,4.84,5.94,9.81,9.15,14.56,4.01,5.94,8.37,10.43,13.87-1.32.57,1.13,1.13,2.25,1.7,3.38-.62,2.08-.7,5.56-1.93,6.01-8.29,2.99-16.82,5.34-24.2,7.56-.05-4.33-.03-7.39-.14-10.45-.05-1.26-1.02-3.11-.5-3.69,5.7-6.34,1.49-12.29-.33-18.89.8.94,1.73,1.8,2.39,2.84Zm-11.43,409.1c.69-3.71,10.27-6.47,15.23-1.95-4.06,1.95-8.06,4.04-12.26,5.64-.49.19-3.16-2.66-2.97-3.69Zm-24.37-229.35c-1.69,4.46-2.74,7.22-3.79,9.99-2.42-2.24-4.84-4.47-8.86-8.19,5.12-.73,7.86-1.11,12.64-1.79Zm-9.74,87.53c.23-.61,1.78-1.17,2.54-.97.79.22,2.01,1.52,1.91,2.12-.7,4.1.45,9.51-8.02,10.3,1.37-4.51,2.32-8.04,3.57-11.45Zm-134.01,71.85c-1.09-.09-2.11,2.65-3.54,3.32-1.87.88-4.1,1.01-7.78,1.81,4.6-7.22,7.84-12.31,12.28-19.27,1.82,3.34,3.81,5.88,4.63,8.74,1.37,4.79-1.35,5.76-5.59,5.4Zm5.92-110.97c-4.01-1.61-8.02-3.22-13.78-5.53,3.02-2.29,5.45-5.15,6.42-4.69,3.26,1.56,6.01,4.29,8.95,6.58-.53,1.21-1.06,2.43-1.59,3.64Zm52.22,211.39c-1.46.61-3.85-.94-5.83-1.52.91-1.52,1.85-3.02,2.73-4.56,1.22-2.11,2.4-4.25,3.69-6.55,1.1,1.44,2.85,3.74,5.6,7.34-2.08,1.88-3.83,4.29-6.19,5.29Zm-5.42-354.1c6.82-4.25,5.53,3.12,7.63,5.13.71.67-.22,3.12-.41,4.75-1.31-.78-3.07-1.26-3.82-2.4-1.37-2.1-2.14-4.6-3.4-7.47Zm24.48.1c-.15,2.74-1.67,5.36-2.81,8.64-1.61-.8-4.53-2.02-4.47-2.24,2.3-7.63-4.18-11.77-8.85-17.9,5.89,2.05,10.12,2.95,13.72,5.04,1.55.9,2.53,4.31,2.41,6.46Zm-15.29-28.29c-.18-.98-.37-1.96-.56-2.95,7.55-1.47,15.1-2.93,22.65-4.4.23.81.45,1.62.68,2.44-6.9,3.98-14.59,5.3-22.77,4.9Zm27.5,265.59c7.61-.75,15.72,1.33,22.67-3.56.28-.2,2.17,1.9,2.86,2.52-5.42,3.31-9.53,5.81-13.62,8.33-6.93,4.26-9.4-1.51-12.77-5.27.48-1.17.62-2,.86-2.02Zm-16.59-326.29c4.23,1.89,8.49,3.71,13.34,7.75-7.77,3.45-15.4,7.31-23.43,10.06-2.05.71-5.36-2.07-10.02-4.08,9.37-2.85,16.19-4.92,23.01-6.99-.26-1.09-.53-2.19-.79-3.28-2.85.29-5.7.57-8.53.86.93-6.68,1.02-6.73,6.43-4.32Zm-4.76-31.61c-.64,7.1-19.28,26.59-27.81,28.42,9.56-9.77,18.47-18.88,27.81-28.42Zm-46.66,6.25c.94,2.49,1.48,6.25,3.55,8.72,2.23,2.68,5.88,4.17,9.1,6.3-1.43.4-3.12.88-5.43,1.54,1.09,2.38,1.99,4.34,2.88,6.3-6.54-5.05-8.92-15.07-20.63-13.1,4.68-4.33,7.41-6.86,10.53-9.75Zm16.25,24.46c.62.63,1.24,1.26,1.86,1.9-6.69,7.99-13.37,15.98-20.41,24.39.41.39,1.62,1.57,4.19,4.06-5.15,1.88-9.88,3.61-14.62,5.34-.68-.92-1.36-1.84-2.04-2.76,10.34-10.98,20.68-21.96,31.02-32.94Zm-58.68,42.93c8.13-3.51,15.67-7.62,25.45-5.75-1.4,3.48-2.75,6.81-4.46,11.06-4.58-8.26-9.74-8.36-20.6-3.43-7.34,3.33-15.26,5.44-22.98,7.91-.99.32-2.34-.45-3.52-.71-.12-.71-.24-1.43-.36-2.14,8.87-2.21,18.2-3.37,26.47-6.94Zm-12.83,31.19c.87.82,1.74,1.65,2.61,2.47-6.91,7.56-13.83,15.11-20.74,22.67-.83-.78-1.66-1.57-2.49-2.35,6.87-7.6,13.75-15.19,20.62-22.79Zm-50.03-73.7c2.16,3.89,4.31,7.78,6.68,12.05-7,.81-7.14.56-6.68-12.05Zm-69.32,388.48c-2.64-.77-7.24.15-4.98-6.62,1.16-3.48-5.12-8.46-8.86-7.51-1.63.41-3.13,1.32-5.81,2.5,1.05-4.18,3.76-8.93-3.71-6.97-3.28.86-9.91-11.42-8.12-15.2,1.86-3.94,4.69-7.39,7.37-11.49-1.28-.74-2.64-1.53-5.19-3,8.08-2.25,15.03-4.18,22.56-6.28,7.82,7.07,10.26,15.95,9.95,26.24-.12,4.14,2.25,8.42,3.7,13.37-1.89,4.09-4.27,9.23-6.91,14.95Zm3.38-245.02c1.12,1.64,2.22,2.56,2.33,3.56.47,4.25-.03,7.37-5.57,8.04-5.46.66-7.31-1.26-8.02-6.83,3.21.42,5.75.76,8.4,1.11.79-1.62,1.61-3.32,2.86-5.88Zm-6.97-.25c-6.77-2.73-13.54-5.47-21.48-8.67,10.21-8.28,16.51-5.73,21.48,8.67Zm-7.28,61.07c.56.66,1.12,1.32,1.68,1.98-8.8,7.45-17.61,14.91-26.41,22.37-.77-.91-1.54-1.81-2.32-2.72,9.02-7.21,18.03-14.42,27.05-21.63Zm-31.52-110.01c-.39,6.98-4.57,9.96-16,9.77,6.11-3.73,10.88-6.65,16-9.77Z"/>
        </g>
      </g>
    </mask>
    <clipPath id="clippath">
      <path class="cls-1" d="m309.01,299.33c0,2.97-2.41,5.37-5.39,5.37s-5.39-2.41-5.39-5.37,2.41-5.37,5.39-5.37,5.39,2.41,5.39,5.37Zm33.95-90.57h-137.8c-.55,0-.72.33-.72.73v32.63c0,.4.17.73.72.73h46.42c.4,0,.72.32.72.72v111.7c0,.47.18.73.73.73,0,0,67.87,0,67.87,0,.99,0,1.14-1.07.55-1.39,0,0-22.81-13.04-25.99-14.86-.23-.13-.37-.37-.37-.63v-86.82c-.02-.89.15-1.79,1.45-2.19l24.66-7.03c.21-.08.81-.22,1.01-.22h20.75c.55,0,.73-.33.73-.73v-32.64c0-.4-.17-.72-.73-.72Z"/>
    </clipPath>
  </defs>
  <g id="_編集モード" data-name="編集モード">
    <g>
      <g>
        <g>
          <path class="cls-6" d="m129.01,182.12l26.75,17.18c3.73-5.8,7.87-11.32,12.38-16.54l-8.74-7.57c-3.52,1.39-6.98,2.66-9-.15-.37-2.09,1.46-2.45,4.22-3.99l-10.51-9.11-.03-.03c-5.5,6.34-10.55,13.08-15.11,20.17l.05.03Z"/>
          <path class="cls-6" d="m122.17,206.85c-2.33.27-4.58.49-6.77.68-.89,2.07-1.75,4.16-2.57,6.28.01,0,.02,0,.03.01,1.3.57,2.37,1.42,2.12,2.33-1.36-.43-2.29-.46-2.95-.24-.6,1.62-1.18,3.25-1.73,4.89-.08.62-.23,1.17-.54,1.6-.59,1.79-1.15,3.59-1.68,5.4l.06.02,30.47,8.95c1.96-6.65,4.38-13.12,7.24-19.36l-28.92-13.21-.05-.02c-.2.43-.38.86-.58,1.29,1.94.47,3.89.93,5.86,1.39Z"/>
          <path class="cls-6" d="m132.77,277.57c0-6.96.48-13.83,1.44-20.58l-31.41-4.51h-.04c-1.17,8.19-1.77,16.57-1.77,25.09h31.78Z"/>
          <path class="cls-6" d="m108.14,327.31l30.48-8.95c-1.91-6.54-3.38-13.29-4.37-20.22l-.88.13c-2.29,2-4.18,3.89-5.94,5.76-3.94,4.19-7.19,8.21-12.53,12.47,1.57-2.99,4.79-6.31,2.13-7.3-4.38,1.71-8.3,2.56-12.29,4.82.94,4.5,2.05,8.95,3.33,13.32l.06-.02Z"/>
          <path class="cls-6" d="m102.75,302.66c.24,1.73.52,3.44.82,5.15,6.35-2.5,12.91-5.21,19.54-8.07l-20.31,2.91h-.04Z"/>
          <path class="cls-6" d="m151.53,348.91c-2.05-3.62-3.95-7.35-5.7-11.18l-28.9,13.2-.05.02c2.68,5.87,5.68,11.56,8.96,17.07,8.84-8.74,17.3-8.45,25.68-19.11Z"/>
          <path class="cls-6" d="m168.12,372.37l-24.03,20.81-.03.03c4.23,4.88,8.73,9.53,13.47,13.92.3-.22.6-.43.9-.65,5.65-4.05,11.57-8.06,17.82-11.97l6.51-7.51c-5.21-4.51-10.11-9.4-14.64-14.62Z"/>
          <path class="cls-6" d="m161.92,411.06l.03-.03,2.27-2.61c-1.08.57-2.16,1.17-3.25,1.8.32.28.64.57.96.85Z"/>
          <path class="cls-6" d="m204.19,438.19l13.21-28.92c-6.27-2.87-12.32-6.18-18.1-9.9l-17.18,26.75-.03.05c7.03,4.52,14.41,8.56,22.08,12.07l.02-.05Z"/>
          <path class="cls-6" d="m246.66,445.97l-1.79,5.15c2.51.47,5.04.89,7.59,1.25v-.04s4.52-31.41,4.52-31.41c-6.89-.99-13.64-2.46-20.22-4.4l-8.95,30.47-.02.06c4.01,1.18,8.08,2.21,12.2,3.1,3.52-4.4,5.95-11.17,6.67-4.18Z"/>
          <path class="cls-6" d="m302.66,452.37v-.04s-4.52-31.46-4.52-31.46c-.31.04-.61.1-.92.14-6.6.9-13.16,1.34-19.65,1.35v31.78c8.52,0,16.9-.6,25.1-1.77h0Z"/>
          <path class="cls-6" d="m350.93,438.19l-13.2-28.9c-6.21,2.84-12.68,5.26-19.37,7.21l8.95,30.48.02.06c8.14-2.38,16.03-5.33,23.63-8.8l-.02-.05Z"/>
          <path class="cls-6" d="m393.18,411.03l-1.98-2.28c-2.14,1.09-3.6,2.34-2.73,5.48-11.83,5.48-1.02-2.47-4.47-6.91l4.93-1.19-16.56-19.12c-5.19,4.5-10.71,8.64-16.53,12.39l17.17,26.72.03.05c7.09-4.56,13.83-9.61,20.17-15.11l-.03-.03Z"/>
          <path class="cls-6" d="m426.11,373.01l-26.75-17.18c-3.73,5.8-7.87,11.33-12.38,16.54l24.04,20.82.03.03c5.5-6.34,10.55-13.08,15.11-20.17l-.05-.03Z"/>
          <path class="cls-6" d="m446.98,327.31l-30.47-8.95c-1.96,6.65-4.38,13.11-7.24,19.36l28.92,13.21.05.02c3.48-7.6,6.43-15.49,8.8-23.63l-.06-.02Z"/>
          <path class="cls-6" d="m453.11,296.65c-2.04,1.54-3.63,3.45-4.99,5.4l4.2.6h.04s0,0,0,0c.28-1.99.53-3.99.75-6.01Z"/>
          <path class="cls-6" d="m445.43,294.77c-2.23,7.3,5.06,1.32,7.7,1.8.3-2.85.54-5.72.7-8.6l-2.36,1c.58-.66,1.43-1.31,2.42-1.96.16-3.13.25-6.28.25-9.45h-23.88l-.34,2.71-3.29-2.71h-4.27c0,6.96-.48,13.83-1.44,20.58l19.94,2.86c1.26-2.49,2.71-4.84,4.58-6.24Z"/>
          <path class="cls-6" d="m442.5,235.02c-7.98,4.69-10.57,3.83-11.42,1.06-.29-.97-.37-2.18-.38-3.49l-14.2,4.17c1.64,5.62,2.96,11.39,3.93,17.3,7.8-2.24,19.02-7.39,26.84-4.41-1.18,2.8-6.52,3.28-10.46,5.05l15.52-2.23h.04c-1.08-7.65-2.66-15.12-4.69-22.41-2.46.76-4.46,2.13-5.18,4.96Z"/>
          <path class="cls-6" d="m426.11,182.12l-26.72,17.17c3.7,5.75,7.01,11.8,9.89,18.11l28.9-13.2.05-.02c-3.5-7.67-7.54-15.05-12.07-22.08l-.05.03Zm-19.93,16.25c-1.72-6.33,7.41-3.58,10.26-4.45-4.23,9.53-5.02-2.59-10.26,4.45Z"/>
          <path class="cls-6" d="m393.2,144.07l-.02.03-20.82,24.04c5.21,4.51,10.11,9.4,14.64,14.62l24.02-20.81.03-.03c-5.52-6.37-11.49-12.33-17.85-17.85Z"/>
          <path class="cls-6" d="m356.96,121.26l1.48-.42-11.03,3.92s-.04.02-.07.04l-9.62,21.06c6.27,2.87,12.32,6.18,18.1,9.9l17.18-26.75.03-.05c-5.02-3.23-10.21-6.2-15.56-8.92-.17.42-.34.82-.51,1.22Z"/>
          <path class="cls-6" d="m349.55,119.97l-2.2,4.82.06-.02c3.2-1.66,2.27-3.1,2.14-4.79Z"/>
          <path class="cls-6" d="m302.65,102.8l-.45,3.12c.89-.83,1.78-1.8,2.63-2.84-.72-.11-1.45-.22-2.17-.33v.04Z"/>
          <path class="cls-6" d="m303.17,112.28l8.27.55c-4.47,2.04-8.14,4.29-11.19,6.67l-2.11,14.71c6.89.99,13.64,2.46,20.22,4.4l6.59-22.45c-4.98,2.53-10.38,10.55-13.6,9.06-1.96-3.58,3.29-2.27,3.98-5.18l-7.89-2.06,17.64-2.24,2.23-7.59.02-.06c-5.93-1.74-11.99-3.17-18.17-4.28-3.77,2.2-7.13,4.83-5.99,8.48Z"/>
          <path class="cls-6" d="m277.56,127.87v-26.88c-8.52,0-16.9.6-25.1,1.77h0s0,.05,0,.05l4.52,31.46c.31-.04.61-.1.92-.14,6.6-.9,13.16-1.34,19.65-1.35v-3.9l-.67-.24c.24-.28.46-.53.67-.76Z"/>
          <path class="cls-6" d="m210.5,118.38l6.78-6.85c-4.46,1.62-8.83,3.4-13.12,5.36l.02.05,13.2,28.9c6.21-2.84,12.68-5.26,19.37-7.21l-6.52-22.22c-3.13,2.88-6.68,5.53-11.2,6.99-7.43.27,5.17-15.05-8.54-5.02Z"/>
          <path class="cls-6" d="m185.03,164.65c-1.35.91-2.52,1.57-3.53,2.03l1.25,1.45c2.23-1.93,4.52-3.81,6.87-5.61-.05-1.45-.73-2.01-4.6,2.13Z"/>
          <path class="cls-6" d="m161.94,144.1l15.25,17.6c.81-1.65,2.1-3.38,3.76-4.76l6.08,2.54,2.1-5.22,4.02,5.65c2-1.44,4.05-2.83,6.13-4.17l-17.17-26.72-.03-.05c-7.09,4.56-13.82,9.61-20.17,15.11l.02.03Z"/>
          <path class="cls-6" d="m503.9,153.02c-13.99-25.41-32.04-48.11-53.68-67.53-.68-.31-1.31-.67-1.92-1-1.49-.8-2.85-1.44-4.37-.94,44.12,37.88,75.49,90.62,85.8,150.96.81-.32,1.59-.67,2.32-1.05-4.89-28.34-14.34-55.36-28.14-80.43Z"/>
          <path class="cls-6" d="m227.75,531.04c.65-.68,1.28-1.4,1.89-2.14-23.22-4.45-45.43-12.09-66.12-22.47-.37.8-.67,1.62-.85,2.47,20.61,10.25,42.49,17.7,65.07,22.14Z"/>
          <path class="cls-6" d="m108.45,472.78c13.59,11.76,28.26,21.99,43.75,30.6l.84-1.99,5.96,5.09c.68-.49,1.3-.96,1.88-1.4-60.36-31.17-107.34-85.81-127.87-152.5-.83.2-1.65.39-2.45.59,5.17,16.96,12.07,33.32,20.66,48.93,14.75,26.79,34,50.57,57.23,70.68Z"/>
          <path class="cls-6" d="m277.24,533.41c-14.95,0-29.66-1.32-43.99-3.85-.95.75-2.02,1.42-3.17,1.92,15.47,2.89,31.25,4.38,47.16,4.38,11.75,0,23.65-.81,35.38-2.42,4.37-.6,8.71-1.3,13.01-2.11,6.34-5.59,16.8-2.02,22.29-7.77-11.59,3.29-23.49,5.79-35.64,7.45-11.62,1.59-23.4,2.4-35.04,2.4Z"/>
          <path class="cls-6" d="m349.68,525.61c2.79-.81,5.55-1.66,8.31-2.55,1.79-1.6,3.57-3.06,5.35-4.4-4.48,1.58-9,3.05-13.58,4.38l-.07,2.57Z"/>
          <path class="cls-6" d="m530.99,242.68c.15-.19.31-.37.46-.54.9.05,1.56.32,2.05.74-.02-.12-.03-.25-.05-.37-.41-2.97-.86-5.93-1.37-8.87-.73.64-1.47,1.29-2.17,1.95.39,2.35.75,4.71,1.08,7.09Z"/>
          <path class="cls-6" d="m445.31,474.01l-.43-1.04c.27.31.46.61.59.9,3.08-2.64,6.1-5.35,9.05-8.13.04-.21.09-.42.13-.63.24-1.18.48-2.38.74-3.58-2.1,2.03-4.22,4.03-6.38,5.99,0,.34.01.69.02,1.05-.15-.25-.3-.47-.47-.66-14.93,13.47-31.31,25.05-48.85,34.56-.77.55-1.55,1.1-2.31,1.64-2.97,2.12-5.78,4.17-7.91,6.28,6.78-3.26,13.44-6.83,19.95-10.71,12.73-7.57,24.7-16.15,35.85-25.68Z"/>
          <path class="cls-6" d="m466.14,454.06c6.03-6.46,11.75-13.24,17.14-20.34,20.28-26.72,34.98-56.61,43.7-88.85,8.36-30.93,10.84-62.77,7.39-94.76-.03.25-.06.5-.1.75-.77-.66-1.6-1.12-2.45-1.47,7.3,65.48-10.51,130.18-50.5,182.85-3.89,5.13-7.95,10.08-12.17,14.86.15.51.31,1.02.51,1.52-1.23,1.39-2.4,3.28-3.53,5.45Z"/>
          <path class="cls-6" d="m60.68,141.61c.12-.02.22-.01.31,0,3.17-5.04,6.51-9.96,10.01-14.76-.92-.13-1.83-.38-2.72-.65-18.45,25.48-31.95,53.73-40.15,84.06-4.32,15.99-7.07,32.23-8.24,48.61.46-.01.92-.02,1.39-.02.4,0,.76,0,1.12-.03,3.1-42.38,16.74-82.46,38.58-117.2-.1,0-.21,0-.31,0Z"/>
          <path class="cls-6" d="m21.79,271.84c-.81.54-1.65,1.04-2.51,1.51-.19,13.04.61,26.15,2.4,39.27,1.33,9.69,3.18,19.24,5.55,28.62.92-.23,1.69-.55,2.33-.95-2.32-9.14-4.15-18.48-5.45-28.01-1.87-13.61-2.61-27.12-2.32-40.45Z"/>
          <path class="cls-6" d="m448.88,72.17c.42-.39.87-.8,1.39-1.25,4.19-.13,4.49,2.86,4.23,6.08,2.23,1.97,4.43,3.98,6.6,6.03.3-.15.61-.31.94-.48-.26.23-.52.44-.77.64,43.14,40.76,73,95.79,81.53,158.05,12.99,94.81-25.6,185-94.19,242.19-1.2,3-1.92,5.66-.34,6.7-2.25,3.8-4.51,7.62-6.76,11.46,21.6-15.81,40.74-34.64,57.12-56.22,21.79-28.71,37.59-60.83,46.95-95.47,9.7-35.87,12.03-72.87,6.95-109.99-4.66-34.01-15.34-66.36-31.74-96.16-14.21-25.81-32.32-49.02-53.9-69.12-3.19,2.37-6.17,4.63-6.45.24l4.69-1.86c-1.92-1.76-3.87-3.5-5.84-5.2-8.63-7.47-17.66-14.36-27.03-20.66-2.32,2.42-4.57,4.96-6.78,7.54,8.11,5.41,15.93,11.25,23.4,17.5Z"/>
          <path class="cls-6" d="m12.46,341.97c2.43,1.29,4.15,1.29,5.44.73-2.36-9.4-4.24-19.01-5.58-28.8-.82-6.01-1.44-12.02-1.86-18.01-3.11,1.24-6.34,2.61-9.56,3.86.42,5.16.98,10.32,1.69,15.49,1.52,11.1,3.69,22.03,6.48,32.75,2-1.43,3.54-3.27,3.38-6.02Z"/>
          <path class="cls-6" d="m10.36,259.76c2.88-44.58,16.91-87.62,41.2-125.73-.14-.29-.3-.56-.47-.82-.73-1.11-1.7-2.04-2.3-3.06-1.2-2.04-.94-4.42,5.41-9.32-.5.03-.99.06-1.46.13l1.6-.23s-.09.07-.14.11c2.47-.14,5.28-.03,7.51-1.63.26-.36.52-.71.79-1.07-2.34-.48-.46-3.34,1.82-6.43,2.39-3.23,5.21-6.71,4.2-7.94,2.29.41,3.33,1.12,3.71,2.02,20.9-25.03,45.77-45.71,73.51-61.38-.28-1.78-1.09-3.2-3.37-3.26,6.88-3.84,7.2,4.19,13.91-3.73-1.03-1.18-2.17-2.3-4.03-.64,3.35-8.68,7.53-9.77,12.46-9.66,4.92.11,10.56,1.42,16.63-2.45-1.79,3.74-6.5,5.31-11.45,7.07-3.85,1.37-7.84,2.86-10.74,5.59,25.49-12.53,53.11-21.02,82.08-24.98,5.25-.72,10.53-1.27,15.81-1.69.24-.47.46-.93.71-1.4l-4.96-.87c2.91-.47,5.9-3.3,9.24-5.46,3.33-2.15,6.96-3.59,10.51-.92-6.47.22-8.63,2.03-10.35,4.52-.83,1.2-1.56,2.56-2.57,3.94,6.1-.42,12.21-.63,18.27-.63,50.75,0,98.73,14.5,139.65,39.77,2.66-2.74,5.42-4.98,8.59-6.44C381.95,15.12,330.57,0,277.9,0c-12.62,0-25.41.87-38.01,2.6-16.85,2.31-33.27,6.09-49.16,11.3-1.07.53-2.19.89-3.33,1.11-17.92,6.13-35.16,14.09-51.58,23.86-30.85,18.33-57.54,42.19-79.33,70.9-7.41,9.76-14.12,19.91-20.12,30.42.71-.18,1.45-.37,2.24-.56-.94.47-1.88,1-2.81,1.57-11.38,20.12-20.18,41.55-26.26,64.04-4.54,16.78-7.46,33.82-8.77,51,2.57,3.42,5.7,3.83,9.59,3.53ZM206.45,15.57c-10.96,9.02-4.85,2.33-13.03,1.34l13.03-1.34Z"/>
          <path class="cls-6" d="m425.32,503.59c.49-1.27.99-2.56,1.5-3.81-15.62,10.53-32.46,19.48-50.33,26.58-7.69,5.08-15.63,11.16-19.74,6.96-.86.26-1.72.52-2.58.78-4.67,3.93-5.7,8.15-7.61,12.32,24.75-6.31,48.36-15.97,70.52-28.86.37-2.45.68-4.98.9-7.62,2.55,5.79,4.83.13,7.34-6.35Z"/>
          <path class="cls-6" d="m441.68,492.05c-.48-.81-1.03-.6-1.09-2.21-.76.58-1.52,1.17-2.29,1.74,1.43-.11,2.71-.05,3.37.47Z"/>
          <path class="cls-6" d="m313.89,542.8c-12.16,1.67-24.5,2.51-36.68,2.51-32.73,0-64.29-6.03-93.56-17.09l-2.39,1.73.33-2.52c-10.93-4.23-21.53-9.16-31.74-14.75-.73.48-1.58,1.25-2.59,2.39l1.31-3.1c-59.95-33.2-106.39-88.86-127.04-156.25-2.9.96-5.43,1.99-7.4,3.12l6.5-6.11c-.05-.17-.1-.33-.14-.5-3.08.13-6.58.61-9.82,1.59,5.69,20.01,13.6,39.27,23.67,57.56,15.85,28.79,36.54,54.34,61.5,75.95,50.5,43.72,114.92,67.79,181.38,67.79,12.43,0,25.02-.85,37.43-2.53,2.59-3.53,4.78-7.25,6.15-10.84-2.29.37-4.59.72-6.9,1.04Z"/>
          <path class="cls-6" d="m3.79,287.14c-3.25,4.09-1.39,6.61-1.08,9.29l7.61-2.82c-.34-5.5-.51-10.99-.51-16.46-3.3,1.08-6.65,2.09-9.8,3.34.03,2.15.08,4.31.16,6.46,1.1-.06,2.3-.01,3.63.18Z"/>
          <path class="cls-6" d="m148.94,246.16c12.57-51.23,55.3-92.19,110.66-99.77,6.01-.82,12.11-1.24,18.14-1.24,45.83,0,87.08,23.91,110.89,60.5,1.09.07,2.1-.55,3.03-1.56-6.93-10.77-15.4-20.58-25.24-29.1-24.69-21.37-56.19-33.15-88.68-33.15-6.17,0-12.43.43-18.59,1.27-35.91,4.92-67.76,23.53-89.67,52.4-12.04,15.86-20.28,33.78-24.46,52.66l.04.05c1.45-.75,2.73-1.44,3.88-2.07Z"/>
          <path class="cls-6" d="m157.32,340.47c.93-.62,2.13-1.32,2.77-1.95-.27-.51-.53-1.03-.79-1.54-.18-.04-.38-.07-.6-.1l.43-.24c-6.34-12.65-10.74-26.47-12.75-41.11-1.97-14.39-1.53-28.57.99-42.12-1.5,1.03-2.74,1.75-3.8,2.25-1.88,11.57-2.24,23.44-1.04,35.37.63-.29,1.26-.58,1.89-.88-.64.41-1.26.81-1.86,1.2.16,1.54.33,3.08.54,4.63,2.15,15.68,7,30.71,14.2,44.49Z"/>
          <path class="cls-6" d="m161.81,341.7c-1.58.2-2.77.31-3.66.35.21.39.43.78.64,1.17l3.33-.95c-.11-.19-.21-.38-.32-.57Z"/>
          <path class="cls-6" d="m163.72,345.02c-.86.78-1.71,1.56-2.55,2.33,7.33,12.22,16.59,23.31,27.54,32.79,1.67,1.45,3.38,2.85,5.11,4.2,1.1-.59,2.2-1.17,3.32-1.74-13.35-10.25-24.73-22.99-33.42-37.58Z"/>
          <path class="cls-6" d="m388.88,206.04c10.21,15.81,17.17,33.96,19.86,53.56,4.8,35.04-4.33,69.85-25.71,98.02-21.38,28.17-52.45,46.33-87.49,51.12-6.01.82-12.11,1.24-18.14,1.24-28.66,0-55.52-9.35-77.45-25.3-.72.92-1.45,1.8-2.18,2.63,23.12,16.81,50.99,25.97,79.63,25.97,6.17,0,12.43-.43,18.58-1.27,35.91-4.92,67.76-23.53,89.67-52.4,21.91-28.87,31.27-64.55,26.36-100.46-2.67-19.52-9.53-38.04-19.92-54.39-1.18.91-2.28,1.45-3.21,1.28Z"/>
          <path class="cls-6" d="m432.51,173.35c.56-.34,1.08-.7,1.57-1.08-1.77-2.62-3.6-5.2-5.5-7.74-.21-.02-.42-.05-.64-.1-.07-.35-.11-.66-.15-.95-5.96-7.84-12.54-15.23-19.72-22.11-.74.14-1.52.29-2.32.49,10.01,9.46,19,20.01,26.76,31.49Z"/>
          <path class="cls-6" d="m412.82,406.38c-.21,1.36-.1,2.11.23,2.45,1.88-1.94,3.71-3.93,5.5-5.96-1.28.55-2.52.98-3.61,1.24-.7.76-1.41,1.52-2.12,2.27Z"/>
          <path class="cls-6" d="m92.27,301.69c-3.59-27.55-.95-54.52,6.83-79.48l-.83-.16c-.31-.05-.62-.15-.93-.29-.68,2.2-1.34,4.41-1.94,6.65-6.56,24.27-8.16,49.32-4.76,74.44.02-.02.04-.03.06-.04.52-.36,1.05-.74,1.57-1.12Z"/>
          <path class="cls-6" d="m427.2,389.33l.61.5c.23.35.39.71.53,1.06,14.53-19.33,25.1-40.91,31.38-64.17,3.24-12,5.27-24.18,6.09-36.47-.63.52-1.26,1.03-1.91,1.54-2.74,35.96-15.86,69.64-36.69,97.54Z"/>
          <path class="cls-6" d="m91.04,305.6c.33,2.2.69,4.39,1.1,6.57.56-.21,1.12-.41,1.68-.62-.41-2.23-.78-4.49-1.11-6.75-.59.28-1.15.55-1.67.8Z"/>
          <path class="cls-6" d="m152.26,415.94c-.52.4-1.04.8-1.57,1.22,1.11,1.01,2.23,2,3.36,2.98,21.84,18.91,47.51,32.4,74.93,39.72l.44-1.73c-28.96-7.78-55.35-22.42-77.16-42.18Z"/>
          <path class="cls-6" d="m456.79,224.79c.7.15,1.38.35,2.02.57-2.79-9.72-6.36-19.16-10.64-28.25l-1.46,1.2c4,8.49,7.38,17.33,10.08,26.48Z"/>
          <path class="cls-6" d="m370.88,441.55c1.01-.57,2.01-1.15,3.01-1.75,1.67-.99,3.32-2.02,4.96-3.06-.07-.68-.17-1.34-.19-2.04-22.23,14.35-47.85,24.18-75.74,28-8.48,1.16-17.09,1.75-25.6,1.75-15.1,0-29.85-1.85-44.01-5.33-.83.49-1.68.91-2.53,1.21,15.12,3.88,30.74,5.89,46.54,5.89,8.58,0,17.27-.59,25.84-1.77,22.86-3.13,44.55-10.24,64.57-21.14.81-.65,1.8-1.26,3.02-1.83l.13.06Z"/>
          <path class="cls-6" d="m104.81,206.44c-.65-.03-1.31-.06-1.96-.08-1.92,4.72-3.65,9.52-5.2,14.4.49.48.99.93,1.51,1.25,1.66-5.29,3.54-10.48,5.65-15.57Z"/>
          <path class="cls-6" d="m130.08,392.06c-14.62-18.77-25.79-40.42-32.44-64.05-.46.43-.96.84-1.49,1.23,6.58,23.12,17.5,44.72,32.15,63.67.64-.29,1.24-.58,1.78-.86Z"/>
          <path class="cls-6" d="m446.42,197.69l1.39-1.36c-3.55-7.45-7.6-14.67-12.1-21.59l-1.49,1.19c4.53,6.94,8.61,14.21,12.2,21.76Z"/>
          <path class="cls-6" d="m131.93,394.4c-.94-.14-1.87-.29-2.81-.44,5.67,7.23,11.88,14.08,18.61,20.46.52-.4,1.05-.8,1.58-1.2-6.2-5.86-12.02-12.15-17.38-18.81Z"/>
          <path class="cls-6" d="m108.21,197.44c.05.31.12.61.18.89.63-1.33,1.27-2.65,1.92-3.97-2.22-.36-2.39,1.44-2.11,3.08Z"/>
          <path class="cls-6" d="m462.69,252.21c1.17,8.52,1.73,16.99,1.74,25.36l1.78,1.04c.02-5.1-.17-10.22-.56-15.34l-.13.13-1.21-1.03,1.2-.78c-.28-3.2-.63-6.41-1.07-9.61-1.13-8.23-2.8-16.33-4.97-24.26-.5.25-1.07.44-1.68.6,2.13,7.77,3.78,15.74,4.9,23.89Z"/>
          <path class="cls-6" d="m358.35,109.16c.87.42,1.73.85,2.59,1.28.22-.61.44-1.19.66-1.76-1.55-.77-3.12-1.53-4.69-2.26-.11.57-.23,1.13-.37,1.67.8.16,1.39.54,1.82,1.07Z"/>
          <path class="cls-6" d="m111.01,192.98c.48-.94.97-1.87,1.46-2.8-1.07.5-2.07,1.3-1.46,2.8Z"/>
          <path class="cls-6" d="m385.05,432.62c3.14-2.18,6.21-4.46,9.2-6.81,1.49-2,2.57-3.66,2.79-4.63-3.6,3.01-7.33,5.88-11.16,8.62-.19.84-.49,1.81-.83,2.82Z"/>
          <path class="cls-6" d="m133.67,158.49c-1.09.47-2.12.77-3.08.85-1.11,1.38-2.2,2.77-3.27,4.18-6.04,7.96-11.39,16.31-16.06,24.99.82.15,1.44.26,1.91.37,5.83-10.78,12.71-20.96,20.51-30.39Z"/>
          <path class="cls-6" d="m404.53,140.72l3,.13c-2.1-2-4.25-3.95-6.46-5.86-11.7-10.13-24.5-18.7-38.07-25.6l-1.2,1.49c15.59,7.93,29.97,18,42.73,29.84Z"/>
          <path class="cls-6" d="m107.99,199.18c-.15-.2-.33-.45-.54-.75-.3-.29-.55-.57-.76-.83-1.15,2.45-2.24,4.93-3.29,7.44.53.33,1.05.66,1.58,1,.96-2.31,1.96-4.59,3.01-6.85Z"/>
          <path class="cls-6" d="m109.29,192.27c-.11.21-.21.42-.32.63.17-.04.35-.08.52-.1-.04-.17-.11-.35-.2-.53Z"/>
          <path class="cls-6" d="m421.26,399.76c1.22-1.43,2.42-2.88,3.6-4.36l1.21-4.56c-1.93,2.53-3.92,5-5.97,7.43.3.56.69,1.06,1.16,1.5Z"/>
          <path class="cls-6" d="m144.66,142.65c-.83.81-1.65,1.63-2.46,2.46-1.36,1.39-2.69,2.8-4.01,4.23.24.64.5,1.25.7,1.92,17.82-19.55,40.08-35.6,66.07-46.43,7.9-3.29,16.08-6.06,24.3-8.23,14.6-3.86,29.33-5.84,43.91-6.1.68-.69,1.39-1.31,2.14-1.82-15.6.12-31.23,2.17-46.5,6.2-8.3,2.19-16.55,4.99-24.53,8.31-21.3,8.87-40.45,21.28-57.02,36.94-.62.84-1.42,1.68-2.45,2.54l-.15-.03Z"/>
        </g>
        <g class="cls-3">
          <g class="cls-2">
            <rect x="273.92" y="208.77" width="69.76" height="143.62" transform="translate(617.6 561.15) rotate(180)"/>
            <path d="m320.22,359.43c-.07,0-.14,0-.21,0h-66.98c-.05,0-.11,0-.16,0h0c-1.17-.02-2.28-.46-3.1-1.23-.85-.8-1.32-1.87-1.32-3.02v-108.75s-43.77-.05-43.77-.05c-2.51,0-4.55-1.92-4.55-4.28l-.05-32.67c0-2.36,2.04-4.28,4.55-4.28l136.99.55c2.51,0,4.54,1.92,4.54,4.28l-.09,32.18c0,2.35-2.04,4.27-4.55,4.27h-19.59s-24.11,7.45-24.11,7.45v38c1.42-.97,3.14-1.53,4.99-1.53,4.93,0,8.95,4.01,8.95,8.93s-4.01,8.93-8.95,8.93c-1.86,0-3.58-.57-5.01-1.54v31.2s24.56,13.57,24.56,13.57c1.76.98,2.59,3.09,1.99,5.01-.56,1.81-2.23,2.99-4.14,2.99Zm-67.92-120.2c2,0,3.63,1.62,3.63,3.63v108.79c0,.4.32.72.73.72h53.27c.3,0,.4-.39.14-.54l-14.97-8.17c-2.5-1.36-3.63-1.65-3.63-3.63v-89.35c0-1.63,1.08-3.07,2.65-3.53l24.91-7.21c.44-.16,2.2-.73,2.9-.73h17.41c.4,0,.73-.32.73-.73v-25.39c0-.4-.32-.72-.72-.72h-130.55c-.4,0-.73.33-.73.73v25.39c0,.39.32.71.71.71h43.53Zm45.5,100.39h0s0,0,0,0Zm41.17-97.5v.02-.02Zm-131.73-.04h0s0,0,0,0Zm-2.56-2.82h0,0Z"/>
          </g>
        </g>
      </g>
      <g>
        <polygon points="165.56 82.81 173.83 86.87 174.07 76.45 165.6 72.51 165.56 82.81"/>
        <polygon points="356.81 70.64 358.55 79.68 367.01 73.6 365.06 64.47 356.81 70.64"/>
        <path d="m363.32,97.52c3.73-4.68,7.21-10.72,10.44-18.13,1.48-3.39,2.8-6.94,3.96-10.64,1.16-3.7,2.03-7.29,2.61-10.79.58-3.5.85-6.82.82-9.96-.03-3.14-.49-5.86-1.39-8.15l-8.21-3.58c-1.69.66-3.48,1.84-5.37,3.53-1.89,1.69-3.79,3.73-5.69,6.11-1.91,2.38-3.76,5.08-5.57,8.08-1.81,3-3.4,6.1-4.79,9.28-1.54,3.53-2.92,7.22-4.14,11.05-1.22,3.84-2.16,7.59-2.81,11.26-.65,3.67-.96,7.12-.93,10.35.03,3.12.51,5.81,1.41,8.08l8.28,3.61c.15-.08.33-.18.6-.28,3.45-1.87,7.05-5.15,10.78-9.83Zm-13.23,4.55c-.4.16-.68.24-.85.25-.35-.73-.81-1.84-1.41-3.33-.59-1.49-.96-3.55-1.1-6.17-.14-2.62.12-5.92.78-9.92.67-3.99,2.11-8.93,4.34-14.8,1.27-2.91,2.7-5.76,4.3-8.57,1.6-2.81,3.32-5.37,5.16-7.7,1.84-2.33,3.85-4.4,6.01-6.22,2.16-1.82,4.44-3.19,6.84-4.13.35.9.77,1.99,1.25,3.26.48,1.28.81,2.95.99,5,.21,1.99.21,4.07,0,6.25-.2,2.18-.55,4.4-1.04,6.66-.49,2.26-1.08,4.52-1.77,6.77-.69,2.25-1.39,4.38-2.1,6.38-1.27,2.91-2.71,5.78-4.32,8.62-1.61,2.84-3.33,5.45-5.16,7.83-1.83,2.38-3.75,4.42-5.78,6.13-2.03,1.71-4.08,2.94-6.15,3.69Z"/>
        <path d="m305.87,78.28c1.46.28,2.58.55,3.37.81.79.26,1.23.39,1.3.4l.56-6.32c-.07,0-.52.03-1.35.11-.82.08-2.06.16-3.7.24l.41-7.13c2.41.44,4.03.93,4.88,1.46l.56-6.32c-.54.18-1.23.29-2.09.33s-1.84.08-2.96.14l.63-7.11c-.02-.61,0-1.21.05-1.82l.16-1.81.11-3.75c.15-6.05-.24-11.63-1.18-16.72-.94-5.09-1.86-9.08-2.76-11.96l-.2-.36-7.9-.7-.26.32c-.65,1.3-1.38,2.87-2.18,4.69-.81,1.82-1.64,3.88-2.49,6.19-.85,2.31-1.63,4.87-2.33,7.68-.71,2.81-1.31,5.79-1.82,8.92l-.56,3.69-.95,10.7c-2.69-.44-4.51-.87-5.46-1.28l-.56,6.32c.94-.3,2.77-.44,5.5-.42l-.96,6.97c-.82-.22-1.54-.4-2.17-.53-.63-.13-1.13-.25-1.5-.36-.52-.12-.93-.23-1.22-.34l-.56,6.32c.07,0,.19-.02.35-.08.16-.06.33-.08.52-.07s.4,0,.63-.06l3.44-.26c-.29,3.24-.67,6.2-1.13,8.89-.44,2.5-.76,4.15-.98,4.97l6.06.54c.09-1.14.12-2.95.09-5.44-.03-2.62.1-5.58.39-8.9l1.02.09c.99-.06,1.98-.05,2.95.04l2.93.26,3.05.27c.98.09,1.91.25,2.8.48l1.02.09c-.05.6-.13,1.2-.22,1.8-.09.6-.16,1.2-.22,1.8-.37,2.47-.68,4.68-.93,6.63-.23,1.83-.49,3.14-.77,3.96l6.17.55c.09-1.14.11-2.89.07-5.27-.04-2.51.08-5.38.37-8.61Zm-4.01-4.79l-4.08-.14-5.98-.53-3.93-.58c0-.83.03-1.63.1-2.38l.21-2.37.14-2.83c2.35.06,4.8.16,7.37.31,2.56.15,4.97.41,7.21.76l-1.03,7.76Zm1.38-11.71c-2.27-.05-4.7-.19-7.3-.42s-5.02-.52-7.26-.87l.53-7.21.55-3.58c.26-2.93.74-5.76,1.44-8.49.7-2.74,1.51-5.25,2.44-7.55.92-2.3,1.89-4.39,2.89-6.27,1-1.88,1.93-3.42,2.8-4.63.89,1.97,1.78,4.47,2.69,7.5.91,3.03,1.49,6.49,1.75,10.37.06,1.06.13,2.17.22,3.31.09,1.14.12,2.32.08,3.52l-.08,3.51c-.03,1.21-.08,2.41-.15,3.62-.07,1.2-.16,2.41-.26,3.61l-.32,3.6Z"/>
        <path d="m318.17,83.53c.66-.15,1.91-.53,3.73-1.14,1.83-.61,3.86-1.67,6.11-3.19,2.24-1.52,4.51-3.56,6.81-6.11,2.3-2.56,4.3-5.92,6-10.1.43-1.14.87-2.39,1.31-3.76.45-1.37.85-2.83,1.22-4.37.76-3.16,1.12-6.35,1.08-9.59-.04-3.23-.41-6.28-1.13-9.13-.71-2.85-1.7-5.44-2.97-7.77-1.27-2.32-2.77-4.24-4.51-5.74l-8.04-1.93c-.25,1.03-.67,3.04-1.28,6.04s-1.3,6.53-2.08,10.57c-.78,4.05-1.67,8.38-2.66,13-.99,4.62-2,9.06-3.03,13.32-.79,3.31-1.61,6.53-2.44,9.67-.83,3.14-1.62,6.02-2.37,8.64s-1.41,4.83-2,6.63c-.54,1.64-.95,2.76-1.23,3.36l5.8,1.39c.18-.81.38-2.01.59-3.64.22-1.73.58-3.78,1.07-6.15Zm4.08-19.41c1.11-4.63,2.19-9.11,3.23-13.44,1.11-4.63,2.31-9.06,3.59-13.3,1.28-4.24,2.34-7.73,3.18-10.48.94.62,2.05,1.66,3.33,3.13,1.28,1.47,2.39,3.37,3.35,5.7s1.57,5.12,1.84,8.37c.27,3.25-.1,6.97-1.11,11.16-.81,3.38-2.01,6.39-3.58,9.05-1.58,2.65-3.32,4.91-5.22,6.79s-3.86,3.35-5.88,4.41c-2.02,1.07-3.87,1.67-5.55,1.81.77-4.17,1.71-8.56,2.82-13.19Z"/>
        <path d="m418.76,143.29c1.87-.7,3.8-1.61,5.8-2.73,1.99-1.12,3.93-2.53,5.79-4.23,1.87-1.91,3.33-4.03,4.37-6.36,1.04-2.33,2.01-4.68,2.9-7.07.89-2.39,1.89-4.75,3.02-7.1,1.12-2.35,2.73-4.47,4.81-6.37,1.04-.95,2.23-1.77,3.55-2.47s2.64-1.26,3.96-1.69c1.32-.43,2.53-.75,3.66-.95,1.12-.2,2-.34,2.64-.41,2.17-.37,3.89-.53,5.15-.47,1.26.06,1.89.03,1.9-.07l-.28-2.46-2.93-3.21c-1.22.31-2.69.72-4.39,1.22-1.71.5-3.48,1.09-5.32,1.77-1.85.68-3.67,1.49-5.47,2.43-1.8.94-3.42,2.06-4.84,3.37-2.03,1.85-3.61,3.97-4.74,6.36-1.13,2.39-2.15,4.83-3.05,7.31-.9,2.48-1.89,4.89-2.97,7.23-1.08,2.34-2.58,4.39-4.5,6.14-2.46,2.15-5.06,3.68-7.78,4.61-2.72.93-5.21,1.56-7.46,1.91-2.25.34-4.07.5-5.46.46-1.39-.04-1.98,0-1.78.12l.13.7,4.23,4.64c1.03-.26,2.3-.59,3.83-.99,1.62-.42,3.37-.99,5.24-1.69Z"/>
        <path d="m403.56,135.86c-1.41-.79-2.91-1.76-4.51-2.91l-1.21-1.02c.39-.46.97-1.23,1.73-2.32.76-1.08,1.7-2.37,2.81-3.86,1.11-1.49,2.33-3.12,3.68-4.9,1.35-1.78,2.83-3.62,4.44-5.52l3.92-5,8.33-9.88,4.19-4.62c1.51-1.79,3.03-3.5,4.55-5.13,1.52-1.63,2.91-3.1,4.17-4.42,1.26-1.31,2.38-2.47,3.36-3.46.99-.99,1.72-1.78,2.21-2.36,1.96,1.65,3.49,3.22,4.58,4.68,1.09,1.46,1.66,2.22,1.72,2.27l2.78-3.29-18.63-15.7-2.78,3.29c.06.05.36.21.93.48.56.27,1.22.63,1.98,1.08.76.44,1.57.95,2.42,1.52.85.57,1.63,1.15,2.32,1.73-.09.22-.24.46-.46.72s-.42.56-.61.9l-4.61,6.34c-2.08,2.7-4.42,5.68-7.04,8.96-2.62,3.28-5.26,6.51-7.94,9.68-1.36,1.72-2.76,3.38-4.2,4.98-1.45,1.6-2.86,3.15-4.23,4.66l-7.42,8.27-5.47,5.61c-.3.24-.56.49-.78.75s-.43.45-.63.58l-.95-.8c-1.23-1.24-2.34-2.44-3.32-3.62-.99-1.18-1.57-1.94-1.76-2.3l-2.66,3.15,18.63,15.7,2.66-3.15c-.05.06-.78-.31-2.18-1.1Z"/>
        <path d="m379.85,115.96c1.38-.06,3.23-.16,5.56-.29,2.53-.18,4.6-.12,6.2.19,1.33.25,2.04.39,2.15.42l-.51-6.36c-.81.29-1.66.56-2.53.81-.77.23-1.64.43-2.61.62-.97.19-1.97.31-2.99.38l-9.51.79c-1.22-.06-2.29-.07-3.21-.03,1.05-1.93,2.39-4.35,4.01-7.25,1.63-2.9,3.52-6.05,5.67-9.42l14.98-23.51c1.46-2.29,2.9-4.45,4.31-6.46,1.41-2.01,2.71-3.83,3.88-5.46,1.17-1.63,2.19-3.02,3.06-4.17.87-1.15,1.48-2.01,1.85-2.58l-5.16-3.29c-.06.23-.18.49-.36.78s-.36.64-.54,1.06l-4.15,7.57c-1.82,3.14-3.91,6.67-6.27,10.58-2.36,3.92-4.78,7.82-7.25,11.7-1.2,2.02-2.46,4.01-3.81,5.97-1.34,1.97-2.64,3.85-3.87,5.66l-6.8,10.04-5.11,6.96c-.31.34-.55.66-.74.94-.14.22-.28.39-.42.53l7.3,4.65,2.9-.49c1.27-.17,2.6-.29,3.99-.35Z"/>
        <path d="m152.02,115.54c-2.71-3.15-5.51-6.48-8.4-9.98-2.89-3.5-5.49-6.73-7.82-9.71-1.96-2.5-3.8-4.94-5.53-7.33-1.73-2.39-3.3-4.61-4.72-6.67-1.42-2.06-2.68-3.88-3.78-5.46-1.1-1.59-2-2.83-2.7-3.72,2.08-1.15,3.85-1.89,5.31-2.22,1.47-.33,2.84-.42,4.11-.27l-.14-6.8-25.24,19.78,7.01,1.42c-.29-1.59.11-3.13,1.21-4.62,1.09-1.48,2.14-2.75,3.13-3.82.93,1.19,2.36,2.92,4.29,5.2,1.93,2.28,4.15,4.9,6.67,7.87,2.52,2.97,5.19,6.16,8,9.57,2.82,3.41,5.55,6.81,8.21,10.2,2,2.56,3.96,5.08,5.86,7.57,1.9,2.49,3.64,4.83,5.2,7.01,1.57,2.18,2.88,4.08,3.95,5.69,1,1.51,1.67,2.65,2.03,3.44l4.69-3.68c-.77-.97-2.15-2.64-4.15-5.02-2.09-2.49-4.5-5.31-7.21-8.46Z"/>
        <path d="m190.94,93.8c-1.49-5.79-4.22-12.21-8.19-19.25-1.82-3.22-3.86-6.41-6.11-9.56-2.26-3.15-4.61-6.01-7.05-8.58-2.45-2.57-4.93-4.78-7.46-6.66-2.53-1.87-4.98-3.13-7.34-3.79l-7.8,4.4c-.49,1.75-.63,3.89-.42,6.41.21,2.53.69,5.27,1.45,8.22.76,2.96,1.79,6.06,3.1,9.31,1.31,3.25,2.82,6.39,4.53,9.41,1.89,3.36,4,6.68,6.33,9.96,2.33,3.29,4.76,6.29,7.3,9.02,2.54,2.73,5.11,5.06,7.71,6.97,2.51,1.85,4.95,3.1,7.31,3.74l7.86-4.44c.02-.17.06-.37.14-.65.58-3.88.13-8.73-1.36-14.52Zm-4.33,13.3c-.12.41-.22.69-.32.83-.79-.16-1.96-.46-3.51-.88-1.55-.43-3.41-1.37-5.59-2.83-2.18-1.46-4.66-3.66-7.45-6.6-2.79-2.94-5.86-7.06-9.2-12.37-1.56-2.76-2.98-5.63-4.26-8.59-1.28-2.96-2.29-5.88-3.04-8.76-.75-2.87-1.2-5.72-1.35-8.54-.15-2.82.12-5.47.82-7.94.93.26,2.05.58,3.36.97,1.31.39,2.84,1.13,4.59,2.22,1.71,1.03,3.38,2.28,5,3.75,1.62,1.47,3.18,3.09,4.69,4.84,1.51,1.75,2.96,3.58,4.34,5.49,1.38,1.91,2.66,3.75,3.83,5.52,1.56,2.76,2.99,5.65,4.29,8.64,1.3,3,2.35,5.94,3.15,8.83.8,2.89,1.27,5.66,1.42,8.31.14,2.65-.11,5.03-.76,7.13Z"/>
        <path d="m219.83,89.09c.62-2.22.94-4.64.95-7.27.02-2.63-.53-5.4-1.63-8.29-1.36-3.36-3.44-6.23-6.25-8.6-2.81-2.37-5.66-3.93-8.55-4.69l-1.89-.49.2-.44c.68-.99,1.37-2.12,2.07-3.39.69-1.27,1.28-2.67,1.76-4.18s.75-3.11.8-4.79c.05-1.68-.27-3.43-.97-5.27-.62-1.62-1.5-3.05-2.66-4.26-1.15-1.22-2.43-2.27-3.82-3.16-1.39-.88-2.78-1.59-4.16-2.12-1.38-.53-2.64-.9-3.77-1.11l-2.25-.48-8.73,3.32c.15.19.29.44.41.75s.3.68.53,1.07l3.59,7.85,4.62,11.21c.85,2.02,1.71,4.12,2.57,6.3.87,2.18,1.73,4.39,2.59,6.65s1.63,4.39,2.39,6.61c.76,2.22,1.54,4.38,2.35,6.5l3.99,11.46,2.53,8.25c.09.45.2.84.32,1.15.09.24.14.46.17.65l7.67-2.91c.86-1.19,1.76-2.61,2.71-4.29,1.02-1.8,1.84-3.81,2.46-6.03Zm-26.04-35.75c-.78-2.05-1.5-4.06-2.17-6.03-.67-1.97-1.24-3.79-1.71-5.47l-2.06-6.37c.07-.03.13-.03.18,0,.05.02.11.02.18,0l2.82.14c.86.16,1.84.35,2.92.59,1.09.23,2.2.62,3.32,1.16,1.13.54,2.18,1.25,3.15,2.14.98.88,1.81,2.04,2.52,3.47.64,1.69.81,3.39.49,5.09-.32,1.7-.87,3.26-1.65,4.69-.78,1.43-1.69,2.66-2.74,3.71-1.04,1.04-1.95,1.83-2.71,2.36l-.5-.05-2.05-5.4Zm16.95,42.41l-2.33-5.18c-.76-1.57-1.51-3.33-2.24-5.27s-1.53-3.92-2.38-5.95l-2.63-6.28-3.1-8.16c.09-.19.2-.32.34-.37,1.53-.18,3.41-.04,5.62.41,2.21.45,4.4,1.52,6.56,3.2,2.51,1.96,4.35,4.49,5.53,7.6,1.14,3.85,1.15,7.56.03,11.14-1.12,3.58-2.93,6.53-5.41,8.84Z"/>
        <path d="m277.45,87.45c-.72-.93-1.51-1.99-2.4-3.17-.89-1.18-1.73-2.31-2.53-3.39-.8-1.08-1.29-1.76-1.46-2.05-.62-1.16-1.23-2.22-1.83-3.16-.6-.94-1.05-1.81-1.34-2.63,1.17-1.53,2.21-3.27,3.12-5.24.91-1.96,1.64-4.05,2.2-6.25.55-2.2.95-4.43,1.2-6.68.24-2.25.28-4.47.12-6.66l-.18-2.37c-.27-3.54-.96-6.86-2.06-9.96-1.11-3.1-2.49-5.91-4.16-8.43-1.67-2.52-3.58-4.69-5.72-6.5-2.15-1.81-4.39-3.19-6.74-4.15l-6.67.51c.34,1.49.75,4.11,1.22,7.86.47,3.75.94,8.09,1.39,13.02.45,4.93.89,10.16,1.31,15.7s.78,10.78,1.08,15.72c.3,4.94.5,9.3.6,13.08.09,3.64.09,6.18-.02,7.66l6.07-.46c-.06-.69-.22-1.78-.47-3.31-.28-1.64-.57-3.55-.89-5.73.8-.44,1.63-.94,2.5-1.5.87-.56,1.79-1.37,2.77-2.43.81.77,1.66,1.69,2.54,2.76.88,1.07,1.57,2,2.09,2.8.34.51.67,1.11.99,1.8.32.7.63,1.39.95,2.09.32.7.61,1.3.88,1.81.19.36.35.63.49.8l5.99-.46c-.22-.14-.55-.49-1.03-1.1Zm-12.41-18.26c-1.28,1.61-2.6,2.89-3.97,3.83-.51.34-.96.62-1.36.84-.4.22-.78.46-1.14.71-.55-4.2-1.01-8.79-1.39-13.76s-.74-9.72-1.08-14.24c-.12-4.54-.32-8.93-.61-13.19-.29-4.26-.42-7.83-.42-10.71.93.23,2.2.78,3.82,1.64,1.62.86,3.28,2.23,4.97,4.11,1.69,1.88,3.21,4.34,4.54,7.38,1.33,3.04,2.17,6.9,2.53,11.57.24,3.16.12,6.09-.36,8.78-.48,2.69-1.2,5.13-2.17,7.32-.97,2.2-2.09,4.1-3.37,5.71Z"/>
        <path d="m248.16,88.47c-1.49.63-3.18,1.22-5.07,1.78l-1.55.33c-.13-.59-.38-1.52-.77-2.79-.39-1.27-.83-2.8-1.32-4.58-.5-1.79-1.03-3.76-1.61-5.91-.58-2.16-1.12-4.45-1.64-6.89l-1.54-6.16-2.69-12.63-1.08-6.14c-.49-2.29-.91-4.54-1.26-6.74-.35-2.2-.66-4.2-.93-6-.27-1.8-.49-3.39-.67-4.78-.18-1.39-.35-2.45-.51-3.19,2.51-.54,4.68-.78,6.5-.75,1.82.04,2.77.05,2.85.03l-.9-4.21-23.83,5.08.9,4.21c.07-.02.39-.16.95-.43.56-.27,1.25-.57,2.07-.9.82-.33,1.71-.66,2.69-.98.97-.32,1.9-.58,2.79-.77.12.21.22.48.29.81s.18.68.34,1.03l2.18,7.53c.86,3.29,1.78,6.98,2.76,11.06.98,4.08,1.91,8.15,2.78,12.21.53,2.13.98,4.25,1.36,6.37.37,2.12.74,4.19,1.09,6.2l1.98,10.93,1.08,7.77c0,.39.04.74.11,1.08s.09.62.07.85l-1.22.26c-1.73.22-3.36.35-4.9.41-1.53.06-2.5.05-2.9-.02l.86,4.04,23.83-5.08-.86-4.04c.02.07-.72.43-2.21,1.05Z"/>
      </g>
    </g>
  </g>
</svg>