<?xml version="1.0" encoding="UTF-8"?>
<svg id="_レイヤー_2" data-name="レイヤー 2" xmlns="http://www.w3.org/2000/svg" viewBox="0 0 45.11 46.21">
  <defs>
    <style>
      .cls-1 {
        fill: #745032;
        stroke: #745032;
        stroke-width: 1.98px;
      }
    </style>
  </defs>
  <g id="_レイヤー_1-2" data-name="レイヤー 1">
    <g id="_肉球のアイコン3" data-name="肉球のアイコン3">
      <path id="_パス_721" data-name="パス 721" class="cls-1" d="m18.16,14.22c2.72,1,6-1.1,7.31-4.68s.17-7.3-2.56-8.29-6,1.1-7.31,4.68c-1.31,3.58-.16,7.3,2.56,8.29Z"/>
      <path id="_パス_722" data-name="パス 722" class="cls-1" d="m7.8,19.93c2.85-.25,4.9-3.49,4.57-7.24s-2.9-6.59-5.75-6.34-4.9,3.49-4.57,7.24c.33,3.75,2.9,6.59,5.75,6.34Z"/>
      <path id="_パス_723" data-name="パス 723" class="cls-1" d="m30,19.8c2.5,1.47,6.1,0,8.03-3.3s1.47-7.15-1.03-8.62-6.1,0-8.03,3.3-1.47,7.15,1.03,8.62Z"/>
      <path id="_パス_724" data-name="パス 724" class="cls-1" d="m43.4,23.7c-1.62-2.36-5.45-2.54-8.55-.41s-4.3,5.77-2.68,8.13,5.45,2.54,8.55.4,4.3-5.77,2.68-8.12Z"/>
      <path id="_パス_725" data-name="パス 725" class="cls-1" d="m26.74,24.15c-.49-3.61-3.8-6.14-7.41-5.65-.92.12-1.8.44-2.59.93-2.04,1.24-3.35,2.86-5.11,3.57s-6.69-1.4-9.76,4.17c-2.17,3.93-.18,8.91,3.88,10.83,3.09,1.46,5.53,1.29,7.32,2.14s3.22,2.84,6.31,4.29c4.06,1.92,9.17.29,10.83-3.88,2.35-5.91-2.41-8.37-2.98-10.18s-.16-3.84-.5-6.21Z"/>
    </g>
  </g>
</svg>