<svg width="72" height="64" viewBox="0 0 72 64" fill="none" xmlns="http://www.w3.org/2000/svg">
<g clip-path="url(#clip0_7725_49054)">
<path d="M63.3586 16.8389V16L62.6421 15.5805L56.2046 4.28562H43.3297L36.2493 0.146257L35.9986 0L28.6676 4.28838H15.7927L9.35518 15.5833L8.63869 16.0028V16.8417L0 32L8.64142 47.1611V48L9.3579 48.4195L15.7954 59.7144H28.6703L35.7507 63.8565L36.0014 64.0028L43.3324 59.7144H56.2073L62.6448 48.4195L63.3613 48V47.1611L72.0027 32L63.3613 16.8389H63.3586ZM8.64142 45.1383L1.15237 32L8.64142 18.8617V45.1411V45.1383ZM55.6271 5.29838L60.9122 14.5705L49.413 7.84546L47.961 5.29838H55.6271ZM46.8086 5.29838L47.6831 6.8327L45.0596 5.29838H46.8086ZM35.9986 1.1673L41.3328 4.28562H30.6645L35.9986 1.1673ZM25.1914 5.29838H26.9404L24.3169 6.8327L25.1914 5.29838ZM16.3729 5.29838H24.039L22.587 7.84546L11.0878 14.5705L16.3729 5.29838ZM9.64123 17.1094L10.0907 16.3229L21.5899 9.59779L17.8658 16.1325H15.4194L16.7271 18.1276L9.64123 30.5567V17.1066V17.1094ZM9.64123 46.8907V33.4405L21.5899 54.4022L10.0907 47.6771L9.64123 46.8907ZM16.3729 58.7016L11.0878 49.4295L22.587 56.1545L24.039 58.7016H16.3729ZM25.1914 58.7016L24.3169 57.1673L26.9404 58.7016H25.1914ZM35.9986 62.8327L30.6645 59.7144H41.3328L35.9986 62.8327ZM43.0627 58.7016H28.9373L23.3171 55.415L9.97086 32L18.3998 17.2115C18.4216 17.2059 18.4461 17.2004 18.4652 17.1977C18.4679 17.5205 18.4815 17.951 18.5006 18.4836C18.5115 18.801 18.5251 19.0604 18.5387 19.3418C18.5523 19.6454 18.5687 19.971 18.5878 20.4208C18.6205 21.2929 18.6504 22.2228 18.6749 23.1776C18.6995 24.1463 18.7131 25.1204 18.7131 26.0697C18.7131 26.7817 18.7076 27.4936 18.6995 28.1863C18.6913 28.8844 18.6749 29.5302 18.6504 30.1125C18.6259 30.6975 18.5959 31.2108 18.5632 31.6357C18.5333 32.0193 18.4951 32.3063 18.4515 32.4829L18.3971 32.7037H20.1025V32.5243C20.1025 32.2484 20.0888 31.7599 20.0643 31.0783C20.0398 30.3719 20.0071 29.5661 19.9662 28.6195C19.9254 27.7144 19.8927 26.7458 19.8682 25.7385C19.8437 24.7368 19.83 23.8096 19.83 22.9845C19.83 22.2891 19.8437 21.6102 19.8682 20.959C19.8927 20.2884 19.9227 19.7006 19.9554 19.157C19.9717 18.87 19.988 18.6961 20.0044 18.5305C20.018 18.3815 20.0316 18.2408 20.0425 18.0366C20.0616 17.7192 20.0725 17.446 20.0779 17.2225C20.4784 17.2998 20.7999 17.3963 21.0423 17.5095C21.3202 17.6419 21.5518 17.8048 21.7343 17.9897L21.8978 18.1552L23.0583 16.1352H19.0128L23.3144 8.58779L28.9346 5.30114H43.06L48.6802 8.58779L52.9818 16.1352H52.8183L52.7175 16.2898L52.6985 16.3256C52.5813 16.6292 52.4506 16.9934 52.3116 17.4074C52.17 17.8268 52.0283 18.307 51.8866 18.8313C51.745 19.3584 51.6224 19.9489 51.5243 20.5892C51.4262 21.2266 51.35 21.9027 51.3009 22.6064L51.2519 23.4426V25.6254C50.7779 25.584 50.4482 25.5343 50.2711 25.4736L50.0368 25.3936V27.3143L50.282 27.2121C50.3937 27.1652 50.6471 27.099 51.2165 27.0438L51.162 28.1918C51.0557 28.1752 50.9577 28.1614 50.8678 28.1504C50.7343 28.1338 50.628 28.1173 50.5381 28.1007C50.4291 28.0842 50.3447 28.0704 50.2848 28.0538L50.0641 27.9986V29.8117H50.2412C50.2875 29.8117 50.3338 29.7979 50.3937 29.7675C50.4019 29.762 50.4128 29.762 50.4264 29.762C50.4836 29.762 50.5436 29.751 50.6035 29.7316L51.1266 29.6433C51.1211 30.2753 51.0966 30.8631 51.053 31.3984C51.0067 31.9476 50.9686 32.3174 50.9386 32.4967L50.9032 32.7065H52.6222V32.5243C52.6167 32.2622 52.5895 31.8648 52.5323 31.3074C52.4805 30.7885 52.4506 30.1925 52.4478 29.5357H52.5214C52.7257 29.5026 52.9328 29.486 53.1371 29.486H53.5621V28.3518H53.1207L52.407 28.3105C52.3988 28.189 52.3961 28.0676 52.3961 27.9545V27.4219L52.377 26.9693C52.674 26.9527 53.009 26.9362 53.3904 26.9196L53.5593 26.9141V25.7441H53.385C53.0308 25.7358 52.6876 25.7247 52.3661 25.7054L52.3443 24.2787L52.3934 23.4757C52.3934 22.8382 52.4424 22.209 52.5405 21.6047C52.6385 20.9948 52.7666 20.4264 52.9191 19.9158C53.0744 19.397 53.2433 18.9196 53.4204 18.4974C53.543 18.2077 53.6601 17.9483 53.7746 17.7275C53.9571 18.0862 54.1478 18.5195 54.3439 19.019C54.5946 19.6537 54.7853 20.3988 54.916 21.2294C54.9487 21.464 54.9869 21.7096 55.0277 21.9579C55.0686 22.2008 55.0958 22.4574 55.1122 22.714L55.1612 23.4895C55.1776 23.7572 55.1912 24.0248 55.1994 24.2842C55.2075 24.5492 55.213 24.8168 55.213 25.079V25.7137C55.1667 25.7165 55.1231 25.7192 55.0849 25.7247C54.8398 25.7441 54.7144 25.7523 54.2895 25.7523H53.9244V26.9251L54.3058 26.9114C54.7853 26.8976 54.8643 26.9003 55.2048 26.9251L55.1449 28.3187L54.4229 28.3601H53.9244V29.4943H54.4475C54.6436 29.4943 54.8098 29.5109 55.0441 29.544H55.1122C55.1122 29.6157 55.1067 29.6875 55.104 29.7565C55.0958 29.8917 55.0904 30.0297 55.0904 30.1594C55.0577 30.714 55.0332 31.2135 55.0168 31.644C55.0032 32.0331 54.9732 32.3201 54.9324 32.4967L54.8806 32.7175H56.6351V32.5354C56.6296 32.276 56.6024 31.8896 56.5452 31.3543C56.4934 30.8658 56.4662 30.2973 56.4607 29.6682C56.6814 29.6958 56.8612 29.7234 56.9919 29.7565C57.278 29.8227 57.2971 29.8227 57.3216 29.8227H57.4987V28.0593H57.3216C57.2998 28.0593 57.2807 28.0593 56.9974 28.1118C56.8584 28.1366 56.6623 28.1697 56.4008 28.2084L56.3654 27.0328C56.8584 27.0907 57.0873 27.1652 57.1908 27.2177L57.4469 27.3501V25.3798L57.199 25.4902C57.1009 25.5343 56.9674 25.5674 56.7985 25.5895C56.665 25.6088 56.5179 25.6281 56.3572 25.6502V24.2539C56.3408 24.1297 56.3327 24.0028 56.3327 23.8758V23.4646L56.2836 22.6368C56.2673 22.3581 56.24 22.0876 56.2128 21.8199L62.0237 32.0166L48.6774 55.4315L43.0572 58.7182L43.0627 58.7016ZM46.8086 58.7016H45.0596L47.6831 57.1673L46.8086 58.7016ZM55.6271 58.7016H47.961L49.413 56.1545L60.9122 49.4295L55.6271 58.7016ZM62.3588 46.8907L61.9093 47.6771L50.4101 54.4022L62.3588 33.4405V46.8907ZM62.3588 30.5595L55.6734 18.8313C55.3792 17.7689 55.1067 16.9245 54.8616 16.3201L54.7444 16.1352H54.1369L50.4128 9.60055L61.912 16.3256L62.3615 17.1121V30.5623L62.3588 30.5595ZM63.3586 18.8617L70.8476 32L63.3586 45.1383V18.8589V18.8617Z" fill="#7C5236"/>
<path d="M25.1641 24.5961L26.5208 26.5995L27.8856 24.2787L26.469 22.2753L25.1641 24.5961Z" fill="#7C5236"/>
<path d="M29.7086 24.8637C29.7086 24.0441 29.6622 23.1942 29.5723 22.336C29.4824 21.4805 29.338 20.6581 29.1473 19.891C28.9566 19.1238 28.7142 18.4091 28.4309 17.7689C28.1421 17.1176 27.7961 16.585 27.4038 16.1849L27.352 16.1324H25.2489L25.1971 16.1849C24.9029 16.4829 24.6332 16.9024 24.3935 17.4267C24.1592 17.9427 23.9521 18.5388 23.7778 19.1983C23.6034 19.8551 23.4645 20.5809 23.3637 21.3536C23.2629 22.1262 23.2139 22.91 23.2139 23.6854C23.2139 24.5409 23.2602 25.4239 23.3501 26.3125C23.44 27.2011 23.5844 28.0621 23.7751 28.8679C23.9658 29.6764 24.211 30.4215 24.5025 31.081C24.7885 31.7268 25.1345 32.2539 25.5295 32.6512L25.5813 32.7037H27.7144L27.7661 32.6319C27.7852 32.6043 27.8125 32.5767 27.8451 32.5409L27.8588 32.5243C28.3982 31.8234 28.8477 30.8106 29.1909 29.5136C29.5315 28.2249 29.7058 26.6602 29.7058 24.8665L29.7086 24.8637ZM28.4745 26.4505C28.4009 27.1597 28.2838 27.8386 28.1312 28.4705C27.9786 29.0997 27.7716 29.6764 27.521 30.1897C27.273 30.6947 26.9815 31.1114 26.6492 31.4315H26.6465C26.6465 31.4315 26.6328 31.4481 26.6274 31.4536C26.5102 31.3432 26.3604 31.197 26.1724 31.0093C25.9381 30.7747 25.693 30.4022 25.4451 29.9027C25.1944 29.4005 24.9601 28.7106 24.7476 27.8579C24.5351 27.0052 24.3962 25.8765 24.3308 24.516C24.3308 23.8234 24.369 23.1169 24.4425 22.416C24.5161 21.7178 24.6359 21.0472 24.7994 20.4236C24.9629 19.8027 25.1781 19.2121 25.4478 18.663C25.6821 18.1828 25.9681 17.7551 26.3005 17.3963C26.4203 17.5178 26.5566 17.6585 26.7064 17.8158C26.9025 18.02 27.1069 18.3208 27.3139 18.7071C27.5237 19.0797 27.7035 19.4964 27.8479 19.9407C27.995 20.3905 28.1176 20.8679 28.2156 21.3618C28.3137 21.8558 28.3927 22.3663 28.4499 22.8768C28.5071 23.3874 28.5535 23.8813 28.5861 24.3422C28.5861 25.0321 28.548 25.7413 28.4745 26.4477V26.4505Z" fill="#7C5236"/>
<path d="M35.6313 25.1645C35.2308 24.4333 34.7487 23.862 34.1983 23.4619L34.0376 23.346C34.2256 23.208 34.4217 23.0535 34.6206 22.8769C34.8685 22.6616 35.1055 22.4077 35.3289 22.1263C35.5523 21.8393 35.743 21.5136 35.8901 21.1549C36.04 20.7906 36.1162 20.3767 36.1162 19.9186C36.1162 19.5129 36.04 19.1238 35.8901 18.7596C35.743 18.4036 35.555 18.0697 35.3344 17.7689C35.111 17.4681 34.874 17.2004 34.6261 16.9769C34.3781 16.7534 34.1411 16.5712 33.9205 16.4333L33.4546 16.1297H31.1172L31.1935 16.3643C31.2016 16.3863 31.2098 16.4277 31.2098 16.4967C31.2098 16.5795 31.218 16.6761 31.2343 16.781L31.3569 18.6713L31.4305 21.3563C31.4468 21.8365 31.4604 22.3415 31.4686 22.8575C31.4768 23.3819 31.4822 23.9117 31.4822 24.4333C31.4822 24.9548 31.4741 25.4598 31.4577 25.9814C31.4414 26.4947 31.4332 27.0107 31.4332 27.5129L31.3596 30.1897L31.2371 32.0855C31.2207 32.1904 31.2125 32.287 31.2125 32.3698C31.2125 32.4084 31.2098 32.4415 31.2016 32.4774L31.1526 32.6954H33.2203L33.2639 32.6651C33.5391 32.4802 33.8442 32.2511 34.1657 31.9779C34.5253 31.6771 34.8603 31.3129 35.1655 30.8934C35.4733 30.474 35.7348 29.9772 35.9473 29.4226C36.1626 28.8624 36.2715 28.2194 36.2715 27.5102C36.2552 26.6823 36.0427 25.8903 35.6395 25.1563L35.6313 25.1645ZM32.6728 19.9407C32.6891 19.4881 32.7136 19.0631 32.7463 18.6768L32.8062 17.4488L33.1985 17.6226C33.3593 17.722 33.5418 17.8379 33.7352 17.9648C33.9286 18.0918 34.1166 18.2518 34.291 18.4395C34.4653 18.6271 34.6179 18.8451 34.7405 19.088C34.8603 19.3225 34.9366 19.6068 34.9666 19.9296C34.9666 20.2911 34.874 20.625 34.6969 20.9203C34.5116 21.2294 34.2882 21.4971 34.0322 21.7178C33.7761 21.9386 33.5064 22.1152 33.2285 22.2422C33.0051 22.3443 32.809 22.4215 32.6428 22.474V21.3536C32.6428 20.8706 32.651 20.396 32.6673 19.9434L32.6728 19.9407ZM34.2964 29.9441C33.8687 30.496 33.3674 30.9127 32.8062 31.1914L32.7463 30.1897C32.7136 29.8144 32.6973 29.395 32.6973 28.9396C32.6973 28.4843 32.6891 28.0097 32.6728 27.5157L32.6237 26.0172V24.2428C32.9043 24.3311 33.2203 24.4884 33.569 24.712C33.9613 24.9631 34.31 25.3412 34.6043 25.8324C34.9448 26.4008 35.1164 27.0438 35.1192 27.7392C35.0565 28.5836 34.7786 29.3232 34.2991 29.9414L34.2964 29.9441Z" fill="#7C5236"/>
<path d="M47.8085 32.6209L47.8602 32.7009H49.8054L49.3722 32.378C49.3722 32.378 49.3232 32.3394 49.2115 32.1628C49.0725 31.9448 48.9145 31.6992 48.7429 31.426C48.5685 31.15 48.4051 30.8879 48.2471 30.6368C48.0564 30.3332 47.991 30.2201 47.9746 30.1842C47.8575 29.9137 47.7376 29.6654 47.6205 29.4446C47.5306 29.2763 47.4625 29.1162 47.4134 28.97C47.675 28.6609 47.9201 28.3049 48.1381 27.9103C48.3724 27.4853 48.574 27.0245 48.7347 26.5388C48.8927 26.0559 49.0208 25.5591 49.1134 25.0597C49.206 24.5574 49.2523 24.0524 49.2523 23.5585V23.0314C49.2523 22.2339 49.1542 21.4667 48.9608 20.752C48.7674 20.04 48.5031 19.3749 48.1762 18.7816C47.8493 18.1856 47.4543 17.6585 47.0075 17.2114C46.558 16.7644 46.0731 16.4084 45.5636 16.1518L45.5255 16.1324H43.8174L43.8474 16.3367C43.8964 16.6623 43.94 17.2473 43.9808 18.0752C44.0217 18.9113 44.0517 19.8827 44.068 20.9645C44.0844 22.0683 44.0925 23.2411 44.0925 24.447C44.0925 25.653 44.0844 26.8258 44.068 27.9296C44.0517 29.0114 44.0217 29.9855 43.9808 30.8189C43.9427 31.6136 43.8991 32.1766 43.8528 32.4912L43.8228 32.6954H45.5364V32.5133C45.531 32.3532 45.5146 32.1076 45.4846 31.7627C45.4547 31.4343 45.4247 31.0479 45.3947 30.6092C45.5473 30.5374 45.7053 30.4546 45.8633 30.3663C46.0322 30.2725 46.2148 30.1428 46.4082 29.9745C46.5335 30.1235 46.6588 30.2918 46.7869 30.4739C46.9558 30.7168 47.0892 30.932 47.1873 31.1114C47.2473 31.219 47.3072 31.3487 47.3617 31.4977C47.4189 31.6578 47.4761 31.8151 47.536 31.9752C47.5932 32.1324 47.6477 32.2759 47.6995 32.3974C47.7403 32.4912 47.7758 32.5602 47.8085 32.6126V32.6209ZM47.3344 26.7347C47.0947 27.1873 46.825 27.5792 46.5308 27.902C46.2393 28.2221 45.9396 28.4733 45.6454 28.6443C45.5337 28.7078 45.4356 28.7602 45.3512 28.7989C45.343 28.8016 45.3348 28.8072 45.3266 28.8099C45.2858 27.9572 45.2667 27.0272 45.2667 26.0393V22.8879C45.3157 21.8917 45.3457 20.9065 45.3539 19.96C45.362 19.1431 45.3838 18.4339 45.422 17.8489C45.5745 17.9234 45.7598 18.0283 45.9723 18.1663C46.291 18.3705 46.6179 18.6906 46.9421 19.1155C47.2663 19.5405 47.5496 20.098 47.7812 20.7713C48.0128 21.4446 48.1299 22.2973 48.1299 23.3073C48.1299 23.9917 48.0564 24.6264 47.912 25.1949C47.7676 25.7634 47.5742 26.2822 47.3344 26.7347Z" fill="#7C5236"/>
<path d="M42.4684 31.3625L42.2368 31.4398C42.2368 31.4398 42.0679 31.495 41.741 31.5585C41.4032 31.6247 41.0218 31.6744 40.6023 31.7047H40.4334C40.4279 31.5805 40.417 31.4232 40.4007 31.2301C40.3762 30.9403 40.3516 30.5871 40.3271 30.1814C40.3026 29.773 40.2781 29.3204 40.2536 28.8292C40.2291 28.3408 40.2154 27.8165 40.2154 27.2646L40.1664 25.8655V23.0121L40.2154 21.6268C40.2154 21.1135 40.2291 20.6057 40.2536 20.1173C40.2781 19.6261 40.3026 19.179 40.3271 18.7789C40.3516 18.387 40.3762 18.0283 40.4007 17.7164C40.417 17.5012 40.4307 17.3163 40.4361 17.1673C40.9074 17.1756 41.3133 17.2197 41.6457 17.2997C42.245 17.4432 42.2641 17.4432 42.2913 17.4432H42.4684V16.1324H36.791V17.4432H36.9681C36.9899 17.4432 37.0171 17.4432 37.2323 17.3881C37.3577 17.3549 37.5129 17.3246 37.7036 17.2915C37.8889 17.2584 38.0932 17.2308 38.3112 17.2059C38.4719 17.1894 38.6245 17.1756 38.7716 17.1728V17.1783C38.7716 17.2611 38.7797 17.3494 38.7988 17.4405L38.9214 19.1542C38.9541 19.9075 38.9841 20.7547 39.0086 21.6709C39.0331 22.5954 39.0467 23.5281 39.0467 24.4443C39.0631 24.9217 39.0631 25.4046 39.0467 25.8737C39.0304 26.3511 39.014 26.8147 38.9977 27.2673L38.9241 29.7178L38.8015 31.437C38.7852 31.5281 38.7743 31.6164 38.7743 31.6992C38.7743 31.702 38.7743 31.7047 38.7743 31.7075H38.6626C38.2921 31.6744 37.9407 31.6302 37.6219 31.5723C37.2051 31.4977 37.0771 31.4619 37.0389 31.4453L36.7965 31.346V32.7037H42.4739V31.3625H42.4684Z" fill="#7C5236"/>
<path d="M34.1649 38.703C33.9742 37.9358 33.7318 37.2211 33.4484 36.5809C33.1597 35.9296 32.8137 35.397 32.4214 34.9969L32.3696 34.9445H30.2665L30.2147 34.9969C29.9205 35.2949 29.6508 35.7144 29.4111 36.2387C29.1768 36.7547 28.9697 37.3508 28.7954 38.0103C28.621 38.6671 28.4821 39.3929 28.3813 40.1656C28.2805 40.9383 28.2314 41.722 28.2314 42.4946C28.2314 43.3501 28.2778 44.2332 28.3677 45.1218C28.4576 46.0103 28.6019 46.8713 28.7926 47.6771C28.9833 48.4857 29.2285 49.2308 29.52 49.8903C29.8061 50.536 30.1521 51.0631 30.5471 51.4605L30.5988 51.5129H32.732L32.7837 51.4412C32.8028 51.4136 32.83 51.386 32.8627 51.3501L32.8763 51.3336C33.4158 50.6326 33.8653 49.6199 34.2085 48.3229C34.5491 47.0341 34.7234 45.4695 34.7234 43.6757C34.7234 42.8562 34.6771 42.0062 34.5872 41.148C34.4973 40.2925 34.3529 39.4702 34.1622 38.703H34.1649ZM33.4975 45.2625C33.4239 45.9717 33.3068 46.6506 33.1542 47.2825C32.9989 47.9117 32.7946 48.4884 32.544 49.0017C32.2961 49.5067 32.0046 49.9234 31.6722 50.2435H31.6695C31.6695 50.2435 31.6559 50.2601 31.6504 50.2656C31.5333 50.1552 31.3834 50.009 31.1955 49.8213C30.9612 49.584 30.716 49.2142 30.4681 48.7147C30.2174 48.2125 29.9832 47.5226 29.7707 46.6699C29.5582 45.8172 29.4192 44.6885 29.3538 43.328C29.3538 42.6354 29.392 41.9289 29.4655 41.228C29.5391 40.5298 29.659 39.8593 29.8224 39.2356C29.9859 38.6147 30.2011 38.0241 30.4708 37.475C30.7051 36.9948 30.9911 36.5671 31.3235 36.2083C31.4434 36.3298 31.5796 36.4705 31.7294 36.6278C31.9256 36.832 32.1299 37.1328 32.3369 37.5191C32.5467 37.8917 32.7265 38.3084 32.8709 38.7527C33.018 39.2025 33.1406 39.6799 33.2387 40.1738C33.3367 40.6678 33.4158 41.1783 33.473 41.6889C33.5302 42.1994 33.5765 42.6906 33.6092 43.1542C33.6092 43.8441 33.571 44.5533 33.4975 45.2597V45.2625Z" fill="#7C5236"/>
<path d="M26.4661 37.5605C26.1637 36.9755 25.8096 36.4512 25.4118 36.0069C25.0114 35.5598 24.5755 35.2094 24.1123 34.9638L24.0742 34.9445H22.0473V35.1238C22.0473 35.3584 22.061 35.822 22.0855 36.4981C22.11 37.188 22.1454 37.991 22.1836 38.8824C22.2244 39.8013 22.2571 40.7865 22.2816 41.813C22.3061 42.8534 22.3198 43.8689 22.3198 44.832C22.3198 45.5661 22.3116 46.3084 22.2952 47.0341C22.2789 47.7544 22.2571 48.4195 22.2326 49.0128C22.2081 49.6088 22.1781 50.1193 22.1454 50.536C22.1154 50.9058 22.0855 51.1652 22.0582 51.3004L22.0146 51.5157H23.7146V51.3336C23.7092 51.1404 23.6901 50.8699 23.6492 50.5029C23.6111 50.1497 23.5838 49.7275 23.5675 49.2501C23.7119 49.1701 23.9271 49.0404 24.2159 48.8582C24.5864 48.6237 24.9787 48.276 25.3873 47.8234C25.7932 47.3736 26.1828 46.7996 26.5451 46.1207C26.9102 45.4364 27.1717 44.5836 27.3243 43.5736C27.357 43.3032 27.3869 43.0052 27.4114 42.6878C27.436 42.3677 27.4496 42.0255 27.4496 41.6695C27.4496 40.9382 27.3597 40.2125 27.1853 39.506C27.0083 38.8023 26.7658 38.1483 26.4661 37.5605ZM26.0384 44.0235C25.845 44.6582 25.5944 45.2266 25.2947 45.7123C24.9977 46.198 24.6626 46.6064 24.3058 46.9265C24.0306 47.1721 23.7609 47.3598 23.5021 47.4812C23.4612 46.623 23.4394 45.7068 23.4394 44.7547V41.6944C23.4394 40.6485 23.4667 39.6275 23.5239 38.6588C23.5729 37.8089 23.6138 37.0859 23.6492 36.4953C23.8236 36.5836 24.0252 36.7106 24.2513 36.8762C24.5809 37.1135 24.9051 37.4557 25.213 37.8889C25.5235 38.3222 25.7905 38.8796 26.0057 39.5447C26.2209 40.2097 26.3299 41.0183 26.3299 41.9455C26.3299 42.6933 26.2318 43.3915 26.0384 44.0235Z" fill="#7C5236"/>
<path d="M49.6987 51.3695C49.8077 51.1625 49.9439 50.9031 50.1047 50.594C50.2763 50.2629 50.4479 49.8848 50.6114 49.4681C50.7748 49.0514 50.9165 48.5878 51.0336 48.0856C51.1508 47.5806 51.208 47.0369 51.208 46.4574C51.1753 45.8476 51.0418 45.2681 50.813 44.7327C50.5923 44.2167 50.3498 43.6979 50.0938 43.1929C49.8431 42.6989 49.6088 42.1829 49.3991 41.6558C49.1948 41.1453 49.0912 40.5851 49.0912 39.9862C49.0912 39.691 49.1321 39.3874 49.2111 39.0839C49.2901 38.7748 49.3936 38.4823 49.5108 38.2118C49.6306 37.9414 49.756 37.7013 49.884 37.4943C50.012 37.2874 50.1183 37.1246 50.2055 37.0031C50.4561 36.6058 50.6768 36.3077 50.862 36.1201C50.9846 35.9959 51.2761 35.6785 51.4886 35.4495C51.6057 35.3226 51.6956 35.226 51.7065 35.2122L52.058 34.8976H49.7805L49.7314 34.9942C49.6824 35.0908 49.5762 35.2508 49.4645 35.4191C49.2983 35.6703 49.113 35.9573 49.0095 36.1725C48.8379 36.5313 48.6662 36.9148 48.5055 37.3177C48.3421 37.7261 48.2004 38.1566 48.0832 38.5954C47.9661 39.0425 47.9062 39.495 47.9062 39.9338C47.9062 40.563 48.0206 41.1646 48.2467 41.7275C48.4674 42.2712 48.7153 42.812 48.9823 43.3336C49.2465 43.8441 49.489 44.3657 49.7069 44.8845C49.9167 45.3867 50.0202 45.9193 50.0229 46.4629C50.0066 47.1584 49.8758 47.7958 49.6361 48.3533C49.3882 48.9245 49.1294 49.4212 48.8597 49.8296C48.59 50.238 48.3529 50.5526 48.1486 50.7651C47.928 50.9969 47.8599 51.0963 47.8054 51.1763L47.6201 51.4495L49.6415 51.4578L49.6906 51.364L49.6987 51.3695Z" fill="#7C5236"/>
<path d="M41.4637 36.1615H41.6408C41.6653 36.1642 41.6871 36.1642 41.9077 36.1145C42.0331 36.0842 42.1938 36.0538 42.379 36.0262C42.5643 35.9959 42.7686 35.971 42.9893 35.9517C43.15 35.9379 43.3026 35.9269 43.4497 35.9269V35.9324C43.4497 36.0152 43.4551 36.1035 43.4715 36.1946L43.5641 37.911C43.5832 38.6616 43.5995 39.5088 43.6077 40.4305C43.6159 41.3577 43.6131 42.2877 43.5968 43.2039C43.605 43.6813 43.5968 44.1642 43.5723 44.6333C43.5478 45.1108 43.5232 45.5716 43.4987 46.0242L43.3816 48.4719L43.229 50.1884C43.2099 50.2794 43.199 50.3677 43.199 50.4505C43.199 50.4533 43.199 50.456 43.199 50.4588H43.0873C42.7168 50.4174 42.3681 50.365 42.0467 50.3043C41.6326 50.2242 41.5045 50.1828 41.4664 50.1663L41.2267 50.0642L41.2021 51.4219L46.8768 51.5212L46.8986 50.1828L46.6643 50.2574C46.6643 50.2574 46.4927 50.3098 46.1658 50.3677C45.828 50.4257 45.4439 50.4698 45.027 50.4947H44.8581C44.8554 50.365 44.8472 50.2049 44.8336 50.0145C44.8145 49.722 44.7955 49.3688 44.7764 48.9631C44.7601 48.5547 44.741 48.1021 44.7246 47.6082C44.7083 47.1197 44.7056 46.5954 44.7137 46.0435L44.6892 44.6444L44.7383 41.791L44.8118 40.4057C44.82 39.8924 44.8418 39.3846 44.8745 38.899C44.9072 38.4078 44.9399 37.9607 44.9726 37.5606C45.0025 37.1659 45.0352 36.81 45.0652 36.4981C45.087 36.2829 45.1006 36.1007 45.1088 35.949C45.5773 35.9655 45.9833 36.018 46.3156 36.1007C46.915 36.2553 46.9313 36.2553 46.9613 36.2553H47.1384L47.1601 34.9472L41.4855 34.8479L41.4637 36.1587V36.1615Z" fill="#7C5236"/>
<path d="M42.18 48.9383L42.4225 48.8638L41.2892 47.346L41.1475 47.5309C41.0358 47.6771 40.9133 47.8262 40.7825 47.9752C40.6708 48.1021 40.5373 48.2429 40.3847 48.3891C40.2322 48.5354 40.0687 48.6733 39.8916 48.803L38.2407 50.0752C38.1181 50.147 38.0037 50.2159 37.9002 50.2822C37.873 49.8572 37.843 49.3467 37.8103 48.7589C37.7694 48.0331 37.7476 47.2163 37.7476 46.336V40.1656C37.7476 39.5695 37.7613 38.9928 37.7858 38.4546C37.8103 37.9165 37.8348 37.4198 37.8593 36.9755C37.8839 36.5367 37.9084 36.1532 37.9329 35.8386C37.9574 35.5185 37.971 35.2784 37.971 35.1211V34.9417H36.2139L36.2902 35.1763C36.2983 35.1984 36.3065 35.2397 36.3065 35.3087C36.3065 35.3915 36.3147 35.4881 36.331 35.593L36.4536 37.486C36.4863 38.2973 36.5163 39.2108 36.5408 40.2042C36.5653 41.2087 36.5789 42.2325 36.5789 43.2535C36.5953 43.7668 36.5953 44.2884 36.5789 44.8099C36.5626 45.337 36.5462 45.842 36.5299 46.3277L36.4563 49.0045L36.3337 50.9003C36.3174 51.0052 36.3092 51.1018 36.3092 51.1846C36.3092 51.2232 36.3065 51.2563 36.2983 51.2922L36.2493 51.5102H38.4287L38.9518 51.03C39.1615 50.8506 39.3904 50.6713 39.6328 50.5002C39.8807 50.3236 40.2049 50.089 40.6272 49.7827C41.0576 49.4598 41.4363 49.2308 41.7523 49.1038C42.1038 48.9603 42.1719 48.9355 42.1828 48.9327L42.18 48.9383Z" fill="#7C5236"/>
<path d="M32.4459 42.1442C32.3751 41.7468 32.0645 41.4295 31.6749 41.3522C31.3807 41.2942 31.0838 41.3715 30.8549 41.5592C30.6288 41.7496 30.498 42.0283 30.498 42.3263C30.498 42.6244 30.6315 42.9058 30.8577 43.0935C30.8577 43.099 30.8577 43.1018 30.8577 43.1073C30.8386 43.5957 30.7786 44.1035 30.6697 44.6609C30.6479 44.7685 30.6343 44.8568 30.6288 44.9286L30.6097 45.1245H32.3751L32.2688 44.6361C32.1571 44.1311 32.1054 43.6123 32.1081 43.0935C32.3805 42.8644 32.514 42.5029 32.4486 42.1414L32.4459 42.1442Z" fill="#7C5236"/>
</g>
<defs>
<clipPath id="clip0_7725_49054">
<rect width="72" height="64" fill="white"/>
</clipPath>
</defs>
</svg>
