<?xml version="1.0" standalone="no"?>
<!DOCTYPE svg PUBLIC "-//W3C//DTD SVG 20010904//EN"
 "http://www.w3.org/TR/2001/REC-SVG-20010904/DTD/svg10.dtd">
<svg version="1.0" xmlns="http://www.w3.org/2000/svg"
 width="260.000000pt" height="260.000000pt" viewBox="0 0 260.000000 260.000000"
 preserveAspectRatio="xMidYMid meet">
<metadata>
Created by potrace 1.14, written by Peter Selinger 2001-2017
</metadata>
<g transform="translate(0.000000,260.000000) scale(0.100000,-0.100000)"
fill="#000000" stroke="none">
<path d="M108 2557 c-2 -7 -4 -138 -4 -292 l1 -280 410 -5 410 -5 2 -960 c1
-528 2 -965 2 -971 1 -13 1170 -17 1191 -4 16 10 -6 25 -245 160 -110 62 -201
114 -203 116 -9 6 -2 1518 7 1527 6 6 110 39 233 73 l223 64 183 0 c175 0 182
1 183 20 0 11 1 143 2 293 l0 272 -1196 2 c-912 1 -1196 -1 -1199 -10z m1170
-56 l22 -1 0 -1200 0 -1200 -27 -1 c-44 -1 -194 -1 -239 0 l-42 1 0 943 c1
519 -3 953 -6 965 -4 12 -19 25 -34 29 -14 3 -195 7 -402 7 l-375 1 -3 227
c-2 206 -1 227 15 230 13 2 1003 1 1091 -1z"/>
<path d="M1751 1074 c-55 -46 -37 -127 34 -154 75 -28 148 57 111 129 -30 57
-94 68 -145 25z"/>
</g>
</svg>
