<?xml version="1.0" encoding="UTF-8"?>
<svg id="_レイヤー_2" data-name="レイヤー 2" xmlns="http://www.w3.org/2000/svg" xmlns:xlink="http://www.w3.org/1999/xlink" viewBox="0 0 177.13 932.89">
  <defs>
    <style>
      .cls-1 {
        fill: none;
      }

      .cls-2 {
        clip-path: url(#clippath);
      }

      .cls-3 {
        fill: #797979;
      }

      .cls-4 {
        opacity: .2;
      }

      .cls-5 {
        opacity: .51;
      }
    </style>
    <clipPath id="clippath">
      <rect class="cls-1" x="108.47" y="0" width="47.8" height="390.38"/>
    </clipPath>
  </defs>
  <g id="_レイヤー_1-2" data-name="レイヤー 1">
    <g id="_グループ_670" data-name="グループ 670" class="cls-5">
      <path id="_パス_926" data-name="パス 926" class="cls-3" d="m97.06,487.33c.03-22.1,17.93-40.01,40.03-40.03h0c22.11,0,40.03,17.92,40.03,40.03s-17.92,40.03-40.03,40.03c-22.11,0-40.03-17.92-40.03-40.03m78.74,0c-.03-21.36-17.34-38.67-38.7-38.7h-.01c-21.38,0-38.7,17.34-38.7,38.71,0,21.38,17.34,38.7,38.71,38.7,21.38,0,38.7-17.34,38.7-38.71"/>
      <path id="_パス_927" data-name="パス 927" class="cls-3" d="m0,409.26c.03-28.98,23.51-52.46,52.49-52.49,28.99,0,52.49,23.5,52.49,52.49,0,28.99-23.5,52.49-52.49,52.49-28.99,0-52.49-23.5-52.49-52.49m103.9,0c-.03-28.38-23.03-51.38-51.41-51.41-28.39,0-51.41,23.02-51.41,51.41,0,28.39,23.01,51.41,51.41,51.41,28.39,0,51.41-23.01,51.41-51.41"/>
      <path id="_パス_928" data-name="パス 928" class="cls-3" d="m26.08,721.64c.02-15.68,12.72-28.38,28.4-28.4,15.68,0,28.4,12.71,28.4,28.4s-12.71,28.4-28.4,28.4-28.4-12.71-28.4-28.4m56.21,0c-.02-15.35-12.46-27.79-27.81-27.81h0c-15.36,0-27.81,12.45-27.81,27.81s12.45,27.81,27.81,27.81c15.36,0,27.81-12.45,27.81-27.81"/>
      <path id="_パス_929" data-name="パス 929" class="cls-3" d="m90.41,609.14c.01-12.32,10-22.31,22.32-22.32,12.33,0,22.32,9.99,22.32,22.32,0,12.33-9.99,22.32-22.32,22.32-12.33,0-22.32-9.99-22.32-22.32m43.56,0c-.01-11.73-9.51-21.23-21.24-21.24h0c-11.73,0-21.24,9.51-21.24,21.24,0,11.73,9.51,21.24,21.24,21.24s21.24-9.51,21.24-21.24"/>
      <path id="_パス_930" data-name="パス 930" class="cls-3" d="m100.04,929.63c.78.38,1.1,1.32.72,2.1,0,0,0,0,0,0-.38.78-1.32,1.1-2.1.72-.78-.38-1.1-1.32-.72-2.1s1.32-1.1,2.1-.72"/>
      <path id="_パス_931" data-name="パス 931" class="cls-3" d="m97.51,931.04c0-.28.06-.56.19-.81.31-.63.95-1.03,1.66-1.03,1.02,0,1.84.83,1.84,1.84,0,1.02-.83,1.84-1.84,1.84s-1.84-.83-1.84-1.84m3.14,0c0-.5-.28-.95-.73-1.17-.65-.32-1.42-.05-1.74.6-.3.65-.04,1.42.59,1.74.64.32,1.42.05,1.74-.59.09-.18.14-.37.14-.57"/>
      <path id="_パス_932" data-name="パス 932" class="cls-3" d="m92.77,926.06c.78.38,1.1,1.32.72,2.1,0,0,0,0,0,0-.38.78-1.32,1.1-2.1.72-.78-.38-1.1-1.32-.72-2.1s1.32-1.1,2.1-.72"/>
      <path id="_パス_933" data-name="パス 933" class="cls-3" d="m90.23,927.47c0-.28.06-.56.19-.81.31-.63.95-1.03,1.66-1.03,1.02,0,1.84.83,1.84,1.85,0,1.02-.83,1.84-1.85,1.84s-1.84-.83-1.84-1.85m3.14,0c0-.5-.28-.95-.73-1.17-.65-.32-1.42-.05-1.74.6-.3.65-.04,1.42.59,1.74.64.32,1.42.05,1.74-.59.09-.18.14-.37.14-.57"/>
      <path id="_パス_934" data-name="パス 934" class="cls-3" d="m85.5,922.49c.78.38,1.1,1.32.72,2.1,0,0,0,0,0,0-.38.78-1.32,1.1-2.1.72-.78-.38-1.1-1.32-.72-2.1s1.32-1.1,2.1-.72"/>
      <path id="_パス_935" data-name="パス 935" class="cls-3" d="m82.96,923.9c0-.28.06-.56.19-.81.31-.63.95-1.03,1.66-1.03,1.02,0,1.84.83,1.84,1.85,0,1.02-.83,1.84-1.85,1.84-1.02,0-1.84-.83-1.84-1.85m3.14,0c0-.5-.28-.95-.73-1.17-.65-.32-1.42-.05-1.74.6-.31.65-.04,1.42.59,1.74.18.09.37.13.57.13.72,0,1.3-.58,1.3-1.3"/>
      <path id="_パス_936" data-name="パス 936" class="cls-3" d="m78.23,918.92c.78.38,1.1,1.32.72,2.1,0,0,0,0,0,0-.38.78-1.32,1.1-2.1.72-.78-.38-1.1-1.32-.72-2.1s1.32-1.1,2.1-.72"/>
      <path id="_パス_937" data-name="パス 937" class="cls-3" d="m75.69,920.33c0-.28.06-.56.19-.81.31-.63.95-1.03,1.66-1.03,1.02,0,1.84.83,1.84,1.85,0,1.02-.83,1.84-1.85,1.84-1.02,0-1.84-.83-1.84-1.85m3.14,0c0-.5-.28-.95-.73-1.17-.65-.32-1.42-.05-1.74.6-.3.65-.04,1.42.59,1.74.18.09.37.13.57.13.72,0,1.3-.58,1.3-1.3"/>
      <path id="_パス_938" data-name="パス 938" class="cls-3" d="m70.96,915.35c.78.38,1.1,1.32.72,2.1,0,0,0,0,0,0-.38.78-1.32,1.1-2.1.72-.78-.38-1.1-1.32-.72-2.1s1.32-1.1,2.1-.72"/>
      <path id="_パス_939" data-name="パス 939" class="cls-3" d="m68.42,916.76c0-.28.06-.56.19-.81.31-.63.95-1.03,1.66-1.03,1.02,0,1.84.83,1.84,1.85,0,1.02-.83,1.84-1.85,1.84-1.02,0-1.84-.83-1.84-1.85m3.14,0c0-.5-.28-.95-.73-1.17-.65-.32-1.42-.05-1.74.6-.3.65-.04,1.42.59,1.74.18.09.37.13.57.13.72,0,1.3-.58,1.3-1.3"/>
      <path id="_パス_940" data-name="パス 940" class="cls-3" d="m63.68,911.78c.78.38,1.1,1.32.72,2.1,0,0,0,0,0,0-.38.78-1.32,1.1-2.1.72-.78-.38-1.1-1.32-.72-2.1s1.32-1.1,2.1-.72"/>
      <path id="_パス_941" data-name="パス 941" class="cls-3" d="m61.15,913.19c0-.28.06-.56.19-.81.31-.63.95-1.03,1.66-1.03,1.02,0,1.84.83,1.84,1.85,0,1.02-.83,1.84-1.85,1.84-1.02,0-1.84-.83-1.84-1.85m3.14,0c0-.5-.28-.95-.73-1.17-.65-.32-1.42-.05-1.74.6-.31.64-.04,1.42.59,1.74.64.32,1.42.05,1.74-.59.09-.18.14-.37.14-.57"/>
      <path id="_パス_942" data-name="パス 942" class="cls-3" d="m56.41,908.21c.78.38,1.1,1.32.72,2.1,0,0,0,0,0,0-.38.78-1.32,1.1-2.1.72-.78-.38-1.1-1.32-.72-2.1s1.32-1.1,2.1-.72"/>
      <path id="_パス_943" data-name="パス 943" class="cls-3" d="m53.88,909.62c0-.28.06-.56.19-.81.31-.63.95-1.03,1.66-1.03,1.02,0,1.84.83,1.84,1.85,0,1.02-.83,1.84-1.85,1.84-1.02,0-1.84-.83-1.84-1.85m3.14,0c0-.5-.28-.95-.73-1.17-.65-.32-1.42-.05-1.74.6-.3.65-.04,1.42.59,1.74.64.32,1.42.05,1.74-.59.09-.18.14-.37.14-.57"/>
      <path id="_パス_944" data-name="パス 944" class="cls-3" d="m49.14,904.64c.78.38,1.1,1.32.72,2.1,0,0,0,0,0,0-.38.78-1.32,1.1-2.1.72-.78-.38-1.1-1.32-.72-2.1s1.32-1.1,2.1-.72"/>
      <path id="_パス_945" data-name="パス 945" class="cls-3" d="m46.61,906.05c0-.28.06-.56.19-.81.31-.63.95-1.03,1.65-1.03,1.02,0,1.84.83,1.84,1.84,0,1.02-.83,1.84-1.84,1.84-1.02,0-1.84-.83-1.84-1.84m3.14,0c0-.5-.28-.95-.73-1.17-.65-.32-1.42-.05-1.74.6-.3.65-.04,1.42.59,1.74.64.32,1.42.05,1.74-.59.09-.18.14-.37.14-.57"/>
      <path id="_パス_946" data-name="パス 946" class="cls-3" d="m41.87,901.07c.78.38,1.1,1.32.72,2.1,0,0,0,0,0,0-.38.78-1.32,1.1-2.1.72-.78-.38-1.1-1.32-.72-2.1s1.32-1.1,2.1-.72"/>
      <path id="_パス_947" data-name="パス 947" class="cls-3" d="m39.34,902.48c0-.28.06-.56.19-.81.31-.63.95-1.03,1.66-1.03,1.02,0,1.84.83,1.84,1.85,0,1.02-.83,1.84-1.85,1.84-1.02,0-1.84-.83-1.84-1.85m3.14,0c0-.5-.28-.95-.73-1.17-.65-.32-1.42-.05-1.74.6-.31.64-.04,1.42.59,1.74.64.32,1.42.05,1.74-.59.09-.18.14-.37.14-.57"/>
      <path id="_パス_948" data-name="パス 948" class="cls-3" d="m34.6,897.5c.78.38,1.1,1.32.72,2.1,0,0,0,0,0,0-.38.78-1.32,1.1-2.1.72-.78-.38-1.1-1.32-.72-2.1s1.32-1.1,2.1-.72"/>
      <path id="_パス_949" data-name="パス 949" class="cls-3" d="m32.07,898.91c0-.28.06-.56.19-.81.31-.63.95-1.03,1.66-1.03,1.02,0,1.84.83,1.84,1.85,0,1.02-.83,1.84-1.85,1.84-1.02,0-1.84-.83-1.84-1.85m3.14,0c0-.5-.28-.95-.73-1.17-.65-.32-1.42-.05-1.74.6-.3.65-.04,1.42.59,1.74.18.09.37.13.57.13.72,0,1.3-.58,1.31-1.3"/>
      <path id="_パス_950" data-name="パス 950" class="cls-3" d="m27.33,893.93c.78.38,1.1,1.32.72,2.1,0,0,0,0,0,0-.38.78-1.32,1.1-2.1.72-.78-.38-1.1-1.32-.72-2.1s1.32-1.1,2.1-.72"/>
      <path id="_パス_951" data-name="パス 951" class="cls-3" d="m24.79,895.34c0-.28.06-.56.19-.81.31-.63.95-1.03,1.66-1.03,1.02,0,1.84.83,1.84,1.85,0,1.02-.83,1.84-1.85,1.84-1.02,0-1.84-.83-1.84-1.85m3.14,0c0-.5-.28-.95-.73-1.17-.65-.32-1.42-.05-1.74.6-.3.65-.04,1.42.59,1.74.64.32,1.42.05,1.74-.59.09-.18.14-.37.14-.57"/>
      <path id="_パス_952" data-name="パス 952" class="cls-3" d="m103.76,922.07c.78.38,1.1,1.32.72,2.1,0,0,0,0,0,0-.38.78-1.32,1.1-2.1.72-.78-.38-1.1-1.32-.72-2.1s1.32-1.1,2.1-.72"/>
      <path id="_パス_953" data-name="パス 953" class="cls-3" d="m101.22,923.47c0-.28.06-.56.19-.81.31-.63.95-1.03,1.66-1.03,1.02,0,1.84.83,1.84,1.85,0,1.02-.83,1.84-1.85,1.84-1.02,0-1.84-.83-1.84-1.85m3.14,0c0-.5-.28-.95-.73-1.17-.65-.32-1.42-.05-1.74.6-.3.65-.04,1.42.59,1.74.64.32,1.42.05,1.74-.59.09-.18.14-.37.14-.57"/>
      <path id="_パス_954" data-name="パス 954" class="cls-3" d="m96.48,918.49c.78.38,1.1,1.32.72,2.1,0,0,0,0,0,0-.38.78-1.32,1.1-2.1.72-.78-.38-1.1-1.32-.72-2.1s1.32-1.1,2.1-.72"/>
      <path id="_パス_955" data-name="パス 955" class="cls-3" d="m93.95,919.9c0-.28.06-.56.19-.81.31-.63.95-1.03,1.66-1.03,1.02,0,1.84.83,1.84,1.85,0,1.02-.83,1.84-1.85,1.84-1.02,0-1.84-.83-1.84-1.85m3.14,0c0-.5-.28-.95-.73-1.17-.65-.32-1.42-.05-1.74.6-.3.65-.04,1.42.59,1.74.64.32,1.42.05,1.74-.59.09-.18.14-.37.14-.57"/>
      <path id="_パス_956" data-name="パス 956" class="cls-3" d="m89.21,914.92c.78.38,1.1,1.32.72,2.1,0,0,0,0,0,0-.38.78-1.32,1.1-2.1.72-.78-.38-1.1-1.32-.72-2.1s1.32-1.1,2.1-.72"/>
      <path id="_パス_957" data-name="パス 957" class="cls-3" d="m86.68,916.33c0-.28.06-.56.19-.81.31-.63.95-1.03,1.66-1.03,1.02,0,1.84.83,1.84,1.85,0,1.02-.83,1.84-1.85,1.84-1.02,0-1.84-.83-1.84-1.85m3.14,0c0-.49-.28-.95-.73-1.17-.64-.32-1.42-.05-1.74.59-.31.65-.04,1.42.59,1.74.18.09.37.13.57.13.72,0,1.3-.58,1.3-1.3"/>
      <path id="_パス_958" data-name="パス 958" class="cls-3" d="m81.94,911.35c.78.38,1.1,1.32.72,2.1,0,0,0,0,0,0-.38.78-1.32,1.1-2.1.72-.78-.38-1.1-1.32-.72-2.1s1.32-1.1,2.1-.72"/>
      <path id="_パス_959" data-name="パス 959" class="cls-3" d="m79.41,912.76c0-.28.06-.56.19-.81.31-.63.95-1.03,1.66-1.03,1.02,0,1.84.83,1.84,1.84s-.83,1.84-1.84,1.84c-1.02,0-1.84-.83-1.84-1.84m3.14,0c0-.5-.28-.95-.73-1.17-.64-.32-1.42-.05-1.74.59-.3.65-.04,1.42.59,1.74.18.09.37.13.57.13.72,0,1.3-.58,1.3-1.3"/>
      <path id="_パス_960" data-name="パス 960" class="cls-3" d="m74.67,907.78c.78.38,1.1,1.32.72,2.1,0,0,0,0,0,0-.38.78-1.32,1.1-2.1.72-.78-.38-1.1-1.32-.72-2.1s1.32-1.1,2.1-.72"/>
      <path id="_パス_961" data-name="パス 961" class="cls-3" d="m72.14,909.19c0-.28.06-.56.19-.81.31-.63.95-1.03,1.66-1.03,1.02,0,1.84.83,1.84,1.85,0,1.02-.83,1.84-1.85,1.84-1.02,0-1.84-.83-1.84-1.85m3.14,0c0-.5-.28-.95-.73-1.17-.65-.32-1.42-.05-1.74.6-.31.65-.04,1.42.59,1.74.64.32,1.42.05,1.74-.59.09-.18.14-.37.14-.57"/>
      <path id="_パス_962" data-name="パス 962" class="cls-3" d="m67.4,904.21c.78.38,1.1,1.32.72,2.1,0,0,0,0,0,0-.38.78-1.32,1.1-2.1.72-.78-.38-1.1-1.32-.72-2.1s1.32-1.1,2.1-.72"/>
      <path id="_パス_963" data-name="パス 963" class="cls-3" d="m64.87,905.62c0-.28.06-.56.19-.81.31-.63.95-1.03,1.66-1.03,1.02,0,1.84.83,1.84,1.85,0,1.02-.83,1.84-1.85,1.84-1.02,0-1.84-.83-1.84-1.85m3.14,0c0-.5-.28-.95-.73-1.17-.65-.32-1.42-.05-1.74.6-.3.65-.04,1.42.59,1.74.18.09.37.13.57.13.72,0,1.3-.58,1.3-1.3"/>
      <path id="_パス_964" data-name="パス 964" class="cls-3" d="m60.13,900.64c.78.38,1.1,1.32.72,2.1,0,0,0,0,0,0-.38.78-1.32,1.1-2.1.72-.78-.38-1.1-1.32-.72-2.1s1.32-1.1,2.1-.72"/>
      <path id="_パス_965" data-name="パス 965" class="cls-3" d="m57.6,902.05c0-.28.06-.56.19-.81.31-.63.95-1.03,1.66-1.03,1.02,0,1.84.83,1.84,1.84s-.83,1.84-1.84,1.84c-1.02,0-1.84-.83-1.84-1.84m3.14,0c0-.5-.28-.95-.73-1.17-.65-.32-1.42-.05-1.74.6-.3.65-.04,1.42.59,1.74.64.32,1.42.05,1.74-.59.09-.18.14-.37.14-.57"/>
      <path id="_パス_966" data-name="パス 966" class="cls-3" d="m52.86,897.07c.78.38,1.1,1.32.72,2.1,0,0,0,0,0,0-.38.78-1.32,1.1-2.1.72-.78-.38-1.1-1.32-.72-2.1s1.32-1.1,2.1-.72"/>
      <path id="_パス_967" data-name="パス 967" class="cls-3" d="m50.32,898.48c0-.28.06-.56.19-.81.31-.63.95-1.03,1.66-1.03,1.02,0,1.84.83,1.84,1.85,0,1.02-.83,1.84-1.85,1.84-1.02,0-1.84-.83-1.84-1.85m3.14,0c0-.5-.28-.95-.73-1.17-.65-.32-1.42-.05-1.74.6-.31.64-.04,1.42.59,1.74.64.32,1.42.05,1.74-.59.09-.18.14-.37.14-.57"/>
      <path id="_パス_968" data-name="パス 968" class="cls-3" d="m45.59,893.5c.78.38,1.1,1.32.72,2.1,0,0,0,0,0,0-.38.78-1.32,1.1-2.1.72-.78-.38-1.1-1.32-.72-2.1s1.32-1.1,2.1-.72"/>
      <path id="_パス_969" data-name="パス 969" class="cls-3" d="m43.05,894.91c0-.28.06-.56.19-.81.31-.63.95-1.03,1.66-1.03,1.02,0,1.84.83,1.84,1.85,0,1.02-.83,1.84-1.85,1.84-1.02,0-1.84-.83-1.84-1.85m3.14,0c0-.5-.28-.95-.73-1.17-.65-.32-1.42-.05-1.74.6-.3.65-.04,1.42.59,1.74.64.32,1.42.05,1.74-.59.09-.18.14-.37.14-.57"/>
      <path id="_パス_970" data-name="パス 970" class="cls-3" d="m38.32,889.93c.78.38,1.1,1.32.72,2.1,0,0,0,0,0,0-.38.78-1.32,1.1-2.1.72-.78-.38-1.1-1.32-.72-2.1s1.32-1.1,2.1-.72"/>
      <path id="_パス_971" data-name="パス 971" class="cls-3" d="m35.78,891.34c0-.28.06-.56.19-.81.31-.63.95-1.03,1.66-1.03,1.02,0,1.84.83,1.84,1.84s-.83,1.84-1.84,1.84c-1.02,0-1.84-.83-1.84-1.84m3.14,0c0-.5-.28-.95-.73-1.17-.65-.32-1.42-.05-1.74.6-.31.64-.04,1.42.59,1.74.64.32,1.42.05,1.74-.59.09-.18.14-.37.14-.57"/>
      <path id="_パス_972" data-name="パス 972" class="cls-3" d="m31.04,886.36c.78.38,1.1,1.32.72,2.1,0,0,0,0,0,0-.38.78-1.32,1.1-2.1.72-.78-.38-1.1-1.32-.72-2.1s1.32-1.1,2.1-.72"/>
      <path id="_パス_973" data-name="パス 973" class="cls-3" d="m28.51,887.77c0-.28.06-.56.19-.81.31-.63.95-1.03,1.66-1.03,1.02,0,1.84.83,1.84,1.84s-.83,1.84-1.84,1.84c-1.02,0-1.84-.83-1.84-1.84m3.14,0c0-.5-.28-.95-.73-1.17-.65-.32-1.42-.05-1.74.6-.3.65-.04,1.42.59,1.74.64.32,1.42.05,1.74-.59.09-.18.14-.37.14-.57"/>
      <path id="_パス_974" data-name="パス 974" class="cls-3" d="m107.47,914.5c.78.38,1.1,1.32.72,2.1h0c-.38.78-1.32,1.1-2.1.72-.78-.38-1.1-1.32-.72-2.1s1.32-1.1,2.1-.72"/>
      <path id="_パス_975" data-name="パス 975" class="cls-3" d="m104.94,915.91c0-.28.06-.56.19-.81.31-.63.95-1.03,1.66-1.03,1.02,0,1.84.83,1.84,1.85,0,1.02-.83,1.84-1.85,1.84-1.02,0-1.84-.83-1.84-1.85m3.14,0c0-.5-.28-.95-.73-1.17-.64-.32-1.42-.05-1.74.59-.31.65-.04,1.42.59,1.74.64.32,1.42.05,1.74-.59.09-.18.14-.37.14-.57"/>
      <path id="_パス_976" data-name="パス 976" class="cls-3" d="m100.2,910.93c.78.38,1.1,1.32.72,2.1,0,0,0,0,0,0-.38.78-1.32,1.1-2.1.72-.78-.38-1.1-1.32-.72-2.1s1.32-1.1,2.1-.72"/>
      <path id="_パス_977" data-name="パス 977" class="cls-3" d="m97.67,912.34c0-.28.06-.56.19-.81.31-.63.95-1.03,1.66-1.03,1.02,0,1.84.83,1.84,1.85,0,1.02-.83,1.84-1.85,1.84-1.02,0-1.84-.83-1.84-1.85m3.14,0c0-.5-.28-.95-.73-1.17-.65-.32-1.42-.05-1.74.6-.3.65-.04,1.42.59,1.74.64.32,1.42.05,1.74-.59.09-.18.14-.37.14-.57"/>
      <path id="_パス_978" data-name="パス 978" class="cls-3" d="m92.93,907.36c.78.38,1.1,1.32.72,2.1,0,0,0,0,0,0-.38.78-1.32,1.1-2.1.72-.78-.38-1.1-1.32-.72-2.1s1.32-1.1,2.1-.72"/>
      <path id="_パス_979" data-name="パス 979" class="cls-3" d="m90.4,908.77c0-.28.06-.56.19-.81.31-.63.95-1.03,1.66-1.03,1.02,0,1.84.83,1.84,1.84s-.83,1.84-1.84,1.84c-1.02,0-1.84-.83-1.84-1.84m3.14,0c0-.5-.28-.95-.73-1.17-.65-.32-1.42-.05-1.74.6-.3.65-.04,1.42.59,1.74.64.32,1.42.05,1.74-.59.09-.18.14-.37.14-.57"/>
      <path id="_パス_980" data-name="パス 980" class="cls-3" d="m85.66,903.79c.78.38,1.1,1.32.72,2.1,0,0,0,0,0,0-.38.78-1.32,1.1-2.1.72-.78-.38-1.1-1.32-.72-2.1s1.32-1.1,2.1-.72"/>
      <path id="_パス_981" data-name="パス 981" class="cls-3" d="m83.12,905.19c0-.28.06-.56.19-.81.31-.63.95-1.03,1.66-1.03,1.02,0,1.84.83,1.84,1.85,0,1.02-.83,1.84-1.85,1.84-1.02,0-1.84-.83-1.84-1.85m3.14,0c0-.5-.28-.95-.73-1.17-.65-.32-1.42-.05-1.74.6-.31.65-.04,1.42.59,1.74.64.32,1.42.05,1.74-.59.09-.18.14-.37.14-.57"/>
      <path id="_パス_982" data-name="パス 982" class="cls-3" d="m78.39,900.22c.78.38,1.1,1.32.72,2.1,0,0,0,0,0,0-.38.78-1.32,1.1-2.1.72-.78-.38-1.1-1.32-.72-2.1s1.32-1.1,2.1-.72"/>
      <path id="_パス_983" data-name="パス 983" class="cls-3" d="m75.85,901.62c0-.28.06-.56.19-.81.31-.63.95-1.03,1.66-1.03,1.02,0,1.84.83,1.84,1.85,0,1.02-.83,1.84-1.85,1.84-1.02,0-1.84-.83-1.84-1.85m3.14,0c0-.5-.28-.95-.73-1.17-.65-.32-1.42-.05-1.74.6-.3.65-.04,1.42.59,1.74.18.09.37.13.57.13.72,0,1.3-.58,1.3-1.3"/>
      <path id="_パス_984" data-name="パス 984" class="cls-3" d="m71.12,896.64c.78.38,1.1,1.32.72,2.1,0,0,0,0,0,0-.38.78-1.32,1.1-2.1.72-.78-.38-1.1-1.32-.72-2.1s1.32-1.1,2.1-.72"/>
      <path id="_パス_985" data-name="パス 985" class="cls-3" d="m68.58,898.05c0-.28.06-.56.19-.81.31-.63.95-1.03,1.66-1.03,1.02,0,1.84.83,1.84,1.85,0,1.02-.83,1.84-1.85,1.84-1.02,0-1.84-.83-1.84-1.85m3.14,0c0-.5-.28-.95-.73-1.17-.65-.32-1.42-.05-1.74.6-.3.65-.04,1.42.59,1.74.18.09.37.13.57.13.72,0,1.3-.58,1.3-1.3"/>
      <path id="_パス_986" data-name="パス 986" class="cls-3" d="m63.85,893.07c.78.38,1.1,1.32.72,2.1,0,0,0,0,0,0-.38.78-1.32,1.1-2.1.72-.78-.38-1.1-1.32-.72-2.1s1.32-1.1,2.1-.72"/>
      <path id="_パス_987" data-name="パス 987" class="cls-3" d="m61.31,894.48c0-.28.06-.56.19-.81.31-.63.95-1.03,1.66-1.03,1.02,0,1.84.83,1.84,1.85,0,1.02-.83,1.84-1.85,1.84-1.02,0-1.84-.83-1.84-1.85m3.14,0c0-.5-.28-.95-.73-1.17-.65-.32-1.42-.05-1.74.6-.3.65-.04,1.42.59,1.74.18.09.37.13.57.13.72,0,1.3-.58,1.3-1.3"/>
      <path id="_パス_988" data-name="パス 988" class="cls-3" d="m56.58,889.5c.78.38,1.1,1.32.72,2.1,0,0,0,0,0,0-.38.78-1.32,1.1-2.1.72-.78-.38-1.1-1.32-.72-2.1s1.32-1.1,2.1-.72"/>
      <path id="_パス_989" data-name="パス 989" class="cls-3" d="m54.04,890.91c0-.28.06-.56.19-.81.31-.63.95-1.03,1.66-1.03,1.02,0,1.84.83,1.84,1.85,0,1.02-.83,1.84-1.85,1.84-1.02,0-1.84-.83-1.84-1.85m3.14,0c0-.5-.28-.95-.73-1.17-.65-.32-1.42-.05-1.74.6-.3.65-.04,1.42.59,1.74.64.32,1.42.05,1.74-.59.09-.18.14-.37.14-.57"/>
      <path id="_パス_990" data-name="パス 990" class="cls-3" d="m49.3,885.93c.78.38,1.1,1.32.72,2.1,0,0,0,0,0,0-.38.78-1.32,1.1-2.1.72-.78-.38-1.1-1.32-.72-2.1s1.32-1.1,2.1-.72"/>
      <path id="_パス_991" data-name="パス 991" class="cls-3" d="m46.77,887.34c0-.28.06-.56.19-.81.31-.63.95-1.03,1.66-1.03,1.02,0,1.84.83,1.84,1.85,0,1.02-.83,1.84-1.85,1.84-1.02,0-1.84-.83-1.84-1.85m3.14,0c0-.5-.28-.95-.73-1.17-.65-.32-1.42-.05-1.74.6-.3.65-.04,1.42.59,1.74.64.32,1.42.05,1.74-.59.09-.18.14-.37.14-.57"/>
      <path id="_パス_992" data-name="パス 992" class="cls-3" d="m42.03,882.36c.78.38,1.1,1.32.72,2.1,0,0,0,0,0,0-.38.78-1.32,1.1-2.1.72-.78-.38-1.1-1.32-.72-2.1s1.32-1.1,2.1-.72"/>
      <path id="_パス_993" data-name="パス 993" class="cls-3" d="m39.5,883.77c0-.28.06-.56.19-.81.31-.63.95-1.03,1.66-1.03,1.02,0,1.84.83,1.84,1.84s-.83,1.84-1.84,1.84c-1.02,0-1.84-.83-1.84-1.84m3.14,0c0-.5-.28-.95-.73-1.17-.65-.32-1.42-.05-1.74.6-.3.65-.04,1.42.59,1.74.64.32,1.42.05,1.74-.59.09-.18.14-.37.14-.57"/>
      <path id="_パス_994" data-name="パス 994" class="cls-3" d="m34.76,878.79c.78.38,1.1,1.32.72,2.1,0,0,0,0,0,0-.38.78-1.32,1.1-2.1.72-.78-.38-1.1-1.32-.72-2.1s1.32-1.1,2.1-.72"/>
      <path id="_パス_995" data-name="パス 995" class="cls-3" d="m32.23,880.2c0-.28.06-.56.19-.81.31-.63.95-1.03,1.66-1.03,1.02,0,1.84.83,1.84,1.85,0,1.02-.83,1.84-1.85,1.84-1.02,0-1.84-.83-1.84-1.85m3.14,0c0-.5-.28-.95-.73-1.17-.64-.32-1.42-.05-1.74.59-.31.64-.04,1.42.59,1.74.64.32,1.42.05,1.74-.59.09-.18.14-.37.14-.57"/>
      <path id="_パス_996" data-name="パス 996" class="cls-3" d="m111.19,906.93c.78.38,1.1,1.32.72,2.1h0c-.38.78-1.32,1.1-2.1.72-.78-.38-1.1-1.32-.72-2.1s1.32-1.1,2.1-.72"/>
      <path id="_パス_997" data-name="パス 997" class="cls-3" d="m108.65,908.34c0-.28.06-.56.19-.81.31-.63.95-1.03,1.66-1.03,1.02,0,1.84.83,1.84,1.85,0,1.02-.83,1.84-1.85,1.84-1.02,0-1.84-.83-1.84-1.85m3.14,0c0-.5-.28-.95-.73-1.17-.65-.32-1.42-.05-1.74.6-.3.65-.04,1.42.59,1.74.64.32,1.42.05,1.74-.59.09-.18.14-.37.14-.57"/>
      <path id="_パス_998" data-name="パス 998" class="cls-3" d="m103.92,903.36c.78.38,1.1,1.32.72,2.1,0,0,0,0,0,0-.38.78-1.32,1.1-2.1.72-.78-.38-1.1-1.32-.72-2.1s1.32-1.1,2.1-.72"/>
      <path id="_パス_999" data-name="パス 999" class="cls-3" d="m101.38,904.77c0-.28.06-.56.19-.81.31-.63.95-1.03,1.66-1.03,1.02,0,1.84.83,1.84,1.85,0,1.02-.83,1.84-1.85,1.84-1.02,0-1.84-.83-1.84-1.85m3.14,0c0-.5-.28-.95-.73-1.17-.65-.32-1.42-.05-1.74.6-.3.65-.04,1.42.59,1.74.64.32,1.42.05,1.74-.59.09-.18.14-.37.14-.57"/>
      <path id="_パス_1000" data-name="パス 1000" class="cls-3" d="m96.65,899.79c.78.38,1.1,1.32.72,2.1,0,0,0,0,0,0-.38.78-1.32,1.1-2.1.72-.78-.38-1.1-1.32-.72-2.1s1.32-1.1,2.1-.72"/>
      <path id="_パス_1001" data-name="パス 1001" class="cls-3" d="m94.11,901.2c0-.28.06-.56.19-.81.31-.63.95-1.03,1.66-1.03,1.02,0,1.84.83,1.84,1.85,0,1.02-.83,1.84-1.85,1.84-1.02,0-1.84-.83-1.84-1.85m3.14,0c0-.5-.28-.95-.73-1.17-.65-.32-1.42-.05-1.74.6-.3.65-.04,1.42.59,1.74.64.32,1.42.05,1.74-.59.09-.18.14-.37.14-.57"/>
      <path id="_パス_1002" data-name="パス 1002" class="cls-3" d="m89.38,896.22c.78.38,1.1,1.32.72,2.1,0,0,0,0,0,0-.38.78-1.32,1.1-2.1.72-.78-.38-1.1-1.32-.72-2.1s1.32-1.1,2.1-.72"/>
      <path id="_パス_1003" data-name="パス 1003" class="cls-3" d="m86.84,897.63c0-.28.06-.56.19-.81.31-.63.95-1.03,1.66-1.03,1.02,0,1.84.83,1.84,1.85,0,1.02-.83,1.84-1.85,1.84-1.02,0-1.84-.83-1.84-1.85m3.14,0c0-.5-.28-.95-.73-1.17-.65-.32-1.42-.05-1.74.6-.31.65-.04,1.42.59,1.74.64.32,1.42.05,1.74-.59.09-.18.14-.37.14-.57"/>
      <path id="_パス_1004" data-name="パス 1004" class="cls-3" d="m82.1,892.65c.78.38,1.1,1.32.72,2.1,0,0,0,0,0,0-.38.78-1.32,1.1-2.1.72-.78-.38-1.1-1.32-.72-2.1s1.32-1.1,2.1-.72"/>
      <path id="_パス_1005" data-name="パス 1005" class="cls-3" d="m79.57,894.05c0-.28.06-.56.19-.81.31-.63.95-1.03,1.66-1.03,1.02,0,1.84.83,1.84,1.85,0,1.02-.83,1.84-1.85,1.84-1.02,0-1.84-.83-1.84-1.85m3.14,0c0-.5-.28-.95-.73-1.17-.65-.32-1.42-.05-1.74.6-.3.65-.04,1.42.59,1.74.18.09.37.13.57.13.72,0,1.3-.58,1.3-1.3"/>
      <path id="_パス_1006" data-name="パス 1006" class="cls-3" d="m74.83,889.08c.78.38,1.1,1.32.72,2.1,0,0,0,0,0,0-.38.78-1.32,1.1-2.1.72-.78-.38-1.1-1.32-.72-2.1s1.32-1.1,2.1-.72"/>
      <path id="_パス_1007" data-name="パス 1007" class="cls-3" d="m72.3,890.49c0-.28.06-.56.19-.81.31-.63.95-1.03,1.66-1.03,1.02,0,1.84.83,1.84,1.85,0,1.02-.83,1.84-1.85,1.84-1.02,0-1.84-.83-1.84-1.85m3.14,0c0-.5-.28-.95-.73-1.17-.65-.32-1.42-.05-1.74.6-.3.65-.04,1.42.59,1.74.18.09.37.13.57.13.72,0,1.3-.58,1.3-1.3"/>
      <path id="_パス_1008" data-name="パス 1008" class="cls-3" d="m67.56,885.5c.78.38,1.1,1.32.72,2.1,0,0,0,0,0,0-.38.78-1.32,1.1-2.1.72-.78-.38-1.1-1.32-.72-2.1s1.32-1.1,2.1-.72"/>
      <path id="_パス_1009" data-name="パス 1009" class="cls-3" d="m65.03,886.91c0-.28.06-.56.19-.81.31-.63.95-1.03,1.66-1.03,1.02,0,1.84.83,1.84,1.85,0,1.02-.83,1.84-1.85,1.84-1.02,0-1.84-.83-1.84-1.85m3.14,0c0-.5-.28-.95-.73-1.17-.65-.32-1.42-.05-1.74.6-.31.65-.04,1.42.59,1.74.64.32,1.42.05,1.74-.59.09-.18.14-.37.14-.57"/>
      <path id="_パス_1010" data-name="パス 1010" class="cls-3" d="m60.29,881.93c.78.38,1.1,1.32.72,2.1,0,0,0,0,0,0-.38.78-1.32,1.1-2.1.72-.78-.38-1.1-1.32-.72-2.1s1.32-1.1,2.1-.72"/>
      <path id="_パス_1011" data-name="パス 1011" class="cls-3" d="m57.76,883.34c0-.28.06-.56.19-.81.31-.63.95-1.03,1.66-1.03,1.02,0,1.84.83,1.84,1.85,0,1.02-.83,1.84-1.85,1.84-1.02,0-1.84-.83-1.84-1.85m3.14,0c0-.5-.28-.95-.73-1.17-.65-.32-1.42-.05-1.74.6-.3.65-.04,1.42.59,1.74.18.09.37.13.57.13.72,0,1.3-.58,1.3-1.3"/>
      <path id="_パス_1012" data-name="パス 1012" class="cls-3" d="m53.02,878.36c.78.38,1.1,1.32.72,2.1,0,0,0,0,0,0-.38.78-1.32,1.1-2.1.72-.78-.38-1.1-1.32-.72-2.1s1.32-1.1,2.1-.72"/>
      <path id="_パス_1013" data-name="パス 1013" class="cls-3" d="m50.49,879.77c0-.28.06-.56.19-.81.31-.63.95-1.03,1.65-1.03,1.02,0,1.84.83,1.84,1.84,0,1.02-.83,1.84-1.84,1.84-1.02,0-1.84-.83-1.84-1.84m3.14,0c0-.5-.28-.95-.73-1.17-.65-.32-1.42-.05-1.74.6-.3.65-.04,1.42.59,1.74.64.32,1.42.05,1.74-.59.09-.18.14-.37.14-.57"/>
      <path id="_パス_1014" data-name="パス 1014" class="cls-3" d="m45.75,874.79c.78.38,1.1,1.32.72,2.1,0,0,0,0,0,0-.38.78-1.32,1.1-2.1.72-.78-.38-1.1-1.32-.72-2.1s1.32-1.1,2.1-.72"/>
      <path id="_パス_1015" data-name="パス 1015" class="cls-3" d="m43.21,876.2c0-.28.06-.56.19-.81.31-.63.95-1.03,1.66-1.03,1.02,0,1.84.83,1.84,1.85,0,1.02-.83,1.84-1.85,1.84-1.02,0-1.84-.83-1.84-1.85m3.14,0c0-.5-.28-.95-.73-1.17-.65-.32-1.42-.05-1.74.6-.3.65-.04,1.42.59,1.74.64.32,1.42.05,1.74-.59.09-.18.14-.37.14-.57"/>
      <path id="_パス_1016" data-name="パス 1016" class="cls-3" d="m38.48,871.22c.78.38,1.1,1.32.72,2.1,0,0,0,0,0,0-.38.78-1.32,1.1-2.1.72-.78-.38-1.1-1.32-.72-2.1s1.32-1.1,2.1-.72"/>
      <path id="_パス_1017" data-name="パス 1017" class="cls-3" d="m35.94,872.63c0-.28.06-.56.19-.81.31-.63.95-1.03,1.65-1.03,1.02,0,1.84.82,1.84,1.84,0,1.02-.82,1.84-1.84,1.84s-1.84-.82-1.84-1.84m3.14,0c0-.49-.28-.95-.73-1.17-.64-.32-1.42-.05-1.74.59-.3.65-.04,1.42.59,1.74.18.09.37.13.57.13.72,0,1.3-.58,1.31-1.3"/>
      <path id="_パス_1018" data-name="パス 1018" class="cls-3" d="m114.9,899.36c.78.38,1.1,1.32.72,2.1h0c-.38.78-1.32,1.1-2.1.72-.78-.38-1.1-1.32-.72-2.1s1.32-1.1,2.1-.72"/>
      <path id="_パス_1019" data-name="パス 1019" class="cls-3" d="m112.37,900.77c0-.28.06-.56.19-.81.31-.63.95-1.03,1.66-1.03,1.02,0,1.84.83,1.84,1.85,0,1.02-.83,1.84-1.85,1.84-1.02,0-1.84-.83-1.84-1.85m3.14,0c0-.49-.28-.95-.73-1.16-.64-.32-1.42-.05-1.74.59-.31.64-.04,1.42.59,1.74.64.32,1.42.05,1.74-.59.09-.18.14-.37.14-.57"/>
      <path id="_パス_1020" data-name="パス 1020" class="cls-3" d="m107.63,895.79c.78.38,1.1,1.32.72,2.1h0c-.38.78-1.32,1.1-2.1.72-.78-.38-1.1-1.32-.72-2.1.38-.78,1.32-1.1,2.1-.72"/>
      <path id="_パス_1021" data-name="パス 1021" class="cls-3" d="m105.1,897.2c0-.28.06-.56.19-.81.31-.63.95-1.03,1.66-1.03,1.02,0,1.84.83,1.84,1.85,0,1.02-.83,1.84-1.85,1.84-1.02,0-1.84-.83-1.84-1.85m3.14,0c0-.5-.28-.95-.73-1.17-.65-.32-1.42-.05-1.74.6-.3.65-.04,1.42.59,1.74.64.32,1.42.05,1.74-.59.09-.18.14-.37.14-.57"/>
      <path id="_パス_1022" data-name="パス 1022" class="cls-3" d="m100.36,892.22c.78.38,1.1,1.32.72,2.1,0,0,0,0,0,0-.38.78-1.32,1.1-2.1.72-.78-.38-1.1-1.32-.72-2.1s1.32-1.1,2.1-.72"/>
      <path id="_パス_1023" data-name="パス 1023" class="cls-3" d="m97.83,893.63c0-.28.06-.56.19-.81.31-.63.95-1.03,1.66-1.03,1.02,0,1.84.83,1.84,1.85,0,1.02-.83,1.84-1.85,1.84-1.02,0-1.84-.83-1.84-1.85m3.14,0c0-.5-.28-.95-.73-1.17-.65-.32-1.42-.05-1.74.6-.31.65-.04,1.42.59,1.74.64.32,1.42.05,1.74-.59.09-.18.14-.37.14-.57"/>
      <path id="_パス_1024" data-name="パス 1024" class="cls-3" d="m93.09,888.65c.78.38,1.1,1.32.72,2.1,0,0,0,0,0,0-.38.78-1.32,1.1-2.1.72-.78-.38-1.1-1.32-.72-2.1s1.32-1.1,2.1-.72"/>
      <path id="_パス_1025" data-name="パス 1025" class="cls-3" d="m90.56,890.06c0-.28.06-.56.19-.81.31-.63.95-1.03,1.66-1.03,1.02,0,1.84.83,1.84,1.85,0,1.02-.83,1.84-1.85,1.84-1.02,0-1.84-.83-1.84-1.85m3.14,0c0-.5-.28-.95-.73-1.17-.65-.32-1.42-.05-1.74.6-.3.65-.04,1.42.59,1.74.64.32,1.42.05,1.74-.59.09-.18.14-.37.14-.57"/>
      <path id="_パス_1026" data-name="パス 1026" class="cls-3" d="m85.82,885.08c.78.38,1.1,1.32.72,2.1,0,0,0,0,0,0-.38.78-1.32,1.1-2.1.72-.78-.38-1.1-1.32-.72-2.1s1.32-1.1,2.1-.72"/>
      <path id="_パス_1027" data-name="パス 1027" class="cls-3" d="m83.29,886.49c0-.28.06-.56.19-.81.31-.63.95-1.03,1.66-1.03,1.02,0,1.84.83,1.84,1.84s-.83,1.84-1.84,1.84c-1.02,0-1.84-.83-1.84-1.84m3.14,0c0-.5-.28-.95-.73-1.17-.65-.32-1.42-.05-1.74.6-.3.65-.04,1.42.59,1.74.18.09.37.13.57.13.72,0,1.3-.58,1.3-1.3"/>
      <path id="_パス_1028" data-name="パス 1028" class="cls-3" d="m78.55,881.51c.78.38,1.1,1.32.72,2.1,0,0,0,0,0,0-.38.78-1.32,1.1-2.1.72-.78-.38-1.1-1.32-.72-2.1s1.32-1.1,2.1-.72"/>
      <path id="_パス_1029" data-name="パス 1029" class="cls-3" d="m76.02,882.92c0-.28.06-.56.19-.81.31-.63.95-1.03,1.66-1.03,1.02,0,1.84.83,1.84,1.85,0,1.02-.83,1.84-1.85,1.84-1.02,0-1.84-.83-1.84-1.85m3.14,0c0-.5-.28-.95-.73-1.17-.65-.32-1.42-.05-1.74.6-.3.65-.04,1.42.59,1.74.64.32,1.42.05,1.74-.59.09-.18.14-.37.14-.57"/>
      <path id="_パス_1030" data-name="パス 1030" class="cls-3" d="m71.28,877.94c.78.38,1.1,1.32.72,2.1,0,0,0,0,0,0-.38.78-1.32,1.1-2.1.72-.78-.38-1.1-1.32-.72-2.1s1.32-1.1,2.1-.72"/>
      <path id="_パス_1031" data-name="パス 1031" class="cls-3" d="m68.75,879.35c0-.28.06-.56.19-.81.31-.63.95-1.03,1.66-1.03,1.02,0,1.84.83,1.84,1.85,0,1.02-.83,1.84-1.85,1.84-1.02,0-1.84-.83-1.84-1.85m3.14,0c0-.5-.28-.95-.73-1.17-.64-.32-1.42-.05-1.74.59-.3.65-.04,1.42.59,1.74.18.09.37.13.57.13.72,0,1.3-.58,1.3-1.3"/>
      <path id="_パス_1032" data-name="パス 1032" class="cls-3" d="m64.01,874.37c.78.38,1.1,1.32.72,2.1,0,0,0,0,0,0-.38.78-1.32,1.1-2.1.72-.78-.38-1.1-1.32-.72-2.1s1.32-1.1,2.1-.72"/>
      <path id="_パス_1033" data-name="パス 1033" class="cls-3" d="m61.47,875.78c0-.28.06-.56.19-.81.31-.63.95-1.03,1.66-1.03,1.02,0,1.84.83,1.84,1.85,0,1.02-.83,1.84-1.85,1.84-1.02,0-1.84-.83-1.84-1.85m3.14,0c0-.5-.28-.95-.73-1.17-.64-.32-1.42-.05-1.74.59-.31.65-.04,1.42.59,1.74.64.32,1.42.05,1.74-.59.09-.18.14-.37.14-.57"/>
      <path id="_パス_1034" data-name="パス 1034" class="cls-3" d="m56.74,870.8c.78.38,1.1,1.32.72,2.1,0,0,0,0,0,0-.38.78-1.32,1.1-2.1.72-.78-.38-1.1-1.32-.72-2.1s1.32-1.1,2.1-.72"/>
      <path id="_パス_1035" data-name="パス 1035" class="cls-3" d="m54.2,872.21c0-.28.06-.56.19-.81.31-.63.95-1.03,1.66-1.03,1.02,0,1.84.83,1.84,1.85,0,1.02-.83,1.84-1.85,1.84-1.02,0-1.84-.83-1.84-1.85m3.14,0c0-.5-.28-.95-.73-1.17-.65-.32-1.42-.05-1.74.6-.3.65-.04,1.42.59,1.74.18.09.37.13.57.13.72,0,1.3-.58,1.3-1.3"/>
      <path id="_パス_1036" data-name="パス 1036" class="cls-3" d="m49.47,867.23c.78.38,1.1,1.32.72,2.1,0,0,0,0,0,0-.38.78-1.32,1.1-2.1.72-.78-.38-1.1-1.32-.72-2.1s1.32-1.1,2.1-.72"/>
      <path id="_パス_1037" data-name="パス 1037" class="cls-3" d="m46.93,868.64c0-.28.06-.56.19-.81.31-.63.95-1.03,1.66-1.03,1.02,0,1.84.83,1.84,1.85,0,1.02-.83,1.84-1.85,1.84-1.02,0-1.84-.83-1.84-1.85m3.14,0c0-.5-.28-.95-.73-1.17-.65-.32-1.42-.05-1.74.6-.3.65-.04,1.42.59,1.74.64.32,1.42.05,1.74-.59.09-.18.14-.37.14-.57"/>
      <path id="_パス_1038" data-name="パス 1038" class="cls-3" d="m42.2,863.65c.78.38,1.1,1.32.72,2.1,0,0,0,0,0,0-.38.78-1.32,1.1-2.1.72-.78-.38-1.1-1.32-.72-2.1s1.32-1.1,2.1-.72"/>
      <path id="_パス_1039" data-name="パス 1039" class="cls-3" d="m39.66,865.06c0-.28.06-.56.19-.81.31-.63.95-1.03,1.66-1.03,1.02,0,1.84.83,1.84,1.85,0,1.02-.83,1.84-1.85,1.84-1.02,0-1.84-.83-1.84-1.85m3.14,0c0-.5-.28-.95-.73-1.17-.65-.32-1.42-.05-1.74.6-.3.65-.04,1.42.59,1.74.64.32,1.42.05,1.74-.59.09-.18.14-.37.14-.57"/>
      <path id="_パス_1040" data-name="パス 1040" class="cls-3" d="m118.62,891.79c.78.38,1.1,1.32.72,2.1h0c-.38.78-1.32,1.1-2.1.72-.78-.38-1.1-1.32-.72-2.1s1.32-1.1,2.1-.72"/>
      <path id="_パス_1041" data-name="パス 1041" class="cls-3" d="m116.09,893.2c0-.28.06-.56.19-.81.31-.63.95-1.03,1.66-1.03,1.02,0,1.84.83,1.84,1.85,0,1.02-.83,1.84-1.85,1.84-1.02,0-1.84-.83-1.84-1.85m3.14,0c0-.5-.28-.95-.73-1.17-.65-.32-1.42-.05-1.74.6-.3.65-.04,1.42.59,1.74.64.32,1.42.05,1.74-.59.09-.18.14-.37.14-.57"/>
      <path id="_パス_1042" data-name="パス 1042" class="cls-3" d="m111.35,888.22c.78.38,1.1,1.32.72,2.1h0c-.38.78-1.32,1.1-2.1.72-.78-.38-1.1-1.32-.72-2.1s1.32-1.1,2.1-.72"/>
      <path id="_パス_1043" data-name="パス 1043" class="cls-3" d="m108.81,889.64c0-.28.06-.56.19-.81.31-.63.95-1.03,1.66-1.03,1.02,0,1.84.83,1.84,1.85,0,1.02-.83,1.84-1.85,1.84-1.02,0-1.84-.83-1.84-1.85m3.14,0c0-.49-.28-.95-.73-1.16-.64-.32-1.42-.05-1.74.59-.3.65-.04,1.42.59,1.74.64.32,1.42.05,1.74-.59.09-.18.14-.37.14-.57"/>
      <path id="_パス_1044" data-name="パス 1044" class="cls-3" d="m104.08,884.65c.78.38,1.1,1.32.72,2.1,0,0,0,0,0,0-.38.78-1.32,1.1-2.1.72-.78-.38-1.1-1.32-.72-2.1s1.32-1.1,2.1-.72"/>
      <path id="_パス_1045" data-name="パス 1045" class="cls-3" d="m101.55,886.07c0-.28.06-.56.19-.81.31-.63.95-1.03,1.66-1.03,1.02,0,1.84.83,1.84,1.85,0,1.02-.83,1.84-1.85,1.84-1.02,0-1.84-.83-1.84-1.85m3.14,0c0-.5-.28-.95-.73-1.17-.65-.32-1.42-.05-1.74.6-.3.65-.04,1.42.59,1.74.64.32,1.42.05,1.74-.59.09-.18.14-.37.14-.57"/>
      <path id="_パス_1046" data-name="パス 1046" class="cls-3" d="m96.81,881.08c.78.38,1.1,1.32.72,2.1,0,0,0,0,0,0-.38.78-1.32,1.1-2.1.72-.78-.38-1.1-1.32-.72-2.1s1.32-1.1,2.1-.72"/>
      <path id="_パス_1047" data-name="パス 1047" class="cls-3" d="m94.27,882.49c0-.28.06-.56.19-.81.31-.63.95-1.03,1.66-1.03,1.02,0,1.84.83,1.84,1.84s-.83,1.84-1.84,1.84c-1.02,0-1.84-.83-1.84-1.84m3.14,0c0-.5-.28-.95-.73-1.17-.64-.32-1.42-.05-1.74.59-.3.65-.04,1.42.59,1.74.64.32,1.42.05,1.74-.59.09-.18.14-.37.14-.57"/>
      <path id="_パス_1048" data-name="パス 1048" class="cls-3" d="m89.54,877.51c.78.38,1.1,1.32.72,2.1,0,0,0,0,0,0-.38.78-1.32,1.1-2.1.72-.78-.38-1.1-1.32-.72-2.1s1.32-1.1,2.1-.72"/>
      <path id="_パス_1049" data-name="パス 1049" class="cls-3" d="m87,878.92c0-.28.06-.56.19-.81.31-.63.95-1.03,1.66-1.03,1.02,0,1.84.83,1.84,1.85,0,1.02-.83,1.84-1.85,1.84-1.02,0-1.84-.83-1.84-1.85m3.14,0c0-.5-.28-.95-.73-1.17-.65-.32-1.42-.05-1.74.6-.3.65-.04,1.42.59,1.74.64.32,1.42.05,1.74-.59.09-.18.14-.37.14-.57"/>
      <path id="_パス_1050" data-name="パス 1050" class="cls-3" d="m82.27,873.94c.78.38,1.1,1.32.72,2.1,0,0,0,0,0,0-.38.78-1.32,1.1-2.1.72-.78-.38-1.1-1.32-.72-2.1s1.32-1.1,2.1-.72"/>
      <path id="_パス_1051" data-name="パス 1051" class="cls-3" d="m79.73,875.35c0-.28.06-.56.19-.81.31-.63.95-1.03,1.66-1.03,1.02,0,1.84.83,1.84,1.85,0,1.02-.83,1.84-1.85,1.84-1.02,0-1.84-.83-1.84-1.85m3.14,0c0-.5-.28-.95-.73-1.17-.65-.32-1.42-.05-1.74.6-.3.65-.04,1.42.59,1.74.18.09.37.13.57.13.72,0,1.3-.58,1.3-1.3"/>
      <path id="_パス_1052" data-name="パス 1052" class="cls-3" d="m75,870.37c.78.38,1.1,1.32.72,2.1,0,0,0,0,0,0-.38.78-1.32,1.1-2.1.72-.78-.38-1.1-1.32-.72-2.1s1.32-1.1,2.1-.72"/>
      <path id="_パス_1053" data-name="パス 1053" class="cls-3" d="m72.46,871.78c0-.28.06-.56.19-.81.31-.63.95-1.03,1.66-1.03,1.02,0,1.84.83,1.84,1.85,0,1.02-.83,1.84-1.85,1.84-1.02,0-1.84-.83-1.84-1.85m3.14,0c0-.5-.28-.95-.73-1.17-.65-.32-1.42-.05-1.74.6-.3.65-.04,1.42.59,1.74.18.09.37.13.57.13.72,0,1.3-.58,1.3-1.3"/>
      <path id="_パス_1054" data-name="パス 1054" class="cls-3" d="m67.72,866.8c.78.38,1.1,1.32.72,2.1,0,0,0,0,0,0-.38.78-1.32,1.1-2.1.72-.78-.38-1.1-1.32-.72-2.1s1.32-1.1,2.1-.72"/>
      <path id="_パス_1055" data-name="パス 1055" class="cls-3" d="m65.19,868.21c0-.28.06-.56.19-.81.31-.63.95-1.03,1.66-1.03,1.02,0,1.84.83,1.84,1.85,0,1.02-.83,1.84-1.85,1.84-1.02,0-1.84-.83-1.84-1.85m3.14,0c0-.5-.28-.95-.73-1.17-.65-.32-1.42-.05-1.74.6-.3.65-.04,1.42.59,1.74.18.09.37.13.57.13.72,0,1.3-.58,1.3-1.3"/>
      <path id="_パス_1056" data-name="パス 1056" class="cls-3" d="m60.45,863.23c.78.38,1.1,1.32.72,2.1,0,0,0,0,0,0-.38.78-1.32,1.1-2.1.72-.78-.38-1.1-1.32-.72-2.1s1.32-1.1,2.1-.72"/>
      <path id="_パス_1057" data-name="パス 1057" class="cls-3" d="m57.92,864.64c0-.28.06-.56.19-.81.31-.63.95-1.03,1.66-1.03,1.02,0,1.84.83,1.84,1.85,0,1.02-.83,1.84-1.85,1.84-1.02,0-1.84-.83-1.84-1.85m3.14,0c0-.5-.28-.95-.73-1.17-.65-.32-1.42-.05-1.74.6-.3.65-.04,1.42.59,1.74.64.32,1.42.05,1.74-.59.09-.18.14-.37.14-.57"/>
      <path id="_パス_1058" data-name="パス 1058" class="cls-3" d="m53.18,859.66c.78.38,1.1,1.32.72,2.1,0,0,0,0,0,0-.38.78-1.32,1.1-2.1.72-.78-.38-1.1-1.32-.72-2.1s1.32-1.1,2.1-.72"/>
      <path id="_パス_1059" data-name="パス 1059" class="cls-3" d="m50.65,861.07c0-.28.06-.56.19-.81.31-.63.95-1.03,1.66-1.03,1.02,0,1.84.83,1.84,1.85,0,1.02-.83,1.84-1.85,1.84-1.02,0-1.84-.83-1.84-1.85m3.14,0c0-.5-.28-.95-.73-1.17-.65-.32-1.42-.05-1.74.6-.3.65-.04,1.42.59,1.74.64.32,1.42.05,1.74-.59.09-.18.14-.37.14-.57"/>
      <path id="_パス_1060" data-name="パス 1060" class="cls-3" d="m45.91,856.09c.78.38,1.1,1.32.72,2.1,0,0,0,0,0,0-.38.78-1.32,1.1-2.1.72-.78-.38-1.1-1.32-.72-2.1.38-.78,1.32-1.1,2.1-.72"/>
      <path id="_パス_1061" data-name="パス 1061" class="cls-3" d="m43.38,857.49c0-.28.06-.56.19-.81.31-.63.95-1.03,1.66-1.03,1.02,0,1.84.83,1.84,1.84s-.83,1.84-1.84,1.84c-1.02,0-1.84-.83-1.84-1.84m3.14,0c0-.5-.28-.95-.73-1.17-.65-.32-1.42-.05-1.74.6-.3.65-.04,1.42.59,1.74.64.32,1.42.05,1.74-.59.09-.18.14-.37.14-.57"/>
      <path id="_パス_1062" data-name="パス 1062" class="cls-3" d="m122.34,884.23c.78.38,1.1,1.32.72,2.1h0c-.38.78-1.32,1.1-2.1.72-.78-.38-1.1-1.32-.72-2.1s1.32-1.1,2.1-.72"/>
      <path id="_パス_1063" data-name="パス 1063" class="cls-3" d="m119.8,885.64c0-.28.06-.56.19-.81.31-.63.95-1.03,1.66-1.03,1.02,0,1.84.83,1.84,1.85,0,1.02-.83,1.84-1.85,1.84-1.02,0-1.84-.83-1.84-1.85m3.14,0c0-.5-.28-.95-.73-1.17-.64-.32-1.42-.05-1.74.59-.31.64-.04,1.42.59,1.74.64.32,1.42.05,1.74-.59.09-.18.14-.37.14-.57"/>
      <path id="_パス_1064" data-name="パス 1064" class="cls-3" d="m115.07,880.66c.78.38,1.1,1.32.72,2.1h0c-.38.78-1.32,1.1-2.1.72-.78-.38-1.1-1.32-.72-2.1s1.32-1.1,2.1-.72"/>
      <path id="_パス_1065" data-name="パス 1065" class="cls-3" d="m112.53,882.07c0-.28.06-.56.19-.81.31-.63.95-1.03,1.66-1.03,1.02,0,1.84.83,1.84,1.85,0,1.02-.83,1.84-1.85,1.84-1.02,0-1.84-.83-1.84-1.85m3.14,0c0-.5-.28-.95-.73-1.17-.65-.32-1.42-.05-1.74.6-.31.64-.04,1.42.59,1.74.64.32,1.42.05,1.74-.59.09-.18.14-.37.14-.57"/>
      <path id="_パス_1066" data-name="パス 1066" class="cls-3" d="m107.8,877.08c.78.38,1.1,1.32.72,2.1h0c-.38.78-1.32,1.1-2.1.72-.78-.38-1.1-1.32-.72-2.1s1.32-1.1,2.1-.72"/>
      <path id="_パス_1067" data-name="パス 1067" class="cls-3" d="m105.26,878.49c0-.28.06-.56.19-.81.31-.63.95-1.03,1.66-1.03,1.02,0,1.84.83,1.84,1.85,0,1.02-.83,1.84-1.85,1.84-1.02,0-1.84-.83-1.84-1.85m3.14,0c0-.49-.28-.95-.73-1.16-.64-.32-1.42-.05-1.74.59-.3.65-.04,1.42.59,1.74.64.32,1.42.05,1.74-.59.09-.18.14-.37.14-.57"/>
      <path id="_パス_1068" data-name="パス 1068" class="cls-3" d="m100.53,873.51c.78.38,1.1,1.32.72,2.1,0,0,0,0,0,0-.38.78-1.32,1.1-2.1.72-.78-.38-1.1-1.32-.72-2.1s1.32-1.1,2.1-.72"/>
      <path id="_パス_1069" data-name="パス 1069" class="cls-3" d="m97.99,874.92c0-.28.06-.56.19-.81.31-.63.95-1.03,1.66-1.03,1.02,0,1.84.83,1.84,1.85,0,1.02-.83,1.84-1.85,1.84-1.02,0-1.84-.83-1.84-1.85m3.14,0c0-.5-.28-.95-.73-1.17-.65-.32-1.42-.05-1.74.6-.3.65-.04,1.42.59,1.74.64.32,1.42.05,1.74-.59.09-.18.14-.37.14-.57"/>
      <path id="_パス_1070" data-name="パス 1070" class="cls-3" d="m93.25,869.94c.78.38,1.1,1.32.72,2.1,0,0,0,0,0,0-.38.78-1.32,1.1-2.1.72-.78-.38-1.1-1.32-.72-2.1s1.32-1.1,2.1-.72"/>
      <path id="_パス_1071" data-name="パス 1071" class="cls-3" d="m90.72,871.35c0-.28.06-.56.19-.81.31-.63.95-1.03,1.66-1.03,1.02,0,1.84.83,1.84,1.85,0,1.02-.83,1.84-1.85,1.84-1.02,0-1.84-.83-1.84-1.85m3.14,0c0-.5-.28-.95-.73-1.17-.65-.32-1.42-.05-1.74.6-.31.65-.04,1.42.59,1.74.64.31,1.42.05,1.74-.59.09-.18.14-.37.14-.57"/>
      <path id="_パス_1072" data-name="パス 1072" class="cls-3" d="m85.98,866.37c.78.38,1.1,1.32.72,2.1,0,0,0,0,0,0-.38.78-1.32,1.1-2.1.72-.78-.38-1.1-1.32-.72-2.1s1.32-1.1,2.1-.72"/>
      <path id="_パス_1073" data-name="パス 1073" class="cls-3" d="m83.45,867.78c0-.28.06-.56.19-.81.31-.63.95-1.03,1.66-1.03,1.02,0,1.84.83,1.84,1.85,0,1.02-.83,1.84-1.85,1.84-1.02,0-1.84-.83-1.84-1.85m3.14,0c0-.5-.28-.95-.73-1.17-.65-.32-1.42-.05-1.74.6-.3.65-.04,1.42.59,1.74.18.09.37.13.57.13.72,0,1.3-.58,1.3-1.3"/>
      <path id="_パス_1074" data-name="パス 1074" class="cls-3" d="m78.71,862.8c.78.38,1.1,1.32.72,2.1,0,0,0,0,0,0-.38.78-1.32,1.1-2.1.72-.78-.38-1.1-1.32-.72-2.1s1.32-1.1,2.1-.72"/>
      <path id="_パス_1075" data-name="パス 1075" class="cls-3" d="m76.18,864.21c0-.28.06-.56.19-.81.31-.63.95-1.03,1.66-1.03,1.02,0,1.84.83,1.84,1.84s-.83,1.84-1.84,1.84c-1.02,0-1.84-.83-1.84-1.84m3.14,0c0-.5-.28-.95-.73-1.17-.65-.32-1.42-.05-1.74.6-.3.65-.04,1.42.59,1.74.18.09.37.13.57.13.72,0,1.3-.58,1.3-1.3"/>
      <path id="_パス_1076" data-name="パス 1076" class="cls-3" d="m71.44,859.23c.78.38,1.1,1.32.72,2.1,0,0,0,0,0,0-.38.78-1.32,1.1-2.1.72-.78-.38-1.1-1.32-.72-2.1s1.32-1.1,2.1-.72"/>
      <path id="_パス_1077" data-name="パス 1077" class="cls-3" d="m68.91,860.64c0-.28.06-.56.19-.81.31-.63.95-1.03,1.66-1.03,1.02,0,1.84.83,1.84,1.85,0,1.02-.83,1.84-1.85,1.84-1.02,0-1.84-.83-1.84-1.85m3.14,0c0-.5-.28-.95-.73-1.17-.65-.32-1.42-.05-1.74.6-.31.65-.04,1.42.59,1.74.64.32,1.42.05,1.74-.59.09-.18.14-.37.14-.57"/>
      <path id="_パス_1078" data-name="パス 1078" class="cls-3" d="m64.17,855.66c.78.38,1.1,1.32.72,2.1,0,0,0,0,0,0-.38.78-1.32,1.1-2.1.72-.78-.38-1.1-1.32-.72-2.1.38-.78,1.32-1.1,2.1-.72"/>
      <path id="_パス_1079" data-name="パス 1079" class="cls-3" d="m61.63,857.07c0-.28.06-.56.19-.81.31-.63.95-1.03,1.66-1.03,1.02,0,1.84.83,1.84,1.85,0,1.02-.83,1.84-1.85,1.84-1.02,0-1.84-.83-1.84-1.85m3.14,0c0-.5-.28-.95-.73-1.17-.65-.32-1.42-.05-1.74.6-.3.65-.04,1.42.59,1.74.18.09.37.13.57.13.72,0,1.3-.58,1.3-1.3"/>
      <path id="_パス_1080" data-name="パス 1080" class="cls-3" d="m56.9,852.09c.78.38,1.1,1.32.72,2.1,0,0,0,0,0,0-.38.78-1.32,1.1-2.1.72-.78-.38-1.1-1.32-.72-2.1.38-.78,1.32-1.1,2.1-.72"/>
      <path id="_パス_1081" data-name="パス 1081" class="cls-3" d="m54.37,853.5c0-.28.06-.56.19-.81.31-.63.95-1.03,1.65-1.03,1.02,0,1.84.83,1.84,1.84,0,1.02-.83,1.84-1.84,1.84-1.02,0-1.84-.83-1.84-1.84m3.14,0c0-.5-.28-.95-.73-1.17-.65-.32-1.42-.05-1.74.6-.3.65-.04,1.42.59,1.74.64.32,1.42.05,1.74-.59.09-.18.14-.37.14-.57"/>
      <path id="_パス_1082" data-name="パス 1082" class="cls-3" d="m49.63,848.52s0,0,0,0c.78.38,1.1,1.32.72,2.1-.38.78-1.32,1.1-2.1.72-.78-.38-1.1-1.32-.72-2.1s1.32-1.1,2.1-.72"/>
      <path id="_パス_1083" data-name="パス 1083" class="cls-3" d="m47.09,849.93c0-.28.06-.56.19-.81.31-.63.95-1.03,1.66-1.03,1.02,0,1.84.83,1.84,1.85,0,1.02-.83,1.84-1.85,1.84s-1.84-.83-1.84-1.85m3.14,0c0-.5-.28-.95-.73-1.17-.65-.32-1.42-.05-1.74.6-.3.65-.04,1.42.59,1.74.64.32,1.42.05,1.74-.59.09-.18.14-.37.14-.57"/>
      <path id="_パス_1084" data-name="パス 1084" class="cls-3" d="m126.05,876.66c.78.38,1.1,1.32.72,2.1h0c-.38.78-1.32,1.1-2.1.72-.78-.38-1.1-1.32-.72-2.1s1.32-1.1,2.1-.72"/>
      <path id="_パス_1085" data-name="パス 1085" class="cls-3" d="m123.52,878.07c0-.28.06-.56.19-.81.31-.63.95-1.03,1.66-1.03,1.02,0,1.84.83,1.84,1.85,0,1.02-.83,1.84-1.85,1.84-1.02,0-1.84-.83-1.84-1.85m3.14,0c0-.5-.28-.95-.73-1.17-.65-.32-1.42-.05-1.74.6-.3.65-.04,1.42.59,1.74.64.32,1.42.05,1.74-.59.09-.18.14-.37.14-.57"/>
      <path id="_パス_1086" data-name="パス 1086" class="cls-3" d="m118.78,873.09c.78.38,1.1,1.32.72,2.1h0c-.38.78-1.32,1.1-2.1.72-.78-.38-1.1-1.32-.72-2.1s1.32-1.1,2.1-.72"/>
      <path id="_パス_1087" data-name="パス 1087" class="cls-3" d="m116.25,874.5c0-.28.06-.56.19-.81.31-.63.95-1.03,1.66-1.03,1.02,0,1.84.83,1.84,1.85,0,1.02-.83,1.84-1.85,1.84-1.02,0-1.84-.83-1.84-1.85m3.14,0c0-.5-.28-.95-.73-1.17-.65-.32-1.42-.05-1.74.6-.3.65-.04,1.42.59,1.74.64.32,1.42.05,1.74-.59.09-.18.14-.37.14-.57"/>
      <path id="_パス_1088" data-name="パス 1088" class="cls-3" d="m111.51,869.52c.78.38,1.1,1.32.72,2.1h0c-.38.78-1.32,1.1-2.1.72-.78-.38-1.1-1.32-.72-2.1s1.32-1.1,2.1-.72"/>
      <path id="_パス_1089" data-name="パス 1089" class="cls-3" d="m108.98,870.93c0-.28.06-.56.19-.81.31-.63.95-1.03,1.66-1.03,1.02,0,1.84.83,1.84,1.85,0,1.02-.83,1.84-1.85,1.84-1.02,0-1.84-.83-1.84-1.85m3.14,0c0-.5-.28-.95-.73-1.17-.65-.32-1.42-.05-1.74.6-.3.65-.04,1.42.59,1.74.64.32,1.42.05,1.74-.59.09-.18.14-.37.14-.57"/>
      <path id="_パス_1090" data-name="パス 1090" class="cls-3" d="m104.24,865.95c.78.38,1.1,1.32.72,2.1,0,0,0,0,0,0-.38.78-1.32,1.1-2.1.72-.78-.38-1.1-1.32-.72-2.1s1.32-1.1,2.1-.72"/>
      <path id="_パス_1091" data-name="パス 1091" class="cls-3" d="m101.71,867.36c0-.28.06-.56.19-.81.31-.63.95-1.03,1.66-1.03,1.02,0,1.84.83,1.84,1.85,0,1.02-.83,1.84-1.85,1.84-1.02,0-1.84-.83-1.84-1.85m3.14,0c0-.5-.28-.95-.73-1.17-.65-.32-1.42-.05-1.74.6-.31.65-.04,1.42.59,1.74.64.32,1.42.05,1.74-.59.09-.18.14-.37.14-.57"/>
      <path id="_パス_1092" data-name="パス 1092" class="cls-3" d="m96.97,862.37c.78.38,1.1,1.32.72,2.1,0,0,0,0,0,0-.38.78-1.32,1.1-2.1.72-.78-.38-1.1-1.32-.72-2.1s1.32-1.1,2.1-.72"/>
      <path id="_パス_1093" data-name="パス 1093" class="cls-3" d="m94.44,863.79c0-.28.06-.56.19-.81.31-.63.95-1.03,1.66-1.03,1.02,0,1.84.83,1.84,1.85,0,1.02-.83,1.84-1.85,1.84-1.02,0-1.84-.83-1.84-1.85m3.14,0c0-.5-.28-.95-.73-1.17-.65-.32-1.42-.05-1.74.6-.31.64-.04,1.42.59,1.74.64.32,1.42.05,1.74-.59.09-.18.14-.37.14-.57"/>
      <path id="_パス_1094" data-name="パス 1094" class="cls-3" d="m89.7,858.8c.78.38,1.1,1.32.72,2.1,0,0,0,0,0,0-.38.78-1.32,1.1-2.1.72-.78-.38-1.1-1.32-.72-2.1s1.32-1.1,2.1-.72"/>
      <path id="_パス_1095" data-name="パス 1095" class="cls-3" d="m87.17,860.21c0-.28.06-.56.19-.81.31-.63.95-1.03,1.66-1.03,1.02,0,1.84.83,1.84,1.84s-.83,1.84-1.84,1.84c-1.02,0-1.84-.83-1.84-1.84m3.14,0c0-.5-.28-.95-.73-1.17-.64-.32-1.42-.05-1.74.59-.3.65-.04,1.42.59,1.74.18.09.37.13.57.13.72,0,1.3-.58,1.3-1.3"/>
      <path id="_パス_1096" data-name="パス 1096" class="cls-3" d="m82.43,855.23c.78.38,1.1,1.32.72,2.1,0,0,0,0,0,0-.38.78-1.32,1.1-2.1.72-.78-.38-1.1-1.32-.72-2.1.38-.78,1.32-1.1,2.1-.72"/>
      <path id="_パス_1097" data-name="パス 1097" class="cls-3" d="m79.9,856.64c0-.28.06-.56.19-.81.31-.63.95-1.03,1.66-1.03,1.02,0,1.84.83,1.84,1.85,0,1.02-.83,1.84-1.85,1.84s-1.84-.83-1.84-1.85m3.14,0c0-.5-.28-.95-.73-1.17-.65-.32-1.42-.05-1.74.6-.3.65-.04,1.42.59,1.74.64.32,1.42.05,1.74-.59.09-.18.14-.37.14-.57"/>
      <path id="_パス_1098" data-name="パス 1098" class="cls-3" d="m75.16,851.66c.78.38,1.1,1.32.72,2.1,0,0,0,0,0,0-.38.78-1.32,1.1-2.1.72-.78-.38-1.1-1.32-.72-2.1.38-.78,1.32-1.1,2.1-.72"/>
      <path id="_パス_1099" data-name="パス 1099" class="cls-3" d="m72.62,853.07c0-.28.06-.56.19-.81.31-.63.95-1.03,1.66-1.03,1.02,0,1.84.83,1.84,1.85,0,1.02-.83,1.84-1.85,1.84s-1.84-.83-1.84-1.85m3.14,0c0-.5-.28-.95-.73-1.17-.65-.32-1.42-.05-1.74.6-.3.65-.04,1.42.59,1.74.18.09.37.13.57.13.72,0,1.3-.58,1.3-1.3"/>
      <path id="_パス_1100" data-name="パス 1100" class="cls-3" d="m67.88,848.09c.78.38,1.1,1.32.72,2.1,0,0,0,0,0,0-.38.78-1.32,1.1-2.1.72-.78-.38-1.1-1.32-.72-2.1.38-.78,1.32-1.1,2.1-.72"/>
      <path id="_パス_1101" data-name="パス 1101" class="cls-3" d="m65.35,849.5c0-.28.06-.56.19-.81.31-.63.95-1.03,1.66-1.03,1.02,0,1.84.83,1.84,1.85,0,1.02-.83,1.84-1.85,1.84s-1.84-.83-1.84-1.85m3.14,0c0-.5-.28-.95-.73-1.17-.65-.32-1.42-.05-1.74.6-.3.65-.04,1.42.59,1.74.64.32,1.42.05,1.74-.59.09-.18.14-.37.14-.57"/>
      <path id="_パス_1102" data-name="パス 1102" class="cls-3" d="m60.62,844.52c.78.38,1.1,1.32.72,2.1,0,0,0,0,0,0-.38.78-1.32,1.1-2.1.72-.78-.38-1.1-1.32-.72-2.1.38-.78,1.32-1.1,2.1-.72"/>
      <path id="_パス_1103" data-name="パス 1103" class="cls-3" d="m58.08,845.93c0-.28.06-.56.19-.81.31-.63.95-1.03,1.66-1.03,1.02,0,1.84.83,1.84,1.85,0,1.02-.83,1.84-1.85,1.84s-1.84-.83-1.84-1.85m3.14,0c0-.5-.28-.95-.73-1.17-.65-.32-1.42-.05-1.74.6-.3.65-.04,1.42.59,1.74.18.09.37.13.57.13.72,0,1.3-.58,1.3-1.3"/>
      <path id="_パス_1104" data-name="パス 1104" class="cls-3" d="m53.34,840.95c.78.38,1.1,1.32.72,2.1,0,0,0,0,0,0-.38.78-1.32,1.1-2.1.72-.78-.38-1.1-1.32-.72-2.1.38-.78,1.32-1.1,2.1-.72"/>
      <path id="_パス_1105" data-name="パス 1105" class="cls-3" d="m50.81,842.36c0-.28.06-.56.19-.81.31-.63.95-1.03,1.66-1.03,1.02,0,1.84.83,1.84,1.85,0,1.02-.83,1.84-1.85,1.84s-1.84-.83-1.84-1.85m3.14,0c0-.49-.28-.95-.73-1.17-.64-.32-1.42-.05-1.74.59-.3.65-.04,1.42.59,1.74.64.32,1.42.05,1.74-.59.09-.18.14-.37.14-.57"/>
      <path id="_パス_1106" data-name="パス 1106" class="cls-3" d="m129.77,869.09c.78.38,1.1,1.32.72,2.1h0c-.38.78-1.32,1.1-2.1.72-.78-.38-1.1-1.32-.72-2.1s1.32-1.1,2.1-.72"/>
      <path id="_パス_1107" data-name="パス 1107" class="cls-3" d="m127.24,870.5c0-.28.06-.56.19-.81.31-.63.95-1.03,1.66-1.03,1.02,0,1.84.83,1.84,1.85,0,1.02-.83,1.84-1.85,1.84-1.02,0-1.84-.83-1.84-1.85m3.14,0c0-.5-.28-.95-.73-1.17-.65-.32-1.42-.05-1.74.6-.31.65-.04,1.42.59,1.74.18.09.37.13.57.13.72,0,1.3-.58,1.3-1.3"/>
      <path id="_パス_1108" data-name="パス 1108" class="cls-3" d="m122.5,865.52c.78.38,1.1,1.32.72,2.1h0c-.38.78-1.32,1.1-2.1.72-.78-.38-1.1-1.32-.72-2.1s1.32-1.1,2.1-.72"/>
      <path id="_パス_1109" data-name="パス 1109" class="cls-3" d="m119.97,866.93c0-.28.06-.56.19-.81.31-.63.95-1.03,1.65-1.03,1.02,0,1.84.83,1.84,1.84s-.83,1.84-1.84,1.84-1.84-.83-1.84-1.84m3.14,0c0-.5-.28-.95-.73-1.17-.65-.32-1.42-.05-1.74.6-.31.64-.04,1.42.59,1.74.64.32,1.42.05,1.74-.59.09-.18.14-.37.14-.57"/>
      <path id="_パス_1110" data-name="パス 1110" class="cls-3" d="m115.23,861.95c.78.38,1.1,1.32.72,2.1h0c-.38.78-1.32,1.1-2.1.72-.78-.38-1.1-1.32-.72-2.1s1.32-1.1,2.1-.72"/>
      <path id="_パス_1111" data-name="パス 1111" class="cls-3" d="m112.7,863.36c0-.28.06-.56.19-.81.31-.63.95-1.03,1.66-1.03,1.02,0,1.84.83,1.84,1.85,0,1.02-.83,1.84-1.85,1.84-1.02,0-1.84-.83-1.84-1.85m3.14,0c0-.5-.28-.95-.73-1.17-.65-.32-1.42-.05-1.74.6-.3.65-.04,1.42.59,1.74.64.32,1.42.05,1.74-.59.09-.18.14-.37.14-.57"/>
      <path id="_パス_1112" data-name="パス 1112" class="cls-3" d="m107.96,858.38c.78.38,1.1,1.32.72,2.1h0c-.38.78-1.32,1.1-2.1.72-.78-.38-1.1-1.32-.72-2.1.38-.78,1.32-1.1,2.1-.72"/>
      <path id="_パス_1113" data-name="パス 1113" class="cls-3" d="m105.42,859.79c0-.28.06-.56.19-.81.31-.63.95-1.03,1.66-1.03,1.02,0,1.84.83,1.84,1.85,0,1.02-.83,1.84-1.85,1.84-1.02,0-1.84-.83-1.84-1.85m3.14,0c0-.5-.28-.95-.73-1.17-.65-.32-1.42-.05-1.74.6-.3.65-.04,1.42.59,1.74.64.32,1.42.05,1.74-.59.09-.18.14-.37.14-.57"/>
      <path id="_パス_1114" data-name="パス 1114" class="cls-3" d="m100.69,854.81c.78.38,1.1,1.32.72,2.1,0,0,0,0,0,0-.38.78-1.32,1.1-2.1.72-.78-.38-1.1-1.32-.72-2.1.38-.78,1.32-1.1,2.1-.72"/>
      <path id="_パス_1115" data-name="パス 1115" class="cls-3" d="m98.15,856.22c0-.28.06-.56.19-.81.31-.63.95-1.03,1.66-1.03,1.02,0,1.84.83,1.84,1.84s-.83,1.84-1.84,1.84-1.84-.83-1.84-1.84m3.14,0c0-.5-.28-.95-.73-1.17-.65-.32-1.42-.05-1.74.6-.3.65-.04,1.42.59,1.74.64.32,1.42.05,1.74-.59.09-.18.14-.37.14-.57"/>
      <path id="_パス_1116" data-name="パス 1116" class="cls-3" d="m93.42,851.24c.78.38,1.1,1.32.72,2.1,0,0,0,0,0,0-.38.78-1.32,1.1-2.1.72-.78-.38-1.1-1.32-.72-2.1.38-.78,1.32-1.1,2.1-.72"/>
      <path id="_パス_1117" data-name="パス 1117" class="cls-3" d="m90.88,852.65c0-.28.06-.56.19-.81.31-.63.95-1.03,1.66-1.03,1.02,0,1.84.83,1.84,1.85,0,1.02-.83,1.84-1.85,1.84s-1.84-.83-1.84-1.85m3.14,0c0-.5-.28-.95-.73-1.17-.65-.32-1.42-.05-1.74.6-.3.64-.04,1.42.59,1.74.64.32,1.42.05,1.74-.59.09-.18.14-.37.14-.57"/>
      <path id="_パス_1118" data-name="パス 1118" class="cls-3" d="m86.14,847.67c.78.38,1.1,1.32.72,2.1,0,0,0,0,0,0-.38.78-1.32,1.1-2.1.72-.78-.38-1.1-1.32-.72-2.1.38-.78,1.32-1.1,2.1-.72"/>
      <path id="_パス_1119" data-name="パス 1119" class="cls-3" d="m83.61,849.08c0-.28.06-.56.19-.81.31-.63.95-1.03,1.66-1.03,1.02,0,1.84.83,1.84,1.85,0,1.02-.83,1.84-1.85,1.84s-1.84-.83-1.84-1.85m3.14,0c0-.5-.28-.95-.73-1.17-.65-.32-1.42-.05-1.74.6-.3.65-.04,1.42.59,1.74.18.09.37.13.57.13.72,0,1.3-.58,1.3-1.3"/>
      <path id="_パス_1120" data-name="パス 1120" class="cls-3" d="m78.87,844.09c.78.38,1.1,1.32.72,2.1,0,0,0,0,0,0-.38.78-1.32,1.1-2.1.72-.78-.38-1.1-1.32-.72-2.1.38-.78,1.32-1.1,2.1-.72"/>
      <path id="_パス_1121" data-name="パス 1121" class="cls-3" d="m76.34,845.5c0-.28.06-.56.19-.81.31-.63.95-1.03,1.66-1.03,1.02,0,1.84.83,1.84,1.85,0,1.02-.83,1.84-1.85,1.84s-1.84-.83-1.84-1.85m3.14,0c0-.5-.28-.95-.73-1.17-.65-.32-1.42-.05-1.74.6-.3.65-.04,1.42.59,1.74.18.09.37.13.57.13.72,0,1.3-.58,1.3-1.3"/>
      <path id="_パス_1122" data-name="パス 1122" class="cls-3" d="m71.6,840.52c.78.38,1.1,1.32.72,2.1,0,0,0,0,0,0-.38.78-1.32,1.1-2.1.72-.78-.38-1.1-1.32-.72-2.1.38-.78,1.32-1.1,2.1-.72"/>
      <path id="_パス_1123" data-name="パス 1123" class="cls-3" d="m69.07,841.93c0-.28.06-.56.19-.81.31-.63.95-1.03,1.66-1.03,1.02,0,1.84.83,1.84,1.85,0,1.02-.83,1.84-1.85,1.84s-1.84-.83-1.84-1.85m3.14,0c0-.5-.28-.95-.73-1.17-.65-.32-1.42-.05-1.74.6-.3.65-.04,1.42.59,1.74.18.09.37.13.57.13.72,0,1.3-.58,1.3-1.3"/>
      <path id="_パス_1124" data-name="パス 1124" class="cls-3" d="m64.33,836.95c.78.38,1.1,1.32.72,2.1,0,0,0,0,0,0-.38.78-1.32,1.1-2.1.72-.78-.38-1.1-1.32-.72-2.1.38-.78,1.32-1.1,2.1-.72"/>
      <path id="_パス_1125" data-name="パス 1125" class="cls-3" d="m61.79,838.36c0-.28.06-.56.19-.81.31-.63.95-1.03,1.66-1.03,1.02,0,1.84.83,1.84,1.85,0,1.02-.83,1.84-1.85,1.84s-1.84-.83-1.84-1.85m3.14,0c0-.5-.28-.95-.73-1.17-.65-.32-1.42-.05-1.74.6-.31.65-.04,1.42.59,1.74.64.32,1.42.05,1.74-.59.09-.18.14-.37.14-.57"/>
      <path id="_パス_1126" data-name="パス 1126" class="cls-3" d="m57.07,833.38c.78.38,1.1,1.32.72,2.1,0,0,0,0,0,0-.38.78-1.32,1.1-2.1.72-.78-.38-1.1-1.32-.72-2.1.38-.78,1.32-1.1,2.1-.72"/>
      <path id="_パス_1127" data-name="パス 1127" class="cls-3" d="m54.53,834.79c0-.28.06-.56.19-.81.31-.63.95-1.03,1.66-1.03,1.02,0,1.84.83,1.84,1.85,0,1.02-.83,1.84-1.85,1.84s-1.84-.83-1.84-1.85m3.14,0c0-.5-.28-.95-.73-1.17-.65-.32-1.42-.05-1.74.6-.3.65-.04,1.42.59,1.74.18.09.37.13.57.13.72,0,1.3-.58,1.3-1.3"/>
      <path id="_パス_1128" data-name="パス 1128" class="cls-3" d="m133.49,861.52c.78.38,1.1,1.32.72,2.1h0c-.38.78-1.32,1.1-2.1.72-.78-.38-1.1-1.32-.72-2.1s1.32-1.1,2.1-.72"/>
      <path id="_パス_1129" data-name="パス 1129" class="cls-3" d="m130.95,862.93c0-.28.06-.56.19-.81.31-.63.95-1.03,1.66-1.03,1.02,0,1.84.83,1.84,1.84s-.83,1.84-1.84,1.84c-1.02,0-1.84-.83-1.84-1.84m3.14,0c0-.5-.28-.95-.73-1.17-.65-.32-1.42-.05-1.74.6-.3.65-.04,1.42.59,1.74.64.32,1.42.05,1.74-.59.09-.18.14-.37.14-.57"/>
      <path id="_パス_1130" data-name="パス 1130" class="cls-3" d="m126.22,857.95c.78.38,1.1,1.32.72,2.1h0c-.38.78-1.32,1.1-2.1.72-.78-.38-1.1-1.32-.72-2.1s1.32-1.1,2.1-.72"/>
      <path id="_パス_1131" data-name="パス 1131" class="cls-3" d="m123.68,859.36c0-.28.06-.56.19-.81.31-.63.95-1.03,1.66-1.03,1.02,0,1.84.83,1.84,1.85,0,1.02-.83,1.84-1.85,1.84-1.02,0-1.84-.83-1.84-1.85m3.14,0c0-.5-.28-.95-.73-1.17-.65-.32-1.42-.05-1.74.6-.3.65-.04,1.42.59,1.74.64.32,1.42.05,1.74-.59.09-.18.14-.37.14-.57"/>
      <path id="_パス_1132" data-name="パス 1132" class="cls-3" d="m118.95,854.38c.78.38,1.1,1.32.72,2.1h0c-.38.78-1.32,1.1-2.1.72-.78-.38-1.1-1.32-.72-2.1s1.32-1.1,2.1-.72"/>
      <path id="_パス_1133" data-name="パス 1133" class="cls-3" d="m116.41,855.79c0-.28.06-.56.19-.81.31-.63.95-1.03,1.66-1.03,1.02,0,1.84.83,1.84,1.85,0,1.02-.83,1.84-1.85,1.84-1.02,0-1.84-.83-1.84-1.85m3.14,0c0-.5-.28-.95-.73-1.17-.65-.32-1.42-.05-1.74.6-.3.65-.04,1.42.59,1.74.64.32,1.42.05,1.74-.59.09-.18.14-.37.14-.57"/>
      <path id="_パス_1134" data-name="パス 1134" class="cls-3" d="m111.67,850.81c.78.38,1.1,1.32.72,2.1h0c-.38.78-1.32,1.1-2.1.72-.78-.38-1.1-1.32-.72-2.1s1.32-1.1,2.1-.72"/>
      <path id="_パス_1135" data-name="パス 1135" class="cls-3" d="m109.14,852.22c0-.28.06-.56.19-.81.31-.63.95-1.03,1.66-1.03,1.02,0,1.84.83,1.84,1.85,0,1.02-.83,1.84-1.85,1.84-1.02,0-1.84-.83-1.84-1.85m3.14,0c0-.49-.28-.95-.73-1.16-.64-.32-1.42-.05-1.74.59-.31.64-.04,1.42.59,1.74.18.09.37.13.57.13.72,0,1.3-.58,1.3-1.3"/>
      <path id="_パス_1136" data-name="パス 1136" class="cls-3" d="m104.4,847.24c.78.38,1.1,1.32.72,2.1,0,0,0,0,0,0-.38.78-1.32,1.1-2.1.72-.78-.38-1.1-1.32-.72-2.1.38-.78,1.32-1.1,2.1-.72"/>
      <path id="_パス_1137" data-name="パス 1137" class="cls-3" d="m101.87,848.65c0-.28.06-.56.19-.81.31-.63.95-1.03,1.66-1.03,1.02,0,1.84.83,1.84,1.85,0,1.02-.83,1.84-1.85,1.84s-1.84-.83-1.84-1.85m3.14,0c0-.5-.28-.95-.73-1.17-.65-.32-1.42-.05-1.74.6-.3.65-.04,1.42.59,1.74.64.32,1.42.05,1.74-.59.09-.18.14-.37.14-.57"/>
      <path id="_パス_1138" data-name="パス 1138" class="cls-3" d="m97.13,843.67c.78.38,1.1,1.32.72,2.1,0,0,0,0,0,0-.38.78-1.32,1.1-2.1.72-.78-.38-1.1-1.32-.72-2.1.38-.78,1.32-1.1,2.1-.72"/>
      <path id="_パス_1139" data-name="パス 1139" class="cls-3" d="m94.6,845.08c0-.28.06-.56.19-.81.31-.63.95-1.03,1.66-1.03,1.02,0,1.84.83,1.84,1.85,0,1.02-.83,1.84-1.85,1.84s-1.84-.83-1.84-1.85m3.14,0c0-.5-.28-.95-.73-1.17-.64-.32-1.42-.05-1.74.59-.31.65-.04,1.42.59,1.74.64.32,1.42.05,1.74-.59.09-.18.14-.37.14-.57"/>
      <path id="_パス_1140" data-name="パス 1140" class="cls-3" d="m89.86,840.1c.78.38,1.1,1.32.72,2.1,0,0,0,0,0,0-.38.78-1.32,1.1-2.1.72-.78-.38-1.1-1.32-.72-2.1.38-.78,1.32-1.1,2.1-.72"/>
      <path id="_パス_1141" data-name="パス 1141" class="cls-3" d="m87.33,841.51c0-.28.06-.56.19-.81.31-.63.95-1.03,1.66-1.03,1.02,0,1.84.83,1.84,1.85,0,1.02-.83,1.84-1.85,1.84s-1.84-.83-1.84-1.85m3.14,0c0-.5-.28-.95-.73-1.17-.65-.32-1.42-.05-1.74.6-.3.65-.04,1.42.59,1.74.64.32,1.42.05,1.74-.59.09-.18.14-.37.14-.57"/>
      <path id="_パス_1142" data-name="パス 1142" class="cls-3" d="m82.59,836.53c.78.38,1.1,1.32.72,2.1,0,0,0,0,0,0-.38.78-1.32,1.1-2.1.72-.78-.38-1.1-1.32-.72-2.1.38-.78,1.32-1.1,2.1-.72"/>
      <path id="_パス_1143" data-name="パス 1143" class="cls-3" d="m80.06,837.94c0-.28.06-.56.19-.81.31-.63.95-1.03,1.66-1.03,1.02,0,1.84.83,1.84,1.84s-.83,1.84-1.84,1.84-1.84-.83-1.84-1.84m3.14,0c0-.5-.28-.95-.73-1.17-.65-.32-1.42-.05-1.74.6-.3.65-.04,1.42.59,1.74.18.09.37.13.57.13.72,0,1.3-.58,1.3-1.3"/>
      <path id="_パス_1144" data-name="パス 1144" class="cls-3" d="m75.32,832.96c.78.38,1.1,1.32.72,2.1,0,0,0,0,0,0-.38.78-1.32,1.1-2.1.72-.78-.38-1.1-1.32-.72-2.1.38-.78,1.32-1.1,2.1-.72"/>
      <path id="_パス_1145" data-name="パス 1145" class="cls-3" d="m72.78,834.37c0-.28.06-.56.19-.81.31-.63.95-1.03,1.66-1.03,1.02,0,1.84.83,1.84,1.85,0,1.02-.83,1.84-1.85,1.84s-1.84-.83-1.84-1.85m3.14,0c0-.5-.28-.95-.73-1.17-.65-.32-1.42-.05-1.74.6-.31.65-.04,1.42.59,1.74.64.32,1.42.05,1.74-.59.09-.18.14-.37.14-.57"/>
      <path id="_パス_1146" data-name="パス 1146" class="cls-3" d="m68.05,829.39c.78.38,1.1,1.32.72,2.1,0,0,0,0,0,0-.38.78-1.32,1.1-2.1.72-.78-.38-1.1-1.32-.72-2.1.38-.78,1.32-1.1,2.1-.72"/>
      <path id="_パス_1147" data-name="パス 1147" class="cls-3" d="m65.51,830.8c0-.28.06-.56.19-.81.31-.63.95-1.03,1.66-1.03,1.02,0,1.84.83,1.84,1.85,0,1.02-.83,1.84-1.85,1.84s-1.84-.83-1.84-1.85m3.14,0c0-.5-.28-.95-.73-1.17-.65-.32-1.42-.05-1.74.6-.3.65-.04,1.42.59,1.74.18.09.37.13.57.13.72,0,1.3-.58,1.3-1.3"/>
      <path id="_パス_1148" data-name="パス 1148" class="cls-3" d="m60.78,825.82c.78.38,1.1,1.32.72,2.1,0,0,0,0,0,0-.38.78-1.32,1.1-2.1.72-.78-.38-1.1-1.32-.72-2.1.38-.78,1.32-1.1,2.1-.72"/>
      <path id="_パス_1149" data-name="パス 1149" class="cls-3" d="m58.24,827.22c0-.28.06-.56.19-.81.31-.63.95-1.03,1.65-1.03,1.02,0,1.84.83,1.84,1.84,0,1.02-.83,1.84-1.84,1.84-1.02,0-1.84-.83-1.84-1.84m3.14,0c0-.5-.28-.95-.73-1.17-.65-.32-1.42-.05-1.74.6-.3.65-.04,1.42.59,1.74.64.32,1.42.05,1.74-.59.09-.18.14-.37.14-.57"/>
      <path id="_パス_1150" data-name="パス 1150" class="cls-3" d="m109.24,498.97c-.28-.65-.54-1.31-.77-1.98h1.52v1.98h-.75Z"/>
      <path id="_パス_1151" data-name="パス 1151" class="cls-3" d="m107.94,495.37c-.19-.65-.35-1.31-.5-1.98h2.53v1.98h-2.04Z"/>
      <path id="_パス_1152" data-name="パス 1152" class="cls-3" d="m107.15,491.77c-.1-.65-.18-1.31-.24-1.98h3.07v1.98h-2.83Z"/>
      <path id="_パス_1153" data-name="パス 1153" class="cls-3" d="m106.81,488.17c-.02-.33-.02-.67-.02-1s0-.66.02-.98h3.17v1.98h-3.16Z"/>
      <path id="_パス_1154" data-name="パス 1154" class="cls-3" d="m106.9,484.56c.06-.67.14-1.33.24-1.98h2.83v1.98h-3.07Z"/>
      <path id="_パス_1155" data-name="パス 1155" class="cls-3" d="m107.43,480.96c.14-.67.3-1.33.49-1.98h2.04v1.98h-2.53Z"/>
      <path id="_パス_1156" data-name="パス 1156" class="cls-3" d="m108.43,477.36c.24-.67.49-1.33.77-1.98h.76v1.98h-1.53Z"/>
      <path id="_パス_1157" data-name="パス 1157" class="cls-3" d="m113.66,506.17c-.51-.61-.99-1.24-1.45-1.89v-.09h1.73v1.98h-.28Z"/>
      <path id="_パス_1158" data-name="パス 1158" class="cls-3" d="m112.21,502.57v-1.98h1.73v1.98h-1.73Z"/>
      <path id="_パス_1159" data-name="パス 1159" class="cls-3" d="m112.2,498.97v-1.98h1.73v1.98h-1.73Z"/>
      <path id="_パス_1160" data-name="パス 1160" class="cls-3" d="m112.2,495.37v-1.98h1.73v1.98h-1.73Z"/>
      <path id="_パス_1161" data-name="パス 1161" class="cls-3" d="m112.2,491.77v-1.98h1.73v1.98h-1.73Z"/>
      <path id="_パス_1162" data-name="パス 1162" class="cls-3" d="m112.2,488.17v-1.98h1.73v1.98h-1.73Z"/>
      <path id="_パス_1163" data-name="パス 1163" class="cls-3" d="m112.19,484.56v-1.98h1.73v1.98h-1.73Z"/>
      <path id="_パス_1164" data-name="パス 1164" class="cls-3" d="m112.19,480.96v-1.98h1.73v1.98h-1.73Z"/>
      <path id="_パス_1165" data-name="パス 1165" class="cls-3" d="m112.18,477.36v-1.98h1.73v1.98h-1.73Z"/>
      <path id="_パス_1166" data-name="パス 1166" class="cls-3" d="m112.18,473.76v-1.98h1.73v1.98h-1.73Z"/>
      <path id="_パス_1167" data-name="パス 1167" class="cls-3" d="m113.9,468.18v1.98h-1.73v-.11c.45-.64.93-1.27,1.42-1.87h.31Z"/>
      <path id="_パス_1168" data-name="パス 1168" class="cls-3" d="m117.9,509.78h-.69c-.35-.3-.7-.62-1.04-.93v-1.05h1.73v1.98Z"/>
      <path id="_パス_1169" data-name="パス 1169" class="cls-3" d="m116.17,506.17v-1.98h1.73v1.98h-1.73Z"/>
      <path id="_パス_1170" data-name="パス 1170" class="cls-3" d="m116.16,502.57v-1.98h1.73v1.98h-1.73Z"/>
      <path id="_パス_1171" data-name="パス 1171" class="cls-3" d="m116.16,498.97v-1.98h1.73v1.98h-1.73Z"/>
      <path id="_パス_1172" data-name="パス 1172" class="cls-3" d="m116.15,495.37v-1.98h1.73v1.98h-1.73Z"/>
      <path id="_パス_1173" data-name="パス 1173" class="cls-3" d="m116.14,491.77v-1.98h1.73v1.98h-1.73Z"/>
      <path id="_パス_1174" data-name="パス 1174" class="cls-3" d="m116.15,488.17v-1.98h1.73v1.98h-1.73Z"/>
      <path id="_パス_1175" data-name="パス 1175" class="cls-3" d="m116.14,484.56v-1.98h1.73v1.98h-1.73Z"/>
      <path id="_パス_1176" data-name="パス 1176" class="cls-3" d="m116.13,480.96v-1.98h1.73v1.98h-1.73Z"/>
      <path id="_パス_1177" data-name="パス 1177" class="cls-3" d="m116.13,477.36v-1.98h1.73v1.98h-1.73Z"/>
      <path id="_パス_1178" data-name="パス 1178" class="cls-3" d="m116.13,473.76v-1.98h1.73v1.98h-1.73Z"/>
      <path id="_パス_1179" data-name="パス 1179" class="cls-3" d="m116.12,470.16v-1.98h1.73v1.98h-1.73Z"/>
      <path id="_パス_1180" data-name="パス 1180" class="cls-3" d="m117.85,466.56h-1.73v-1.08c.33-.31.66-.61,1-.9h.73v1.98Z"/>
      <path id="_パス_1181" data-name="パス 1181" class="cls-3" d="m121.85,513.04c-.59-.34-1.17-.69-1.73-1.07v-.58h1.73v1.65"/>
      <path id="_パス_1182" data-name="パス 1182" class="cls-3" d="m120.12,509.77v-1.98h1.73v1.98h-1.73Z"/>
      <path id="_パス_1183" data-name="パス 1183" class="cls-3" d="m120.12,506.17v-1.98h1.73v1.98h-1.73Z"/>
      <path id="_パス_1184" data-name="パス 1184" class="cls-3" d="m120.11,502.57v-1.98h1.73v1.98h-1.73Z"/>
      <path id="_パス_1185" data-name="パス 1185" class="cls-3" d="m120.11,498.97v-1.98h1.73v1.98h-1.73Z"/>
      <path id="_パス_1186" data-name="パス 1186" class="cls-3" d="m120.1,495.37v-1.98h1.73v1.98h-1.73Z"/>
      <path id="_パス_1187" data-name="パス 1187" class="cls-3" d="m120.1,491.77v-1.98h1.73v1.98h-1.73Z"/>
      <path id="_パス_1188" data-name="パス 1188" class="cls-3" d="m120.1,488.17v-1.98h1.73v1.98h-1.73Z"/>
      <path id="_パス_1189" data-name="パス 1189" class="cls-3" d="m120.09,484.56v-1.98h1.73v1.98h-1.73Z"/>
      <path id="_パス_1190" data-name="パス 1190" class="cls-3" d="m120.09,480.96v-1.98h1.73v1.98h-1.73Z"/>
      <path id="_パス_1191" data-name="パス 1191" class="cls-3" d="m120.08,477.36v-1.98h1.73v1.98h-1.73Z"/>
      <path id="_パス_1192" data-name="パス 1192" class="cls-3" d="m120.08,473.76v-1.98h1.73v1.98h-1.73Z"/>
      <path id="_パス_1193" data-name="パス 1193" class="cls-3" d="m120.08,470.16v-1.98h1.73v1.98h-1.73Z"/>
      <path id="_パス_1194" data-name="パス 1194" class="cls-3" d="m121.8,466.56h-1.73v-1.98h1.73v1.98Z"/>
      <path id="_パス_1195" data-name="パス 1195" class="cls-3" d="m121.79,462.96h-1.73v-.62c.56-.38,1.14-.73,1.73-1.07v1.69Z"/>
      <path id="_パス_1196" data-name="パス 1196" class="cls-3" d="m124.07,513.37v-1.98h1.73v1.98h-1.73Z"/>
      <path id="_パス_1197" data-name="パス 1197" class="cls-3" d="m124.07,509.77v-1.98h1.73v1.98h-1.73Z"/>
      <path id="_パス_1198" data-name="パス 1198" class="cls-3" d="m124.07,506.17v-1.98h1.73v1.98h-1.73Z"/>
      <path id="_パス_1199" data-name="パス 1199" class="cls-3" d="m124.06,502.57v-1.98h1.73v1.98h-1.73Z"/>
      <path id="_パス_1200" data-name="パス 1200" class="cls-3" d="m124.06,498.97v-1.98h1.73v1.98h-1.73Z"/>
      <path id="_パス_1201" data-name="パス 1201" class="cls-3" d="m124.06,495.37v-1.98h1.73v1.98h-1.73Z"/>
      <path id="_パス_1202" data-name="パス 1202" class="cls-3" d="m124.05,491.77v-1.98h1.73v1.98h-1.73Z"/>
      <path id="_パス_1203" data-name="パス 1203" class="cls-3" d="m124.04,488.17v-1.98h1.73v1.98h-1.73Z"/>
      <path id="_パス_1204" data-name="パス 1204" class="cls-3" d="m124.04,484.56v-1.98h1.73v1.98h-1.73Z"/>
      <path id="_パス_1205" data-name="パス 1205" class="cls-3" d="m124.04,480.96v-1.98h1.73v1.98h-1.73Z"/>
      <path id="_パス_1206" data-name="パス 1206" class="cls-3" d="m124.03,477.36v-1.98h1.73v1.98h-1.73Z"/>
      <path id="_パス_1207" data-name="パス 1207" class="cls-3" d="m124.03,473.76v-1.98h1.73v1.98h-1.73Z"/>
      <path id="_パス_1208" data-name="パス 1208" class="cls-3" d="m125.75,470.16h-1.73v-1.98h1.73v1.98Z"/>
      <path id="_パス_1209" data-name="パス 1209" class="cls-3" d="m125.74,466.56h-1.73v-1.98h1.73v1.98Z"/>
      <path id="_パス_1210" data-name="パス 1210" class="cls-3" d="m125.75,462.96h-1.73v-1.98h1.72v1.98Z"/>
      <path id="_パス_1211" data-name="パス 1211" class="cls-3" d="m129.76,516.15c-.58-.14-1.16-.29-1.73-.46v-.69h1.73v1.15"/>
      <path id="_パス_1212" data-name="パス 1212" class="cls-3" d="m128.02,513.37v-1.98h1.74v1.98h-1.74Z"/>
      <path id="_パス_1213" data-name="パス 1213" class="cls-3" d="m128.03,509.77v-1.98h1.73v1.98h-1.73Z"/>
      <path id="_パス_1214" data-name="パス 1214" class="cls-3" d="m128.02,506.17v-1.98h1.73v1.98h-1.73Z"/>
      <path id="_パス_1215" data-name="パス 1215" class="cls-3" d="m128.01,502.57v-1.98h1.73v1.98h-1.73Z"/>
      <path id="_パス_1216" data-name="パス 1216" class="cls-3" d="m128.01,498.97v-1.98h1.73v1.98h-1.73Z"/>
      <path id="_パス_1217" data-name="パス 1217" class="cls-3" d="m128,495.37v-1.98h1.73v1.98h-1.73Z"/>
      <path id="_パス_1218" data-name="パス 1218" class="cls-3" d="m128,491.77v-1.98h1.73v1.98h-1.73Z"/>
      <path id="_パス_1219" data-name="パス 1219" class="cls-3" d="m127.99,488.17v-1.98h1.73v1.98h-1.73Z"/>
      <path id="_パス_1220" data-name="パス 1220" class="cls-3" d="m127.99,484.56v-1.98h1.73v1.98h-1.73Z"/>
      <path id="_パス_1221" data-name="パス 1221" class="cls-3" d="m127.99,480.96v-1.98h1.73v1.98h-1.73Z"/>
      <rect id="_長方形_250" data-name="長方形 250" class="cls-3" x="127.98" y="475.38" width="1.73" height="1.98" transform="translate(-.52 .14) rotate(-.06)"/>
      <path id="_パス_1222" data-name="パス 1222" class="cls-3" d="m127.98,473.76v-1.98h1.73v1.98h-1.73Z"/>
      <path id="_パス_1223" data-name="パス 1223" class="cls-3" d="m129.7,470.16h-1.73v-1.98h1.73v1.98Z"/>
      <path id="_パス_1224" data-name="パス 1224" class="cls-3" d="m129.7,466.56h-1.73v-1.98h1.73v1.98Z"/>
      <path id="_パス_1225" data-name="パス 1225" class="cls-3" d="m129.69,462.96h-1.73v-1.98h1.73v1.98Z"/>
      <path id="_パス_1226" data-name="パス 1226" class="cls-3" d="m129.69,459.36h-1.73v-.75c.57-.17,1.15-.33,1.73-.47v1.21Z"/>
      <path id="_パス_1227" data-name="パス 1227" class="cls-3" d="m133.71,516.8c-.58-.05-1.16-.12-1.73-.22v-1.58h1.73v1.8"/>
      <path id="_パス_1228" data-name="パス 1228" class="cls-3" d="m131.98,513.37v-1.98h1.73v1.98h-1.73Z"/>
      <path id="_パス_1229" data-name="パス 1229" class="cls-3" d="m131.97,509.77v-1.98h1.73v1.98h-1.73Z"/>
      <path id="_パス_1230" data-name="パス 1230" class="cls-3" d="m131.97,506.17v-1.98h1.73v1.98h-1.73Z"/>
      <path id="_パス_1231" data-name="パス 1231" class="cls-3" d="m131.97,502.57v-1.98h1.73v1.98h-1.73Z"/>
      <path id="_パス_1232" data-name="パス 1232" class="cls-3" d="m131.96,498.97v-1.98h1.73v1.98h-1.73Z"/>
      <rect id="_長方形_251" data-name="長方形 251" class="cls-3" x="131.96" y="493.39" width="1.73" height="1.98" transform="translate(-.54 .15) rotate(-.06)"/>
      <path id="_パス_1233" data-name="パス 1233" class="cls-3" d="m131.95,491.77v-1.98h1.73v1.98h-1.73Z"/>
      <path id="_パス_1234" data-name="パス 1234" class="cls-3" d="m131.94,488.17v-1.98h1.73v1.98h-1.73Z"/>
      <path id="_パス_1235" data-name="パス 1235" class="cls-3" d="m131.95,484.56v-1.98h1.73v1.98h-1.73Z"/>
      <path id="_パス_1236" data-name="パス 1236" class="cls-3" d="m131.94,480.96v-1.98h1.73v1.98h-1.73Z"/>
      <path id="_パス_1237" data-name="パス 1237" class="cls-3" d="m131.94,477.36v-1.98h1.73v1.98h-1.73Z"/>
      <path id="_パス_1238" data-name="パス 1238" class="cls-3" d="m131.93,473.76v-1.98h1.73v1.98h-1.73Z"/>
      <path id="_パス_1239" data-name="パス 1239" class="cls-3" d="m133.65,470.16h-1.73v-1.98h1.73v1.98Z"/>
      <path id="_パス_1240" data-name="パス 1240" class="cls-3" d="m133.65,466.56h-1.73v-1.98h1.73v1.98Z"/>
      <path id="_パス_1241" data-name="パス 1241" class="cls-3" d="m133.65,462.96h-1.73v-1.98h1.73v1.98Z"/>
      <path id="_パス_1242" data-name="パス 1242" class="cls-3" d="m133.64,459.36h-1.73v-1.66c.57-.09,1.15-.16,1.73-.22v1.88Z"/>
      <path id="_パス_1243" data-name="パス 1243" class="cls-3" d="m163.57,498.97v-1.98h1.15c-.24.67-.5,1.33-.77,1.98h-.37Z"/>
      <path id="_パス_1244" data-name="パス 1244" class="cls-3" d="m163.56,495.37v-1.98h2.16c-.15.67-.31,1.33-.49,1.98h-1.67Z"/>
      <path id="_パス_1245" data-name="パス 1245" class="cls-3" d="m166.26,489.79c-.06.67-.14,1.33-.24,1.98h-2.46v-1.98h2.71"/>
      <path id="_パス_1246" data-name="パス 1246" class="cls-3" d="m166.38,487.1c0,.36,0,.71-.02,1.06h-2.81v-1.98h2.82c.02.3.02.61.02.92"/>
      <path id="_パス_1247" data-name="パス 1247" class="cls-3" d="m163.55,484.56v-1.98h2.49c.1.65.18,1.31.24,1.98h-2.72Z"/>
      <path id="_パス_1248" data-name="パス 1248" class="cls-3" d="m163.55,480.96v-1.98h1.71c.19.65.35,1.31.49,1.98h-2.2Z"/>
      <path id="_パス_1249" data-name="パス 1249" class="cls-3" d="m163.54,475.38v1.98s1.2,0,1.2,0c-.24-.67-.49-1.33-.77-1.98h-.43Z"/>
      <path id="_パス_1250" data-name="パス 1250" class="cls-3" d="m159.62,504.19h1.4c-.44.63-.91,1.25-1.4,1.84v-1.84Z"/>
      <path id="_パス_1251" data-name="パス 1251" class="cls-3" d="m159.62,502.57v-1.98h1.73v1.98h-1.73Z"/>
      <path id="_パス_1252" data-name="パス 1252" class="cls-3" d="m159.62,498.97v-1.98h1.73v1.98h-1.73Z"/>
      <path id="_パス_1253" data-name="パス 1253" class="cls-3" d="m159.61,495.37v-1.98h1.73v1.98h-1.73Z"/>
      <path id="_パス_1254" data-name="パス 1254" class="cls-3" d="m159.61,491.77v-1.98h1.73v1.98h-1.73Z"/>
      <path id="_パス_1255" data-name="パス 1255" class="cls-3" d="m159.61,488.17v-1.98h1.73v1.98h-1.73Z"/>
      <rect id="_長方形_252" data-name="長方形 252" class="cls-3" x="159.6" y="482.59" width="1.73" height="1.98" transform="translate(-.53 .18) rotate(-.06)"/>
      <path id="_パス_1256" data-name="パス 1256" class="cls-3" d="m159.59,480.96v-1.98h1.73v1.98h-1.73Z"/>
      <path id="_パス_1257" data-name="パス 1257" class="cls-3" d="m161.33,477.36h-1.74v-1.98h1.73v1.98Z"/>
      <rect id="_長方形_253" data-name="長方形 253" class="cls-3" x="159.59" y="471.78" width="1.73" height="1.98"/>
      <path id="_パス_1258" data-name="パス 1258" class="cls-3" d="m159.58,468.19c.53.64,1.02,1.29,1.49,1.97h-1.49v-1.97"/>
      <path id="_パス_1259" data-name="パス 1259" class="cls-3" d="m155.96,509.77c.49-.42.98-.86,1.44-1.32v-.66s-1.73,0-1.73,0v1.98s.28,0,.28,0Z"/>
      <path id="_パス_1260" data-name="パス 1260" class="cls-3" d="m155.67,506.17v-1.98h1.73v1.98h-1.73Z"/>
      <path id="_パス_1261" data-name="パス 1261" class="cls-3" d="m155.68,502.57v-1.98h1.72v1.98h-1.72Z"/>
      <path id="_パス_1262" data-name="パス 1262" class="cls-3" d="m155.67,498.97v-1.98h1.73v1.98h-1.73Z"/>
      <path id="_パス_1263" data-name="パス 1263" class="cls-3" d="m155.66,495.37v-1.98h1.73v1.98h-1.73Z"/>
      <path id="_パス_1264" data-name="パス 1264" class="cls-3" d="m155.66,491.77v-1.98h1.73v1.98h-1.73Z"/>
      <path id="_パス_1265" data-name="パス 1265" class="cls-3" d="m155.65,488.17v-1.98h1.73v1.98h-1.73Z"/>
      <path id="_パス_1266" data-name="パス 1266" class="cls-3" d="m155.65,484.56v-1.98h1.73v1.98h-1.73Z"/>
      <path id="_パス_1267" data-name="パス 1267" class="cls-3" d="m155.64,480.96v-1.98h1.73v1.98h-1.73Z"/>
      <path id="_パス_1268" data-name="パス 1268" class="cls-3" d="m155.64,477.36v-1.98h1.73v1.98h-1.73Z"/>
      <path id="_パス_1269" data-name="パス 1269" class="cls-3" d="m155.64,473.76v-1.98h1.73v1.98h-1.73Z"/>
      <path id="_パス_1270" data-name="パス 1270" class="cls-3" d="m155.63,470.16v-1.98h1.73v1.98h-1.73Z"/>
      <path id="_パス_1271" data-name="パス 1271" class="cls-3" d="m155.63,464.58v1.98s1.73,0,1.73,0v-.79c-.42-.41-.86-.81-1.3-1.2h-.43Z"/>
      <path id="_パス_1272" data-name="パス 1272" class="cls-3" d="m153.46,511.7c-.56.39-1.14.76-1.73,1.11v-1.41h1.73v.3"/>
      <path id="_パス_1273" data-name="パス 1273" class="cls-3" d="m151.73,509.77v-1.98h1.73v1.98h-1.73Z"/>
      <path id="_パス_1274" data-name="パス 1274" class="cls-3" d="m151.72,506.17v-1.98h1.73v1.98h-1.73Z"/>
      <rect id="_長方形_254" data-name="長方形 254" class="cls-3" x="151.72" y="500.59" width="1.73" height="1.98" transform="translate(-.55 .17) rotate(-.06)"/>
      <path id="_パス_1275" data-name="パス 1275" class="cls-3" d="m151.71,498.97v-1.98h1.73v1.98h-1.73Z"/>
      <path id="_パス_1276" data-name="パス 1276" class="cls-3" d="m151.71,495.37v-1.98h1.73v1.98h-1.73Z"/>
      <path id="_パス_1277" data-name="パス 1277" class="cls-3" d="m151.71,491.77v-1.98h1.73v1.98h-1.73Z"/>
      <path id="_パス_1278" data-name="パス 1278" class="cls-3" d="m151.7,488.17v-1.98h1.73v1.98h-1.73Z"/>
      <path id="_パス_1279" data-name="パス 1279" class="cls-3" d="m151.7,484.56v-1.98h1.73v1.98h-1.73Z"/>
      <path id="_パス_1280" data-name="パス 1280" class="cls-3" d="m151.7,480.96v-1.98h1.73v1.98h-1.73Z"/>
      <path id="_パス_1281" data-name="パス 1281" class="cls-3" d="m151.69,477.36v-1.98h1.73v1.98h-1.73Z"/>
      <path id="_パス_1282" data-name="パス 1282" class="cls-3" d="m153.41,473.76h-1.73v-1.98h1.73v1.98Z"/>
      <rect id="_長方形_255" data-name="長方形 255" class="cls-3" x="151.68" y="468.18" width="1.73" height="1.98"/>
      <path id="_パス_1283" data-name="パス 1283" class="cls-3" d="m153.4,466.56h-1.73v-1.98h1.73v1.98Z"/>
      <path id="_パス_1284" data-name="パス 1284" class="cls-3" d="m151.67,461.44c.59.35,1.17.71,1.73,1.1v.42h-1.73v-1.52"/>
      <path id="_パス_1285" data-name="パス 1285" class="cls-3" d="m147.78,513.37v-1.98h1.73v1.98h-1.73Z"/>
      <path id="_パス_1286" data-name="パス 1286" class="cls-3" d="m147.78,509.77v-1.98h1.73v1.98h-1.73Z"/>
      <path id="_パス_1287" data-name="パス 1287" class="cls-3" d="m147.77,506.17v-1.98h1.73v1.98h-1.73Z"/>
      <path id="_パス_1288" data-name="パス 1288" class="cls-3" d="m147.77,502.57v-1.98h1.73v1.98h-1.73Z"/>
      <path id="_パス_1289" data-name="パス 1289" class="cls-3" d="m147.76,498.97v-1.98h1.73v1.98h-1.73Z"/>
      <path id="_パス_1290" data-name="パス 1290" class="cls-3" d="m147.76,495.37v-1.98h1.73v1.98h-1.73Z"/>
      <path id="_パス_1291" data-name="パス 1291" class="cls-3" d="m147.76,491.77v-1.98h1.73v1.98h-1.73Z"/>
      <path id="_パス_1292" data-name="パス 1292" class="cls-3" d="m147.75,488.17v-1.98h1.73v1.98h-1.73Z"/>
      <path id="_パス_1293" data-name="パス 1293" class="cls-3" d="m147.74,484.56v-1.98h1.73v1.98h-1.73Z"/>
      <path id="_パス_1294" data-name="パス 1294" class="cls-3" d="m147.75,480.96v-1.98h1.73v1.98h-1.73Z"/>
      <path id="_パス_1295" data-name="パス 1295" class="cls-3" d="m147.74,477.36v-1.98h1.73v1.98h-1.73Z"/>
      <path id="_パス_1296" data-name="パス 1296" class="cls-3" d="m149.46,473.76h-1.73v-1.98h1.73v1.98Z"/>
      <path id="_パス_1297" data-name="パス 1297" class="cls-3" d="m147.73,470.16v-1.98h1.73v1.98h-1.73Z"/>
      <path id="_パス_1298" data-name="パス 1298" class="cls-3" d="m149.45,466.56h-1.73v-1.98h1.73v1.98Z"/>
      <path id="_パス_1299" data-name="パス 1299" class="cls-3" d="m149.45,462.96h-1.73v-1.98h1.73v1.98Z"/>
      <path id="_パス_1300" data-name="パス 1300" class="cls-3" d="m145.56,515.56c-.57.18-1.14.35-1.73.49v-1.05h1.73v.56"/>
      <path id="_パス_1301" data-name="パス 1301" class="cls-3" d="m143.83,513.37v-1.98h1.73v1.98h-1.73Z"/>
      <path id="_パス_1302" data-name="パス 1302" class="cls-3" d="m143.82,509.77v-1.98h1.74v1.98h-1.74Z"/>
      <path id="_パス_1303" data-name="パス 1303" class="cls-3" d="m143.82,506.17v-1.98h1.73v1.98h-1.73Z"/>
      <path id="_パス_1304" data-name="パス 1304" class="cls-3" d="m143.82,502.57v-1.98h1.73v1.98h-1.73Z"/>
      <path id="_パス_1305" data-name="パス 1305" class="cls-3" d="m143.81,498.97v-1.98h1.73v1.98h-1.73Z"/>
      <path id="_パス_1306" data-name="パス 1306" class="cls-3" d="m143.81,495.37v-1.98h1.73v1.98h-1.73Z"/>
      <path id="_パス_1307" data-name="パス 1307" class="cls-3" d="m143.8,491.77v-1.98h1.73v1.98h-1.73Z"/>
      <path id="_パス_1308" data-name="パス 1308" class="cls-3" d="m143.8,488.17v-1.98h1.73v1.98h-1.73Z"/>
      <path id="_パス_1309" data-name="パス 1309" class="cls-3" d="m143.79,484.56v-1.98h1.73v1.98h-1.73Z"/>
      <path id="_パス_1310" data-name="パス 1310" class="cls-3" d="m143.8,480.96v-1.98h1.73v1.98h-1.73Z"/>
      <path id="_パス_1311" data-name="パス 1311" class="cls-3" d="m143.79,477.36v-1.98h1.73v1.98h-1.73Z"/>
      <path id="_パス_1312" data-name="パス 1312" class="cls-3" d="m145.51,473.76h-1.73v-1.98h1.73v1.98Z"/>
      <path id="_パス_1313" data-name="パス 1313" class="cls-3" d="m143.78,470.16v-1.98h1.73v1.98h-1.73Z"/>
      <path id="_パス_1314" data-name="パス 1314" class="cls-3" d="m143.78,466.56v-1.98h1.73v1.98h-1.73Z"/>
      <path id="_パス_1315" data-name="パス 1315" class="cls-3" d="m143.77,462.96v-1.98h1.73v1.98h-1.73Z"/>
      <path id="_パス_1316" data-name="パス 1316" class="cls-3" d="m143.77,458.21c.58.14,1.16.31,1.73.48v.66h-1.73v-1.14"/>
      <path id="_パス_1317" data-name="パス 1317" class="cls-3" d="m141.61,516.51c-.57.1-1.15.18-1.73.24v-1.76h1.73v1.52"/>
      <path id="_パス_1318" data-name="パス 1318" class="cls-3" d="m139.88,513.37v-1.98h1.73v1.98h-1.73Z"/>
      <path id="_パス_1319" data-name="パス 1319" class="cls-3" d="m139.87,509.77v-1.98h1.73v1.98h-1.73Z"/>
      <path id="_パス_1320" data-name="パス 1320" class="cls-3" d="m139.87,506.17v-1.98h1.73v1.98h-1.73Z"/>
      <path id="_パス_1321" data-name="パス 1321" class="cls-3" d="m139.87,502.57v-1.98h1.73v1.98h-1.73Z"/>
      <path id="_パス_1322" data-name="パス 1322" class="cls-3" d="m139.86,498.97v-1.98h1.73v1.98h-1.73Z"/>
      <path id="_パス_1323" data-name="パス 1323" class="cls-3" d="m139.86,495.37v-1.98h1.73v1.98h-1.73Z"/>
      <path id="_パス_1324" data-name="パス 1324" class="cls-3" d="m139.86,491.77v-1.98h1.73v1.98h-1.73Z"/>
      <path id="_パス_1325" data-name="パス 1325" class="cls-3" d="m139.85,488.17v-1.98h1.73v1.98h-1.73Z"/>
      <path id="_パス_1326" data-name="パス 1326" class="cls-3" d="m139.84,484.56v-1.98h1.73v1.98h-1.73Z"/>
      <path id="_パス_1327" data-name="パス 1327" class="cls-3" d="m139.84,480.96v-1.98h1.73v1.98h-1.73Z"/>
      <path id="_パス_1328" data-name="パス 1328" class="cls-3" d="m139.84,477.36v-1.98h1.73v1.98h-1.73Z"/>
      <path id="_パス_1329" data-name="パス 1329" class="cls-3" d="m141.56,473.76h-1.73v-1.98h1.73v1.98Z"/>
      <path id="_パス_1330" data-name="パス 1330" class="cls-3" d="m139.83,470.16v-1.98h1.73v1.98h-1.73Z"/>
      <path id="_パス_1331" data-name="パス 1331" class="cls-3" d="m139.83,466.56v-1.98h1.73v1.98h-1.73Z"/>
      <path id="_パス_1332" data-name="パス 1332" class="cls-3" d="m139.82,462.96v-1.98h1.73v1.98h-1.73Z"/>
      <path id="_パス_1333" data-name="パス 1333" class="cls-3" d="m139.82,457.52c.58.06,1.16.14,1.73.24v1.6h-1.73v-1.84"/>
      <path id="_パス_1334" data-name="パス 1334" class="cls-3" d="m137.66,516.92c-.35.01-.69.02-1.04.02-.23,0-.46,0-.69,0v-1.94h1.73v1.92"/>
      <path id="_パス_1335" data-name="パス 1335" class="cls-3" d="m135.93,513.37v-1.98h1.73v1.98h-1.73Z"/>
      <path id="_パス_1336" data-name="パス 1336" class="cls-3" d="m135.92,509.77v-1.98h1.73v1.98h-1.73Z"/>
      <path id="_パス_1337" data-name="パス 1337" class="cls-3" d="m135.92,506.17v-1.98h1.73v1.98h-1.73Z"/>
      <path id="_パス_1338" data-name="パス 1338" class="cls-3" d="m135.91,502.57v-1.98h1.73v1.98h-1.73Z"/>
      <path id="_パス_1339" data-name="パス 1339" class="cls-3" d="m135.91,498.97v-1.98h1.73v1.98h-1.73Z"/>
      <path id="_パス_1340" data-name="パス 1340" class="cls-3" d="m135.91,495.37v-1.98h1.73v1.98h-1.73Z"/>
      <path id="_パス_1341" data-name="パス 1341" class="cls-3" d="m135.9,491.77v-1.98h1.73v1.98h-1.73Z"/>
      <path id="_パス_1342" data-name="パス 1342" class="cls-3" d="m135.9,488.17v-1.98h1.73v1.98h-1.73Z"/>
      <path id="_パス_1343" data-name="パス 1343" class="cls-3" d="m135.9,484.56v-1.98h1.73v1.98h-1.73Z"/>
      <path id="_パス_1344" data-name="パス 1344" class="cls-3" d="m135.89,480.96v-1.98h1.73v1.98h-1.73Z"/>
      <path id="_パス_1345" data-name="パス 1345" class="cls-3" d="m135.89,477.36v-1.98h1.73v1.98h-1.73Z"/>
      <path id="_パス_1346" data-name="パス 1346" class="cls-3" d="m135.88,473.76v-1.98h1.73v1.98h-1.73Z"/>
      <path id="_パス_1347" data-name="パス 1347" class="cls-3" d="m137.61,470.16h-1.73v-1.98h1.73v1.98Z"/>
      <path id="_パス_1348" data-name="パス 1348" class="cls-3" d="m137.6,466.56h-1.73v-1.98h1.73v1.98Z"/>
      <path id="_パス_1349" data-name="パス 1349" class="cls-3" d="m137.6,462.96h-1.73v-1.98h1.73v1.98Z"/>
      <path id="_パス_1350" data-name="パス 1350" class="cls-3" d="m136.55,457.34c.35,0,.7,0,1.04.02v2h-1.73v-2.01c.23,0,.46,0,.69,0"/>
      <line id="_線_18" data-name="線 18" class="cls-1" x1="149.51" y1="513.37" x2="147.78" y2="513.37"/>
      <line id="_線_19" data-name="線 19" class="cls-1" x1="125.8" y1="513.37" x2="124.08" y2="513.37"/>
      <line id="_線_20" data-name="線 20" class="cls-1" x1="155.96" y1="509.77" x2="155.68" y2="509.77"/>
      <line id="_線_21" data-name="線 21" class="cls-1" x1="113.94" y1="506.17" x2="113.66" y2="506.17"/>
      <line id="_線_22" data-name="線 22" class="cls-1" x1="163.94" y1="498.97" x2="163.57" y2="498.97"/>
      <line id="_線_23" data-name="線 23" class="cls-1" x1="163.97" y1="475.38" x2="163.54" y2="475.38"/>
      <line id="_線_24" data-name="線 24" class="cls-1" x1="113.9" y1="468.18" x2="113.6" y2="468.18"/>
      <line id="_線_25" data-name="線 25" class="cls-1" x1="156.05" y1="464.58" x2="155.63" y2="464.58"/>
      <line id="_線_26" data-name="線 26" class="cls-1" x1="117.85" y1="464.58" x2="117.12" y2="464.58"/>
      <g id="_グループ_669" data-name="グループ 669" class="cls-4">
        <g id="_グループ_668" data-name="グループ 668">
          <g class="cls-2">
            <g id="_グループ_667" data-name="グループ 667">
              <path id="_パス_1352" data-name="パス 1352" class="cls-3" d="m132.37,342.58c13.2,0,23.9,10.7,23.9,23.9h0c0,13.2-10.7,23.9-23.9,23.9s-23.9-10.7-23.9-23.9,10.7-23.9,23.9-23.9"/>
              <path id="_パス_1353" data-name="パス 1353" class="cls-3" d="m132.37,285.48c13.2,0,23.9,10.7,23.9,23.9h0c0,13.2-10.7,23.9-23.9,23.9s-23.9-10.7-23.9-23.9,10.7-23.9,23.9-23.9"/>
              <path id="_パス_1354" data-name="パス 1354" class="cls-3" d="m132.37,228.39c13.2,0,23.9,10.7,23.9,23.9h0c0,13.2-10.7,23.9-23.9,23.9s-23.9-10.7-23.9-23.9c0-13.2,10.7-23.9,23.9-23.9"/>
              <path id="_パス_1355" data-name="パス 1355" class="cls-3" d="m132.37,171.29c13.2,0,23.9,10.7,23.9,23.9h0c0,13.2-10.7,23.9-23.9,23.9-13.2,0-23.9-10.7-23.9-23.9s10.7-23.9,23.9-23.9"/>
              <path id="_パス_1356" data-name="パス 1356" class="cls-3" d="m132.37,114.19c13.2,0,23.9,10.7,23.9,23.9h0c0,13.2-10.7,23.9-23.9,23.9-13.2,0-23.9-10.7-23.9-23.9s10.7-23.9,23.9-23.9"/>
              <path id="_パス_1357" data-name="パス 1357" class="cls-3" d="m132.37,57.09c13.2,0,23.9,10.7,23.9,23.9h0c0,13.2-10.7,23.9-23.9,23.9-13.2,0-23.9-10.7-23.9-23.9s10.7-23.9,23.9-23.9"/>
              <path id="_パス_1358" data-name="パス 1358" class="cls-3" d="m132.37,0c13.2,0,23.9,10.7,23.9,23.9h0c0,13.2-10.7,23.9-23.9,23.9-13.2,0-23.9-10.7-23.9-23.9,0-13.2,10.7-23.9,23.9-23.9"/>
            </g>
          </g>
        </g>
      </g>
    </g>
  </g>
</svg>