<?xml version="1.0" encoding="UTF-8"?>
<svg id="_レイヤー_2" data-name="レイヤー 2" xmlns="http://www.w3.org/2000/svg" viewBox="0 0 251.26 243.22">
  <defs>
    <style>
      .cls-1 {
        fill: #fff;
      }
    </style>
  </defs>
  <g id="_饑1" data-name="ﾑ饑1">
    <g>
      <path class="cls-1" d="m98.19,135.06h139.96c7.24,0,13.11-5.87,13.11-13.11h0c0-7.24-5.87-13.11-13.11-13.11H98.19v26.22Z"/>
      <path class="cls-1" d="m168.17,220.19h69.98c7.24,0,13.11-5.87,13.11-13.11h0c0-7.24-5.87-13.11-13.11-13.11h-69.98v26.22Z"/>
      <path class="cls-1" d="m210.08,22.63v26.22h28.06c7.24,0,13.11-5.87,13.11-13.11h0c0-7.24-5.87-13.11-13.11-13.11h-28.06Z"/>
      <path class="cls-1" d="m49.05,157.71h0c7.24,0,13.11-5.87,13.11-13.11v-45.26c0-7.24-5.87-13.11-13.11-13.11h0c-7.24,0-13.11,5.87-13.11,13.11v9.5H13.11c-7.24,0-13.11,5.87-13.11,13.11h0c0,7.24,5.87,13.11,13.11,13.11h22.83v9.54c0,7.24,5.87,13.11,13.11,13.11Z"/>
      <path class="cls-1" d="m105.93,193.97H13.11c-7.24,0-13.11,5.87-13.11,13.11h0c0,7.24,5.87,13.11,13.11,13.11h92.82v9.92c0,7.24,5.87,13.11,13.11,13.11h0c7.24,0,13.11-5.87,13.11-13.11v-45.26c0-7.24-5.87-13.11-13.11-13.11h0c-7.24,0-13.11,5.87-13.11,13.11v9.12Z"/>
      <path class="cls-1" d="m160.93,71.48h0c7.24,0,13.11-5.87,13.11-13.11V13.11c0-7.24-5.87-13.11-13.11-13.11h0c-7.24,0-13.11,5.87-13.11,13.11v9.54H13.11c-7.24,0-13.11,5.87-13.11,13.11h0c0,7.24,5.87,13.11,13.11,13.11h134.71v9.5c0,7.24,5.87,13.11,13.11,13.11Z"/>
    </g>
  </g>
</svg>