# This file uses centimeters as units for non-parametric coordinates.

mtllib icosahedron.mtl
adobe_mdllib icosahedron.mdl
g default
v 8.506509 8.506509 -5.257311
v 8.506509 8.506509 5.257311
v -8.506509 8.506509 5.257311
v -8.506509 8.506509 -5.257311
v 0.000000 3.249198 8.506509
v 0.000000 13.763820 8.506509
v 0.000000 13.763820 -8.506509
v 0.000000 3.249198 -8.506509
v -5.257311 0.000000 0.000000
v 5.257311 0.000000 0.000000
v 5.257311 17.013018 0.000000
v -5.257311 17.013018 0.000000
vt 0.909091 0.583333
vt 0.818182 0.750000
vt 0.727273 0.583333
vt 0.818182 0.416667
vt 0.545455 0.583333
vt 0.636364 0.416667
vt 0.636364 0.750000
vt 0.181818 0.583333
vt 0.000000 0.583333
vt 0.090909 0.416667
vt 0.090909 0.750000
vt 1.000000 0.416667
vt 0.454545 0.416667
vt 0.363636 0.583333
vt 0.272727 0.416667
vt 0.363636 0.250000
vt 0.181818 0.250000
vt 0.545455 0.250000
vt 0.272727 0.750000
vt 0.909091 0.250000
vt 0.727273 0.250000
vt 0.454545 0.750000
vn 0.934172 -0.356822 0.000000
vn 0.934172 -0.356822 0.000000
vn 0.934172 -0.356822 0.000000
vn 0.934172 0.356822 0.000000
vn 0.934172 0.356822 0.000000
vn 0.934172 0.356822 0.000000
vn 0.356822 0.000000 -0.934172
vn 0.356822 0.000000 -0.934172
vn 0.356822 0.000000 -0.934172
vn 0.577350 0.577350 -0.577350
vn 0.577350 0.577350 -0.577350
vn 0.577350 0.577350 -0.577350
vn 0.577350 -0.577350 -0.577350
vn 0.577350 -0.577350 -0.577350
vn 0.577350 -0.577350 -0.577350
vn 0.356822 0.000000 0.934172
vn 0.356822 0.000000 0.934172
vn 0.356822 0.000000 0.934172
vn 0.577350 -0.577350 0.577350
vn 0.577350 -0.577350 0.577350
vn 0.577350 -0.577350 0.577350
vn 0.577350 0.577350 0.577350
vn 0.577350 0.577350 0.577350
vn 0.577350 0.577350 0.577350
vn -0.934172 -0.356822 0.000000
vn -0.934172 -0.356822 0.000000
vn -0.934172 -0.356822 0.000000
vn -0.934172 0.356822 0.000000
vn -0.934172 0.356822 0.000000
vn -0.934172 0.356822 0.000000
vn -0.356822 0.000000 0.934172
vn -0.356822 0.000000 0.934172
vn -0.356822 0.000000 0.934172
vn -0.577350 -0.577350 0.577350
vn -0.577350 -0.577350 0.577350
vn -0.577350 -0.577350 0.577350
vn -0.577350 0.577350 0.577350
vn -0.577350 0.577350 0.577350
vn -0.577350 0.577350 0.577350
vn -0.356822 0.000000 -0.934172
vn -0.356822 0.000000 -0.934172
vn -0.356822 0.000000 -0.934172
vn -0.577350 0.577350 -0.577350
vn -0.577350 0.577350 -0.577350
vn -0.577350 0.577350 -0.577350
vn -0.577350 -0.577350 -0.577350
vn -0.577350 -0.577350 -0.577350
vn -0.577350 -0.577350 -0.577350
vn 0.000000 -0.934172 0.356822
vn 0.000000 -0.934172 0.356822
vn 0.000000 -0.934172 0.356822
vn 0.000000 0.934172 0.356822
vn 0.000000 0.934172 0.356822
vn 0.000000 0.934172 0.356822
vn 0.000000 0.934172 -0.356822
vn 0.000000 0.934172 -0.356822
vn 0.000000 0.934172 -0.356822
vn 0.000000 -0.934172 -0.356822
vn 0.000000 -0.934172 -0.356822
vn 0.000000 -0.934172 -0.356822
s off
g icosahedron
usemtl icosahedron_Mat
f 2/1/1 10/2/2 1/3/3
f 1/3/4 11/4/5 2/1/6
f 1/3/7 8/5/8 7/6/9
f 1/3/10 7/6/11 11/4/12
f 1/3/13 10/7/14 8/5/15
f 5/8/16 2/9/17 6/10/18
f 10/11/19 2/9/20 5/8/21
f 2/1/22 11/4/23 6/12/24
f 4/13/25 9/14/26 3/15/27
f 3/15/28 12/16/29 4/13/30
f 5/8/31 6/10/32 3/15/33
f 3/15/34 9/14/35 5/8/36
f 6/10/37 12/17/38 3/15/39
f 7/6/40 8/5/41 4/13/42
f 4/13/43 12/18/44 7/6/45
f 4/13/46 8/5/47 9/14/48
f 5/8/49 9/14/50 10/19/51
f 6/12/52 11/4/53 12/20/54
f 7/6/55 12/21/56 11/4/57
f 8/5/58 10/22/59 9/14/60
