<?xml version="1.0" encoding="UTF-8"?>
<svg id="_レイヤー_2" data-name="レイヤー 2" xmlns="http://www.w3.org/2000/svg" viewBox="0 0 56.34 38.88">
  <defs>
    <style>
      .cls-1 {
        fill: #fff;
      }

      .cls-2 {
        fill: #333;
      }
    </style>
  </defs>
  <g id="_レイヤー_2-2" data-name=" レイヤー 2">
    <g id="_編集モード" data-name=" 編集モード">
      <path class="cls-2" d="m20.22,32.41l-1.24-.74.26-.44h0s.81-1.37.81-1.37l.09.05c.45.27,1.07.06,1.38-.46s.19-1.16-.26-1.43l-.09-.05,7.56-12.73c.39.74.97,1.37,1.71,1.81,2.3,1.37,5.36.48,6.81-1.97,1.14-1.93.96-4.27-.29-5.84.81-.93,1.31-2.12,1.36-3.37.07-1.73-.74-3.33-2.11-4.24.28,0,.56-.15.72-.42.23-.39.12-.89-.25-1.11s-.86-.08-1.09.32c-.17.28-.16.62,0,.86-.62-.28-1.3-.43-2-.42-2.15.03-4.03,1.48-4.79,3.47-1.15-.22-2.38,0-3.45.64-2.41,1.44-3.35,4.57-2.08,6.98.4.77,1,1.4,1.73,1.83.67.4,1.42.61,2.19.64l-7.52,12.67-.09-.06c-.45-.27-1.07-.06-1.38.46s-.19,1.16.26,1.43l.09.06-5.09,8.57,1.5.89,1.8-3.03,1.24.74-.31.51,3.73,2.23.44-.73-.66-.39.57-.95-1.1-.65.7-1.17,1.1.66.61-1.02.66.39.48-.8-3.73-2.23-.26.44h0ZM33.53,2.35c1.93-.03,3.43,1.56,3.35,3.55-.04,1.1-.56,2.08-1.34,2.75-.04-.04-.09-.08-.14-.11-.36-.22-.84-.08-1.08.3-1.05-.03-1.83-.29-2.43-.65-.71-.42-1.16-.98-1.42-1.43-.05-.08-.08-.15-.12-.21,0,0,0,0,0,0,.23-.39.13-.89-.24-1.11-.04-.03-.09-.05-.14-.06.36-1.69,1.84-3,3.56-3.03h0Zm-4.68,10.3c-1.62.71-3.48.11-4.3-1.46-.9-1.71-.23-3.92,1.48-4.95.94-.56,2-.64,2.92-.32-.12.36,0,.75.32.94.11.07.24.1.36.1.4.7,1.01,2.27.04,4.43-.31-.04-.63.12-.8.41-.16.27-.16.59-.02.84h0Zm1.65-4.96c.28.34.65.67,1.13.96h0c.36.21.77.39,1.25.52-.72.19-1.56.59-2.37,1.39.31-1.16.21-2.13,0-2.87h0Zm2.47,1.98c.48-.13.91-.15,1.2-.14.02,0,.04,0,.06,0,.05.18.16.34.33.44.29.17.66.12.92-.11,1.19,1.09,1.47,2.98.55,4.51-1.03,1.74-3.2,2.37-4.83,1.4-.99-.59-1.55-1.63-1.61-2.75.24-.03.47-.18.61-.41.18-.3.16-.66-.03-.91.92-1.26,1.95-1.79,2.79-2.02h0Z"/>
    </g>
  </g>
  <g id="_レイヤー_2-3" data-name="レイヤー 2">
    <g>
      <path class="cls-1" d="m5.74,15.77c.21-.02.39-.11.53-.27s.22-.35.22-.57c0-.23-.08-.42-.24-.58s-.36-.23-.59-.23h-3.12c-.35,0-.68-.06-1-.19s-.58-.3-.81-.52c-.23-.22-.41-.48-.54-.78-.13-.3-.2-.62-.2-.95s.07-.65.2-.95c.14-.3.32-.56.55-.79s.5-.4.82-.53.65-.19,1.01-.19h4.8c.22,0,.4.07.54.2.14.13.2.33.2.61s-.07.47-.22.61-.32.2-.53.2H2.39c-.21.02-.39.11-.53.28s-.22.36-.22.58c0,.23.08.43.24.59s.36.24.59.24h3.12c.35,0,.68.06,1,.19s.58.29.81.51c.23.22.41.47.54.77.13.3.2.61.2.95s-.07.65-.2.95c-.14.3-.32.56-.55.79-.23.22-.5.4-.82.53s-.65.19-1.01.19H.74c-.22,0-.4-.07-.54-.2-.14-.13-.2-.33-.2-.61s.07-.47.22-.61c.14-.13.32-.2.53-.2h4.99Z"/>
      <path class="cls-1" d="m16.97,17.38h-3.19c-.58,0-1.12-.11-1.63-.32-.51-.22-.96-.51-1.33-.88-.38-.37-.67-.8-.89-1.3-.22-.5-.33-1.02-.33-1.58s.11-1.09.33-1.58c.22-.5.52-.93.89-1.3.38-.37.82-.66,1.33-.88.51-.22,1.06-.32,1.63-.32h3.19c.22,0,.4.07.54.2.14.13.2.33.2.61s-.07.47-.22.61-.32.2-.53.2h-3.19c-.34,0-.67.06-.98.19s-.58.3-.81.53c-.23.22-.42.49-.55.79-.14.3-.2.63-.2.97s.07.65.2.95c.14.3.32.56.55.78.23.22.49.4.78.53.29.13.59.2.91.2h3.3c.21,0,.38.07.53.2.14.13.22.33.22.61s-.07.47-.2.61c-.14.13-.32.2-.54.2Z"/>
      <path class="cls-1" d="m25.88,17.18c-.13-.14-.2-.32-.2-.54v-1.72c0-.23-.08-.43-.24-.59-.16-.16-.36-.24-.59-.24h-1.98c-.24,0-.44-.07-.61-.22s-.25-.34-.25-.57.08-.42.25-.57.37-.22.61-.22h1.98c.23,0,.43-.08.59-.24.16-.16.24-.36.24-.59s-.08-.43-.24-.6c-.16-.17-.36-.25-.59-.25h-3.55c-.16,0-.28.03-.37.08-.08.05-.13.15-.13.31v5.42c0,.21-.07.38-.21.53-.14.14-.35.22-.62.22s-.47-.07-.61-.2c-.13-.14-.2-.32-.2-.54v-6.5c0-.27.09-.49.26-.66.18-.17.38-.25.61-.25h4.68c.36,0,.7.06,1.01.19s.58.3.82.53.42.49.55.79c.14.3.2.62.2.95s-.06.62-.17.89c-.12.28-.28.52-.49.73.21.22.37.46.49.74.12.28.17.57.17.88v1.72c0,.21-.07.38-.21.53-.14.14-.35.22-.62.22s-.47-.07-.61-.2Z"/>
      <path class="cls-1" d="m28.78,13.3c0-.56.11-1.09.32-1.58.22-.5.51-.93.89-1.3.38-.37.82-.67,1.33-.88.51-.22,1.05-.32,1.63-.32s1.12.11,1.63.32c.51.22.96.51,1.33.88.38.37.67.81.89,1.3s.33,1.02.33,1.58-.11,1.09-.33,1.58c-.22.5-.52.93-.89,1.3s-.82.67-1.33.88c-.51.22-1.06.32-1.63.32s-1.12-.11-1.63-.32c-.51-.22-.95-.51-1.33-.88-.38-.37-.68-.81-.89-1.3-.22-.5-.32-1.02-.32-1.58Zm1.63.01c0,.34.07.67.2.97.14.3.32.56.55.79.23.22.5.4.81.53s.63.19.98.19.67-.06.98-.19.58-.3.81-.53c.23-.22.42-.49.55-.79.14-.3.2-.62.2-.97s-.07-.67-.2-.97c-.14-.3-.32-.57-.55-.79-.23-.22-.5-.4-.81-.53-.31-.13-.63-.2-.98-.2s-.67.07-.98.2c-.31.13-.58.31-.81.53-.23.22-.42.49-.55.79-.14.3-.2.63-.2.97Z"/>
      <path class="cls-1" d="m42.78,17.38c-.57,0-1.1-.1-1.61-.31-.5-.21-.95-.49-1.33-.85-.38-.36-.68-.78-.91-1.26-.22-.48-.34-.99-.34-1.54v-3.47c0-.21.07-.38.21-.53.14-.14.35-.22.62-.22s.47.07.61.2c.13.14.2.32.2.54v3.4c0,.31.07.61.2.91.14.29.32.55.55.77.23.22.5.4.81.54.31.14.63.2.98.2h3.22c.22,0,.4.07.54.2.14.13.2.33.2.61s-.07.47-.22.61c-.14.13-.32.2-.53.2h-3.22Z"/>
      <path class="cls-1" d="m52.38,17.38c-.57,0-1.1-.1-1.61-.31s-.95-.49-1.33-.85-.68-.78-.91-1.26c-.22-.48-.34-.99-.34-1.54v-3.47c0-.21.07-.38.21-.53.14-.14.35-.22.62-.22s.47.07.61.2c.13.14.2.32.2.54v3.4c0,.31.07.61.2.91.14.29.32.55.55.77.23.22.5.4.81.54.31.14.63.2.98.2h3.22c.22,0,.4.07.54.2.14.13.2.33.2.61s-.07.47-.22.61c-.14.13-.32.2-.53.2h-3.22Z"/>
      <path class="cls-1" d="m7.91,31.38c-.28,0-.5-.09-.65-.26-.15-.18-.23-.4-.23-.68v-6.3c0-.27.09-.49.26-.66.18-.17.38-.25.61-.25h3.3c.58,0,1.12.11,1.63.32.51.22.96.51,1.33.88s.67.8.89,1.3c.22.5.33,1.02.33,1.58s-.11,1.09-.33,1.58c-.22.5-.52.93-.89,1.3s-.82.66-1.33.88c-.51.22-1.06.32-1.63.32h-3.3Zm1.15-6.55c-.14.02-.24.05-.3.1s-.1.15-.1.28v4.18c0,.26.13.38.4.38h2.26c.31,0,.61-.07.91-.2.29-.13.55-.31.78-.53s.41-.48.55-.78c.14-.3.2-.62.2-.95s-.07-.67-.2-.97c-.14-.3-.32-.57-.55-.79s-.5-.4-.81-.53c-.31-.13-.63-.19-.98-.19h-2.15Z"/>
      <path class="cls-1" d="m16.87,27.3c0-.56.11-1.09.32-1.58.22-.5.51-.93.89-1.3.38-.37.82-.67,1.33-.88.51-.22,1.05-.32,1.63-.32s1.12.11,1.63.32c.51.22.96.51,1.33.88.38.37.67.81.89,1.3.22.5.33,1.02.33,1.58s-.11,1.09-.33,1.58c-.22.5-.52.93-.89,1.3s-.82.67-1.33.88c-.51.22-1.06.32-1.63.32s-1.12-.11-1.63-.32c-.51-.22-.95-.51-1.33-.88-.38-.37-.68-.81-.89-1.3-.22-.5-.32-1.02-.32-1.58Zm1.63.01c0,.34.07.67.2.97.14.3.32.56.55.79.23.22.5.4.81.53.31.13.63.19.98.19s.67-.06.98-.19c.31-.13.58-.3.81-.53.23-.22.42-.49.55-.79.14-.3.2-.62.2-.97s-.07-.67-.2-.97c-.14-.3-.32-.57-.55-.79s-.5-.4-.81-.53c-.31-.13-.63-.2-.98-.2s-.67.07-.98.2c-.31.13-.58.31-.81.53-.23.22-.42.49-.55.79s-.2.63-.2.97Z"/>
      <path class="cls-1" d="m39.28,23.29c.19.06.33.15.41.27s.13.24.13.38c0,.06-.02.18-.06.34l-2.59,6.65c-.06.14-.14.26-.25.34-.11.08-.24.13-.4.13h-1.32c-.16,0-.29-.04-.4-.13-.11-.08-.19-.2-.25-.34l-1.32-3.52-1.37,3.52c-.06.14-.14.26-.25.34-.11.08-.24.13-.4.13h-1.32c-.16,0-.29-.04-.4-.13-.11-.08-.19-.2-.25-.34l-2.59-6.65c-.04-.16-.06-.27-.06-.34,0-.14.04-.26.13-.38s.22-.21.41-.27c.07-.03.14-.05.2-.06s.12-.01.19-.01c.33,0,.55.15.66.46l2.38,6.06,2.38-6.06c.12-.3.34-.46.66-.46.06,0,.13,0,.19.01.06,0,.13.03.2.06.19.06.33.15.41.27s.13.24.13.38c0,.06-.02.18-.06.34l-.37.95,1.78,4.51,2.38-6.06c.12-.3.34-.46.66-.46.06,0,.13,0,.19.01.06,0,.13.03.2.06Z"/>
      <path class="cls-1" d="m41.98,31.38c-.27,0-.47-.07-.6-.2s-.19-.32-.19-.54v-6.67c0-.21.07-.38.21-.53.14-.14.35-.22.62-.22.03,0,.07,0,.12.02.05.01.09.02.12.03.02,0,.06.01.11.04.05.02.13.09.25.2.12.11.29.27.52.5.23.22.54.53.93.93.39.4.88.9,1.46,1.5.58.6,1.3,1.34,2.14,2.21v-4.68c0-.21.07-.38.21-.53.14-.14.35-.22.62-.22s.47.07.61.2.2.32.2.54v6.67c0,.21-.07.38-.22.53-.14.14-.35.22-.62.22-.18,0-.32-.03-.42-.08-.06-.05-.15-.13-.26-.23-.11-.11-.28-.27-.5-.49s-.52-.53-.91-.92c-.39-.39-.87-.88-1.45-1.48s-1.28-1.32-2.1-2.17v4.63c0,.21-.07.38-.22.53s-.35.22-.62.22Z"/>
    </g>
  </g>
</svg>