<?xml version="1.0" encoding="UTF-8"?>
<svg id="_レイヤー_2" data-name="レイヤー 2" xmlns="http://www.w3.org/2000/svg" xmlns:xlink="http://www.w3.org/1999/xlink" viewBox="0 0 726.44 1116">
  <defs>
    <clipPath id="clippath">
      <rect width="726.44" height="1116" fill="none" stroke-width="0"/>
    </clipPath>
    <mask id="mask" x="-498.3" y="-350" width="1479.1" height="1509" maskUnits="userSpaceOnUse">
      <g id="mask0_4951_7752" data-name="mask0 4951 7752">
        <path d="M590.66,578.28c0,30.42-24.76,55.07-55.51,55.07s-55.52-24.65-55.52-55.07,24.76-55.07,55.52-55.07,55.51,24.65,55.51,55.07ZM940.17-350H-478.58c-5.61,0-7.35,3.47-7.35,7.51V-8.03c0,4.04,1.74,7.51,7.35,7.51H-.63C3.43-.53,6.72,2.75,6.72,6.79v1144.7c0,4.81,1.93,7.51,7.54,7.51h698.84c10.25,0,11.79-10.98,5.61-14.25,0,0-234.82-133.63-267.7-152.3-2.32-1.35-3.67-3.85-3.67-6.55V96.13c0-9.05,1.55-18.29,14.89-22.53L716.19,1.59c2.13-.77,8.32-2.31,10.45-2.31h213.53c5.61,0,7.55-3.27,7.55-7.51v-334.26c0-4.04-1.74-7.51-7.55-7.51Z" fill="#fff" stroke-width="0"/>
      </g>
    </mask>
  </defs>
  <g id="_レイヤー_1-2" data-name="レイヤー 1">
    <g clip-path="url(#clippath)">
      <g mask="url(#mask)">
        <g>
          <path d="M229.54,1116h751.25V0H229.54v1116Z" fill="#1779de" stroke-width="0"/>
          <path d="M229.54,0H-498.3v1116H229.54V0Z" fill="#ff811c" stroke-width="0"/>
        </g>
      </g>
      <path d="M150.13,716.82l48,13.7v17.02l-48,13.7v-14.02l8.06-1.92v-13.12l-8.06-1.92v-13.44ZM185.46,738.65l-16.06-3.84v7.87l16.06-3.78v-.26Z" fill="#fff" stroke-width="0"/>
      <path d="M150.13,701.07l17.66-9.28v-.77h-17.66v-12.93h48v19.52c0,9.54-6.78,16.7-15.55,16.7-6.14,0-11.07-3.65-13.38-9.22l-19.07,10.56v-14.59ZM177.4,696.4c0,3.14,2.18,4.99,4.8,4.99s4.74-1.86,4.74-4.99v-5.38h-9.54v5.38Z" fill="#fff" stroke-width="0"/>
      <path d="M150.13,656.97h48v12.93h-48v-12.93Z" fill="#fff" stroke-width="0"/>
      <path d="M163.32,650.74c-7.3,0-13.18-6.27-13.18-15.42v-19.9h48v19.01c0,9.15-4.99,15.36-13.06,15.36-3.71,0-8-1.54-10.11-6.08-2.43,5.18-7.23,7.04-11.65,7.04ZM187.06,628.34h-7.68v4.42c0,2.82,1.73,4.03,3.84,4.03,2.3,0,3.84-1.28,3.84-3.84v-4.61ZM161.33,633.84c0,2.5,1.73,3.78,3.84,3.78s3.78-1.22,3.78-3.97v-5.31h-7.62v5.5Z" fill="#fff" stroke-width="0"/>
      <path d="M149.11,584.69c0-14.85,10.24-24.51,25.02-24.51s25.02,10.05,25.02,24.51-10.24,24.58-25.02,24.58-25.02-10.05-25.02-24.58ZM160.82,584.69c0,7.23,5.06,11.33,13.38,11.33s13.44-4.1,13.44-11.33-5.18-11.26-13.44-11.26-13.38,4.1-13.38,11.26Z" fill="#fff" stroke-width="0"/>
      <path d="M150.13,534.65h36.8v-10.62h11.2v34.24h-11.2v-10.69h-36.8v-12.93Z" fill="#fff" stroke-width="0"/>
      <path d="M150.13,478.16h48v29.06h-11.2v-16.13h-7.1v14.85h-11.07v-14.85h-7.23v16.45h-11.39v-29.38Z" fill="#fff" stroke-width="0"/>
      <path d="M150.13,431.16h48v12.93h-18.3v12.93h18.3v12.93h-48v-12.93h18.43v-12.93h-18.43v-12.93Z" fill="#fff" stroke-width="0"/>
      <path d="M150.13,402.22h36.8v-10.62h11.2v34.24h-11.2v-10.69h-36.8v-12.93Z" fill="#fff" stroke-width="0"/>
      <path d="M234.13,655.14v-12.86l24.7-14.98v-.26h-24.7v-12.35h48v13.12l-24.64,14.72v.26h24.64v12.35h-48Z" fill="#fff" stroke-width="0"/>
      <path d="M234.13,578.25h48v29.06h-11.2v-16.13h-7.1v14.85h-11.07v-14.85h-7.23v16.45h-11.39v-29.38Z" fill="#fff" stroke-width="0"/>
      <path d="M282.13,556.29c0,9.54-7.1,16.64-16.13,16.64s-16.26-7.1-16.26-16.64v-7.36h-15.62v-12.93h48v20.29ZM260.82,555.01c0,3.26,2.37,4.93,5.06,4.93s5.06-1.66,5.06-4.93v-6.08h-10.11v6.08Z" fill="#fff" stroke-width="0"/>
      <path d="M233.11,505.28c0-14.85,10.24-24.51,25.02-24.51s25.02,10.05,25.02,24.51-10.24,24.58-25.02,24.58-25.02-10.05-25.02-24.58ZM244.82,505.28c0,7.23,5.06,11.33,13.38,11.33s13.44-4.1,13.44-11.33-5.18-11.26-13.44-11.26-13.38,4.1-13.38,11.26Z" fill="#fff" stroke-width="0"/>
    </g>
  </g>
</svg>