<svg width="12" height="12" viewBox="0 0 12 12" fill="none" xmlns="http://www.w3.org/2000/svg">
<path fill-rule="evenodd" clip-rule="evenodd" d="M2 0C0.895431 0 0 0.895431 0 2V10C0 11.1046 0.895431 12 2 12H10C11.1046 12 12 11.1046 12 10V2C12 0.895431 11.1046 0 10 0H2Z" fill="#2F88FF"/>
<path d="M5.13885 8.80421L9.80453 4.13912C9.92969 4.01398 10 3.84426 10 3.66728C10 3.49031 9.92969 3.32058 9.80453 3.19544C9.67938 3.0703 9.50963 3 9.33263 3C9.15563 3 8.98589 3.0703 8.86073 3.19544L4.66695 7.39002L3.13927 5.86121C3.0773 5.79924 3.00373 5.75009 2.92276 5.71656C2.84179 5.68302 2.75501 5.66576 2.66737 5.66576C2.49037 5.66576 2.32062 5.73607 2.19547 5.86121C2.1335 5.92317 2.08434 5.99673 2.0508 6.07769C2.01726 6.15865 2 6.24542 2 6.33305C2 6.42067 2.01726 6.50745 2.0508 6.5884C2.08434 6.66936 2.1335 6.74292 2.19547 6.80489L4.19505 8.80421C4.25696 8.86627 4.33051 8.91551 4.41149 8.94911C4.49247 8.98271 4.57928 9 4.66695 9C4.75462 9 4.84143 8.98271 4.92241 8.94911C5.00338 8.91551 5.07693 8.86627 5.13885 8.80421Z" fill="white"/>
</svg>
