<svg width="302" height="302" viewBox="0 0 302 302" fill="none" xmlns="http://www.w3.org/2000/svg">
<path d="M208.759 95.3818L125.835 178.306L80.6605 133.258L62.918 151L125.835 213.917L226.501 113.25L208.759 95.3818ZM151.001 25.1667C81.5413 25.1667 25.168 81.5401 25.168 151C25.168 220.46 81.5413 276.833 151.001 276.833C220.461 276.833 276.835 220.46 276.835 151C276.835 81.5401 220.461 25.1667 151.001 25.1667ZM151.001 251.667C95.383 251.667 50.3346 206.618 50.3346 151C50.3346 95.3818 95.383 50.3334 151.001 50.3334C206.62 50.3334 251.668 95.3818 251.668 151C251.668 206.618 206.62 251.667 151.001 251.667Z" fill="#1779DE"/>
</svg>
