<svg width="158" height="158" viewBox="0 0 158 158" fill="none" xmlns="http://www.w3.org/2000/svg">
<g clip-path="url(#clip0_3582_7007)">
<path d="M79 158C122.631 158 158 122.631 158 79C158 35.3695 122.631 0 79 0C35.3695 0 0 35.3695 0 79C0 122.631 35.3695 158 79 158Z" fill="#00EF8B"/>
<path d="M113.602 66.6758H91.324V88.9538H113.602V66.6758Z" fill="white"/>
<path d="M69.046 97.3278C69.046 101.91 65.254 105.702 60.672 105.702C56.09 105.702 52.298 101.91 52.298 97.3278C52.298 92.7458 56.09 88.9538 60.672 88.9538H69.046V66.6758H60.672C43.766 66.6758 30.02 80.4218 30.02 97.3278C30.02 114.234 43.766 127.98 60.672 127.98C77.578 127.98 91.324 114.234 91.324 97.3278V88.9538H69.046V97.3278Z" fill="white"/>
<path d="M99.6979 55.4577H124.82V33.1797H99.6979C82.7919 33.1797 69.0459 46.9257 69.0459 63.8317V66.6757H91.3239V63.8317C91.3239 59.2497 95.1159 55.4577 99.6979 55.4577Z" fill="white"/>
<path d="M91.3239 66.6758H69.0459V88.9538H91.3239V66.6758Z" fill="#16FF99"/>
</g>
<defs>
<clipPath id="clip0_3582_7007">
<rect width="158" height="158" fill="white"/>
</clipPath>
</defs>
</svg>
