<svg width="16" height="16" viewBox="0 0 16 16" fill="none" xmlns="http://www.w3.org/2000/svg">
<g style="mix-blend-mode:screen" opacity="0.16">
<path d="M7.99966 15.2258C4.00896 15.2258 0.773852 11.9907 0.773852 7.99998C0.773852 4.00927 4.00896 0.77417 7.99966 0.77417C11.9904 0.77417 15.2255 4.00927 15.2255 7.99998C15.2255 11.9907 11.9904 15.2258 7.99966 15.2258Z" fill="white"/>
</g>
<path fill-rule="evenodd" clip-rule="evenodd" d="M8 1.6C11.5346 1.6 14.4 4.46538 14.4 8C14.4 11.5346 11.5346 14.4 8 14.4C4.46538 14.4 1.6 11.5346 1.6 8C1.6 4.46538 4.46538 1.6 8 1.6ZM16 8C16 3.58172 12.4183 0 8 0C3.58172 0 0 3.58172 0 8C0 12.4183 3.58172 16 8 16C12.4183 16 16 12.4183 16 8Z" fill="white"/>
<path fill-rule="evenodd" clip-rule="evenodd" d="M9.29016 4.77047C9.29016 4.13124 8.71438 3.61304 8.00413 3.61304H7.99555C7.28529 3.61304 6.70952 4.13124 6.70952 4.77047V4.77819C6.70952 5.41742 7.28529 5.93562 7.99555 5.93562H8.00413C8.71438 5.93562 9.29016 5.41742 9.29016 4.77819V4.77047Z" fill="white"/>
<path fill-rule="evenodd" clip-rule="evenodd" d="M8.00034 7.22583C7.57277 7.22583 7.22615 7.57245 7.22615 8.00002V11.0968C7.22615 11.5244 7.57277 11.871 8.00034 11.871C8.42792 11.871 8.77454 11.5244 8.77454 11.0968V8.00002C8.77454 7.57245 8.42792 7.22583 8.00034 7.22583Z" fill="white"/>
</svg>
