<svg width="16" height="16" viewBox="0 0 16 16" fill="none" xmlns="http://www.w3.org/2000/svg">
<path fill-rule="evenodd" clip-rule="evenodd" d="M8 1.6C11.5346 1.6 14.4 4.46538 14.4 8C14.4 11.5346 11.5346 14.4 8 14.4C4.46538 14.4 1.6 11.5346 1.6 8C1.6 4.46538 4.46538 1.6 8 1.6ZM16 8C16 3.58172 12.4183 0 8 0C3.58172 0 0 3.58172 0 8C0 12.4183 3.58172 16 8 16C12.4183 16 16 12.4183 16 8Z" fill="#CCCCCC"/>
<path fill-rule="evenodd" clip-rule="evenodd" d="M9.29102 4.77041C9.29102 4.13118 8.71524 3.61298 8.00498 3.61298H7.99641C7.28615 3.61298 6.71037 4.13118 6.71037 4.77041V4.77812C6.71037 5.41736 7.28615 5.93556 7.99641 5.93556H8.00498C8.71524 5.93556 9.29102 5.41736 9.29102 4.77812V4.77041Z" fill="#CCCCCC"/>
<path fill-rule="evenodd" clip-rule="evenodd" d="M8.0012 7.22577C7.57362 7.22577 7.227 7.57239 7.227 7.99996V11.0967C7.227 11.5243 7.57362 11.8709 8.0012 11.8709C8.42877 11.8709 8.77539 11.5243 8.77539 11.0967V7.99996C8.77539 7.57239 8.42877 7.22577 8.0012 7.22577Z" fill="#CCCCCC"/>
</svg>
