<svg width="12" height="12" viewBox="0 0 12 12" fill="none" xmlns="http://www.w3.org/2000/svg">
<path d="M6 0C2.68626 0 0 2.6864 0 6.0003C0 9.3136 2.68626 12 6 12C9.31374 12 12 9.3136 12 6.0003C12 2.6864 9.31374 0 6 0ZM6 0.899865C6.67438 0.892551 7.34351 1.01907 7.96868 1.27209C8.59384 1.52512 9.16261 1.89963 9.64208 2.37394C10.1215 2.84826 10.5022 3.41297 10.762 4.03538C11.0217 4.65779 11.1555 5.32555 11.1555 6C11.1555 6.67445 11.0217 7.34221 10.762 7.96462C10.5022 8.58703 10.1215 9.15174 9.64208 9.62606C9.16261 10.1004 8.59384 10.4749 7.96868 10.7279C7.34351 10.9809 6.67438 11.1074 6 11.1001C4.66105 11.0796 3.3839 10.5333 2.4443 9.57909C1.5047 8.62492 0.978042 7.33947 0.978042 6.0003C0.978042 4.66113 1.5047 3.37568 2.4443 2.42151C3.3839 1.46734 4.66105 0.920404 6 0.899865Z" fill="white"/>
<circle cx="4" cy="4" r="4" transform="matrix(-1 0 0 1 10 2)" fill="white"/>
</svg>
