<svg width="8" height="16" viewBox="0 0 8 16" fill="none" xmlns="http://www.w3.org/2000/svg">
<path d="M0.214988 14.651C0.146315 14.7273 0.0926274 14.8171 0.0569915 14.9152C0.021356 15.0134 0.00446932 15.1179 0.00729649 15.2229C0.0101237 15.3279 0.0326094 15.4312 0.0734696 15.5271C0.11433 15.6229 0.172764 15.7094 0.245436 15.7815C0.318108 15.8537 0.403595 15.9101 0.497016 15.9475C0.590436 15.9849 0.689961 16.0027 0.789907 15.9997C0.889854 15.9967 0.988266 15.9731 1.07952 15.9302C1.17078 15.8873 1.25309 15.8259 1.32177 15.7495L7.79193 8.55377C7.92555 8.40532 8 8.20878 8 8.00449C8 7.8002 7.92555 7.60366 7.79193 7.45522L1.32177 0.25864C1.25355 0.180637 1.17125 0.117648 1.07966 0.0733343C0.988064 0.0290209 0.889002 0.00426545 0.788224 0.000504171C0.687446 -0.00325711 0.586961 0.014054 0.492605 0.0514285C0.39825 0.088802 0.311905 0.145496 0.238586 0.218217C0.165268 0.290938 0.106436 0.378237 0.0655094 0.475041C0.0245825 0.571846 0.00237665 0.676227 0.000180821 0.782122C-0.00201453 0.888017 0.0158435 0.993315 0.0527192 1.0919C0.0895945 1.19048 0.144752 1.28039 0.214987 1.35639L6.1919 8.00449L0.214988 14.651Z" fill="#717171"/>
</svg>
