<svg width="20" height="21" viewBox="0 0 20 21" fill="none" xmlns="http://www.w3.org/2000/svg">
<path d="M18 21V6C18 5.45 17.8042 4.97917 17.4125 4.5875C17.0208 4.19583 16.55 4 16 4H15V5.3C15 5.5 14.9333 5.66667 14.8 5.8C14.6667 5.93333 14.5 6 14.3 6H8.7C8.46667 6 8.27917 5.875 8.1375 5.625C7.99583 5.375 7.98333 5.13333 8.1 4.9L10 0.8C10.1167 0.55 10.2875 0.354167 10.5125 0.2125C10.7375 0.0708333 11 0 11.3 0H13.6C14 0 14.3333 0.15 14.6 0.45C14.8667 0.75 15 1.1 15 1.5V2H16C17.1 2 18.0417 2.39167 18.825 3.175C19.6083 3.95833 20 4.9 20 6V21H18ZM10.7 4H13V2H11.6L10.7 4ZM3 21C2.15 21 1.4375 20.7125 0.8625 20.1375C0.2875 19.5625 0 18.85 0 18V15.5C0 14.95 0.183333 14.4375 0.55 13.9625C0.916667 13.4875 1.4 13.2 2 13.1V11C2 10.45 2.19583 9.97917 2.5875 9.5875C2.97917 9.19583 3.45 9 4 9H12C12.55 9 13.0208 9.19583 13.4125 9.5875C13.8042 9.97917 14 10.45 14 11V13.1C14.6 13.2 15.0833 13.475 15.45 13.925C15.8167 14.375 16 14.9 16 15.5V18C16 18.85 15.7125 19.5625 15.1375 20.1375C14.5625 20.7125 13.85 21 13 21H3ZM4 11V13.5C4.3 13.75 4.54167 14.0458 4.725 14.3875C4.90833 14.7292 5 15.1 5 15.5V16H11V15.5C11 15.1 11.0917 14.7292 11.275 14.3875C11.4583 14.0458 11.7 13.75 12 13.5V11H4ZM3 19H13C13.3 19 13.5417 18.8958 13.725 18.6875C13.9083 18.4792 14 18.25 14 18V15.5C14 15.35 13.9542 15.2292 13.8625 15.1375C13.7708 15.0458 13.65 15 13.5 15C13.35 15 13.2292 15.0458 13.1375 15.1375C13.0458 15.2292 13 15.35 13 15.5V18H3V15.5C3 15.35 2.95417 15.2292 2.8625 15.1375C2.77083 15.0458 2.65 15 2.5 15C2.35 15 2.22917 15.0458 2.1375 15.1375C2.04583 15.2292 2 15.35 2 15.5V18C2 18.25 2.09167 18.4792 2.275 18.6875C2.45833 18.8958 2.7 19 3 19Z" fill="#FCFCFC"/>
</svg>
