<svg width="74" height="79" viewBox="0 0 74 79" fill="none" xmlns="http://www.w3.org/2000/svg">
<path d="M73.62 0H0.38C0.09 0 0 0.18 0 0.39V17.73C0 17.95 0.09 18.12 0.38 18.12H25.05C25.27 18.12 25.44 18.29 25.44 18.5V77.86C25.44 78.11 25.54 78.25 25.82 78.25H61.9C62.42 78.25 62.5 77.68 62.19 77.51C62.19 77.51 50.07 70.58 48.37 69.61C48.25 69.54 48.18 69.42 48.18 69.28V23.14C48.18 22.67 48.26 22.19 48.95 21.97L62.06 18.24C62.17 18.2 62.49 18.12 62.59 18.12H73.62C73.91 18.12 74 17.95 74 17.73V0.39C74 0.17 73.91 0 73.62 0ZM36.93 76.32H27.75C27.54 76.32 27.37 76.15 27.37 75.94V18.12C27.37 17.05 26.5 16.19 25.44 16.19H2.31C2.1 16.19 1.93 16.02 1.93 15.81V2.32C1.93 2.1 2.1 1.93 2.31 1.93H36.93V76.32Z" fill="#231815"/>
</svg>