<svg width="111" height="114" viewBox="0 0 111 114" fill="none" xmlns="http://www.w3.org/2000/svg">
<mask id="mask0_4720_7753" style="mask-type:luminance" maskUnits="userSpaceOnUse" x="0" y="1" width="108" height="113">
<path d="M80.7237 70.5606C80.7237 72.8363 78.882 74.6798 76.5943 74.6798C74.3066 74.6798 72.4649 72.8363 72.4649 70.5606C72.4649 68.285 74.3066 66.4415 76.5943 66.4415C78.882 66.4415 80.7237 68.285 80.7237 70.5606ZM106.723 1.125H1.18543C0.768166 1.125 0.638672 1.38425 0.638672 1.68671V26.7043C0.638672 27.0067 0.768166 27.266 1.18543 27.266H36.7388C37.041 27.266 37.2856 27.5108 37.2856 27.8133V113.438C37.2856 113.798 37.4295 113.999 37.8467 113.999H89.8315C90.5941 113.999 90.7092 113.178 90.2488 112.934C90.2488 112.934 72.7814 102.938 70.3354 101.541C70.1628 101.44 70.062 101.253 70.062 101.051V34.4962C70.062 33.8192 70.1771 33.1279 71.1699 32.811L90.0617 27.4244C90.22 27.3668 90.6804 27.2516 90.8387 27.2516H106.723C107.141 27.2516 107.284 27.0067 107.284 26.6899V1.68671C107.284 1.38425 107.155 1.125 106.723 1.125Z" fill="white"/>
</mask>
<g mask="url(#mask0_4720_7753)">
<path d="M53.8621 115.107H109.746L109.746 -0.402618H53.8621L53.8621 115.107Z" fill="#1779DE"/>
<path d="M53.8481 -0.402344H-0.294922V115.727H53.8481V-0.402344Z" fill="#FF811C"/>
</g>
</svg>
