<svg width="451" height="96" viewBox="0 0 451 96" fill="none" xmlns="http://www.w3.org/2000/svg">
<path d="M21.9259 21.1457H0V3.78906H65.3021V21.1457H43.5059V74.2924H21.8827V21.1457H21.9259Z" fill="#1779DE"/>
<path d="M52.0254 48.1075C52.0254 32.6889 63.183 21.9648 78.8382 21.9648C94.4934 21.9648 105.651 32.6889 105.651 48.1075C105.651 63.5261 94.4934 74.164 78.8382 74.164C63.183 74.164 52.0254 63.4399 52.0254 48.1075ZM86.7955 47.806C86.7955 41.8626 83.8548 38.2017 78.8814 38.2017C73.9081 38.2017 70.9673 41.8626 70.9673 47.806C70.9673 53.7495 73.9081 57.6687 78.8814 57.6687C83.8548 57.6687 86.7955 53.7926 86.7955 47.806Z" fill="#1779DE"/>
<path d="M140.162 76.1027C134.669 76.1027 130.042 74.6814 126.928 71.4082H126.452C126.539 71.9681 126.625 72.8295 126.625 73.6478V74.5953H109.327V4.04883H128.009V24.1619C128.009 26.8752 127.923 27.349 127.836 27.4351H128.312C130.777 24.9802 134.842 23.8604 139.816 23.8604C152.962 23.8604 162.952 34.1108 162.952 49.8308C162.952 65.5509 153.395 76.0596 140.118 76.0596L140.162 76.1027ZM144.14 49.7877C144.14 43.7581 140.853 40.1834 135.837 40.1834C130.82 40.1834 127.447 43.7581 127.447 49.7877C127.447 55.8173 131.037 59.6505 135.837 59.6505C140.637 59.6505 144.14 55.7743 144.14 49.7877Z" fill="#1779DE"/>
<path d="M166.801 10.7241C166.801 4.78061 171.515 0 177.57 0C183.624 0 188.511 4.78061 188.511 10.7241C188.511 16.6676 183.581 21.5343 177.57 21.5343C171.559 21.5343 166.801 16.7537 166.801 10.7241ZM168.229 74.2934V25.109H187.127V74.2934H168.229Z" fill="#1779DE"/>
<path d="M219.908 25.1094V41.6478H213.118V74.2938H194.22V25.1094H219.908Z" fill="#1779DE"/>
<path d="M246.418 23.6017C251.91 23.6017 256.062 24.9368 258.873 27.8224H259.262C259.176 27.5209 259.089 27.0902 259.089 26.4873V25.066H276.388V74.2504H259.089V72.8291C259.089 72.1831 259.176 71.4079 259.262 71.0633H258.873C255.673 74.2504 251.132 75.7578 245.553 75.7578C232.32 75.7578 222.719 65.3352 222.719 49.7013C222.719 34.0674 232.925 23.5586 246.418 23.5586V23.6017ZM258.397 49.4429C258.397 43.4994 254.894 39.8386 250.007 39.8386C245.121 39.8386 241.704 43.4994 241.704 49.4429C241.704 55.3863 245.121 59.3056 250.007 59.3056C254.894 59.3056 258.397 55.4294 258.397 49.4429Z" fill="#1779DE"/>
<path d="M285.599 41.2153H282.01V25.1507H285.599V13.2207H304.498V25.1507H312.412V41.2153H304.498V58.0551H311.028V74.3351H285.642V41.2153H285.599Z" fill="#1779DE"/>
<path d="M315.093 49.7891C315.093 34.3706 326.251 23.6465 341.906 23.6465C357.561 23.6465 368.719 34.3706 368.719 49.7891C368.719 65.2077 357.561 75.8457 341.906 75.8457C326.251 75.8457 315.093 65.1216 315.093 49.7891ZM349.863 49.4877C349.863 43.5442 346.923 39.8833 341.949 39.8833C336.976 39.8833 334.035 43.5442 334.035 49.4877C334.035 55.4311 336.976 59.3504 341.949 59.3504C346.923 59.3504 349.863 55.4742 349.863 49.4877Z" fill="#1779DE"/>
<path d="M422.561 25.1094V41.6478H392.331V74.2938H373.433V25.1094H422.561Z" fill="#1779DE"/>
<path d="M0 79.6772H431.729V75.4564C431.729 73.6906 431.815 72.4416 431.902 71.7094H431.513C429.35 73.303 427.058 74.2505 422.561 74.2505C411.403 74.2505 403.748 66.1536 403.748 55.085V45.093H422.647V52.8454C422.647 55.5587 424.42 57.8414 427.188 57.8414C429.956 57.8414 431.729 55.6018 431.729 52.8454V25.1953H450.627V96.0002H0V79.7202V79.6772Z" fill="#1779DE"/>
</svg>
