<svg width="314" height="114" viewBox="0 0 314 114" fill="none" xmlns="http://www.w3.org/2000/svg">
<g clip-path="url(#clip0_3762_8592)">
<path d="M256.148 114C287.628 114 313.148 88.4802 313.148 57C313.148 25.5198 287.628 0 256.148 0C224.668 0 199.148 25.5198 199.148 57C199.148 88.4802 224.668 114 256.148 114Z" fill="#00EF8B"/>
<path d="M281.114 48.1074H265.04V64.1814H281.114V48.1074Z" fill="white"/>
<path d="M248.966 70.2234C248.966 73.5294 246.23 76.2654 242.924 76.2654C239.618 76.2654 236.882 73.5294 236.882 70.2234C236.882 66.9174 239.618 64.1814 242.924 64.1814H248.966V48.1074H242.924C230.726 48.1074 220.808 58.0254 220.808 70.2234C220.808 82.4214 230.726 92.3394 242.924 92.3394C255.122 92.3394 265.04 82.4214 265.04 70.2234V64.1814H248.966V70.2234Z" fill="white"/>
<path d="M271.082 40.0135H289.208V23.9395H271.082C258.884 23.9395 248.966 33.8575 248.966 46.0555V48.1075H265.04V46.0555C265.04 42.7495 267.776 40.0135 271.082 40.0135Z" fill="white"/>
<path d="M265.04 48.1074H248.966V64.1814H265.04V48.1074Z" fill="#16FF99"/>
</g>
<mask id="mask0_3762_8592" style="mask-type:luminance" maskUnits="userSpaceOnUse" x="0" y="1" width="108" height="113">
<path d="M80.7237 70.5606C80.7237 72.8363 78.882 74.6798 76.5943 74.6798C74.3066 74.6798 72.4649 72.8363 72.4649 70.5606C72.4649 68.285 74.3066 66.4415 76.5943 66.4415C78.882 66.4415 80.7237 68.285 80.7237 70.5606ZM106.723 1.125H1.18543C0.768166 1.125 0.638672 1.38425 0.638672 1.68671V26.7043C0.638672 27.0067 0.768166 27.266 1.18543 27.266H36.7388C37.041 27.266 37.2856 27.5108 37.2856 27.8133V113.438C37.2856 113.798 37.4295 113.999 37.8467 113.999H89.8315C90.5941 113.999 90.7092 113.178 90.2488 112.934C90.2488 112.934 72.7814 102.938 70.3354 101.541C70.1628 101.44 70.062 101.253 70.062 101.051V34.4962C70.062 33.8192 70.1771 33.1279 71.1699 32.811L90.0617 27.4244C90.22 27.3668 90.6804 27.2516 90.8387 27.2516H106.723C107.141 27.2516 107.284 27.0067 107.284 26.6899V1.68671C107.284 1.38425 107.155 1.125 106.723 1.125Z" fill="white"/>
</mask>
<g mask="url(#mask0_3762_8592)">
<path d="M53.8614 115.107H109.745L109.745 -0.402618H53.8614L53.8614 115.107Z" fill="#1779DE"/>
<path d="M53.8476 -0.402344H-0.29541V115.727H53.8476V-0.402344Z" fill="#FF811C"/>
</g>
<path fill-rule="evenodd" clip-rule="evenodd" d="M131.021 70.181C129.907 69.0583 129.907 67.238 131.021 66.1153L140.15 56.9156C141.264 55.7929 143.07 55.7929 144.184 56.9156C145.298 58.0383 145.298 59.8586 144.184 60.9813L139.925 65.2732L169.554 65.2732C171.13 65.2732 172.407 66.5604 172.407 68.1481C172.407 69.7359 171.13 71.023 169.554 71.023L139.925 71.023L144.184 75.3149C145.298 76.4376 145.298 78.2579 144.184 79.3806C143.07 80.5033 141.264 80.5033 140.15 79.3806L131.021 70.181ZM130.185 45.149C130.185 43.5613 131.462 42.2741 133.038 42.2741L162.667 42.2741L158.408 37.9822C157.294 36.8595 157.294 35.0392 158.408 33.9165C159.522 32.7938 161.328 32.7938 162.443 33.9165L171.572 43.1162C172.686 44.2389 172.686 46.0592 171.572 47.1819L162.443 56.3815C161.328 57.5042 159.522 57.5042 158.408 56.3815C157.294 55.2588 157.294 53.4385 158.408 52.3158L162.667 48.0239L133.038 48.0239C131.462 48.0239 130.185 46.7368 130.185 45.149Z" fill="#1779DE"/>
<defs>
<clipPath id="clip0_3762_8592">
<rect width="114" height="114" fill="white" transform="translate(199.148)"/>
</clipPath>
</defs>
</svg>
