<svg width="202" height="252" viewBox="0 0 202 252" fill="none" xmlns="http://www.w3.org/2000/svg">
<path d="M87.7862 170.671L158.882 99.5751L140.951 81.6438L87.7862 134.808L61.3612 108.383L43.4299 126.315L87.7862 170.671ZM100.999 251.833C71.8473 244.493 47.7817 227.768 28.8018 201.657C9.82196 175.547 0.332031 146.553 0.332031 114.675V37.9167L100.999 0.166748L201.665 37.9167V114.675C201.665 146.553 192.175 175.547 173.196 201.657C154.216 227.768 130.15 244.493 100.999 251.833ZM100.999 225.408C122.81 218.488 140.846 204.646 155.107 183.883C169.368 163.121 176.499 140.051 176.499 114.675V55.2188L100.999 26.9063L25.4987 55.2188V114.675C25.4987 140.051 32.6293 163.121 46.8904 183.883C61.1515 204.646 79.1876 218.488 100.999 225.408Z" fill="#1779DE"/>
</svg>
