<svg width="23" height="28" viewBox="0 0 23 28" fill="none" xmlns="http://www.w3.org/2000/svg">
<path d="M8.21429 21.2499H14.7857C15.6893 21.2499 16.4286 20.4906 16.4286 19.5624V11.1248H19.0407C20.5029 11.1248 21.2421 9.30233 20.2071 8.2392L12.6664 0.493504C12.5144 0.337065 12.3339 0.212952 12.1352 0.12827C11.9364 0.0435884 11.7234 0 11.5082 0C11.2931 0 11.08 0.0435884 10.8813 0.12827C10.6825 0.212952 10.502 0.337065 10.35 0.493504L2.80929 8.2392C1.77429 9.30233 2.49714 11.1248 3.95929 11.1248H6.57143V19.5624C6.57143 20.4906 7.31071 21.2499 8.21429 21.2499ZM1.64286 24.625H21.3571C22.2607 24.625 23 25.3844 23 26.3125C23 27.2406 22.2607 28 21.3571 28H1.64286C0.739286 28 0 27.2406 0 26.3125C0 25.3844 0.739286 24.625 1.64286 24.625Z" fill="#1779DE"/>
</svg>
