<?xml version="1.0" encoding="UTF-8"?>
<svg id="_レイヤー_2" data-name="レイヤー 2" xmlns="http://www.w3.org/2000/svg" viewBox="0 0 119.28 148.96">
  <defs>
    <style>
      .cls-1 {
        fill: #626364;
      }
    </style>
  </defs>
  <g id="_編集モード" data-name="編集モード">
    <g>
      <path class="cls-1" d="m69.74,130.62h-25.22c-5.9,0-11.31-2.72-14.84-7.45-3.53-4.73-4.58-10.69-2.9-16.35l12.61-42.28c2.39-8.03,9.36-13.22,17.74-13.22s15.34,5.19,17.74,13.22l12.61,42.28c1.69,5.66.63,11.62-2.9,16.35-3.53,4.73-8.94,7.45-14.84,7.45Zm-12.61-87.74c-11.26,0-20.42-9.62-20.42-21.44S45.87,0,57.13,0s20.42,9.62,20.42,21.44-9.16,21.44-20.42,21.44Z"/>
      <path class="cls-1" d="m87.83,121.88c-.47.87-1,1.71-1.6,2.52-3.92,5.26-9.93,8.28-16.49,8.28h-25.22c-6.56,0-12.57-3.02-16.49-8.28-.45-.6-.85-1.22-1.23-1.85-16.15,2.58-26.81,6.99-26.81,12.02,0,7.95,26.7,14.4,59.64,14.4s59.64-6.45,59.64-14.4c0-5.49-12.73-10.26-31.45-12.69Z"/>
    </g>
  </g>
</svg>