<?xml version="1.0" encoding="UTF-8"?>
<svg id="_レイヤー_2" data-name="レイヤー 2" xmlns="http://www.w3.org/2000/svg" viewBox="0 0 291.62 85.86">
  <defs>
    <style>
      .cls-1 {
        fill: #fff;
      }

      .cls-2 {
        fill: #333;
      }

      .cls-3 {
        fill: #4d4d4d;
      }
    </style>
  </defs>
  <g id="Layer_1" data-name="Layer 1">
    <g>
      <path class="cls-1" d="m16.77,0h258.08C284.1,0,291.62,7.51,291.62,16.77v52.32c0,9.25-7.51,16.77-16.77,16.77H16.77c-9.25,0-16.77-7.51-16.77-16.77V16.77C0,7.51,7.51,0,16.77,0Z"/>
      <g>
        <path class="cls-2" d="m104.93,42.93c0-.54.23-.98.69-1.33.46-.35,1.02-.52,1.69-.52h5.54c.65,0,1.2-.19,1.65-.56.45-.37.67-.83.67-1.37s-.22-1.01-.67-1.4c-.45-.39-1-.59-1.65-.59h-9.94c-.47,0-.82.06-1.05.18s-.35.36-.35.71v12.66c0,.49-.19.9-.57,1.23-.38.34-.96.5-1.72.5s-1.33-.16-1.71-.48c-.37-.32-.56-.74-.56-1.26v-15.18c0-.63.25-1.15.74-1.54.49-.39,1.07-.59,1.72-.59h13.1c1.01,0,1.95.15,2.83.45.88.3,1.64.71,2.3,1.23s1.17,1.13,1.54,1.83c.37.7.56,1.44.56,2.23s-.19,1.52-.57,2.21c-.38.69-.91,1.29-1.57,1.81-.66.51-1.43.92-2.31,1.22s-1.8.45-2.77.45h-5.21c-.67,0-1.24-.18-1.69-.55-.46-.36-.69-.82-.69-1.36Z"/>
        <path class="cls-2" d="m124.74,39.23c.61-1.16,1.44-2.17,2.51-3.04s2.31-1.55,3.72-2.06c1.42-.5,2.94-.76,4.56-.76s3.15.25,4.56.76c1.42.5,2.66,1.19,3.72,2.06s1.9,1.88,2.52,3.04c.62,1.16.92,2.39.92,3.7s-.31,2.54-.92,3.7c-.62,1.16-1.46,2.17-2.52,3.04-1.06.87-2.31,1.55-3.72,2.06-1.42.5-2.94.76-4.56.76s-3.15-.25-4.56-.76c-1.42-.5-2.66-1.19-3.72-2.06-1.06-.87-1.9-1.88-2.51-3.04-.61-1.16-.91-2.39-.91-3.7s.3-2.54.91-3.7Zm4.23,5.98c.38.7.9,1.31,1.55,1.83s1.41.93,2.27,1.23c.86.3,1.77.45,2.74.45s1.89-.15,2.74-.45c.86-.3,1.61-.71,2.25-1.23s1.16-1.13,1.54-1.83c.38-.7.57-1.45.57-2.25s-.19-1.56-.57-2.27c-.38-.71-.9-1.33-1.54-1.85s-1.4-.94-2.25-1.25c-.86-.31-1.77-.46-2.74-.46s-1.89.15-2.74.46c-.86.31-1.61.72-2.27,1.25s-1.17,1.14-1.55,1.85c-.38.71-.57,1.47-.57,2.27s.19,1.55.57,2.25Z"/>
        <path class="cls-2" d="m153.46,48.7h13.97c.6-.04,1.1-.25,1.5-.63.4-.38.6-.83.6-1.33,0-.54-.22-.99-.66-1.34-.44-.35-.98-.53-1.64-.53h-8.74c-.99,0-1.92-.15-2.79-.45-.87-.3-1.62-.7-2.27-1.22-.64-.51-1.15-1.12-1.53-1.82-.37-.7-.56-1.44-.56-2.23s.19-1.53.56-2.23c.37-.7.89-1.31,1.54-1.83.65-.52,1.42-.93,2.3-1.23.88-.3,1.82-.45,2.83-.45h13.44c.63,0,1.14.15,1.53.46.38.31.57.78.57,1.41s-.2,1.11-.6,1.41c-.4.31-.9.46-1.5.46h-13.97c-.6.04-1.1.25-1.51.64-.41.39-.62.84-.62,1.34,0,.54.22,1,.67,1.37.45.37,1,.56,1.65.56h8.74c.99,0,1.92.15,2.79.43.87.29,1.62.69,2.27,1.19s1.15,1.1,1.53,1.79c.37.69.56,1.43.56,2.21s-.19,1.53-.57,2.23c-.38.7-.9,1.31-1.55,1.83-.65.52-1.42.93-2.3,1.23-.88.3-1.81.45-2.8.45h-13.44c-.63,0-1.14-.15-1.53-.46-.38-.31-.57-.78-.57-1.41s.2-1.11.6-1.41c.4-.31.9-.46,1.5-.46Z"/>
        <path class="cls-2" d="m188.88,52.45c-.77,0-1.34-.17-1.74-.5s-.59-.75-.59-1.23v-12.8c-.06-.3-.19-.5-.41-.6-.21-.1-.54-.15-.97-.15h-4.87c-.6,0-1.1-.15-1.5-.46-.4-.31-.6-.78-.6-1.41s.19-1.11.57-1.41c.38-.31.89-.46,1.53-.46h17.02c.62,0,1.12.15,1.5.45.38.3.57.77.57,1.4s-.2,1.11-.59,1.41c-.39.31-.89.46-1.48.46h-4.84c-.45,0-.79.06-1.02.18-.23.12-.35.36-.35.71v12.68c0,.52-.18.94-.55,1.26-.36.32-.93.48-1.69.48Z"/>
        <path class="cls-2" d="m203.52,50.24v-14.7c0-.63.25-1.15.74-1.54.49-.39,1.07-.59,1.72-.59h18.2c.63,0,1.14.15,1.53.46.38.31.57.78.57,1.41s-.2,1.11-.6,1.41c-.4.31-.9.46-1.5.46h-14.7c-.47,0-.82.06-1.05.17-.23.11-.35.33-.35.64v2.18c0,.58.32.88.95.9h6.94c.6.04,1.07.21,1.43.52.35.31.53.76.53,1.36,0,.63-.2,1.11-.59,1.41-.39.31-.89.46-1.48.46h-6.38c-.43,0-.76.05-.98.15-.22.1-.36.3-.42.6v2.24c0,.35.12.59.35.71s.58.18,1.05.18h14.7c.6,0,1.1.15,1.5.46.4.31.6.78.6,1.41s-.19,1.11-.57,1.41c-.38.31-.89.46-1.53.46h-18.2c-.8,0-1.41-.21-1.83-.62-.42-.41-.63-.94-.63-1.6Z"/>
        <path class="cls-2" d="m250.84,52.45c-.77,0-1.33-.16-1.69-.48-.37-.32-.55-.74-.55-1.26v-4c0-.54-.22-1-.67-1.37-.45-.37-1-.56-1.65-.56h-5.54c-.67,0-1.24-.17-1.69-.52-.46-.35-.69-.79-.69-1.33s.23-.98.69-1.33c.46-.35,1.02-.52,1.69-.52h5.54c.65,0,1.21-.19,1.65-.56.45-.37.67-.83.67-1.37s-.22-1.01-.67-1.4c-.45-.39-1-.59-1.65-.59h-9.94c-.47,0-.82.06-1.05.18s-.35.36-.35.71v12.66c0,.49-.19.9-.57,1.23-.38.34-.96.5-1.72.5s-1.33-.16-1.71-.48c-.37-.32-.56-.74-.56-1.26v-15.18c0-.63.25-1.15.74-1.54.49-.39,1.07-.59,1.72-.59h13.1c1.01,0,1.95.15,2.83.45.88.3,1.64.71,2.3,1.23.65.52,1.17,1.13,1.54,1.83.37.7.56,1.44.56,2.23s-.16,1.44-.48,2.09c-.32.64-.78,1.21-1.37,1.69.6.5,1.05,1.08,1.37,1.72.32.64.48,1.33.48,2.06v4c0,.49-.2.9-.59,1.23-.39.34-.97.5-1.74.5Z"/>
      </g>
      <rect id="_長方形_41" data-name="長方形 41" class="cls-3" x="25.4" y="11.74" width="46.78" height="62.38" rx="12.13" ry="12.13"/>
    </g>
  </g>
</svg>