<?xml version="1.0" encoding="UTF-8"?>
<svg id="_レイヤー_2" data-name="レイヤー 2" xmlns="http://www.w3.org/2000/svg" viewBox="0 0 285.58 285.58">
  <defs>
    <style>
      .cls-1 {
        fill: #343434;
      }

      .cls-2 {
        fill: #fff;
        stroke: #343434;
        stroke-miterlimit: 10;
      }
    </style>
  </defs>
  <g id="_レイヤー_1-2" data-name=" レイヤー 1">
    <g>
      <circle id="_楕円形_2" data-name="楕円形 2" class="cls-1" cx="142.79" cy="142.79" r="142.79"/>
      <g>
        <path class="cls-2" d="m60.41,160.79c.25-.76.72-1.67,1.54-1.76,1.73-.18,2.22.83,2.83,4.3.02.14.05.27.09.41,2.1,7.85,11.58,22.02,24.21,27.83,10.76,4.95,24.97,7.33,35.79,8.46,18.04,1.89,31.18-.35,34.66-1.13,1.05-.23,1.7-1.24,1.43-2.23-.68-2.53-1.05-3.99-1.39-5.66-.88-3.13,1.21-5.78,4.33-5.31l62.38,9.41c3.25.5,4.55,4.28,2.23,6.49l-51.98,48.21c-.14.13-.29.26-.44.37-2.44,1.75-5.89-.27-5.71-3.18,0-.03,0-.05,0-.08.2-3.45-2.64-6.39-6.24-6.53-11.63-.44-39.38-3.6-54.36-7.98-14.41-4.21-28.81-11.15-34.37-16.09-9.75-8.65-21.06-23.17-18.66-40.08,1-6.98,2.91-13.16,3.66-15.45Z"/>
        <path class="cls-2" d="m230.67,97.56v60.77c0,3.23-2,5.85-4.46,5.85h-73.66c-2.46,0-4.46-2.62-4.46-5.85v-10.1c0-4.6-3.85-7.4-6.82-4.96l-15.67,12.94c-2.96,2.46-6.82-.34-6.82-4.96v-47.97c0-4.6,3.85-7.4,6.82-4.96l15.67,12.94c2.96,2.46,6.82-.34,6.82-4.96v-8.75c0-3.23,2-5.85,4.46-5.85h73.66c2.46,0,4.46,2.62,4.46,5.85Z"/>
        <path class="cls-2" d="m55.3,103.79c1.56.38,3.85,1.72,4.23.18,1.44-5.8,8.41-18.04,15.91-26.95,8.18-9.72,18.38-17.47,29.69-23.24,1.6-.81,1.21-1.59.33-1.99l-4.95-3.45c-2.76-1.43-2.02-4.27,1.09-4.14l43.7-.58c1.54.07,2.76,1.31,2.78,2.87l-3.38,24.93c.02,2.56-3.05,3.9-4.9,2.14l-11.89-7.48c-.42-.4-7.62,4.23-15.51,11.1-10.79,9.4-18.76,21.64-22.91,35.33-1.44,4.74-.76,4.67,3.27,6.85l10.87,5.37c2.05,1.02,2.18,3.9.22,5.08l-36.8,16.8c-1.36.82-3.1.4-3.94-.94l-21.46-40.63c-1.4-2.2.6-4.99,3.14-4.37,0,0,10.51,3.11,10.51,3.11Z"/>
      </g>
    </g>
  </g>
</svg>