<?xml version="1.0" encoding="UTF-8"?>
<svg id="_レイヤー_2" data-name="レイヤー 2" xmlns="http://www.w3.org/2000/svg" viewBox="0 0 174.02 174.02">
  <defs>
    <style>
      .cls-1 {
        fill: none;
      }

      .cls-2 {
        fill: #343434;
        stroke: none;
        stroke-miterlimit: 10;
      }
    </style>
  </defs>
  <g id="_レイヤー_1-2" data-name=" レイヤー 1">
    <g>
      <circle id="_楕円形_2" data-name="楕円形 2" class="cls-1" cx="87.01" cy="87.01" r="87.01"/>
      <g>
        <path class="cls-2" d="m36.81,97.98c.15-.46.44-1.02.94-1.07,1.05-.11,1.35.5,1.72,2.62.01.08.03.17.05.25,1.28,4.78,7.06,13.42,14.75,16.96,6.56,3.02,15.21,4.47,21.81,5.16,10.99,1.15,19-.21,21.12-.69.64-.14,1.04-.75.87-1.36-.41-1.54-.64-2.43-.85-3.45-.54-1.91.74-3.52,2.64-3.23l38.01,5.73c1.98.31,2.77,2.61,1.36,3.95l-31.67,29.38c-.09.08-.18.16-.27.22-1.49,1.06-3.59-.16-3.48-1.93,0-.02,0-.03,0-.05.12-2.1-1.61-3.89-3.8-3.98-7.09-.27-24-2.19-33.13-4.86-8.78-2.57-17.56-6.79-20.95-9.8-5.94-5.27-12.83-14.12-11.37-24.42.61-4.26,1.77-8.02,2.23-9.42Z"/>
        <path class="cls-2" d="m140.56,59.45v37.03c0,1.97-1.22,3.56-2.72,3.56h-44.89c-1.5,0-2.72-1.6-2.72-3.56v-6.16c0-2.8-2.35-4.51-4.15-3.02l-9.55,7.89c-1.81,1.5-4.15-.21-4.15-3.02v-29.23c0-2.8,2.35-4.51,4.15-3.02l9.55,7.89c1.81,1.5,4.15-.21,4.15-3.02v-5.33c0-1.97,1.22-3.56,2.72-3.56h44.89c1.5,0,2.72,1.6,2.72,3.56Z"/>
        <path class="cls-2" d="m33.7,63.25c.95.23,2.34,1.05,2.57.11.88-3.54,5.12-10.99,9.69-16.42,4.98-5.92,11.2-10.64,18.09-14.16.97-.5.74-.97.2-1.21l-3.01-2.1c-1.68-.87-1.23-2.6.67-2.52l26.63-.36c.94.04,1.68.8,1.7,1.75l-2.06,15.19c.01,1.56-1.86,2.38-2.99,1.3l-7.25-4.56c-.26-.24-4.64,2.58-9.45,6.76-6.57,5.73-11.43,13.19-13.96,21.53-.88,2.89-.46,2.85,1.99,4.18l6.62,3.27c1.25.62,1.33,2.38.14,3.09l-22.43,10.24c-.83.5-1.89.24-2.4-.57l-13.08-24.76c-.86-1.34.37-3.04,1.91-2.66,0,0,6.4,1.89,6.4,1.89Z"/>
      </g>
    </g>
  </g>
</svg>