<?xml version="1.0" encoding="UTF-8"?>
<svg id="_レイヤー_2" data-name="レイヤー 2" xmlns="http://www.w3.org/2000/svg" viewBox="0 0 107.59 220.51" width="10" height="10">
  <defs>
    <style>
      .cls-1 {
        fill: #fff;
      }
    </style>
  </defs>
  <g id="_レイヤー_1-2" data-name="レイヤー 1">
    <path class="cls-1" d="m46.56,195.98l-34.4-34.4c-2.78-2.66-7.16-2.66-9.94,0-2.87,2.75-2.97,7.3-.22,10.16l46.67,46.67c2.81,2.81,7.36,2.81,10.16,0l46.66-46.67c1.35-1.35,2.1-3.17,2.1-5.08h-.05c0-1.91-.76-3.73-2.1-5.08-2.8-2.81-7.36-2.82-10.17-.01l-34.24,34.24V24.54l34.4,34.4c2.78,2.66,7.16,2.66,9.94,0,2.87-2.75,2.97-7.3.22-10.16L58.93,2.1c-2.81-2.81-7.36-2.81-10.16,0L2.1,48.77C.75,50.12,0,51.95,0,53.85h.05c0,1.91.76,3.73,2.1,5.08,2.8,2.81,7.36,2.82,10.17.01L46.66,24.59"/>
  </g>
</svg>