<?xml version="1.0" encoding="UTF-8"?>
<svg id="_レイヤー_2" data-name="レイヤー 2" xmlns="http://www.w3.org/2000/svg" viewBox="0 0 287.39 287.39">
  <defs>
    <style>
      .cls-1 {
        fill: none;
      }

      .cls-2 {
        fill: #fff;
        fill-rule: evenodd;
      }
    </style>
  </defs>
  <g id="_編集モード" data-name="編集モード">
    <g>
      <circle id="_楕円形_7" data-name="楕円形 7" class="cls-1" cx="143.69" cy="143.69" r="143.69"/>
      <g>
        <path class="cls-2" d="m172.92,112.29c3.76-3.7,9.8-3.64,13.5.12,3.7,3.76,3.64,9.8-.12,13.5h0l-36.28,35.83c-3.72,3.65-9.69,3.65-13.41,0l-35.75-35.31c-3.64-3.81-3.49-9.86.32-13.49,3.62-3.46,9.3-3.52,13.01-.15l19.69,19.51.21-68.69c.32-5.28,4.85-9.3,10.13-8.98,4.89.29,8.77,4.24,8.99,9.14l-.21,68.17,19.87-19.64h.05Z"/>
        <path class="cls-2" d="m61.2,205.97v-37.38c.32-5.28,4.86-9.29,10.14-8.97,4.89.3,8.77,4.25,8.98,9.15v27.21h126.75v-27.39c-.22-5.28,3.88-9.74,9.16-9.96,5.28-.22,9.74,3.88,9.96,9.16.01.33.01.66,0,.99v37.2h0c-.24,5.07-4.39,9.07-9.46,9.12H70.79c-5.08-.04-9.24-4.05-9.46-9.12h-.13Z"/>
      </g>
    </g>
  </g>
</svg>