<?xml version="1.0" encoding="UTF-8"?>
<svg id="_レイヤー_2" data-name="レイヤー 2" xmlns="http://www.w3.org/2000/svg" viewBox="0 0 154.49 162.35">
  <defs>
    <style>
      .cls-1 {
        fill: #343434;
      }
    </style>
  </defs>
  <g id="Layer_1" data-name="Layer 1">
    <g>
      <path class="cls-1" d="m24.52,88.36h83.2c3.97,0,7.18-3.22,7.18-7.18s-3.22-7.18-7.18-7.18H24.52l9.29-9.29c2.8-2.8,2.8-7.35,0-10.16-2.8-2.8-7.35-2.8-10.16,0L2.1,76.1c-.17.17-.33.34-.48.53-.07.08-.12.16-.18.25-.08.11-.16.21-.23.32-.07.1-.12.2-.19.31-.06.1-.12.19-.17.3-.06.11-.1.21-.15.32-.05.1-.1.21-.15.32-.04.1-.08.21-.12.32-.04.11-.09.23-.12.35-.03.11-.06.21-.08.32-.03.12-.06.24-.09.36-.02.12-.04.25-.06.37-.02.11-.04.21-.05.32-.02.23-.03.46-.04.7,0,0,0,0,0,.01s0,0,0,.01c0,.23.01.47.04.7.01.11.03.21.05.32.02.13.03.25.06.38.02.12.06.24.09.36.03.11.05.22.08.33.03.12.08.23.12.34.04.11.07.22.12.32.04.11.09.21.14.31.05.11.1.22.16.33.05.1.11.19.17.29.06.11.12.21.19.32.07.1.15.2.22.3.07.09.13.18.19.26.14.17.29.34.45.5,0,0,.01.02.02.02l21.54,21.54c1.4,1.4,3.24,2.1,5.08,2.1,1.84,0,3.68-.7,5.08-2.1,2.8-2.8,2.8-7.35,0-10.16l-9.29-9.29Z"/>
      <path class="cls-1" d="m147.31,0H56.34c-3.97,0-7.18,3.22-7.18,7.18v28.73c0,3.97,3.22,7.18,7.18,7.18s7.18-3.22,7.18-7.18V14.36h76.6v133.63H63.52v-21.54c0-3.97-3.22-7.18-7.18-7.18s-7.18,3.22-7.18,7.18v28.73c0,3.97,3.22,7.18,7.18,7.18h90.97c3.97,0,7.18-3.22,7.18-7.18V7.18c0-3.97-3.22-7.18-7.18-7.18Z"/>
    </g>
  </g>
</svg>