<?xml version="1.0" encoding="UTF-8"?>
<svg id="_レイヤー_2" data-name="レイヤー 2" xmlns="http://www.w3.org/2000/svg" viewBox="0 0 285.58 285.58">
  <defs>
    <style>
      .cls-1 {
        fill: #fff;
      }

      .cls-2 {
        fill: none;
      }

      .cls-3 {
        fill: none;
        stroke: #343434;
        stroke-miterlimit: 10;
        stroke-width: 4px;
      }
    </style>
  </defs>
  <g id="_レイヤー_1-2" data-name=" レイヤー 1">
    <g>
      <circle id="_楕円形_2" data-name="楕円形 2" class="cls-2" cx="142.79" cy="142.79" r="142.79"/>
      <polygon class="cls-1" points="141.11 89.72 97.81 114.72 97.81 164.72 141.15 189.7 184.41 164.72 184.41 114.78 184.41 114.72 141.11 89.72"/>
      <g>
        <polygon class="cls-3" points="141.11 139.72 97.81 114.72 97.81 164.72 141.15 189.7 141.15 139.75 184.41 114.78 184.41 114.72 141.11 139.72"/>
        <polygon class="cls-3" points="184.41 114.72 141.11 89.72 97.81 114.72 141.11 139.72 184.41 114.72"/>
        <polygon class="cls-3" points="141.15 189.7 184.41 164.72 184.41 114.78 141.15 139.75 141.15 189.7"/>
      </g>
      <g>
        <path class="cls-1" d="m224.34,176.69v-20.37h-23.56c-.55,0-1-.45-1-1v-30.27c0-.55.45-1,1-1h23.56v-21.28c0-.95,1.2-1.37,1.79-.62l28.92,36.98c.28.36.28.87,0,1.23l-28.92,36.95c-.59.75-1.79.33-1.79-.62Z"/>
        <path class="cls-1" d="m57.75,102.76v20.37h23.56c.55,0,1,.45,1,1v30.27c0,.55-.45,1-1,1h-23.56v21.28c0,.95-1.2,1.37-1.79.62l-28.92-36.98c-.28-.36-.28-.87,0-1.23l28.92-36.95c.59-.75,1.79-.33,1.79.62Z"/>
      </g>
      <g>
        <path class="cls-1" d="m174.69,56.42h-18.5v23.56c0,.55-.41,1-.91,1h-27.5c-.5,0-.91-.45-.91-1v-23.56h-19.33c-.86,0-1.24-1.2-.56-1.79l33.59-28.92c.33-.28.79-.28,1.12,0l33.56,28.92c.68.59.3,1.79-.56,1.79Z"/>
        <path class="cls-1" d="m107.54,223h18.5v-23.56c0-.55.41-1,.91-1h27.5c.5,0,.91.45.91,1v23.56h19.33c.86,0,1.24,1.2.56,1.79l-33.59,28.92c-.33.28-.79.28-1.12,0l-33.56-28.92c-.68-.59-.3-1.79.56-1.79Z"/>
      </g>
    </g>
  </g>
</svg>