<?xml version="1.0" encoding="UTF-8"?>
<svg id="_レイヤー_2" data-name="レイヤー 2" xmlns="http://www.w3.org/2000/svg" viewBox="0 0 278.64 250.44">
  <defs>
    <style>
      .cls-1, .cls-2 {
        fill: #fff;
      }

      .cls-2 {
        fill-rule: evenodd;
      }
    </style>
  </defs>
  <g id="Layer_1" data-name="Layer 1">
    <g>
      <g>
        <path class="cls-1" d="m54.52,60.88c1.93-.15,3.59-.98,4.96-2.51,1.37-1.52,2.06-3.29,2.06-5.3,0-2.16-.74-3.94-2.23-5.35-1.49-1.41-3.31-2.12-5.46-2.12h-28.99c-3.27,0-6.36-.59-9.25-1.78-2.9-1.19-5.41-2.8-7.53-4.85-2.12-2.04-3.79-4.46-5.02-7.25-1.23-2.79-1.84-5.74-1.84-8.86s.63-6.08,1.9-8.86c1.26-2.79,2.97-5.22,5.13-7.3,2.16-2.08,4.68-3.72,7.58-4.91,2.9-1.19,6.02-1.78,9.37-1.78h44.6c2.08,0,3.75.61,5.02,1.84,1.26,1.23,1.9,3.11,1.9,5.63s-.67,4.4-2.01,5.63c-1.34,1.23-2.97,1.84-4.91,1.84H23.42c-1.93.15-3.59,1-4.96,2.56-1.38,1.56-2.06,3.34-2.06,5.35,0,2.16.74,3.98,2.23,5.46,1.49,1.49,3.31,2.23,5.46,2.23h28.99c3.27,0,6.36.58,9.25,1.73,2.9,1.15,5.41,2.73,7.53,4.74,2.12,2.01,3.79,4.39,5.02,7.14,1.23,2.75,1.84,5.69,1.84,8.81s-.63,6.08-1.9,8.86c-1.26,2.79-2.97,5.22-5.13,7.3-2.16,2.08-4.68,3.72-7.58,4.91-2.9,1.19-6.02,1.78-9.37,1.78H8.14c-2.08,0-3.75-.61-5.02-1.84-1.26-1.23-1.9-3.1-1.9-5.63s.67-4.4,2.01-5.63c1.34-1.23,2.97-1.84,4.91-1.84h46.38Z"/>
        <path class="cls-1" d="m92.1,73.93c-1.19-1.26-1.78-2.94-1.78-5.02V6.91c0-1.93.65-3.57,1.95-4.91,1.3-1.34,3.21-2.01,5.74-2.01s4.4.63,5.63,1.9c1.23,1.26,1.84,2.94,1.84,5.02v25.2h12.93l28.88-29.44c.82-.59,1.65-1.19,2.51-1.78.85-.59,1.8-.89,2.84-.89,1.63,0,3.27.71,4.91,2.12,2.16,1.71,3.23,3.61,3.23,5.69,0,1.56-.56,3.01-1.67,4.35l-23.3,23.97,23.3,27.54c1.12,1.34,1.67,2.79,1.67,4.35,0,2.08-1.08,3.98-3.23,5.69-1.64,1.41-3.27,2.12-4.91,2.12-1.04,0-1.99-.3-2.84-.89-.86-.59-1.69-1.19-2.51-1.78l-21.85-26.09h-19.96v21.85c0,1.93-.67,3.57-2.01,4.91-1.34,1.34-3.27,2.01-5.8,2.01s-4.39-.63-5.58-1.9Z"/>
        <path class="cls-1" d="m180.85,75.82c-2.53,0-4.39-.63-5.58-1.9-1.19-1.26-1.78-2.94-1.78-5.02V6.91c0-1.93.65-3.57,1.95-4.91,1.3-1.34,3.21-2.01,5.74-2.01s4.4.63,5.63,1.9c1.23,1.26,1.84,2.94,1.84,5.02v62c0,1.93-.67,3.57-2.01,4.91-1.34,1.34-3.27,2.01-5.8,2.01Z"/>
        <path class="cls-1" d="m231.75,32.61c1.52-1.37,3.4-2.06,5.63-2.06h18.4c2.16,0,3.98-.74,5.46-2.23,1.49-1.49,2.23-3.31,2.23-5.46s-.74-4.01-2.23-5.58c-1.49-1.56-3.31-2.34-5.46-2.34h-33c-1.49,0-2.62.24-3.4.72-.78.48-1.17,1.43-1.17,2.84v50.4c0,1.93-.65,3.57-1.95,4.91-1.3,1.34-3.22,2.01-5.74,2.01s-4.4-.63-5.63-1.9c-1.23-1.26-1.84-2.94-1.84-5.02V8.47c0-2.53.82-4.57,2.45-6.13,1.63-1.56,3.53-2.34,5.69-2.34h43.49c3.34,0,6.47.6,9.37,1.78,2.9,1.19,5.43,2.83,7.58,4.91,2.16,2.08,3.86,4.52,5.13,7.3,1.26,2.79,1.89,5.74,1.89,8.86s-.63,6.06-1.89,8.81c-1.26,2.75-2.99,5.15-5.18,7.19-2.19,2.05-4.74,3.66-7.64,4.85-2.9,1.19-5.98,1.78-9.25,1.78h-17.28c-2.23,0-4.11-.72-5.63-2.17-1.52-1.45-2.29-3.25-2.29-5.41s.76-3.92,2.29-5.3Z"/>
      </g>
      <path class="cls-2" d="m269.93,93.7c4.79,0,8.71,3.92,8.71,8.71v139.32c0,4.79-3.92,8.71-8.71,8.71s-8.71-3.92-8.71-8.71v-56.54l-109.12,63.29c-9.03,5.28-21.5-.76-21.5-12.14v-51.21l-109.12,63.35c-9.09,5.28-21.5-.76-21.5-12.14V107.8c0-11.37,12.41-17.36,21.5-12.14l109.12,63.29v-51.21c0-11.37,12.41-17.36,21.5-12.14l109.12,63.35v-56.54c0-4.79,3.92-8.71,8.71-8.71ZM17.42,113.46v117.28l101.06-58.67L17.42,113.46Zm130.61,0v117.28l101.06-58.67-101.06-58.61Z"/>
    </g>
  </g>
</svg>