<svg width="471" height="193" viewBox="0 0 471 193" fill="none" xmlns="http://www.w3.org/2000/svg">
<path d="M96.304 189.5V154.684H0.56V129.084L96.304 2.62H124.464V129.084H158V154.684H124.464V189.5H96.304ZM34.608 129.084H96.304V48.956H95.792L34.608 128.572V129.084ZM243.67 192.06C219.094 192.06 200.747 184.209 188.63 168.508C176.683 152.636 170.71 128.487 170.71 96.06C170.71 63.6333 176.683 39.5693 188.63 23.868C200.747 7.996 219.094 0.0599976 243.67 0.0599976C268.246 0.0599976 286.507 7.996 298.454 23.868C310.571 39.5693 316.63 63.6333 316.63 96.06C316.63 128.487 310.571 152.636 298.454 168.508C286.507 184.209 268.246 192.06 243.67 192.06ZM243.67 166.46C258.859 166.46 269.953 160.743 276.95 149.308C284.118 137.873 287.702 120.124 287.702 96.06C287.702 71.8253 284.118 54.076 276.95 42.812C269.953 31.3773 258.859 25.66 243.67 25.66C228.651 25.66 217.558 31.3773 210.39 42.812C203.222 54.076 199.638 71.8253 199.638 96.06C199.638 120.124 203.222 137.873 210.39 149.308C217.558 160.743 228.651 166.46 243.67 166.46ZM398.204 192.06C387.281 192.06 376.785 190.78 366.716 188.22C356.817 185.66 346.577 181.564 335.996 175.932L344.188 151.868C353.233 157.159 361.937 160.999 370.3 163.388C378.833 165.777 387.708 166.972 396.924 166.972C411.431 166.972 422.524 164.241 430.204 158.78C437.884 153.319 441.724 145.383 441.724 134.972C441.724 124.049 436.86 116.284 427.132 111.676C417.575 106.897 401.617 104.508 379.26 104.508H367.484V80.444H379.26C398.033 80.444 412.625 77.7133 423.036 72.252C433.617 66.62 438.908 58.8547 438.908 48.956C438.908 41.1053 435.58 35.2173 428.924 31.292C422.268 27.196 412.455 25.148 399.484 25.148C393.852 25.148 388.476 25.66 383.356 26.684C378.236 27.5373 372.86 28.988 367.228 31.036C361.596 33.084 355.025 35.9853 347.516 39.74L340.348 15.676C347.857 11.9213 354.855 8.93466 361.34 6.71599C367.996 4.32666 374.652 2.61999 381.308 1.59599C387.964 0.571996 394.961 0.0599976 402.3 0.0599976C423.292 0.0599976 439.335 3.89999 450.428 11.58C461.521 19.0893 467.068 29.9267 467.068 44.092C467.068 55.5267 463.399 65.2547 456.06 73.276C448.892 81.1267 438.311 86.844 424.316 90.428V90.94C439.676 92.988 451.196 97.852 458.876 105.532C466.556 113.041 470.396 123.367 470.396 136.508C470.396 153.916 463.996 167.569 451.196 177.468C438.567 187.196 420.903 192.06 398.204 192.06Z" fill="#717171"/>
</svg>
