<svg width="486" height="193" viewBox="0 0 486 193" fill="none" xmlns="http://www.w3.org/2000/svg">
<path d="M96.304 189.5V154.684H0.56V129.084L96.304 2.62H124.464V129.084H158V154.684H124.464V189.5H96.304ZM34.608 129.084H96.304V48.956H95.792L34.608 128.572V129.084ZM243.67 192.06C219.094 192.06 200.747 184.209 188.63 168.508C176.683 152.636 170.71 128.487 170.71 96.06C170.71 63.6333 176.683 39.5693 188.63 23.868C200.747 7.996 219.094 0.0599976 243.67 0.0599976C268.246 0.0599976 286.507 7.996 298.454 23.868C310.571 39.5693 316.63 63.6333 316.63 96.06C316.63 128.487 310.571 152.636 298.454 168.508C286.507 184.209 268.246 192.06 243.67 192.06ZM243.67 166.46C258.859 166.46 269.953 160.743 276.95 149.308C284.118 137.873 287.702 120.124 287.702 96.06C287.702 71.8253 284.118 54.076 276.95 42.812C269.953 31.3773 258.859 25.66 243.67 25.66C228.651 25.66 217.558 31.3773 210.39 42.812C203.222 54.076 199.638 71.8253 199.638 96.06C199.638 120.124 203.222 137.873 210.39 149.308C217.558 160.743 228.651 166.46 243.67 166.46ZM423.804 189.5V154.684H328.06V129.084L423.804 2.62H451.964V129.084H485.5V154.684H451.964V189.5H423.804ZM362.108 129.084H423.804V48.956H423.292L362.108 128.572V129.084Z" fill="#717171"/>
</svg>
