<svg width="464" height="193" viewBox="0 0 464 193" fill="none" xmlns="http://www.w3.org/2000/svg">
<path d="M54.216 192.06C43.464 192.06 33.8213 191.036 25.288 188.988C16.7547 186.769 8.392 183.527 0.200001 179.26L7.88 154.94C16.2427 159.207 23.8373 162.279 30.664 164.156C37.6613 166.033 45.0853 166.972 52.936 166.972C68.6373 166.972 80.7547 163.644 89.288 156.988C97.8213 150.332 102.088 140.86 102.088 128.572C102.088 117.479 98.6747 109.031 91.848 103.228C85.0213 97.4253 75.2933 94.524 62.664 94.524C56.008 94.524 50.376 95.4627 45.768 97.34C41.16 99.2173 36.6373 102.375 32.2 106.812H5.576L11.72 2.62H122.056V27.708H37.064L33.992 77.884H34.504C39.7947 75.1533 45 73.1907 50.12 71.996C55.24 70.8013 60.9573 70.204 67.272 70.204C87.24 70.204 102.771 75.4093 113.864 85.82C125.128 96.2307 130.76 110.737 130.76 129.34C130.76 149.479 124.104 165.009 110.792 175.932C97.6507 186.684 78.792 192.06 54.216 192.06ZM226.67 192.06C202.094 192.06 183.747 184.209 171.63 168.508C159.683 152.636 153.71 128.487 153.71 96.06C153.71 63.6333 159.683 39.5693 171.63 23.868C183.747 7.996 202.094 0.0599976 226.67 0.0599976C251.246 0.0599976 269.507 7.996 281.454 23.868C293.571 39.5693 299.63 63.6333 299.63 96.06C299.63 128.487 293.571 152.636 281.454 168.508C269.507 184.209 251.246 192.06 226.67 192.06ZM226.67 166.46C241.859 166.46 252.953 160.743 259.95 149.308C267.118 137.873 270.702 120.124 270.702 96.06C270.702 71.8253 267.118 54.076 259.95 42.812C252.953 31.3773 241.859 25.66 226.67 25.66C211.651 25.66 200.558 31.3773 193.39 42.812C186.222 54.076 182.638 71.8253 182.638 96.06C182.638 120.124 186.222 137.873 193.39 149.308C200.558 160.743 211.651 166.46 226.67 166.46ZM390.42 192.06C365.844 192.06 347.497 184.209 335.38 168.508C323.433 152.636 317.46 128.487 317.46 96.06C317.46 63.6333 323.433 39.5693 335.38 23.868C347.497 7.996 365.844 0.0599976 390.42 0.0599976C414.996 0.0599976 433.257 7.996 445.204 23.868C457.321 39.5693 463.38 63.6333 463.38 96.06C463.38 128.487 457.321 152.636 445.204 168.508C433.257 184.209 414.996 192.06 390.42 192.06ZM390.42 166.46C405.609 166.46 416.703 160.743 423.7 149.308C430.868 137.873 434.452 120.124 434.452 96.06C434.452 71.8253 430.868 54.076 423.7 42.812C416.703 31.3773 405.609 25.66 390.42 25.66C375.401 25.66 364.308 31.3773 357.14 42.812C349.972 54.076 346.388 71.8253 346.388 96.06C346.388 120.124 349.972 137.873 357.14 149.308C364.308 160.743 375.401 166.46 390.42 166.46Z" fill="#717171"/>
</svg>
