<svg width="454" height="193" viewBox="0 0 454 193" fill="none" xmlns="http://www.w3.org/2000/svg">
<path d="M54.216 192.06C43.464 192.06 33.8213 191.036 25.288 188.988C16.7547 186.769 8.392 183.527 0.200001 179.26L7.88 154.94C16.2427 159.207 23.8373 162.279 30.664 164.156C37.6613 166.033 45.0853 166.972 52.936 166.972C68.6373 166.972 80.7547 163.644 89.288 156.988C97.8213 150.332 102.088 140.86 102.088 128.572C102.088 117.479 98.6747 109.031 91.848 103.228C85.0213 97.4253 75.2933 94.524 62.664 94.524C56.008 94.524 50.376 95.4627 45.768 97.34C41.16 99.2173 36.6373 102.375 32.2 106.812H5.576L11.72 2.62H122.056V27.708H37.064L33.992 77.884H34.504C39.7947 75.1533 45 73.1907 50.12 71.996C55.24 70.8013 60.9573 70.204 67.272 70.204C87.24 70.204 102.771 75.4093 113.864 85.82C125.128 96.2307 130.76 110.737 130.76 129.34C130.76 149.479 124.104 165.009 110.792 175.932C97.6507 186.684 78.792 192.06 54.216 192.06ZM226.67 192.06C202.094 192.06 183.747 184.209 171.63 168.508C159.683 152.636 153.71 128.487 153.71 96.06C153.71 63.6333 159.683 39.5693 171.63 23.868C183.747 7.996 202.094 0.0599976 226.67 0.0599976C251.246 0.0599976 269.507 7.996 281.454 23.868C293.571 39.5693 299.63 63.6333 299.63 96.06C299.63 128.487 293.571 152.636 281.454 168.508C269.507 184.209 251.246 192.06 226.67 192.06ZM226.67 166.46C241.859 166.46 252.953 160.743 259.95 149.308C267.118 137.873 270.702 120.124 270.702 96.06C270.702 71.8253 267.118 54.076 259.95 42.812C252.953 31.3773 241.859 25.66 226.67 25.66C211.651 25.66 200.558 31.3773 193.39 42.812C186.222 54.076 182.638 71.8253 182.638 96.06C182.638 120.124 186.222 137.873 193.39 149.308C200.558 160.743 211.651 166.46 226.67 166.46ZM381.204 192.06C370.281 192.06 359.785 190.78 349.716 188.22C339.817 185.66 329.577 181.564 318.996 175.932L327.188 151.868C336.233 157.159 344.937 160.999 353.3 163.388C361.833 165.777 370.708 166.972 379.924 166.972C394.431 166.972 405.524 164.241 413.204 158.78C420.884 153.319 424.724 145.383 424.724 134.972C424.724 124.049 419.86 116.284 410.132 111.676C400.575 106.897 384.617 104.508 362.26 104.508H350.484V80.444H362.26C381.033 80.444 395.625 77.7133 406.036 72.252C416.617 66.62 421.908 58.8547 421.908 48.956C421.908 41.1053 418.58 35.2173 411.924 31.292C405.268 27.196 395.455 25.148 382.484 25.148C376.852 25.148 371.476 25.66 366.356 26.684C361.236 27.5373 355.86 28.988 350.228 31.036C344.596 33.084 338.025 35.9853 330.516 39.74L323.348 15.676C330.857 11.9213 337.855 8.93466 344.34 6.71599C350.996 4.32666 357.652 2.61999 364.308 1.59599C370.964 0.571996 377.961 0.0599976 385.3 0.0599976C406.292 0.0599976 422.335 3.89999 433.428 11.58C444.521 19.0893 450.068 29.9267 450.068 44.092C450.068 55.5267 446.399 65.2547 439.06 73.276C431.892 81.1267 421.311 86.844 407.316 90.428V90.94C422.676 92.988 434.196 97.852 441.876 105.532C449.556 113.041 453.396 123.367 453.396 136.508C453.396 153.916 446.996 167.569 434.196 177.468C421.567 187.196 403.903 192.06 381.204 192.06Z" fill="#717171"/>
</svg>
