<svg width="469" height="193" viewBox="0 0 469 193" fill="none" xmlns="http://www.w3.org/2000/svg">
<path d="M54.216 192.06C43.464 192.06 33.8213 191.036 25.288 188.988C16.7547 186.769 8.392 183.527 0.200001 179.26L7.88 154.94C16.2427 159.207 23.8373 162.279 30.664 164.156C37.6613 166.033 45.0853 166.972 52.936 166.972C68.6373 166.972 80.7547 163.644 89.288 156.988C97.8213 150.332 102.088 140.86 102.088 128.572C102.088 117.479 98.6747 109.031 91.848 103.228C85.0213 97.4253 75.2933 94.524 62.664 94.524C56.008 94.524 50.376 95.4627 45.768 97.34C41.16 99.2173 36.6373 102.375 32.2 106.812H5.576L11.72 2.62H122.056V27.708H37.064L33.992 77.884H34.504C39.7947 75.1533 45 73.1907 50.12 71.996C55.24 70.8013 60.9573 70.204 67.272 70.204C87.24 70.204 102.771 75.4093 113.864 85.82C125.128 96.2307 130.76 110.737 130.76 129.34C130.76 149.479 124.104 165.009 110.792 175.932C97.6507 186.684 78.792 192.06 54.216 192.06ZM226.67 192.06C202.094 192.06 183.747 184.209 171.63 168.508C159.683 152.636 153.71 128.487 153.71 96.06C153.71 63.6333 159.683 39.5693 171.63 23.868C183.747 7.996 202.094 0.0599976 226.67 0.0599976C251.246 0.0599976 269.507 7.996 281.454 23.868C293.571 39.5693 299.63 63.6333 299.63 96.06C299.63 128.487 293.571 152.636 281.454 168.508C269.507 184.209 251.246 192.06 226.67 192.06ZM226.67 166.46C241.859 166.46 252.953 160.743 259.95 149.308C267.118 137.873 270.702 120.124 270.702 96.06C270.702 71.8253 267.118 54.076 259.95 42.812C252.953 31.3773 241.859 25.66 226.67 25.66C211.651 25.66 200.558 31.3773 193.39 42.812C186.222 54.076 182.638 71.8253 182.638 96.06C182.638 120.124 186.222 137.873 193.39 149.308C200.558 160.743 211.651 166.46 226.67 166.46ZM406.804 189.5V154.684H311.06V129.084L406.804 2.62H434.964V129.084H468.5V154.684H434.964V189.5H406.804ZM345.108 129.084H406.804V48.956H406.292L345.108 128.572V129.084Z" fill="#717171"/>
</svg>
