<?xml version="1.0" encoding="UTF-8"?>
<svg id="_レイヤー_2" data-name="レイヤー 2" xmlns="http://www.w3.org/2000/svg" viewBox="0 0 65.88 73.24">
  <defs>
    <style>
      .cls-1 {
        fill: #c37c0a;
      }
    </style>
  </defs>
  <g id="logo">
    <g id="_饑7" data-name="ﾑ饑7">
      <g>
        <polygon class="cls-1" points="4.45 44.91 4.36 44.92 4.5 45.46 4.58 45.44 4.45 44.91"/>
        <polygon class="cls-1" points="4.72 45.97 4.64 45.99 4.77 46.53 4.86 46.51 4.72 45.97"/>
        <polygon class="cls-1" points="4.17 43.84 4.08 43.85 4.22 44.39 4.31 44.37 4.17 43.84"/>
        <polygon class="cls-1" points="5.83 50.25 5.74 50.27 5.88 50.81 5.97 50.79 5.83 50.25"/>
        <polygon class="cls-1" points="5 47.04 4.91 47.06 5.05 47.6 5.14 47.58 5 47.04"/>
        <polygon class="cls-1" points="5.55 49.18 5.47 49.2 5.61 49.74 5.69 49.72 5.55 49.18"/>
        <polygon class="cls-1" points="3.89 42.77 3.81 42.78 3.94 43.32 4.03 43.3 3.89 42.77"/>
        <polygon class="cls-1" points="5.28 48.11 5.19 48.13 5.33 48.67 5.41 48.65 5.28 48.11"/>
        <polygon class="cls-1" points="2.23 36.35 2.15 36.37 2.28 36.9 2.37 36.88 2.23 36.35"/>
        <polygon class="cls-1" points=".85 31 .76 31.02 .9 31.55 .99 31.54 .85 31"/>
        <polygon class="cls-1" points="1.12 32.07 1.04 32.09 1.18 32.62 1.26 32.61 1.12 32.07"/>
        <polygon class="cls-1" points=".57 29.93 .49 29.95 .62 30.48 .71 30.47 .57 29.93"/>
        <polygon class="cls-1" points="1.4 33.14 1.32 33.16 1.45 33.69 1.54 33.67 1.4 33.14"/>
        <polygon class="cls-1" points=".29 28.86 .21 28.88 .35 29.42 .43 29.4 .29 28.86"/>
        <polygon class="cls-1" points="2.79 38.49 2.7 38.51 2.84 39.04 2.92 39.02 2.79 38.49"/>
        <polygon class="cls-1" points="3.06 39.56 2.98 39.58 3.11 40.11 3.2 40.09 3.06 39.56"/>
        <polygon class="cls-1" points="1.96 35.28 1.87 35.3 2.01 35.83 2.09 35.81 1.96 35.28"/>
        <polygon class="cls-1" points="3.34 40.63 3.25 40.65 3.39 41.18 3.48 41.16 3.34 40.63"/>
        <polygon class="cls-1" points="3.62 41.7 3.53 41.71 3.67 42.25 3.75 42.23 3.62 41.7"/>
        <polygon class="cls-1" points="2.51 37.42 2.42 37.44 2.56 37.97 2.65 37.95 2.51 37.42"/>
        <polygon class="cls-1" points="1.68 34.21 1.59 34.23 1.73 34.76 1.82 34.74 1.68 34.21"/>
        <polygon class="cls-1" points=".09 28.05 0 28.07 .07 28.35 .16 28.33 .09 28.05"/>
        <polygon class="cls-1" points="4.84 17.42 4.76 17.38 4.55 17.87 4.63 17.92 4.84 17.42"/>
        <polygon class="cls-1" points="3.98 19.39 3.9 19.35 3.68 19.84 3.76 19.88 3.98 19.39"/>
        <polygon class="cls-1" points="5.28 16.44 5.2 16.4 4.98 16.89 5.06 16.93 5.28 16.44"/>
        <polygon class="cls-1" points="4.41 18.41 4.33 18.36 4.11 18.86 4.19 18.9 4.41 18.41"/>
        <polygon class="cls-1" points="6.14 14.47 6.06 14.43 5.85 14.92 5.93 14.96 6.14 14.47"/>
        <polygon class="cls-1" points="5.71 15.46 5.63 15.41 5.41 15.9 5.49 15.95 5.71 15.46"/>
        <polygon class="cls-1" points="3.54 20.38 3.46 20.33 3.25 20.82 3.33 20.87 3.54 20.38"/>
        <polygon class="cls-1" points=".51 27.26 .43 27.22 .21 27.71 .3 27.76 .51 27.26"/>
        <polygon class="cls-1" points=".95 26.28 .86 26.24 .65 26.73 .73 26.77 .95 26.28"/>
        <polygon class="cls-1" points="1.81 24.31 1.73 24.27 1.51 24.76 1.6 24.8 1.81 24.31"/>
        <polygon class="cls-1" points="1.38 25.3 1.3 25.25 1.08 25.75 1.16 25.79 1.38 25.3"/>
        <polygon class="cls-1" points="2.68 22.34 2.6 22.3 2.38 22.79 2.46 22.84 2.68 22.34"/>
        <polygon class="cls-1" points="6.58 13.49 6.5 13.44 6.28 13.94 6.36 13.98 6.58 13.49"/>
        <polygon class="cls-1" points="3.11 21.36 3.03 21.32 2.81 21.81 2.89 21.85 3.11 21.36"/>
        <polygon class="cls-1" points="10.91 3.65 10.83 3.6 10.61 4.1 10.69 4.14 10.91 3.65"/>
        <polygon class="cls-1" points="10.04 5.62 9.96 5.57 9.74 6.06 9.83 6.11 10.04 5.62"/>
        <polygon class="cls-1" points="10.48 4.63 10.39 4.59 10.18 5.08 10.26 5.12 10.48 4.63"/>
        <polygon class="cls-1" points="11.34 2.66 11.26 2.62 11.04 3.11 11.13 3.16 11.34 2.66"/>
        <polygon class="cls-1" points="12.21 .7 12.13 .65 11.91 1.14 11.99 1.19 12.21 .7"/>
        <polygon class="cls-1" points="11.77 1.68 11.69 1.64 11.48 2.13 11.56 2.17 11.77 1.68"/>
        <polygon class="cls-1" points="7.88 10.54 7.79 10.49 7.58 10.98 7.66 11.03 7.88 10.54"/>
        <polygon class="cls-1" points="7.01 12.5 6.93 12.46 6.71 12.95 6.79 13 7.01 12.5"/>
        <polygon class="cls-1" points="7.44 11.52 7.36 11.48 7.15 11.97 7.23 12.01 7.44 11.52"/>
        <polygon class="cls-1" points="8.31 9.55 8.23 9.51 8.01 10 8.09 10.04 8.31 9.55"/>
        <polygon class="cls-1" points="9.61 6.6 9.53 6.56 9.31 7.05 9.39 7.09 9.61 6.6"/>
        <polygon class="cls-1" points="9.18 7.58 9.09 7.54 8.88 8.03 8.96 8.08 9.18 7.58"/>
        <polygon class="cls-1" points="8.74 8.57 8.66 8.52 8.44 9.02 8.53 9.06 8.74 8.57"/>
        <polygon class="cls-1" points="2.24 23.33 2.16 23.28 1.95 23.78 2.03 23.82 2.24 23.33"/>
        <polygon class="cls-1" points="18 39.01 18.47 39.3 18.51 39.22 18.04 38.93 18 39.01"/>
        <polygon class="cls-1" points="20.84 40.75 21.31 41.04 21.36 40.96 20.88 40.67 20.84 40.75"/>
        <polygon class="cls-1" points="18.95 39.59 19.42 39.88 19.46 39.8 18.99 39.51 18.95 39.59"/>
        <polygon class="cls-1" points="19.89 40.17 20.37 40.46 20.41 40.38 19.93 40.09 19.89 40.17"/>
        <polygon class="cls-1" points="8.09 32.85 7.62 32.56 7.58 32.63 8.05 32.92 8.09 32.85"/>
        <polygon class="cls-1" points="21.79 41.33 22.26 41.62 22.3 41.54 21.83 41.25 21.79 41.33"/>
        <polygon class="cls-1" points="12.83 35.74 12.36 35.45 12.32 35.53 12.79 35.82 12.83 35.74"/>
        <polygon class="cls-1" points="11.88 35.16 11.41 34.87 11.37 34.95 11.84 35.24 11.88 35.16"/>
        <polygon class="cls-1" points="10.94 34.58 10.46 34.29 10.42 34.37 10.9 34.66 10.94 34.58"/>
        <polygon class="cls-1" points="9.04 33.43 8.57 33.14 8.53 33.21 9 33.5 9.04 33.43"/>
        <polygon class="cls-1" points="17.05 38.43 17.53 38.72 17.57 38.64 17.09 38.35 17.05 38.43"/>
        <polygon class="cls-1" points="9.99 34 9.52 33.72 9.47 33.79 9.95 34.08 9.99 34"/>
        <polygon class="cls-1" points="16.11 37.85 16.58 38.14 16.62 38.06 16.15 37.77 16.11 37.85"/>
        <polygon class="cls-1" points="15.16 37.27 15.63 37.56 15.67 37.48 15.2 37.19 15.16 37.27"/>
        <polygon class="cls-1" points="14.21 36.69 14.68 36.98 14.73 36.9 14.25 36.61 14.21 36.69"/>
        <polygon class="cls-1" points="13.26 36.11 13.74 36.4 13.78 36.32 13.3 36.03 13.26 36.11"/>
        <polygon class="cls-1" points="3.79 30.32 4.26 30.61 4.31 30.53 3.83 30.24 3.79 30.32"/>
        <polygon class="cls-1" points="5.25 31.11 4.78 30.82 4.74 30.9 5.21 31.19 5.25 31.11"/>
        <polygon class="cls-1" points="3.32 30.03 3.36 29.95 2.88 29.66 2.84 29.74 3.32 30.03"/>
        <polygon class="cls-1" points=".95 28.58 1.42 28.87 1.46 28.79 .99 28.5 .95 28.58"/>
        <polygon class="cls-1" points="5.69 31.48 6.16 31.77 6.2 31.69 5.73 31.4 5.69 31.48"/>
        <polygon class="cls-1" points=".52 28.21 .04 27.92 0 28 .48 28.29 .52 28.21"/>
        <polygon class="cls-1" points="7.11 32.34 7.15 32.27 6.67 31.98 6.63 32.06 7.11 32.34"/>
        <polygon class="cls-1" points="2.41 29.37 1.94 29.08 1.9 29.16 2.37 29.45 2.41 29.37"/>
        <path class="cls-1" d="m59.88,21.58l-.26-.12h0s0,0,0,0L12.64.08l-.1.06-6.52,51.2h0s0,0,0,0l-.04.28h.02s0,.03,0,.03l.26.12h0s0,0,0,0l46.98,21.39.1-.06,6.52-51.2h0s0,0,0,0l.04-.28h-.03s0-.03,0-.03Zm-36.79,20.38h-.01s0,.05,0,.05l-.3-.18-.04.08.28.17c-1.11.62-2.21,1.23-3.32,1.85-4.51,2.51-9.02,5.03-13.5,7.52,1.02-2.26,1.98-4.44,3-6.75.64-1.45,1.3-2.94,1.98-4.47,1.69-3.74,3.29-7.33,4.83-10.8,1.21-2.72,2.46-5.53,3.72-8.34.55,3.48,1.12,7,1.68,10.41.56,3.43,1.14,6.97,1.69,10.47Zm-3.33,2.08c1.11-.62,2.21-1.23,3.32-1.85v.33s.09,0,.09,0v-.35s.05.03.05.03h0c2.68,2.29,5.39,4.65,8.01,6.93,2.61,2.26,5.3,4.61,7.97,6.9-3.06-.4-6.1-.82-9.05-1.22-3.76-.51-7.66-1.05-11.73-1.57-1.66-.23-3.28-.45-4.85-.67-2.5-.35-4.86-.68-7.32-1,4.48-2.5,8.99-5.01,13.5-7.52Zm23.04-12.76h.01s0-.05,0-.05l.3.18.04-.08-.28-.17c1.11-.62,2.21-1.23,3.32-1.85,4.51-2.51,9.02-5.03,13.5-7.52-1.02,2.26-1.98,4.44-3,6.75-.64,1.45-1.3,2.94-1.98,4.47-1.69,3.74-3.29,7.33-4.83,10.8-1.21,2.72-2.46,5.53-3.72,8.34-.55-3.48-1.12-7-1.68-10.41-.56-3.43-1.14-6.97-1.69-10.47Zm3.33-2.08c-1.11.62-2.21,1.23-3.32,1.85v-.33s-.09,0-.09,0v.35s-.05-.03-.05-.03h0c-2.68-2.29-5.39-4.65-8.01-6.93-2.61-2.26-5.3-4.61-7.97-6.9,3.06.4,6.1.82,9.05,1.22,3.76.51,7.66,1.05,11.73,1.57,1.66.23,3.28.45,4.85.67,2.5.35,4.86.68,7.32,1-4.48,2.5-8.99,5.01-13.5,7.52ZM6.11,51.34L12.62.17l46.95,21.37.05.06c-2.46-.32-4.82-.65-7.32-1-1.57-.22-3.18-.45-4.85-.67-4.07-.53-7.96-1.06-11.73-1.57-2.98-.41-6.06-.83-9.16-1.24h0s0,0-.01,0l-.05.06c2.71,2.33,5.44,4.7,8.09,7,2.63,2.29,5.36,4.65,8.05,6.97-3.26,1.82-6.51,3.63-9.74,5.43-3.24,1.8-6.49,3.61-9.74,5.43-.55-3.51-1.13-7.06-1.69-10.51-.56-3.46-1.15-7.04-1.7-10.56h-.07s0,.02,0,.03h0c-1.28,2.84-2.54,5.69-3.76,8.44-1.54,3.47-3.14,7.06-4.83,10.8-.68,1.53-1.34,3.03-1.98,4.48-1.02,2.31-1.98,4.49-3,6.75l-.02-.08Zm53.66-29.44l-6.51,51.17L6.31,51.7l-.05-.06c2.46.32,4.82.65,7.32,1,1.57.22,3.18.45,4.85.67,4.07.53,7.96,1.06,11.73,1.57,2.98.41,6.06.83,9.16,1.24h0s0,0,.01,0l.05-.06c-2.71-2.33-5.44-4.7-8.09-7-2.63-2.29-5.36-4.65-8.05-6.97,3.26-1.82,6.51-3.63,9.74-5.43,3.24-1.8,6.49-3.61,9.74-5.43.55,3.51,1.13,7.06,1.69,10.51.56,3.46,1.15,7.04,1.7,10.56h.07s0-.02,0-.03h0c1.28-2.84,2.54-5.69,3.76-8.44,1.54-3.47,3.14-7.06,4.83-10.8.68-1.53,1.34-3.03,1.98-4.48,1.02-2.31,1.98-4.49,3-6.75l.02.08Z"/>
        <polygon class="cls-1" points="45.48 6.7 45.1 6.3 45.04 6.37 45.42 6.77 45.48 6.7"/>
        <polygon class="cls-1" points="59.24 21.07 58.86 20.67 58.8 20.73 59.18 21.13 59.24 21.07"/>
        <polygon class="cls-1" points="47.01 8.3 46.63 7.9 46.57 7.96 46.95 8.36 47.01 8.3"/>
        <polygon class="cls-1" points="51.6 13.09 51.21 12.69 51.15 12.75 51.54 13.15 51.6 13.09"/>
        <polygon class="cls-1" points="50.83 12.29 50.45 11.89 50.39 11.95 50.77 12.35 50.83 12.29"/>
        <polygon class="cls-1" points="44.72 5.91 44.34 5.51 44.28 5.57 44.66 5.97 44.72 5.91"/>
        <polygon class="cls-1" points="43.96 5.11 43.57 4.71 43.51 4.77 43.89 5.17 43.96 5.11"/>
        <polygon class="cls-1" points="46.25 7.5 45.87 7.1 45.81 7.17 46.19 7.56 46.25 7.5"/>
        <polygon class="cls-1" points="48.54 9.9 48.16 9.5 48.1 9.56 48.48 9.96 48.54 9.9"/>
        <polygon class="cls-1" points="50.07 11.49 49.69 11.09 49.63 11.16 50.01 11.55 50.07 11.49"/>
        <polygon class="cls-1" points="47.78 9.1 47.39 8.7 47.33 8.76 47.72 9.16 47.78 9.1"/>
        <polygon class="cls-1" points="56.95 18.67 56.56 18.27 56.5 18.34 56.89 18.74 56.95 18.67"/>
        <polygon class="cls-1" points="56.18 17.87 55.8 17.47 55.74 17.54 56.12 17.94 56.18 17.87"/>
        <polygon class="cls-1" points="57.71 19.47 57.33 19.07 57.27 19.13 57.65 19.53 57.71 19.47"/>
        <polygon class="cls-1" points="58.47 20.27 58.09 19.87 58.03 19.93 58.41 20.33 58.47 20.27"/>
        <polygon class="cls-1" points="54.65 16.28 54.27 15.88 54.21 15.94 54.59 16.34 54.65 16.28"/>
        <polygon class="cls-1" points="52.36 13.88 51.98 13.49 51.92 13.55 52.3 13.95 52.36 13.88"/>
        <polygon class="cls-1" points="53.13 14.68 52.74 14.28 52.68 14.35 53.06 14.75 53.13 14.68"/>
        <polygon class="cls-1" points="53.89 15.48 53.51 15.08 53.45 15.14 53.83 15.54 53.89 15.48"/>
        <polygon class="cls-1" points="55.42 17.08 55.04 16.68 54.97 16.74 55.36 17.14 55.42 17.08"/>
        <polygon class="cls-1" points="49.3 10.69 48.92 10.29 48.86 10.36 49.24 10.76 49.3 10.69"/>
        <polygon class="cls-1" points="43.13 4.37 43.19 4.31 43 4.11 42.94 4.17 43.13 4.37"/>
        <polygon class="cls-1" points="34.06 2.91 33.53 2.83 33.52 2.92 34.05 3 34.06 2.91"/>
        <polygon class="cls-1" points="36.19 3.21 35.66 3.13 35.65 3.22 36.18 3.3 36.19 3.21"/>
        <polygon class="cls-1" points="35.12 3.06 34.59 2.98 34.59 3.07 35.12 3.15 35.12 3.06"/>
        <polygon class="cls-1" points="37.25 3.35 36.72 3.28 36.72 3.37 37.25 3.45 37.25 3.35"/>
        <polygon class="cls-1" points="41.51 3.95 40.98 3.88 40.97 3.97 41.51 4.04 41.51 3.95"/>
        <polygon class="cls-1" points="42.58 4.1 42.05 4.03 42.04 4.12 42.57 4.19 42.58 4.1"/>
        <polygon class="cls-1" points="32.99 2.76 32.46 2.68 32.46 2.78 32.99 2.85 32.99 2.76"/>
        <polygon class="cls-1" points="40.45 3.8 39.92 3.73 39.91 3.82 40.44 3.89 40.45 3.8"/>
        <polygon class="cls-1" points="39.38 3.65 38.85 3.58 38.85 3.67 39.38 3.74 39.38 3.65"/>
        <polygon class="cls-1" points="38.32 3.5 37.79 3.43 37.78 3.52 38.31 3.6 38.32 3.5"/>
        <polygon class="cls-1" points="26.61 1.86 26.07 1.79 26.07 1.88 26.6 1.96 26.61 1.86"/>
        <polygon class="cls-1" points="20.22 .97 19.69 .89 19.68 .99 20.21 1.06 20.22 .97"/>
        <polygon class="cls-1" points="19.15 .82 18.62 .75 18.61 .84 19.15 .91 19.15 .82"/>
        <polygon class="cls-1" points="21.28 1.12 20.75 1.04 20.74 1.14 21.28 1.21 21.28 1.12"/>
        <polygon class="cls-1" points="18.09 .67 17.56 .6 17.55 .69 18.08 .76 18.09 .67"/>
        <polygon class="cls-1" points="13.83 .07 13.3 0 13.29 .09 13.82 .17 13.83 .07"/>
        <polygon class="cls-1" points="22.35 1.27 21.81 1.19 21.81 1.28 22.34 1.36 22.35 1.27"/>
        <polygon class="cls-1" points="14.89 .22 14.36 .15 14.36 .24 14.89 .32 14.89 .22"/>
        <polygon class="cls-1" points="17.02 .52 16.49 .45 16.49 .54 17.02 .61 17.02 .52"/>
        <polygon class="cls-1" points="15.96 .37 15.43 .3 15.42 .39 15.95 .46 15.96 .37"/>
        <polygon class="cls-1" points="23.41 1.42 22.88 1.34 22.87 1.43 23.41 1.51 23.41 1.42"/>
        <polygon class="cls-1" points="29.8 2.31 29.27 2.24 29.26 2.33 29.79 2.4 29.8 2.31"/>
        <polygon class="cls-1" points="27.67 2.01 27.14 1.94 27.13 2.03 27.67 2.1 27.67 2.01"/>
        <polygon class="cls-1" points="28.74 2.16 28.2 2.09 28.2 2.18 28.73 2.25 28.74 2.16"/>
        <polygon class="cls-1" points="30.87 2.46 30.33 2.39 30.33 2.48 30.86 2.55 30.87 2.46"/>
        <polygon class="cls-1" points="25.54 1.71 25.01 1.64 25 1.73 25.54 1.81 25.54 1.71"/>
        <polygon class="cls-1" points="24.48 1.57 23.94 1.49 23.94 1.58 24.47 1.66 24.48 1.57"/>
        <polygon class="cls-1" points="31.93 2.61 31.4 2.53 31.39 2.63 31.92 2.7 31.93 2.61"/>
        <polygon class="cls-1" points="42.93 4.62 42.93 4.07 42.84 4.06 42.84 4.62 42.93 4.62"/>
        <polygon class="cls-1" points="42.88 15.17 42.79 15.17 42.79 15.72 42.88 15.73 42.88 15.17"/>
        <polygon class="cls-1" points="42.73 27.94 42.82 27.95 42.82 27.39 42.74 27.38 42.73 27.94"/>
        <polygon class="cls-1" points="42.74 26.83 42.83 26.84 42.83 26.28 42.74 26.27 42.74 26.83"/>
        <polygon class="cls-1" points="42.73 29.05 42.82 29.06 42.82 28.5 42.73 28.49 42.73 29.05"/>
        <polygon class="cls-1" points="42.72 30.16 42.81 30.17 42.81 29.61 42.73 29.6 42.72 30.16"/>
        <polygon class="cls-1" points="42.74 25.72 42.83 25.72 42.83 25.17 42.75 25.16 42.74 25.72"/>
        <polygon class="cls-1" points="42.76 21.28 42.85 21.28 42.85 20.73 42.77 20.72 42.76 21.28"/>
        <polygon class="cls-1" points="42.86 18.51 42.78 18.5 42.77 19.05 42.86 19.06 42.86 18.51"/>
        <polygon class="cls-1" points="42.75 24.61 42.84 24.61 42.84 24.06 42.75 24.05 42.75 24.61"/>
        <polygon class="cls-1" points="42.77 20.16 42.86 20.17 42.86 19.62 42.77 19.61 42.77 20.16"/>
        <polygon class="cls-1" points="42.76 22.39 42.85 22.39 42.85 21.84 42.76 21.83 42.76 22.39"/>
        <polygon class="cls-1" points="42.75 23.5 42.84 23.5 42.84 22.95 42.76 22.94 42.75 23.5"/>
        <polygon class="cls-1" points="42.9 10.73 42.81 10.73 42.81 11.28 42.9 11.29 42.9 10.73"/>
        <polygon class="cls-1" points="42.9 10.18 42.91 9.62 42.82 9.61 42.81 10.17 42.9 10.18"/>
        <polygon class="cls-1" points="42.91 8.51 42.82 8.5 42.82 9.06 42.91 9.07 42.91 8.51"/>
        <polygon class="cls-1" points="42.92 6.85 42.92 6.29 42.83 6.28 42.83 6.84 42.92 6.85"/>
        <polygon class="cls-1" points="42.93 5.18 42.84 5.17 42.83 5.73 42.92 5.73 42.93 5.18"/>
        <polygon class="cls-1" points="42.92 7.4 42.83 7.39 42.82 7.95 42.91 7.96 42.92 7.4"/>
        <polygon class="cls-1" points="42.89 13.51 42.89 12.95 42.8 12.95 42.8 13.5 42.89 13.51"/>
        <polygon class="cls-1" points="42.87 16.28 42.79 16.28 42.78 16.83 42.87 16.84 42.87 16.28"/>
        <polygon class="cls-1" points="42.88 14.06 42.8 14.06 42.79 14.61 42.88 14.62 42.88 14.06"/>
        <polygon class="cls-1" points="42.87 17.4 42.78 17.39 42.78 17.94 42.87 17.95 42.87 17.4"/>
        <polygon class="cls-1" points="42.89 12.4 42.9 11.84 42.81 11.84 42.8 12.39 42.89 12.4"/>
        <polygon class="cls-1" points="61.44 28.33 61.52 28.31 61.38 27.78 61.3 27.8 61.44 28.33"/>
        <polygon class="cls-1" points="61.16 27.26 61.24 27.24 61.11 26.71 61.02 26.73 61.16 27.26"/>
        <polygon class="cls-1" points="61.71 29.4 61.8 29.38 61.66 28.85 61.57 28.87 61.71 29.4"/>
        <polygon class="cls-1" points="60.05 22.98 60.14 22.97 60 22.43 59.91 22.45 60.05 22.98"/>
        <polygon class="cls-1" points="60.88 26.19 60.97 26.17 60.83 25.64 60.74 25.66 60.88 26.19"/>
        <polygon class="cls-1" points="60.33 24.05 60.41 24.04 60.28 23.5 60.19 23.52 60.33 24.05"/>
        <polygon class="cls-1" points="61.99 30.47 62.07 30.45 61.94 29.92 61.85 29.94 61.99 30.47"/>
        <polygon class="cls-1" points="60.61 25.12 60.69 25.1 60.55 24.57 60.47 24.59 60.61 25.12"/>
        <polygon class="cls-1" points="63.65 36.89 63.74 36.87 63.6 36.34 63.51 36.35 63.65 36.89"/>
        <polygon class="cls-1" points="65.03 42.24 65.12 42.22 64.98 41.68 64.89 41.7 65.03 42.24"/>
        <polygon class="cls-1" points="64.76 41.17 64.84 41.15 64.7 40.61 64.62 40.63 64.76 41.17"/>
        <polygon class="cls-1" points="65.31 43.31 65.4 43.29 65.26 42.75 65.17 42.77 65.31 43.31"/>
        <polygon class="cls-1" points="64.48 40.1 64.57 40.08 64.43 39.54 64.34 39.56 64.48 40.1"/>
        <polygon class="cls-1" points="65.59 44.38 65.67 44.36 65.53 43.82 65.45 43.84 65.59 44.38"/>
        <polygon class="cls-1" points="63.1 34.75 63.18 34.73 63.04 34.2 62.96 34.21 63.1 34.75"/>
        <polygon class="cls-1" points="62.82 33.68 62.91 33.66 62.77 33.13 62.68 33.14 62.82 33.68"/>
        <polygon class="cls-1" points="63.93 37.96 64.01 37.94 63.87 37.4 63.79 37.42 63.93 37.96"/>
        <polygon class="cls-1" points="62.54 32.61 62.63 32.59 62.49 32.06 62.4 32.08 62.54 32.61"/>
        <polygon class="cls-1" points="62.27 31.54 62.35 31.52 62.21 30.99 62.13 31.01 62.27 31.54"/>
        <polygon class="cls-1" points="63.37 35.82 63.46 35.8 63.32 35.27 63.23 35.28 63.37 35.82"/>
        <polygon class="cls-1" points="64.2 39.03 64.29 39.01 64.15 38.47 64.06 38.49 64.2 39.03"/>
        <polygon class="cls-1" points="65.8 45.18 65.88 45.16 65.81 44.89 65.72 44.91 65.8 45.18"/>
        <polygon class="cls-1" points="61.04 55.81 61.12 55.86 61.34 55.36 61.25 55.32 61.04 55.81"/>
        <polygon class="cls-1" points="61.9 53.84 61.99 53.89 62.2 53.4 62.12 53.35 61.9 53.84"/>
        <polygon class="cls-1" points="60.6 56.8 60.69 56.84 60.9 56.35 60.82 56.31 60.6 56.8"/>
        <polygon class="cls-1" points="61.47 54.83 61.55 54.87 61.77 54.38 61.69 54.34 61.47 54.83"/>
        <polygon class="cls-1" points="59.74 58.77 59.82 58.81 60.04 58.32 59.95 58.27 59.74 58.77"/>
        <polygon class="cls-1" points="60.17 57.78 60.25 57.82 60.47 57.33 60.39 57.29 60.17 57.78"/>
        <polygon class="cls-1" points="62.34 52.86 62.42 52.9 62.63 52.41 62.55 52.37 62.34 52.86"/>
        <polygon class="cls-1" points="65.37 45.97 65.45 46.02 65.67 45.52 65.59 45.48 65.37 45.97"/>
        <polygon class="cls-1" points="64.94 46.96 65.02 47 65.23 46.51 65.15 46.46 64.94 46.96"/>
        <polygon class="cls-1" points="64.07 48.92 64.15 48.97 64.37 48.48 64.29 48.43 64.07 48.92"/>
        <polygon class="cls-1" points="64.5 47.94 64.58 47.98 64.8 47.49 64.72 47.45 64.5 47.94"/>
        <polygon class="cls-1" points="63.2 50.89 63.28 50.94 63.5 50.44 63.42 50.4 63.2 50.89"/>
        <polygon class="cls-1" points="59.3 59.75 59.39 59.79 59.6 59.3 59.52 59.26 59.3 59.75"/>
        <polygon class="cls-1" points="62.77 51.88 62.85 51.92 63.07 51.43 62.99 51.38 62.77 51.88"/>
        <polygon class="cls-1" points="54.97 69.59 55.05 69.63 55.27 69.14 55.19 69.1 54.97 69.59"/>
        <polygon class="cls-1" points="55.84 67.62 55.92 67.66 56.14 67.17 56.06 67.13 55.84 67.62"/>
        <polygon class="cls-1" points="55.41 68.61 55.49 68.65 55.7 68.16 55.62 68.11 55.41 68.61"/>
        <polygon class="cls-1" points="54.54 70.57 54.62 70.62 54.84 70.13 54.76 70.08 54.54 70.57"/>
        <polygon class="cls-1" points="53.67 72.54 53.75 72.59 53.97 72.09 53.89 72.05 53.67 72.54"/>
        <polygon class="cls-1" points="54.11 71.56 54.19 71.6 54.4 71.11 54.32 71.07 54.11 71.56"/>
        <polygon class="cls-1" points="58.01 62.7 58.09 62.74 58.3 62.25 58.22 62.21 58.01 62.7"/>
        <polygon class="cls-1" points="58.87 60.73 58.95 60.78 59.17 60.28 59.09 60.24 58.87 60.73"/>
        <polygon class="cls-1" points="58.44 61.72 58.52 61.76 58.74 61.27 58.65 61.23 58.44 61.72"/>
        <polygon class="cls-1" points="57.57 63.69 57.65 63.73 57.87 63.24 57.79 63.19 57.57 63.69"/>
        <polygon class="cls-1" points="56.27 66.64 56.35 66.68 56.57 66.19 56.49 66.15 56.27 66.64"/>
        <polygon class="cls-1" points="56.71 65.65 56.79 65.7 57 65.2 56.92 65.16 56.71 65.65"/>
        <polygon class="cls-1" points="57.14 64.67 57.22 64.71 57.44 64.22 57.36 64.18 57.14 64.67"/>
        <polygon class="cls-1" points="63.64 49.91 63.72 49.95 63.93 49.46 63.85 49.42 63.64 49.91"/>
        <polygon class="cls-1" points="47.88 34.23 47.41 33.94 47.37 34.01 47.84 34.3 47.88 34.23"/>
        <polygon class="cls-1" points="45.04 32.49 44.57 32.2 44.53 32.28 45 32.57 45.04 32.49"/>
        <polygon class="cls-1" points="46.93 33.65 46.46 33.36 46.42 33.43 46.89 33.72 46.93 33.65"/>
        <polygon class="cls-1" points="45.99 33.07 45.51 32.78 45.47 32.85 45.95 33.14 45.99 33.07"/>
        <polygon class="cls-1" points="57.79 40.39 58.26 40.68 58.3 40.6 57.83 40.31 57.79 40.39"/>
        <polygon class="cls-1" points="44.09 31.91 43.62 31.62 43.58 31.7 44.05 31.99 44.09 31.91"/>
        <polygon class="cls-1" points="53.05 37.49 53.52 37.78 53.57 37.7 53.09 37.41 53.05 37.49"/>
        <polygon class="cls-1" points="54 38.07 54.47 38.36 54.51 38.28 54.04 37.99 54 38.07"/>
        <polygon class="cls-1" points="54.95 38.65 55.42 38.94 55.46 38.86 54.99 38.57 54.95 38.65"/>
        <polygon class="cls-1" points="56.84 39.81 57.31 40.1 57.35 40.02 56.88 39.73 56.84 39.81"/>
        <polygon class="cls-1" points="48.83 34.8 48.36 34.51 48.31 34.59 48.79 34.88 48.83 34.8"/>
        <polygon class="cls-1" points="55.89 39.23 56.37 39.52 56.41 39.44 55.93 39.15 55.89 39.23"/>
        <polygon class="cls-1" points="49.78 35.38 49.3 35.09 49.26 35.17 49.74 35.46 49.78 35.38"/>
        <polygon class="cls-1" points="50.72 35.96 50.25 35.67 50.21 35.75 50.68 36.04 50.72 35.96"/>
        <polygon class="cls-1" points="51.67 36.54 51.2 36.25 51.16 36.33 51.63 36.62 51.67 36.54"/>
        <polygon class="cls-1" points="52.62 37.12 52.14 36.83 52.1 36.91 52.58 37.2 52.62 37.12"/>
        <polygon class="cls-1" points="62.09 42.92 61.62 42.63 61.58 42.71 62.05 43 62.09 42.92"/>
        <polygon class="cls-1" points="60.63 42.13 61.1 42.42 61.14 42.34 60.67 42.05 60.63 42.13"/>
        <polygon class="cls-1" points="62.56 43.21 62.52 43.29 63 43.58 63.04 43.5 62.56 43.21"/>
        <polygon class="cls-1" points="64.93 44.66 64.46 44.37 64.42 44.45 64.89 44.74 64.93 44.66"/>
        <polygon class="cls-1" points="60.2 41.76 59.72 41.47 59.68 41.55 60.15 41.84 60.2 41.76"/>
        <polygon class="cls-1" points="65.36 45.03 65.84 45.32 65.88 45.24 65.41 44.95 65.36 45.03"/>
        <polygon class="cls-1" points="58.77 40.89 58.73 40.97 59.21 41.26 59.25 41.18 58.77 40.89"/>
        <polygon class="cls-1" points="63.47 43.87 63.94 44.16 63.98 44.08 63.51 43.79 63.47 43.87"/>
        <polygon class="cls-1" points="20.4 66.53 20.78 66.93 20.84 66.87 20.46 66.47 20.4 66.53"/>
        <polygon class="cls-1" points="6.64 52.17 7.03 52.57 7.09 52.51 6.7 52.11 6.64 52.17"/>
        <polygon class="cls-1" points="18.87 64.94 19.25 65.34 19.31 65.27 18.93 64.87 18.87 64.94"/>
        <polygon class="cls-1" points="14.28 60.15 14.67 60.55 14.73 60.49 14.35 60.09 14.28 60.15"/>
        <polygon class="cls-1" points="15.05 60.95 15.43 61.35 15.49 61.28 15.11 60.89 15.05 60.95"/>
        <polygon class="cls-1" points="21.16 67.33 21.54 67.73 21.6 67.67 21.22 67.27 21.16 67.33"/>
        <polygon class="cls-1" points="21.93 68.13 22.31 68.53 22.37 68.46 21.99 68.07 21.93 68.13"/>
        <polygon class="cls-1" points="19.63 65.74 20.02 66.13 20.08 66.07 19.69 65.67 19.63 65.74"/>
        <polygon class="cls-1" points="17.34 63.34 17.72 63.74 17.78 63.68 17.4 63.28 17.34 63.34"/>
        <polygon class="cls-1" points="15.81 61.75 16.19 62.15 16.26 62.08 15.87 61.68 15.81 61.75"/>
        <polygon class="cls-1" points="18.11 64.14 18.49 64.54 18.55 64.48 18.17 64.08 18.11 64.14"/>
        <polygon class="cls-1" points="8.94 54.57 9.32 54.96 9.38 54.9 9 54.5 8.94 54.57"/>
        <polygon class="cls-1" points="9.7 55.36 10.08 55.76 10.14 55.7 9.76 55.3 9.7 55.36"/>
        <polygon class="cls-1" points="8.17 53.77 8.55 54.17 8.61 54.1 8.23 53.7 8.17 53.77"/>
        <polygon class="cls-1" points="7.41 52.97 7.79 53.37 7.85 53.31 7.47 52.91 7.41 52.97"/>
        <polygon class="cls-1" points="11.23 56.96 11.61 57.36 11.67 57.29 11.29 56.9 11.23 56.96"/>
        <polygon class="cls-1" points="13.52 59.35 13.9 59.75 13.96 59.69 13.58 59.29 13.52 59.35"/>
        <polygon class="cls-1" points="12.76 58.55 13.14 58.95 13.2 58.89 12.82 58.49 12.76 58.55"/>
        <polygon class="cls-1" points="11.99 57.76 12.37 58.16 12.43 58.09 12.05 57.69 11.99 57.76"/>
        <polygon class="cls-1" points="10.46 56.16 10.85 56.56 10.91 56.5 10.52 56.1 10.46 56.16"/>
        <polygon class="cls-1" points="16.58 62.54 16.96 62.94 17.02 62.88 16.64 62.48 16.58 62.54"/>
        <polygon class="cls-1" points="22.75 68.86 22.69 68.93 22.89 69.13 22.95 69.07 22.75 68.86"/>
        <polygon class="cls-1" points="31.82 70.33 32.35 70.4 32.36 70.31 31.83 70.24 31.82 70.33"/>
        <polygon class="cls-1" points="29.69 70.03 30.22 70.11 30.23 70.01 29.7 69.94 29.69 70.03"/>
        <polygon class="cls-1" points="30.76 70.18 31.29 70.26 31.3 70.16 30.76 70.09 30.76 70.18"/>
        <polygon class="cls-1" points="28.63 69.88 29.16 69.96 29.17 69.87 28.63 69.79 28.63 69.88"/>
        <polygon class="cls-1" points="24.37 69.29 24.9 69.36 24.91 69.27 24.37 69.19 24.37 69.29"/>
        <polygon class="cls-1" points="23.3 69.14 23.84 69.21 23.84 69.12 23.31 69.05 23.3 69.14"/>
        <polygon class="cls-1" points="32.89 70.48 33.42 70.55 33.42 70.46 32.89 70.39 32.89 70.48"/>
        <polygon class="cls-1" points="25.43 69.44 25.97 69.51 25.97 69.42 25.44 69.34 25.43 69.44"/>
        <polygon class="cls-1" points="26.5 69.58 27.03 69.66 27.04 69.57 26.5 69.49 26.5 69.58"/>
        <polygon class="cls-1" points="27.56 69.73 28.1 69.81 28.1 69.72 27.57 69.64 27.56 69.73"/>
        <polygon class="cls-1" points="39.28 71.37 39.81 71.45 39.81 71.36 39.28 71.28 39.28 71.37"/>
        <polygon class="cls-1" points="45.66 72.27 46.2 72.34 46.2 72.25 45.67 72.18 45.66 72.27"/>
        <polygon class="cls-1" points="46.73 72.42 47.26 72.49 47.27 72.4 46.73 72.33 46.73 72.42"/>
        <polygon class="cls-1" points="44.6 72.12 45.13 72.19 45.14 72.1 44.6 72.03 44.6 72.12"/>
        <polygon class="cls-1" points="47.79 72.57 48.33 72.64 48.33 72.55 47.8 72.47 47.79 72.57"/>
        <polygon class="cls-1" points="52.05 73.16 52.58 73.24 52.59 73.15 52.06 73.07 52.05 73.16"/>
        <polygon class="cls-1" points="43.53 71.97 44.07 72.04 44.07 71.95 43.54 71.88 43.53 71.97"/>
        <polygon class="cls-1" points="50.99 73.01 51.52 73.09 51.53 73 50.99 72.92 50.99 73.01"/>
        <polygon class="cls-1" points="48.86 72.72 49.39 72.79 49.4 72.7 48.86 72.62 48.86 72.72"/>
        <polygon class="cls-1" points="49.92 72.86 50.46 72.94 50.46 72.85 49.93 72.77 49.92 72.86"/>
        <polygon class="cls-1" points="42.47 71.82 43 71.9 43.01 71.8 42.48 71.73 42.47 71.82"/>
        <polygon class="cls-1" points="36.08 70.93 36.61 71 36.62 70.91 36.09 70.83 36.08 70.93"/>
        <polygon class="cls-1" points="38.21 71.22 38.74 71.3 38.75 71.21 38.22 71.13 38.21 71.22"/>
        <polygon class="cls-1" points="37.15 71.08 37.68 71.15 37.68 71.06 37.15 70.98 37.15 71.08"/>
        <polygon class="cls-1" points="35.02 70.78 35.55 70.85 35.55 70.76 35.02 70.69 35.02 70.78"/>
        <polygon class="cls-1" points="40.34 71.52 40.87 71.6 40.88 71.51 40.35 71.43 40.34 71.52"/>
        <polygon class="cls-1" points="41.4 71.67 41.94 71.75 41.94 71.65 41.41 71.58 41.4 71.67"/>
        <polygon class="cls-1" points="33.95 70.63 34.48 70.7 34.49 70.61 33.96 70.54 33.95 70.63"/>
        <polygon class="cls-1" points="22.95 68.61 22.95 69.17 23.04 69.18 23.04 68.62 22.95 68.61"/>
        <polygon class="cls-1" points="23 58.06 23.09 58.07 23.09 57.51 23 57.51 23 58.06"/>
        <polygon class="cls-1" points="23.15 45.3 23.06 45.29 23.06 45.85 23.15 45.85 23.15 45.3"/>
        <polygon class="cls-1" points="23.14 46.41 23.05 46.4 23.05 46.96 23.14 46.96 23.14 46.41"/>
        <polygon class="cls-1" points="23.15 44.19 23.06 44.18 23.06 44.74 23.15 44.74 23.15 44.19"/>
        <polygon class="cls-1" points="23.16 43.08 23.07 43.07 23.07 43.63 23.16 43.63 23.16 43.08"/>
        <polygon class="cls-1" points="23.14 47.52 23.05 47.51 23.05 48.07 23.14 48.07 23.14 47.52"/>
        <polygon class="cls-1" points="23.12 51.96 23.03 51.95 23.03 52.51 23.12 52.52 23.12 51.96"/>
        <polygon class="cls-1" points="23.02 54.73 23.11 54.74 23.11 54.18 23.02 54.18 23.02 54.73"/>
        <polygon class="cls-1" points="23.13 48.63 23.04 48.62 23.04 49.18 23.13 49.19 23.13 48.63"/>
        <polygon class="cls-1" points="23.11 53.07 23.02 53.07 23.02 53.62 23.11 53.63 23.11 53.07"/>
        <polygon class="cls-1" points="23.12 50.85 23.03 50.84 23.03 51.4 23.12 51.41 23.12 50.85"/>
        <polygon class="cls-1" points="23.13 49.74 23.04 49.73 23.04 50.29 23.13 50.3 23.13 49.74"/>
        <polygon class="cls-1" points="22.98 62.51 23.07 62.51 23.07 61.96 22.98 61.95 22.98 62.51"/>
        <polygon class="cls-1" points="22.98 63.06 22.98 63.62 23.07 63.62 23.07 63.07 22.98 63.06"/>
        <polygon class="cls-1" points="22.97 64.73 23.06 64.73 23.06 64.18 22.97 64.17 22.97 64.73"/>
        <polygon class="cls-1" points="22.96 66.39 22.96 66.95 23.05 66.95 23.05 66.4 22.96 66.39"/>
        <polygon class="cls-1" points="22.96 68.06 23.04 68.06 23.05 67.51 22.96 67.5 22.96 68.06"/>
        <polygon class="cls-1" points="22.97 65.84 23.06 65.84 23.06 65.29 22.97 65.28 22.97 65.84"/>
        <polygon class="cls-1" points="22.99 59.73 22.99 60.28 23.08 60.29 23.08 59.74 22.99 59.73"/>
        <polygon class="cls-1" points="23.01 56.95 23.1 56.96 23.1 56.4 23.01 56.4 23.01 56.95"/>
        <polygon class="cls-1" points="23 59.17 23.09 59.18 23.09 58.63 23 58.62 23 59.17"/>
        <polygon class="cls-1" points="23.01 55.84 23.1 55.85 23.1 55.29 23.01 55.29 23.01 55.84"/>
        <polygon class="cls-1" points="22.99 60.84 22.99 61.39 23.08 61.4 23.08 60.85 22.99 60.84"/>
      </g>
    </g>
  </g>
</svg>