<?xml version="1.0" encoding="UTF-8"?>
<svg id="_レイヤー_2" data-name="レイヤー 2" xmlns="http://www.w3.org/2000/svg" viewBox="0 0 32.69 32.71">
  <defs>
    <style>
      .cls-1 {
        fill: #c37c0a;
      }
    </style>
  </defs>
  <g id="logo">
    <g id="_饑7" data-name="ﾑ饑7">
      <g>
        <polygon class="cls-1" points="8.97 4.15 8.95 4.12 8.72 4.25 8.74 4.28 8.97 4.15"/>
        <polygon class="cls-1" points="8.51 4.41 8.49 4.38 8.26 4.51 8.28 4.54 8.51 4.41"/>
        <polygon class="cls-1" points="9.44 3.89 9.42 3.86 9.19 3.99 9.2 4.02 9.44 3.89"/>
        <polygon class="cls-1" points="6.66 5.46 6.64 5.42 6.41 5.55 6.43 5.59 6.66 5.46"/>
        <polygon class="cls-1" points="8.05 4.68 8.03 4.64 7.8 4.77 7.82 4.81 8.05 4.68"/>
        <polygon class="cls-1" points="7.12 5.2 7.11 5.16 6.87 5.29 6.89 5.33 7.12 5.2"/>
        <polygon class="cls-1" points="9.9 3.63 9.88 3.59 9.65 3.72 9.67 3.76 9.9 3.63"/>
        <polygon class="cls-1" points="7.59 4.94 7.57 4.9 7.34 5.03 7.36 5.07 7.59 4.94"/>
        <polygon class="cls-1" points="12.67 2.07 12.65 2.03 12.42 2.16 12.44 2.2 12.67 2.07"/>
        <polygon class="cls-1" points="14.98 .76 14.96 .73 14.73 .86 14.75 .89 14.98 .76"/>
        <polygon class="cls-1" points="14.52 1.02 14.5 .99 14.27 1.12 14.29 1.16 14.52 1.02"/>
        <polygon class="cls-1" points="15.44 .5 15.43 .47 15.19 .6 15.21 .63 15.44 .5"/>
        <polygon class="cls-1" points="14.06 1.29 14.04 1.25 13.81 1.38 13.83 1.42 14.06 1.29"/>
        <polygon class="cls-1" points="15.91 .24 15.89 .21 15.66 .34 15.68 .37 15.91 .24"/>
        <polygon class="cls-1" points="11.75 2.59 11.73 2.55 11.5 2.68 11.52 2.72 11.75 2.59"/>
        <polygon class="cls-1" points="11.28 2.85 11.27 2.81 11.03 2.94 11.05 2.98 11.28 2.85"/>
        <polygon class="cls-1" points="13.13 1.81 13.11 1.77 12.88 1.9 12.9 1.94 13.13 1.81"/>
        <polygon class="cls-1" points="10.82 3.11 10.8 3.07 10.57 3.2 10.59 3.24 10.82 3.11"/>
        <polygon class="cls-1" points="10.36 3.37 10.34 3.33 10.11 3.46 10.13 3.5 10.36 3.37"/>
        <polygon class="cls-1" points="12.21 2.33 12.19 2.29 11.96 2.42 11.98 2.46 12.21 2.33"/>
        <polygon class="cls-1" points="13.6 1.55 13.58 1.51 13.35 1.64 13.36 1.68 13.6 1.55"/>
        <polygon class="cls-1" points="16.26 .05 16.24 0 16.12 .07 16.14 .11 16.26 .05"/>
        <polygon class="cls-1" points="21.78 .94 21.79 .9 21.53 .86 21.52 .9 21.78 .94"/>
        <polygon class="cls-1" points="20.76 .78 20.77 .74 20.51 .7 20.5 .74 20.76 .78"/>
        <polygon class="cls-1" points="22.29 1.02 22.3 .98 22.04 .94 22.03 .98 22.29 1.02"/>
        <polygon class="cls-1" points="21.27 .86 21.28 .82 21.02 .78 21.01 .82 21.27 .86"/>
        <polygon class="cls-1" points="23.31 1.18 23.32 1.13 23.06 1.1 23.05 1.14 23.31 1.18"/>
        <polygon class="cls-1" points="22.8 1.1 22.81 1.06 22.55 1.02 22.54 1.06 22.8 1.1"/>
        <polygon class="cls-1" points="20.25 .7 20.26 .66 20 .62 19.99 .66 20.25 .7"/>
        <polygon class="cls-1" points="16.67 .15 16.69 .1 16.43 .06 16.42 .11 16.67 .15"/>
        <polygon class="cls-1" points="17.19 .23 17.2 .18 16.94 .14 16.93 .19 17.19 .23"/>
        <polygon class="cls-1" points="18.21 .38 18.22 .34 17.96 .3 17.95 .34 18.21 .38"/>
        <polygon class="cls-1" points="17.7 .3 17.71 .26 17.45 .22 17.44 .27 17.7 .3"/>
        <polygon class="cls-1" points="19.23 .54 19.24 .5 18.98 .46 18.97 .5 19.23 .54"/>
        <polygon class="cls-1" points="23.82 1.26 23.83 1.21 23.57 1.17 23.56 1.22 23.82 1.26"/>
        <polygon class="cls-1" points="19.74 .62 19.75 .58 19.49 .54 19.48 .58 19.74 .62"/>
        <polygon class="cls-1" points="28.92 2.05 28.93 2.01 28.68 1.97 28.67 2.01 28.92 2.05"/>
        <polygon class="cls-1" points="27.9 1.89 27.91 1.85 27.66 1.81 27.65 1.85 27.9 1.89"/>
        <polygon class="cls-1" points="28.41 1.97 28.42 1.93 28.17 1.89 28.16 1.93 28.41 1.97"/>
        <polygon class="cls-1" points="29.43 2.13 29.44 2.09 29.19 2.05 29.18 2.09 29.43 2.13"/>
        <polygon class="cls-1" points="30.45 2.29 30.46 2.25 30.21 2.21 30.2 2.25 30.45 2.29"/>
        <polygon class="cls-1" points="29.94 2.21 29.95 2.17 29.7 2.13 29.69 2.17 29.94 2.21"/>
        <polygon class="cls-1" points="25.35 1.5 25.36 1.45 25.11 1.41 25.1 1.46 25.35 1.5"/>
        <polygon class="cls-1" points="24.33 1.34 24.34 1.29 24.08 1.25 24.07 1.3 24.33 1.34"/>
        <polygon class="cls-1" points="24.84 1.42 24.85 1.37 24.6 1.33 24.58 1.38 24.84 1.42"/>
        <polygon class="cls-1" points="25.86 1.57 25.87 1.53 25.62 1.49 25.61 1.53 25.86 1.57"/>
        <polygon class="cls-1" points="27.39 1.81 27.4 1.77 27.15 1.73 27.14 1.77 27.39 1.81"/>
        <polygon class="cls-1" points="26.88 1.73 26.89 1.69 26.64 1.65 26.63 1.69 26.88 1.73"/>
        <polygon class="cls-1" points="26.37 1.65 26.38 1.61 26.13 1.57 26.12 1.61 26.37 1.65"/>
        <polygon class="cls-1" points="18.72 .46 18.73 .42 18.47 .38 18.46 .42 18.72 .46"/>
        <polygon class="cls-1" points="13.38 9.72 13.31 9.97 13.35 9.98 13.43 9.73 13.38 9.72"/>
        <polygon class="cls-1" points="12.93 11.25 12.85 11.51 12.9 11.51 12.97 11.26 12.93 11.25"/>
        <polygon class="cls-1" points="13.23 10.23 13.16 10.48 13.2 10.49 13.27 10.24 13.23 10.23"/>
        <polygon class="cls-1" points="13.08 10.74 13.01 10.99 13.05 11 13.12 10.75 13.08 10.74"/>
        <polygon class="cls-1" points="15.02 4.36 15.1 4.1 15.06 4.09 14.98 4.35 15.02 4.36"/>
        <polygon class="cls-1" points="12.78 11.76 12.7 12.02 12.74 12.03 12.82 11.77 12.78 11.76"/>
        <polygon class="cls-1" points="14.26 6.91 14.34 6.66 14.3 6.65 14.22 6.9 14.26 6.91"/>
        <polygon class="cls-1" points="14.41 6.4 14.49 6.15 14.45 6.14 14.37 6.39 14.41 6.4"/>
        <polygon class="cls-1" points="14.57 5.89 14.64 5.63 14.6 5.63 14.52 5.88 14.57 5.89"/>
        <polygon class="cls-1" points="14.87 4.87 14.95 4.61 14.9 4.6 14.83 4.86 14.87 4.87"/>
        <polygon class="cls-1" points="13.54 9.2 13.46 9.46 13.5 9.47 13.58 9.21 13.54 9.2"/>
        <polygon class="cls-1" points="14.72 5.38 14.79 5.12 14.75 5.11 14.68 5.37 14.72 5.38"/>
        <polygon class="cls-1" points="13.69 8.69 13.61 8.95 13.65 8.96 13.73 8.7 13.69 8.69"/>
        <polygon class="cls-1" points="13.84 8.18 13.76 8.44 13.81 8.45 13.88 8.19 13.84 8.18"/>
        <polygon class="cls-1" points="13.99 7.67 13.92 7.93 13.96 7.94 14.03 7.68 13.99 7.67"/>
        <polygon class="cls-1" points="14.14 7.16 14.07 7.41 14.11 7.42 14.19 7.17 14.14 7.16"/>
        <polygon class="cls-1" points="15.66 2.05 15.59 2.3 15.63 2.31 15.71 2.05 15.66 2.05"/>
        <polygon class="cls-1" points="15.48 2.82 15.55 2.57 15.51 2.56 15.44 2.81 15.48 2.82"/>
        <polygon class="cls-1" points="15.74 1.79 15.78 1.8 15.86 1.54 15.82 1.53 15.74 1.79"/>
        <polygon class="cls-1" points="16.12 .51 16.04 .77 16.09 .78 16.16 .52 16.12 .51"/>
        <polygon class="cls-1" points="15.36 3.07 15.28 3.32 15.33 3.33 15.4 3.08 15.36 3.07"/>
        <polygon class="cls-1" points="16.24 .26 16.31 0 16.27 0 16.2 .26 16.24 .26"/>
        <polygon class="cls-1" points="15.13 3.84 15.17 3.84 15.25 3.59 15.21 3.58 15.13 3.84"/>
        <polygon class="cls-1" points="15.93 1.29 16.01 1.03 15.97 1.02 15.89 1.28 15.93 1.29"/>
        <path class="cls-1" d="m26.65,27l.02-.13h0s0,0,0,0L30.79,2.41l-.04-.04L6.18,5.68h0s0,0,0,0l-.14.02h0s-.01.01-.01.01l-.02.14h0s0,0,0,0L1.89,30.3l.04.04,24.57-3.31h0s0,0,0,0l.14-.02h0s.01-.01.01-.01Zm-14.01-14.56h0s-.03,0-.03,0l.05-.16h-.04s-.04.14-.04.14c-.42-.44-.85-.87-1.27-1.31-1.72-1.78-3.45-3.56-5.16-5.33,1.17.19,2.31.37,3.5.56.75.12,1.53.24,2.32.36,1.95.32,3.81.62,5.61.91,1.41.22,2.87.46,4.33.69-1.55.68-3.11,1.39-4.62,2.07-1.52.68-3.1,1.39-4.65,2.08Zm-1.38-1.29c.42.44.85.87,1.27,1.31l-.15.04v.04s.17-.04.17-.04v.02s0,0,0,0c-.74,1.53-1.5,3.08-2.23,4.58-.73,1.49-1.48,3.03-2.22,4.55-.19-1.47-.37-2.93-.55-4.35-.23-1.81-.46-3.68-.72-5.64-.1-.8-.2-1.58-.29-2.33-.15-1.2-.29-2.34-.44-3.52,1.71,1.77,3.44,3.55,5.16,5.33Zm8.77,9.11h0s.03,0,.03,0l-.05.16h.04s.04-.14.04-.14c.42.44.85.87,1.27,1.31,1.72,1.78,3.45,3.56,5.16,5.33-1.17-.19-2.31-.37-3.5-.56-.75-.12-1.53-.24-2.32-.36-1.95-.32-3.81-.62-5.61-.91-1.41-.22-2.87-.46-4.33-.69,1.55-.68,3.11-1.39,4.62-2.07,1.52-.68,3.1-1.39,4.65-2.08Zm1.38,1.29c-.42-.44-.85-.87-1.27-1.31l.15-.04v-.04s-.17.04-.17.04v-.02s0,0,0,0c.74-1.53,1.5-3.08,2.23-4.58.73-1.49,1.48-3.03,2.22-4.55.19,1.47.37,2.93.55,4.35.23,1.81.46,3.68.72,5.64.1.8.2,1.58.29,2.33.15,1.2.29,2.34.44,3.52-1.71-1.77-3.44-3.55-5.16-5.33ZM6.19,5.72l24.56-3.31-4.11,24.43-.02.03c-.16-1.18-.29-2.32-.44-3.52-.09-.75-.19-1.53-.29-2.33-.26-1.96-.49-3.83-.72-5.64-.18-1.43-.37-2.92-.56-4.4h0s0,0,0,0h-.03c-.75,1.53-1.51,3.09-2.25,4.61-.74,1.51-1.5,3.06-2.24,4.6-1.25-1.29-2.49-2.57-3.73-3.85-1.24-1.28-2.48-2.56-3.72-3.85,1.56-.69,3.14-1.4,4.67-2.09,1.54-.69,3.12-1.4,4.69-2.1v-.03s-.02,0-.02,0h0c-1.48-.24-2.96-.48-4.38-.71-1.8-.29-3.67-.58-5.61-.91-.8-.13-1.57-.25-2.32-.36-1.2-.19-2.33-.36-3.5-.56l.03-.02Zm20.3,21.27L1.94,30.29,6.05,5.86l.02-.03c.16,1.18.29,2.32.44,3.52.09.75.19,1.53.29,2.33.26,1.96.49,3.83.72,5.64.18,1.43.37,2.92.56,4.4h0s0,0,0,0h.03c.75-1.53,1.51-3.09,2.25-4.61.74-1.51,1.5-3.06,2.24-4.6,1.25,1.29,2.49,2.57,3.73,3.85,1.24,1.28,2.48,2.56,3.72,3.85-1.56.69-3.14,1.4-4.67,2.09-1.54.69-3.12,1.4-4.69,2.1v.03s.02,0,.02,0h0c1.48.24,2.96.48,4.38.71,1.8.29,3.67.58,5.61.91.8.13,1.57.25,2.32.36,1.2.19,2.33.36,3.5.56l-.03.02Z"/>
        <polygon class="cls-1" points="31.78 18.48 31.92 18.25 31.88 18.23 31.74 18.46 31.78 18.48"/>
        <polygon class="cls-1" points="26.82 26.64 26.95 26.41 26.92 26.39 26.78 26.62 26.82 26.64"/>
        <polygon class="cls-1" points="31.23 19.38 31.37 19.16 31.33 19.14 31.19 19.36 31.23 19.38"/>
        <polygon class="cls-1" points="29.57 22.1 29.71 21.88 29.67 21.86 29.54 22.08 29.57 22.1"/>
        <polygon class="cls-1" points="29.85 21.65 29.99 21.42 29.95 21.4 29.81 21.63 29.85 21.65"/>
        <polygon class="cls-1" points="32.06 18.02 32.19 17.8 32.16 17.78 32.02 18 32.06 18.02"/>
        <polygon class="cls-1" points="32.33 17.57 32.47 17.34 32.43 17.32 32.3 17.55 32.33 17.57"/>
        <polygon class="cls-1" points="31.5 18.93 31.64 18.7 31.61 18.68 31.47 18.91 31.5 18.93"/>
        <polygon class="cls-1" points="30.68 20.29 30.81 20.06 30.78 20.04 30.64 20.27 30.68 20.29"/>
        <polygon class="cls-1" points="30.13 21.2 30.26 20.97 30.23 20.95 30.09 21.18 30.13 21.2"/>
        <polygon class="cls-1" points="30.95 19.84 31.09 19.61 31.05 19.59 30.92 19.82 30.95 19.84"/>
        <polygon class="cls-1" points="27.64 25.28 27.78 25.05 27.74 25.03 27.61 25.26 27.64 25.28"/>
        <polygon class="cls-1" points="27.92 24.82 28.06 24.6 28.02 24.58 27.88 24.8 27.92 24.82"/>
        <polygon class="cls-1" points="27.37 25.73 27.51 25.5 27.47 25.48 27.33 25.71 27.37 25.73"/>
        <polygon class="cls-1" points="27.09 26.18 27.23 25.96 27.19 25.94 27.05 26.16 27.09 26.18"/>
        <polygon class="cls-1" points="28.47 23.92 28.61 23.69 28.57 23.67 28.43 23.9 28.47 23.92"/>
        <polygon class="cls-1" points="29.3 22.56 29.44 22.33 29.4 22.31 29.26 22.54 29.3 22.56"/>
        <polygon class="cls-1" points="29.02 23.01 29.16 22.78 29.12 22.76 28.99 22.99 29.02 23.01"/>
        <polygon class="cls-1" points="28.75 23.46 28.88 23.24 28.85 23.22 28.71 23.44 28.75 23.46"/>
        <polygon class="cls-1" points="28.19 24.37 28.33 24.14 28.3 24.12 28.16 24.35 28.19 24.37"/>
        <polygon class="cls-1" points="30.4 20.74 30.54 20.52 30.5 20.5 30.36 20.72 30.4 20.74"/>
        <polygon class="cls-1" points="32.57 17.1 32.61 17.12 32.68 17 32.64 16.98 32.57 17.1"/>
        <polygon class="cls-1" points="32.13 12.7 32.1 12.45 32.06 12.46 32.09 12.71 32.13 12.7"/>
        <polygon class="cls-1" points="32.25 13.73 32.22 13.47 32.18 13.48 32.21 13.74 32.25 13.73"/>
        <polygon class="cls-1" points="32.19 13.22 32.16 12.96 32.12 12.97 32.15 13.23 32.19 13.22"/>
        <polygon class="cls-1" points="32.32 14.24 32.29 13.99 32.24 14 32.27 14.25 32.32 14.24"/>
        <polygon class="cls-1" points="32.57 16.29 32.54 16.04 32.49 16.05 32.52 16.3 32.57 16.29"/>
        <polygon class="cls-1" points="32.63 16.81 32.6 16.55 32.55 16.56 32.59 16.81 32.63 16.81"/>
        <polygon class="cls-1" points="32.07 12.19 32.04 11.94 31.99 11.94 32.02 12.2 32.07 12.19"/>
        <polygon class="cls-1" points="32.5 15.78 32.47 15.52 32.43 15.53 32.46 15.79 32.5 15.78"/>
        <polygon class="cls-1" points="32.44 15.27 32.41 15.01 32.37 15.02 32.4 15.28 32.44 15.27"/>
        <polygon class="cls-1" points="32.38 14.76 32.35 14.5 32.31 14.51 32.34 14.76 32.38 14.76"/>
        <polygon class="cls-1" points="31.69 9.12 31.66 8.86 31.62 8.87 31.65 9.13 31.69 9.12"/>
        <polygon class="cls-1" points="31.32 6.04 31.29 5.78 31.24 5.79 31.27 6.05 31.32 6.04"/>
        <polygon class="cls-1" points="31.25 5.53 31.22 5.27 31.18 5.28 31.21 5.54 31.25 5.53"/>
        <polygon class="cls-1" points="31.38 6.55 31.35 6.3 31.31 6.31 31.34 6.56 31.38 6.55"/>
        <polygon class="cls-1" points="31.19 5.02 31.16 4.76 31.12 4.77 31.15 5.02 31.19 5.02"/>
        <polygon class="cls-1" points="30.94 2.96 30.91 2.71 30.87 2.72 30.9 2.97 30.94 2.96"/>
        <polygon class="cls-1" points="31.44 7.07 31.41 6.81 31.37 6.82 31.4 7.07 31.44 7.07"/>
        <polygon class="cls-1" points="31 3.48 30.97 3.22 30.93 3.23 30.96 3.49 31 3.48"/>
        <polygon class="cls-1" points="31.13 4.5 31.1 4.25 31.06 4.25 31.09 4.51 31.13 4.5"/>
        <polygon class="cls-1" points="31.07 3.99 31.04 3.73 30.99 3.74 31.02 4 31.07 3.99"/>
        <polygon class="cls-1" points="31.5 7.58 31.47 7.32 31.43 7.33 31.46 7.59 31.5 7.58"/>
        <polygon class="cls-1" points="31.88 10.65 31.85 10.4 31.81 10.41 31.84 10.66 31.88 10.65"/>
        <polygon class="cls-1" points="31.75 9.63 31.72 9.37 31.68 9.38 31.71 9.64 31.75 9.63"/>
        <polygon class="cls-1" points="31.82 10.14 31.79 9.89 31.74 9.89 31.77 10.15 31.82 10.14"/>
        <polygon class="cls-1" points="31.94 11.17 31.91 10.91 31.87 10.92 31.9 11.18 31.94 11.17"/>
        <polygon class="cls-1" points="31.63 8.6 31.6 8.35 31.56 8.36 31.59 8.61 31.63 8.6"/>
        <polygon class="cls-1" points="31.57 8.09 31.54 7.83 31.49 7.84 31.52 8.1 31.57 8.09"/>
        <polygon class="cls-1" points="32 11.68 31.97 11.42 31.93 11.43 31.96 11.69 32 11.68"/>
        <polygon class="cls-1" points="32.43 17.03 32.69 16.97 32.68 16.92 32.42 16.99 32.43 17.03"/>
        <polygon class="cls-1" points="27.53 18.32 27.52 18.27 27.26 18.34 27.27 18.38 27.53 18.32"/>
        <polygon class="cls-1" points="21.58 19.83 21.59 19.87 21.85 19.8 21.84 19.76 21.58 19.83"/>
        <polygon class="cls-1" points="22.1 19.69 22.11 19.73 22.37 19.67 22.36 19.62 22.1 19.69"/>
        <polygon class="cls-1" points="21.07 19.96 21.08 20 21.33 19.94 21.33 19.89 21.07 19.96"/>
        <polygon class="cls-1" points="20.55 20.1 20.56 20.14 20.82 20.07 20.81 20.03 20.55 20.1"/>
        <polygon class="cls-1" points="22.62 19.56 22.62 19.6 22.88 19.53 22.87 19.49 22.62 19.56"/>
        <polygon class="cls-1" points="24.68 19.02 24.69 19.06 24.95 18.99 24.94 18.95 24.68 19.02"/>
        <polygon class="cls-1" points="25.98 18.72 25.97 18.68 25.71 18.75 25.72 18.79 25.98 18.72"/>
        <polygon class="cls-1" points="23.13 19.42 23.14 19.46 23.4 19.4 23.39 19.35 23.13 19.42"/>
        <polygon class="cls-1" points="25.2 18.88 25.2 18.92 25.46 18.86 25.45 18.81 25.2 18.88"/>
        <polygon class="cls-1" points="24.16 19.15 24.17 19.19 24.43 19.13 24.42 19.08 24.16 19.15"/>
        <polygon class="cls-1" points="23.65 19.29 23.66 19.33 23.91 19.26 23.91 19.22 23.65 19.29"/>
        <polygon class="cls-1" points="29.59 17.78 29.58 17.73 29.33 17.8 29.33 17.84 29.59 17.78"/>
        <polygon class="cls-1" points="29.85 17.71 30.11 17.64 30.1 17.6 29.84 17.67 29.85 17.71"/>
        <polygon class="cls-1" points="30.62 17.51 30.62 17.46 30.36 17.53 30.37 17.57 30.62 17.51"/>
        <polygon class="cls-1" points="31.4 17.3 31.66 17.24 31.65 17.19 31.39 17.26 31.4 17.3"/>
        <polygon class="cls-1" points="32.17 17.1 32.16 17.06 31.91 17.13 31.91 17.17 32.17 17.1"/>
        <polygon class="cls-1" points="31.14 17.37 31.13 17.33 30.87 17.4 30.88 17.44 31.14 17.37"/>
        <polygon class="cls-1" points="28.3 18.11 28.56 18.05 28.55 18 28.29 18.07 28.3 18.11"/>
        <polygon class="cls-1" points="27.01 18.45 27 18.41 26.74 18.48 26.75 18.52 27.01 18.45"/>
        <polygon class="cls-1" points="28.04 18.18 28.03 18.14 27.78 18.21 27.78 18.25 28.04 18.18"/>
        <polygon class="cls-1" points="26.49 18.59 26.49 18.54 26.23 18.61 26.24 18.65 26.49 18.59"/>
        <polygon class="cls-1" points="28.82 17.98 29.07 17.91 29.07 17.87 28.81 17.94 28.82 17.98"/>
        <polygon class="cls-1" points="23.71 28.56 23.73 28.59 23.96 28.46 23.95 28.43 23.71 28.56"/>
        <polygon class="cls-1" points="24.18 28.3 24.2 28.33 24.43 28.2 24.41 28.17 24.18 28.3"/>
        <polygon class="cls-1" points="23.25 28.82 23.27 28.85 23.5 28.72 23.48 28.69 23.25 28.82"/>
        <polygon class="cls-1" points="26.03 27.25 26.04 27.29 26.28 27.16 26.26 27.12 26.03 27.25"/>
        <polygon class="cls-1" points="24.64 28.03 24.66 28.07 24.89 27.94 24.87 27.9 24.64 28.03"/>
        <polygon class="cls-1" points="25.56 27.51 25.58 27.55 25.81 27.42 25.79 27.38 25.56 27.51"/>
        <polygon class="cls-1" points="22.79 29.08 22.81 29.12 23.04 28.98 23.02 28.95 22.79 29.08"/>
        <polygon class="cls-1" points="25.1 27.77 25.12 27.81 25.35 27.68 25.33 27.64 25.1 27.77"/>
        <polygon class="cls-1" points="20.02 30.64 20.04 30.68 20.27 30.55 20.25 30.51 20.02 30.64"/>
        <polygon class="cls-1" points="17.71 31.95 17.72 31.98 17.96 31.85 17.94 31.82 17.71 31.95"/>
        <polygon class="cls-1" points="18.17 31.68 18.19 31.72 18.42 31.59 18.4 31.55 18.17 31.68"/>
        <polygon class="cls-1" points="17.24 32.21 17.26 32.24 17.49 32.11 17.47 32.08 17.24 32.21"/>
        <polygon class="cls-1" points="18.63 31.42 18.65 31.46 18.88 31.33 18.86 31.29 18.63 31.42"/>
        <polygon class="cls-1" points="16.78 32.47 16.8 32.5 17.03 32.37 17.01 32.34 16.78 32.47"/>
        <polygon class="cls-1" points="20.94 30.12 20.96 30.16 21.19 30.03 21.17 29.99 20.94 30.12"/>
        <polygon class="cls-1" points="21.4 29.86 21.42 29.9 21.65 29.77 21.63 29.73 21.4 29.86"/>
        <polygon class="cls-1" points="19.55 30.9 19.57 30.94 19.8 30.81 19.79 30.77 19.55 30.9"/>
        <polygon class="cls-1" points="21.87 29.6 21.88 29.64 22.12 29.51 22.1 29.47 21.87 29.6"/>
        <polygon class="cls-1" points="22.33 29.34 22.35 29.38 22.58 29.25 22.56 29.21 22.33 29.34"/>
        <polygon class="cls-1" points="20.48 30.38 20.5 30.42 20.73 30.29 20.71 30.25 20.48 30.38"/>
        <polygon class="cls-1" points="19.09 31.16 19.11 31.2 19.34 31.07 19.32 31.03 19.09 31.16"/>
        <polygon class="cls-1" points="16.43 32.66 16.45 32.7 16.57 32.64 16.55 32.6 16.43 32.66"/>
        <polygon class="cls-1" points="10.91 31.77 10.9 31.81 11.15 31.85 11.16 31.81 10.91 31.77"/>
        <polygon class="cls-1" points="11.93 31.93 11.92 31.97 12.18 32.01 12.19 31.97 11.93 31.93"/>
        <polygon class="cls-1" points="10.4 31.69 10.39 31.73 10.64 31.77 10.65 31.73 10.4 31.69"/>
        <polygon class="cls-1" points="11.42 31.85 11.41 31.89 11.66 31.93 11.68 31.89 11.42 31.85"/>
        <polygon class="cls-1" points="9.38 31.53 9.37 31.58 9.62 31.61 9.63 31.57 9.38 31.53"/>
        <polygon class="cls-1" points="9.89 31.61 9.88 31.65 10.13 31.69 10.14 31.65 9.89 31.61"/>
        <polygon class="cls-1" points="12.44 32.01 12.43 32.05 12.69 32.09 12.7 32.05 12.44 32.01"/>
        <polygon class="cls-1" points="16.01 32.56 16 32.61 16.26 32.65 16.27 32.6 16.01 32.56"/>
        <polygon class="cls-1" points="15.5 32.48 15.49 32.53 15.75 32.57 15.76 32.52 15.5 32.48"/>
        <polygon class="cls-1" points="14.48 32.33 14.47 32.37 14.73 32.41 14.74 32.37 14.48 32.33"/>
        <polygon class="cls-1" points="14.99 32.41 14.98 32.45 15.24 32.49 15.25 32.44 14.99 32.41"/>
        <polygon class="cls-1" points="13.46 32.17 13.45 32.21 13.71 32.25 13.72 32.21 13.46 32.17"/>
        <polygon class="cls-1" points="8.87 31.45 8.86 31.5 9.11 31.54 9.12 31.49 8.87 31.45"/>
        <polygon class="cls-1" points="12.95 32.09 12.94 32.13 13.2 32.17 13.21 32.13 12.95 32.09"/>
        <polygon class="cls-1" points="3.76 30.66 3.75 30.7 4.01 30.74 4.02 30.7 3.76 30.66"/>
        <polygon class="cls-1" points="4.79 30.82 4.78 30.86 5.03 30.9 5.04 30.86 4.79 30.82"/>
        <polygon class="cls-1" points="4.28 30.74 4.27 30.78 4.52 30.82 4.53 30.78 4.28 30.74"/>
        <polygon class="cls-1" points="3.25 30.58 3.24 30.62 3.5 30.66 3.51 30.62 3.25 30.58"/>
        <polygon class="cls-1" points="2.23 30.42 2.22 30.46 2.48 30.5 2.49 30.46 2.23 30.42"/>
        <polygon class="cls-1" points="2.74 30.5 2.73 30.54 2.99 30.58 3 30.54 2.74 30.5"/>
        <polygon class="cls-1" points="7.34 31.21 7.33 31.26 7.58 31.3 7.59 31.25 7.34 31.21"/>
        <polygon class="cls-1" points="8.36 31.37 8.35 31.42 8.6 31.46 8.61 31.41 8.36 31.37"/>
        <polygon class="cls-1" points="7.85 31.29 7.84 31.34 8.09 31.38 8.1 31.33 7.85 31.29"/>
        <polygon class="cls-1" points="6.83 31.14 6.82 31.18 7.07 31.22 7.08 31.17 6.83 31.14"/>
        <polygon class="cls-1" points="5.3 30.9 5.29 30.94 5.54 30.98 5.55 30.94 5.3 30.9"/>
        <polygon class="cls-1" points="5.81 30.98 5.8 31.02 6.05 31.06 6.06 31.02 5.81 30.98"/>
        <polygon class="cls-1" points="6.32 31.06 6.31 31.1 6.56 31.14 6.57 31.1 6.32 31.06"/>
        <polygon class="cls-1" points="13.97 32.25 13.96 32.29 14.22 32.33 14.23 32.29 13.97 32.25"/>
        <polygon class="cls-1" points="19.3 22.99 19.38 22.74 19.34 22.73 19.26 22.98 19.3 22.99"/>
        <polygon class="cls-1" points="19.76 21.46 19.83 21.2 19.79 21.19 19.72 21.45 19.76 21.46"/>
        <polygon class="cls-1" points="19.45 22.48 19.53 22.23 19.49 22.22 19.41 22.47 19.45 22.48"/>
        <polygon class="cls-1" points="19.61 21.97 19.68 21.72 19.64 21.71 19.56 21.96 19.61 21.97"/>
        <polygon class="cls-1" points="17.67 28.35 17.59 28.61 17.63 28.62 17.71 28.36 17.67 28.35"/>
        <polygon class="cls-1" points="19.91 20.95 19.99 20.69 19.94 20.68 19.87 20.94 19.91 20.95"/>
        <polygon class="cls-1" points="18.43 25.8 18.35 26.05 18.39 26.06 18.47 25.81 18.43 25.8"/>
        <polygon class="cls-1" points="18.27 26.31 18.2 26.56 18.24 26.57 18.32 26.32 18.27 26.31"/>
        <polygon class="cls-1" points="18.12 26.82 18.05 27.08 18.09 27.08 18.16 26.83 18.12 26.82"/>
        <polygon class="cls-1" points="17.82 27.84 17.74 28.1 17.78 28.11 17.86 27.85 17.82 27.84"/>
        <polygon class="cls-1" points="19.15 23.51 19.23 23.25 19.18 23.24 19.11 23.5 19.15 23.51"/>
        <polygon class="cls-1" points="17.97 27.33 17.89 27.59 17.94 27.6 18.01 27.34 17.97 27.33"/>
        <polygon class="cls-1" points="19 24.02 19.07 23.76 19.03 23.75 18.96 24.01 19 24.02"/>
        <polygon class="cls-1" points="18.85 24.53 18.92 24.27 18.88 24.26 18.81 24.52 18.85 24.53"/>
        <polygon class="cls-1" points="18.69 25.04 18.77 24.78 18.73 24.77 18.65 25.03 18.69 25.04"/>
        <polygon class="cls-1" points="18.54 25.55 18.62 25.3 18.58 25.29 18.5 25.54 18.54 25.55"/>
        <polygon class="cls-1" points="17.02 30.66 17.1 30.41 17.06 30.4 16.98 30.66 17.02 30.66"/>
        <polygon class="cls-1" points="17.21 29.89 17.13 30.14 17.18 30.15 17.25 29.9 17.21 29.89"/>
        <polygon class="cls-1" points="16.95 30.92 16.91 30.91 16.83 31.17 16.87 31.18 16.95 30.92"/>
        <polygon class="cls-1" points="16.57 32.2 16.64 31.94 16.6 31.93 16.53 32.19 16.57 32.2"/>
        <polygon class="cls-1" points="17.33 29.64 17.4 29.39 17.36 29.38 17.29 29.63 17.33 29.64"/>
        <polygon class="cls-1" points="16.45 32.45 16.37 32.7 16.42 32.71 16.49 32.45 16.45 32.45"/>
        <polygon class="cls-1" points="17.56 28.87 17.51 28.87 17.44 29.12 17.48 29.13 17.56 28.87"/>
        <polygon class="cls-1" points="16.75 31.42 16.68 31.68 16.72 31.69 16.8 31.43 16.75 31.42"/>
        <polygon class="cls-1" points=".91 14.23 .77 14.46 .81 14.48 .94 14.25 .91 14.23"/>
        <polygon class="cls-1" points="5.87 6.07 5.73 6.3 5.77 6.32 5.91 6.09 5.87 6.07"/>
        <polygon class="cls-1" points="1.46 13.33 1.32 13.55 1.36 13.57 1.5 13.35 1.46 13.33"/>
        <polygon class="cls-1" points="3.11 10.61 2.98 10.83 3.01 10.85 3.15 10.63 3.11 10.61"/>
        <polygon class="cls-1" points="2.84 11.06 2.7 11.29 2.74 11.31 2.88 11.08 2.84 11.06"/>
        <polygon class="cls-1" points=".63 14.69 .49 14.91 .53 14.93 .67 14.71 .63 14.69"/>
        <polygon class="cls-1" points=".36 15.14 .22 15.37 .25 15.39 .39 15.16 .36 15.14"/>
        <polygon class="cls-1" points="1.18 13.78 1.05 14.01 1.08 14.03 1.22 13.8 1.18 13.78"/>
        <polygon class="cls-1" points="2.01 12.42 1.87 12.65 1.91 12.67 2.05 12.44 2.01 12.42"/>
        <polygon class="cls-1" points="2.56 11.51 2.42 11.74 2.46 11.76 2.6 11.53 2.56 11.51"/>
        <polygon class="cls-1" points="1.73 12.87 1.6 13.1 1.63 13.12 1.77 12.89 1.73 12.87"/>
        <polygon class="cls-1" points="5.04 7.43 4.91 7.66 4.94 7.68 5.08 7.45 5.04 7.43"/>
        <polygon class="cls-1" points="4.77 7.89 4.63 8.11 4.67 8.13 4.81 7.91 4.77 7.89"/>
        <polygon class="cls-1" points="5.32 6.98 5.18 7.21 5.22 7.23 5.36 7 5.32 6.98"/>
        <polygon class="cls-1" points="5.6 6.53 5.46 6.75 5.5 6.77 5.63 6.55 5.6 6.53"/>
        <polygon class="cls-1" points="4.22 8.79 4.08 9.02 4.12 9.04 4.25 8.81 4.22 8.79"/>
        <polygon class="cls-1" points="3.39 10.15 3.25 10.38 3.29 10.4 3.43 10.17 3.39 10.15"/>
        <polygon class="cls-1" points="3.67 9.7 3.53 9.93 3.56 9.95 3.7 9.72 3.67 9.7"/>
        <polygon class="cls-1" points="3.94 9.25 3.8 9.47 3.84 9.49 3.98 9.27 3.94 9.25"/>
        <polygon class="cls-1" points="4.49 8.34 4.36 8.57 4.39 8.59 4.53 8.36 4.49 8.34"/>
        <polygon class="cls-1" points="2.29 11.97 2.15 12.19 2.19 12.21 2.32 11.99 2.29 11.97"/>
        <polygon class="cls-1" points=".12 15.61 .08 15.59 0 15.71 .05 15.73 .12 15.61"/>
        <polygon class="cls-1" points=".56 20 .59 20.26 .63 20.25 .6 20 .56 20"/>
        <polygon class="cls-1" points=".43 18.98 .46 19.24 .51 19.23 .48 18.97 .43 18.98"/>
        <polygon class="cls-1" points=".5 19.49 .53 19.75 .57 19.74 .54 19.48 .5 19.49"/>
        <polygon class="cls-1" points=".37 18.47 .4 18.72 .45 18.71 .41 18.46 .37 18.47"/>
        <polygon class="cls-1" points=".12 16.42 .15 16.67 .2 16.66 .16 16.41 .12 16.42"/>
        <polygon class="cls-1" points=".06 15.9 .09 16.16 .13 16.15 .1 15.89 .06 15.9"/>
        <polygon class="cls-1" points=".62 20.52 .65 20.77 .7 20.77 .66 20.51 .62 20.52"/>
        <polygon class="cls-1" points=".18 16.93 .21 17.19 .26 17.18 .23 16.92 .18 16.93"/>
        <polygon class="cls-1" points=".25 17.44 .28 17.7 .32 17.69 .29 17.43 .25 17.44"/>
        <polygon class="cls-1" points=".31 17.95 .34 18.21 .38 18.2 .35 17.95 .31 17.95"/>
        <polygon class="cls-1" points="1 23.59 1.03 23.85 1.07 23.84 1.04 23.58 1 23.59"/>
        <polygon class="cls-1" points="1.37 26.67 1.4 26.93 1.44 26.92 1.41 26.66 1.37 26.67"/>
        <polygon class="cls-1" points="1.43 27.18 1.46 27.44 1.51 27.43 1.48 27.17 1.43 27.18"/>
        <polygon class="cls-1" points="1.31 26.16 1.34 26.41 1.38 26.4 1.35 26.15 1.31 26.16"/>
        <polygon class="cls-1" points="1.5 27.69 1.53 27.95 1.57 27.94 1.54 27.69 1.5 27.69"/>
        <polygon class="cls-1" points="1.75 29.75 1.78 30 1.82 29.99 1.79 29.74 1.75 29.75"/>
        <polygon class="cls-1" points="1.25 25.64 1.28 25.9 1.32 25.89 1.29 25.64 1.25 25.64"/>
        <polygon class="cls-1" points="1.68 29.23 1.71 29.49 1.76 29.48 1.73 29.22 1.68 29.23"/>
        <polygon class="cls-1" points="1.56 28.21 1.59 28.46 1.63 28.46 1.6 28.2 1.56 28.21"/>
        <polygon class="cls-1" points="1.62 28.72 1.65 28.98 1.69 28.97 1.66 28.71 1.62 28.72"/>
        <polygon class="cls-1" points="1.18 25.13 1.21 25.39 1.26 25.38 1.23 25.12 1.18 25.13"/>
        <polygon class="cls-1" points=".81 22.06 .84 22.31 .88 22.3 .85 22.05 .81 22.06"/>
        <polygon class="cls-1" points=".93 23.08 .96 23.34 1.01 23.33 .98 23.07 .93 23.08"/>
        <polygon class="cls-1" points=".87 22.57 .9 22.82 .95 22.82 .91 22.56 .87 22.57"/>
        <polygon class="cls-1" points=".75 21.54 .78 21.8 .82 21.79 .79 21.53 .75 21.54"/>
        <polygon class="cls-1" points="1.06 24.11 1.09 24.36 1.13 24.35 1.1 24.1 1.06 24.11"/>
        <polygon class="cls-1" points="1.12 24.62 1.15 24.88 1.2 24.87 1.16 24.61 1.12 24.62"/>
        <polygon class="cls-1" points=".68 21.03 .71 21.29 .76 21.28 .73 21.02 .68 21.03"/>
        <polygon class="cls-1" points=".26 15.68 0 15.74 0 15.79 .27 15.72 .26 15.68"/>
        <polygon class="cls-1" points="5.16 14.39 5.17 14.44 5.43 14.37 5.42 14.33 5.16 14.39"/>
        <polygon class="cls-1" points="11.1 12.88 11.1 12.84 10.84 12.91 10.85 12.95 11.1 12.88"/>
        <polygon class="cls-1" points="10.59 13.02 10.58 12.98 10.32 13.04 10.33 13.09 10.59 13.02"/>
        <polygon class="cls-1" points="11.62 12.75 11.61 12.71 11.35 12.77 11.36 12.82 11.62 12.75"/>
        <polygon class="cls-1" points="12.14 12.61 12.13 12.57 11.87 12.64 11.88 12.68 12.14 12.61"/>
        <polygon class="cls-1" points="10.07 13.15 10.06 13.11 9.81 13.18 9.81 13.22 10.07 13.15"/>
        <polygon class="cls-1" points="8.01 13.69 8 13.65 7.74 13.72 7.75 13.76 8.01 13.69"/>
        <polygon class="cls-1" points="6.71 13.99 6.72 14.03 6.98 13.96 6.97 13.92 6.71 13.99"/>
        <polygon class="cls-1" points="9.56 13.29 9.55 13.25 9.29 13.31 9.3 13.36 9.56 13.29"/>
        <polygon class="cls-1" points="7.49 13.83 7.48 13.79 7.23 13.85 7.23 13.9 7.49 13.83"/>
        <polygon class="cls-1" points="8.52 13.56 8.52 13.52 8.26 13.58 8.27 13.63 8.52 13.56"/>
        <polygon class="cls-1" points="9.04 13.42 9.03 13.38 8.77 13.45 8.78 13.49 9.04 13.42"/>
        <polygon class="cls-1" points="3.1 14.93 3.1 14.98 3.36 14.91 3.35 14.87 3.1 14.93"/>
        <polygon class="cls-1" points="2.84 15 2.58 15.07 2.59 15.11 2.85 15.04 2.84 15"/>
        <polygon class="cls-1" points="2.06 15.2 2.07 15.25 2.33 15.18 2.32 15.14 2.06 15.2"/>
        <polygon class="cls-1" points="1.29 15.41 1.03 15.47 1.04 15.52 1.3 15.45 1.29 15.41"/>
        <polygon class="cls-1" points=".52 15.61 .52 15.65 .78 15.58 .77 15.54 .52 15.61"/>
        <polygon class="cls-1" points="1.55 15.34 1.56 15.38 1.81 15.31 1.81 15.27 1.55 15.34"/>
        <polygon class="cls-1" points="4.39 14.6 4.13 14.66 4.14 14.71 4.39 14.64 4.39 14.6"/>
        <polygon class="cls-1" points="5.68 14.26 5.68 14.3 5.94 14.23 5.94 14.19 5.68 14.26"/>
        <polygon class="cls-1" points="4.64 14.53 4.65 14.57 4.91 14.5 4.9 14.46 4.64 14.53"/>
        <polygon class="cls-1" points="6.19 14.12 6.2 14.17 6.46 14.1 6.45 14.06 6.19 14.12"/>
        <polygon class="cls-1" points="3.87 14.73 3.61 14.8 3.62 14.84 3.88 14.77 3.87 14.73"/>
      </g>
    </g>
  </g>
</svg>