<?xml version="1.0" encoding="UTF-8"?>
<svg id="_レイヤー_2" data-name="レイヤー 2" xmlns="http://www.w3.org/2000/svg" viewBox="0 0 55.82 52.67">
  <defs>
    <style>
      .cls-1 {
        fill: #c37c0a;
      }
    </style>
  </defs>
  <g id="logo">
    <g id="_饑7" data-name="ﾑ饑7">
      <g>
        <rect class="cls-1" x="20.46" y="3.02" width=".42" height=".07" transform="translate(-.16 4.72) rotate(-12.97)"/>
        <rect class="cls-1" x="19.63" y="3.21" width=".42" height=".07" transform="translate(-.22 4.52) rotate(-12.91)"/>
        <rect class="cls-1" x="21.28" y="2.83" width=".42" height=".07" transform="translate(-.1 4.87) rotate(-12.91)"/>
        <rect class="cls-1" x="16.35" y="3.96" width=".42" height=".07" transform="translate(-.47 3.82) rotate(-12.98)"/>
        <rect class="cls-1" x="18.81" y="3.39" width=".42" height=".07" transform="translate(-.29 4.34) rotate(-12.91)"/>
        <rect class="cls-1" x="17.17" y="3.77" width=".42" height=".07" transform="translate(-.41 3.98) rotate(-12.91)"/>
        <rect class="cls-1" x="22.1" y="2.64" width=".42" height=".07" transform="translate(-.03 5.08) rotate(-12.97)"/>
        <rect class="cls-1" x="17.99" y="3.58" width=".42" height=".07" transform="translate(-.35 4.16) rotate(-12.91)"/>
        <rect class="cls-1" x="27.03" y="1.51" width=".42" height=".07" transform="translate(.34 6.12) rotate(-12.9)"/>
        <rect class="cls-1" x="31.14" y=".57" width=".42" height=".07" transform="translate(.66 7.02) rotate(-12.91)"/>
        <rect class="cls-1" x="30.32" y=".75" width=".42" height=".07" transform="translate(.6 6.87) rotate(-12.97)"/>
        <rect class="cls-1" x="31.96" y=".38" width=".42" height=".07" transform="translate(.72 7.2) rotate(-12.91)"/>
        <rect class="cls-1" x="29.49" y=".94" width=".42" height=".07" transform="translate(.53 6.66) rotate(-12.91)"/>
        <rect class="cls-1" x="32.78" y=".19" width=".42" height=".07" transform="translate(.78 7.38) rotate(-12.91)"/>
        <rect class="cls-1" x="25.39" y="1.89" width=".42" height=".07" transform="translate(.22 5.77) rotate(-12.91)"/>
        <rect class="cls-1" x="24.56" y="2.07" width=".42" height=".07" transform="translate(.16 5.61) rotate(-12.97)"/>
        <rect class="cls-1" x="27.85" y="1.32" width=".42" height=".07" transform="translate(.41 6.31) rotate(-12.91)"/>
        <rect class="cls-1" x="23.74" y="2.26" width=".42" height=".07" transform="translate(.09 5.42) rotate(-12.94)"/>
        <rect class="cls-1" x="22.92" y="2.45" width=".42" height=".07" transform="translate(.03 5.23) rotate(-12.91)"/>
        <rect class="cls-1" x="26.21" y="1.7" width=".42" height=".07" transform="translate(.28 5.97) rotate(-12.97)"/>
        <rect class="cls-1" x="28.67" y="1.13" width=".42" height=".07" transform="translate(.47 6.48) rotate(-12.91)"/>
        <rect class="cls-1" x="33.61" y=".02" width=".22" height=".07" transform="translate(.84 7.54) rotate(-12.91)"/>
        <rect class="cls-1" x="41.94" y="3.92" width=".07" height=".43" transform="translate(19.64 39.92) rotate(-63.65)"/>
        <rect class="cls-1" x="40.4" y="3.16" width=".07" height=".43" transform="translate(19.43 38.09) rotate(-63.59)"/>
        <rect class="cls-1" x="42.71" y="4.3" width=".07" height=".43" transform="translate(19.72 40.82) rotate(-63.64)"/>
        <rect class="cls-1" x="41.17" y="3.54" width=".07" height=".43" transform="translate(19.55 39.01) rotate(-63.64)"/>
        <rect class="cls-1" x="44.25" y="5.07" width=".07" height=".43" transform="translate(19.89 42.62) rotate(-63.64)"/>
        <rect class="cls-1" x="43.48" y="4.68" width=".07" height=".43" transform="translate(19.81 41.72) rotate(-63.64)"/>
        <rect class="cls-1" x="39.63" y="2.77" width=".07" height=".43" transform="translate(19.38 37.2) rotate(-63.64)"/>
        <rect class="cls-1" x="34.23" y=".1" width=".07" height=".43" transform="translate(18.76 30.87) rotate(-63.61)"/>
        <rect class="cls-1" x="35" y=".48" width=".07" height=".43" transform="translate(18.83 31.77) rotate(-63.59)"/>
        <rect class="cls-1" x="36.55" y="1.24" width=".07" height=".43" transform="translate(19.02 33.58) rotate(-63.61)"/>
        <rect class="cls-1" x="35.78" y=".86" width=".07" height=".43" transform="translate(18.92 32.67) rotate(-63.59)"/>
        <rect class="cls-1" x="38.09" y="2.01" width=".07" height=".43" transform="translate(19.2 35.4) rotate(-63.64)"/>
        <rect class="cls-1" x="45.03" y="5.45" width=".07" height=".43" transform="translate(19.98 43.52) rotate(-63.64)"/>
        <rect class="cls-1" x="38.86" y="2.39" width=".07" height=".43" transform="translate(19.27 36.29) rotate(-63.6)"/>
        <rect class="cls-1" x="52.73" y="9.27" width=".07" height=".43" transform="translate(20.84 52.56) rotate(-63.64)"/>
        <rect class="cls-1" x="51.19" y="8.51" width=".07" height=".43" transform="translate(20.67 50.75) rotate(-63.64)"/>
        <rect class="cls-1" x="51.96" y="8.89" width=".07" height=".43" transform="translate(20.72 51.63) rotate(-63.6)"/>
        <rect class="cls-1" x="53.51" y="9.65" width=".07" height=".43" transform="translate(20.94 53.47) rotate(-63.66)"/>
        <rect class="cls-1" x="55.05" y="10.42" width=".07" height=".43" transform="translate(21.06 55.24) rotate(-63.59)"/>
        <rect class="cls-1" x="54.28" y="10.04" width=".07" height=".43" transform="translate(21.01 54.36) rotate(-63.64)"/>
        <rect class="cls-1" x="47.34" y="6.6" width=".07" height=".43" transform="translate(20.18 46.2) rotate(-63.56)"/>
        <rect class="cls-1" x="45.8" y="5.83" width=".07" height=".43" transform="translate(20.03 44.41) rotate(-63.59)"/>
        <rect class="cls-1" x="46.57" y="6.21" width=".07" height=".43" transform="translate(20.15 45.33) rotate(-63.64)"/>
        <rect class="cls-1" x="48.11" y="6.98" width=".07" height=".43" transform="translate(20.32 47.14) rotate(-63.64)"/>
        <rect class="cls-1" x="50.42" y="8.12" width=".07" height=".43" transform="translate(20.58 49.85) rotate(-63.64)"/>
        <rect class="cls-1" x="49.65" y="7.74" width=".07" height=".43" transform="translate(20.49 48.94) rotate(-63.64)"/>
        <rect class="cls-1" x="48.88" y="7.36" width=".07" height=".43" transform="translate(20.4 48.04) rotate(-63.63)"/>
        <rect class="cls-1" x="37.32" y="1.63" width=".07" height=".43" transform="translate(19.12 34.49) rotate(-63.64)"/>
        <rect class="cls-1" x="25.44" y="14.35" width=".43" height=".07" transform="translate(.41 29.49) rotate(-60.17)"/>
        <rect class="cls-1" x="24.16" y="16.59" width=".43" height=".07" transform="translate(-2.18 29.5) rotate(-60.16)"/>
        <rect class="cls-1" x="25.02" y="15.1" width=".43" height=".07" transform="translate(-.45 29.49) rotate(-60.17)"/>
        <rect class="cls-1" x="24.59" y="15.85" width=".43" height=".07" transform="translate(-1.31 29.5) rotate(-60.17)"/>
        <rect class="cls-1" x="30.15" y="6.14" width=".43" height=".07" transform="translate(9.9 29.45) rotate(-60.16)"/>
        <rect class="cls-1" x="23.73" y="17.34" width=".43" height=".07" transform="translate(-3.04 29.51) rotate(-60.17)"/>
        <rect class="cls-1" x="28.01" y="9.88" width=".43" height=".07" transform="translate(5.59 29.47) rotate(-60.16)"/>
        <rect class="cls-1" x="28.44" y="9.13" width=".43" height=".07" transform="translate(6.45 29.46) rotate(-60.17)"/>
        <rect class="cls-1" x="28.87" y="8.38" width=".43" height=".07" transform="translate(7.31 29.46) rotate(-60.17)"/>
        <rect class="cls-1" x="29.72" y="6.89" width=".43" height=".07" transform="translate(9.04 29.45) rotate(-60.16)"/>
        <rect class="cls-1" x="25.87" y="13.61" width=".43" height=".07" transform="translate(1.27 29.48) rotate(-60.16)"/>
        <rect class="cls-1" x="29.3" y="7.64" width=".43" height=".07" transform="translate(8.17 29.45) rotate(-60.16)"/>
        <rect class="cls-1" x="26.3" y="12.86" width=".43" height=".07" transform="translate(2.14 29.49) rotate(-60.17)"/>
        <rect class="cls-1" x="26.73" y="12.12" width=".43" height=".07" transform="translate(3 29.48) rotate(-60.16)"/>
        <rect class="cls-1" x="27.16" y="11.37" width=".43" height=".07" transform="translate(3.86 29.47) rotate(-60.16)"/>
        <rect class="cls-1" x="27.58" y="10.62" width=".43" height=".07" transform="translate(4.72 29.47) rotate(-60.17)"/>
        <rect class="cls-1" x="31.86" y="3.16" width=".43" height=".07" transform="translate(13.35 29.43) rotate(-60.16)"/>
        <rect class="cls-1" x="31.44" y="3.9" width=".43" height=".07" transform="translate(12.49 29.44) rotate(-60.16)"/>
        <rect class="cls-1" x="32.29" y="2.41" width=".43" height=".07" transform="translate(14.2 29.42) rotate(-60.13)"/>
        <rect class="cls-1" x="33.15" y=".92" width=".43" height=".07" transform="translate(15.93 29.42) rotate(-60.16)"/>
        <rect class="cls-1" x="31.01" y="4.65" width=".43" height=".07" transform="translate(11.63 29.44) rotate(-60.17)"/>
        <rect class="cls-1" x="33.58" y=".17" width=".43" height=".07" transform="translate(16.8 29.42) rotate(-60.17)"/>
        <rect class="cls-1" x="30.58" y="5.4" width=".43" height=".07" transform="translate(10.75 29.43) rotate(-60.13)"/>
        <rect class="cls-1" x="32.72" y="1.67" width=".43" height=".07" transform="translate(15.07 29.42) rotate(-60.16)"/>
        <path class="cls-1" d="m40.13,48.6l.09-.21h0s0,0,0,0l15.53-37.26-.05-.09L15.93,4.1h0s0,0,0,0l-.22-.04v.02s-.02,0-.02,0l-.09.21h0s0,0,0,0L.08,41.54l.05.09,39.76,6.94h0s0,0,0,0l.22.04v-.02s.02,0,.02,0Zm-16.57-30.4h0s-.04-.01-.04-.01l.13-.23-.06-.04-.13.22c-.5-.91-1-1.83-1.5-2.74-2.04-3.72-4.08-7.45-6.12-11.15,1.77.9,3.48,1.75,5.29,2.64,1.13.56,2.3,1.14,3.51,1.74,2.93,1.49,5.74,2.9,8.46,4.26,2.13,1.06,4.33,2.16,6.53,3.28-2.68.33-5.39.68-8.02,1.02-2.64.34-5.37.69-8.06,1.02Zm-1.68-2.76c.5.91,1,1.83,1.5,2.74h-.25s0,.06,0,.06h.27s-.02.05-.02.05h0c-1.73,2.1-3.49,4.21-5.2,6.25-1.7,2.03-3.45,4.13-5.17,6.21.25-2.46.5-4.9.75-7.27.32-3.02.64-6.15.96-9.43.14-1.34.28-2.64.41-3.89.22-2.01.42-3.9.62-5.88,2.03,3.7,4.07,7.43,6.11,11.15Zm10.38,19.03h0s.04.01.04.01l-.13.23.06.04.13-.22c.5.91,1,1.83,1.5,2.74,2.04,3.72,4.09,7.45,6.12,11.15-1.77-.9-3.48-1.75-5.29-2.64-1.13-.56-2.3-1.14-3.51-1.74-2.93-1.49-5.74-2.9-8.46-4.26-2.13-1.06-4.33-2.16-6.53-3.28,2.68-.33,5.39-.68,8.02-1.02,2.64-.34,5.37-.69,8.06-1.02Zm1.68,2.76c-.5-.91-1-1.83-1.5-2.74h.25s0-.06,0-.06h-.27s.02-.05.02-.05h0c1.73-2.1,3.49-4.21,5.2-6.25,1.7-2.03,3.45-4.13,5.17-6.21-.25,2.46-.5,4.9-.75,7.27-.32,3.02-.64,6.15-.96,9.43-.14,1.34-.28,2.64-.41,3.89-.22,2.01-.42,3.9-.62,5.88-2.03-3.7-4.07-7.43-6.11-11.15ZM15.94,4.18l39.74,6.94-15.52,37.24-.04.04c.19-1.97.4-3.87.62-5.88.14-1.26.28-2.56.41-3.89.32-3.27.65-6.4.96-9.43.25-2.4.51-4.87.76-7.36h0s0,0,0-.01l-.05-.04c-1.74,2.11-3.52,4.24-5.24,6.3-1.71,2.05-3.48,4.18-5.22,6.27-1.48-2.69-2.95-5.38-4.41-8.05-1.46-2.67-2.94-5.36-4.41-8.05,2.7-.33,5.44-.68,8.09-1.02,2.66-.34,5.42-.7,8.14-1.03v-.06s-.02,0-.02,0h0c-2.23-1.13-4.46-2.24-6.61-3.32-2.72-1.36-5.53-2.77-8.46-4.26-1.2-.6-2.37-1.18-3.51-1.74-1.81-.9-3.52-1.75-5.29-2.64h.06Zm23.95,44.32L.15,41.56,15.67,4.32l.04-.04c-.19,1.97-.4,3.87-.62,5.88-.14,1.26-.28,2.56-.41,3.89-.32,3.27-.65,6.4-.96,9.43-.25,2.4-.51,4.87-.76,7.36h0s0,0,0,.01l.05.04c1.74-2.11,3.52-4.24,5.24-6.3,1.71-2.05,3.48-4.18,5.22-6.27,1.48,2.69,2.95,5.38,4.41,8.05,1.46,2.67,2.94,5.36,4.41,8.05-2.7.33-5.44.68-8.09,1.02-2.66.34-5.42.7-8.14,1.03v.06s.02,0,.02,0h0c2.23,1.13,4.46,2.24,6.61,3.32,2.72,1.36,5.53,2.77,8.46,4.26,1.2.6,2.37,1.18,3.51,1.74,1.81.9,3.52,1.75,5.29,2.64h-.06Z"/>
        <rect class="cls-1" x="51.25" y="37.24" width=".42" height=".07" transform="translate(-11.37 46.8) rotate(-44.54)"/>
        <rect class="cls-1" x="40.43" y="47.89" width=".42" height=".07" transform="translate(-21.94 42.27) rotate(-44.54)"/>
        <rect class="cls-1" x="50.04" y="38.42" width=".42" height=".07" transform="translate(-12.54 46.3) rotate(-44.54)"/>
        <rect class="cls-1" x="46.44" y="41.97" width=".42" height=".07" transform="translate(-16.07 44.79) rotate(-44.54)"/>
        <rect class="cls-1" x="47.04" y="41.38" width=".42" height=".07" transform="translate(-15.48 45.04) rotate(-44.54)"/>
        <rect class="cls-1" x="51.85" y="36.65" width=".42" height=".07" transform="translate(-10.78 47.06) rotate(-44.55)"/>
        <rect class="cls-1" x="52.45" y="36.06" width=".42" height=".07" transform="translate(-10.19 47.3) rotate(-44.54)"/>
        <rect class="cls-1" x="50.65" y="37.83" width=".42" height=".07" transform="translate(-11.95 46.55) rotate(-44.55)"/>
        <rect class="cls-1" x="48.84" y="39.61" width=".42" height=".07" transform="translate(-13.72 45.8) rotate(-44.55)"/>
        <rect class="cls-1" x="47.64" y="40.79" width=".42" height=".07" transform="translate(-14.89 45.29) rotate(-44.54)"/>
        <rect class="cls-1" x="49.44" y="39.02" width=".42" height=".07" transform="translate(-13.13 46.05) rotate(-44.55)"/>
        <rect class="cls-1" x="42.23" y="46.11" width=".42" height=".07" transform="translate(-20.18 43.03) rotate(-44.54)"/>
        <rect class="cls-1" x="42.83" y="45.52" width=".42" height=".07" transform="translate(-19.59 43.28) rotate(-44.55)"/>
        <rect class="cls-1" x="41.63" y="46.7" width=".42" height=".07" transform="translate(-20.76 42.77) rotate(-44.54)"/>
        <rect class="cls-1" x="41.03" y="47.29" width=".42" height=".07" transform="translate(-21.35 42.52) rotate(-44.54)"/>
        <rect class="cls-1" x="44.04" y="44.34" width=".42" height=".07" transform="translate(-18.41 43.78) rotate(-44.54)"/>
        <rect class="cls-1" x="45.84" y="42.56" width=".42" height=".07" transform="translate(-16.65 44.55) rotate(-44.55)"/>
        <rect class="cls-1" x="45.24" y="43.16" width=".42" height=".07" transform="translate(-17.24 44.28) rotate(-44.54)"/>
        <rect class="cls-1" x="44.64" y="43.75" width=".42" height=".07" transform="translate(-17.83 44.03) rotate(-44.54)"/>
        <rect class="cls-1" x="43.43" y="44.93" width=".42" height=".07" transform="translate(-19 43.53) rotate(-44.54)"/>
        <rect class="cls-1" x="48.24" y="40.2" width=".42" height=".07" transform="translate(-14.3 45.54) rotate(-44.54)"/>
        <rect class="cls-1" x="53.08" y="35.54" width=".22" height=".07" transform="translate(-9.68 47.5) rotate(-44.52)"/>
        <rect class="cls-1" x="53.79" y="28.09" width=".43" height=".07" transform="translate(20.25 78.81) rotate(-83.84)"/>
        <rect class="cls-1" x="53.61" y="29.8" width=".43" height=".07" transform="translate(18.38 80.15) rotate(-83.84)"/>
        <rect class="cls-1" x="53.7" y="28.95" width=".43" height=".07" transform="translate(19.32 79.48) rotate(-83.84)"/>
        <rect class="cls-1" x="53.52" y="30.66" width=".43" height=".07" transform="translate(17.45 80.82) rotate(-83.84)"/>
        <rect class="cls-1" x="53.15" y="34.08" width=".43" height=".07" transform="translate(13.72 83.51) rotate(-83.84)"/>
        <rect class="cls-1" x="53.06" y="34.94" width=".43" height=".07" transform="translate(12.79 84.18) rotate(-83.84)"/>
        <rect class="cls-1" x="53.89" y="27.24" width=".43" height=".07" transform="translate(21.18 78.14) rotate(-83.84)"/>
        <rect class="cls-1" x="53.24" y="33.22" width=".43" height=".07" transform="translate(14.65 82.84) rotate(-83.84)"/>
        <rect class="cls-1" x="53.33" y="32.37" width=".43" height=".07" transform="translate(15.6 82.17) rotate(-83.85)"/>
        <rect class="cls-1" x="53.43" y="31.51" width=".43" height=".07" transform="translate(16.52 81.5) rotate(-83.84)"/>
        <rect class="cls-1" x="54.44" y="22.1" width=".43" height=".07" transform="translate(26.78 74.1) rotate(-83.84)"/>
        <rect class="cls-1" x="54.99" y="16.97" width=".43" height=".07" transform="translate(32.38 70.07) rotate(-83.84)"/>
        <rect class="cls-1" x="55.09" y="16.11" width=".43" height=".07" transform="translate(33.31 69.4) rotate(-83.84)"/>
        <rect class="cls-1" x="54.9" y="17.83" width=".43" height=".07" transform="translate(31.44 70.74) rotate(-83.84)"/>
        <rect class="cls-1" x="55.18" y="15.26" width=".43" height=".07" transform="translate(34.25 68.73) rotate(-83.85)"/>
        <rect class="cls-1" x="55.55" y="11.84" width=".43" height=".07" transform="translate(37.98 66.04) rotate(-83.85)"/>
        <rect class="cls-1" x="54.81" y="18.68" width=".43" height=".07" transform="translate(30.51 71.42) rotate(-83.84)"/>
        <rect class="cls-1" x="55.46" y="12.69" width=".43" height=".07" transform="translate(37.04 66.71) rotate(-83.84)"/>
        <rect class="cls-1" x="55.27" y="14.4" width=".43" height=".07" transform="translate(35.18 68.06) rotate(-83.84)"/>
        <rect class="cls-1" x="55.36" y="13.55" width=".43" height=".07" transform="translate(36.11 67.38) rotate(-83.84)"/>
        <rect class="cls-1" x="54.72" y="19.54" width=".43" height=".07" transform="translate(29.58 72.09) rotate(-83.84)"/>
        <rect class="cls-1" x="54.16" y="24.67" width=".43" height=".07" transform="translate(23.98 76.12) rotate(-83.84)"/>
        <rect class="cls-1" x="54.35" y="22.96" width=".43" height=".07" transform="translate(25.85 74.78) rotate(-83.84)"/>
        <rect class="cls-1" x="54.26" y="23.81" width=".43" height=".07" transform="translate(24.92 75.45) rotate(-83.84)"/>
        <rect class="cls-1" x="54.07" y="25.53" width=".43" height=".07" transform="translate(23.05 76.79) rotate(-83.84)"/>
        <rect class="cls-1" x="54.53" y="21.25" width=".43" height=".07" transform="translate(27.71 73.43) rotate(-83.84)"/>
        <rect class="cls-1" x="54.62" y="20.39" width=".43" height=".07" transform="translate(28.65 72.76) rotate(-83.84)"/>
        <rect class="cls-1" x="53.98" y="26.38" width=".43" height=".07" transform="translate(22.13 77.47) rotate(-83.85)"/>
        <rect class="cls-1" x="53.07" y="35.21" width=".07" height=".43" transform="translate(15.22 86.81) rotate(-87.31)"/>
        <rect class="cls-1" x="44.47" y="34.81" width=".07" height=".43" transform="translate(7.39 77.8) rotate(-87.25)"/>
        <rect class="cls-1" x="35.02" y="34.36" width=".07" height=".43" transform="translate(-1.13 67.97) rotate(-87.31)"/>
        <rect class="cls-1" x="35.88" y="34.4" width=".07" height=".43" transform="translate(-.39 68.83) rotate(-87.25)"/>
        <rect class="cls-1" x="34.16" y="34.32" width=".07" height=".43" transform="translate(-1.91 67.08) rotate(-87.31)"/>
        <rect class="cls-1" x="33.3" y="34.28" width=".07" height=".43" transform="translate(-2.69 66.18) rotate(-87.31)"/>
        <rect class="cls-1" x="36.74" y="34.44" width=".07" height=".43" transform="translate(.43 69.77) rotate(-87.31)"/>
        <rect class="cls-1" x="40.17" y="34.61" width=".07" height=".43" transform="translate(3.54 73.35) rotate(-87.31)"/>
        <rect class="cls-1" x="41.89" y="34.69" width=".07" height=".43" transform="translate(5.1 75.15) rotate(-87.31)"/>
        <rect class="cls-1" x="37.6" y="34.49" width=".07" height=".43" transform="translate(1.2 70.66) rotate(-87.31)"/>
        <rect class="cls-1" x="41.03" y="34.65" width=".07" height=".43" transform="translate(4.32 74.25) rotate(-87.31)"/>
        <rect class="cls-1" x="39.31" y="34.57" width=".07" height=".43" transform="translate(2.76 72.46) rotate(-87.31)"/>
        <rect class="cls-1" x="38.45" y="34.53" width=".07" height=".43" transform="translate(1.95 71.52) rotate(-87.25)"/>
        <rect class="cls-1" x="47.91" y="34.97" width=".07" height=".43" transform="translate(10.55 81.43) rotate(-87.31)"/>
        <rect class="cls-1" x="48.77" y="35.01" width=".07" height=".43" transform="translate(11.33 82.33) rotate(-87.31)"/>
        <rect class="cls-1" x="49.63" y="35.05" width=".07" height=".43" transform="translate(12.11 83.22) rotate(-87.31)"/>
        <rect class="cls-1" x="51.35" y="35.13" width=".07" height=".43" transform="translate(13.66 85.02) rotate(-87.31)"/>
        <rect class="cls-1" x="52.21" y="35.17" width=".07" height=".43" transform="translate(14.44 85.91) rotate(-87.31)"/>
        <rect class="cls-1" x="50.49" y="35.09" width=".07" height=".43" transform="translate(12.89 84.12) rotate(-87.31)"/>
        <rect class="cls-1" x="46.19" y="34.89" width=".07" height=".43" transform="translate(8.98 79.63) rotate(-87.3)"/>
        <rect class="cls-1" x="43.61" y="34.77" width=".07" height=".43" transform="translate(6.66 76.94) rotate(-87.31)"/>
        <rect class="cls-1" x="45.33" y="34.85" width=".07" height=".43" transform="translate(8.21 78.74) rotate(-87.31)"/>
        <rect class="cls-1" x="42.75" y="34.73" width=".07" height=".43" transform="translate(5.88 76.05) rotate(-87.31)"/>
        <rect class="cls-1" x="47.05" y="34.93" width=".07" height=".43" transform="translate(9.76 80.52) rotate(-87.3)"/>
        <rect class="cls-1" x="34.94" y="49.58" width=".42" height=".07" transform="translate(-10.2 9.11) rotate(-12.91)"/>
        <rect class="cls-1" x="35.77" y="49.4" width=".42" height=".07" transform="translate(-10.18 9.33) rotate(-12.97)"/>
        <rect class="cls-1" x="34.12" y="49.77" width=".42" height=".07" transform="translate(-10.26 8.93) rotate(-12.91)"/>
        <rect class="cls-1" x="39.05" y="48.64" width=".42" height=".07" transform="translate(-9.89 10.01) rotate(-12.91)"/>
        <rect class="cls-1" x="36.59" y="49.21" width=".42" height=".07" transform="translate(-10.07 9.47) rotate(-12.91)"/>
        <rect class="cls-1" x="38.23" y="48.83" width=".42" height=".07" transform="translate(-9.95 9.83) rotate(-12.91)"/>
        <rect class="cls-1" x="33.3" y="49.96" width=".42" height=".07" transform="translate(-10.37 8.8) rotate(-12.97)"/>
        <rect class="cls-1" x="37.41" y="49.02" width=".42" height=".07" transform="translate(-10.05 9.69) rotate(-12.97)"/>
        <rect class="cls-1" x="28.37" y="51.09" width=".42" height=".07" transform="translate(-10.7 7.68) rotate(-12.91)"/>
        <rect class="cls-1" x="24.26" y="52.04" width=".42" height=".07" transform="translate(-11.02 6.79) rotate(-12.91)"/>
        <rect class="cls-1" x="25.08" y="51.85" width=".42" height=".07" transform="translate(-11 7) rotate(-12.97)"/>
        <rect class="cls-1" x="23.44" y="52.22" width=".42" height=".07" transform="translate(-11.12 6.64) rotate(-12.96)"/>
        <rect class="cls-1" x="25.91" y="51.66" width=".42" height=".07" transform="translate(-10.89 7.14) rotate(-12.91)"/>
        <rect class="cls-1" x="22.62" y="52.41" width=".42" height=".07" transform="translate(-11.14 6.43) rotate(-12.91)"/>
        <rect class="cls-1" x="30.01" y="50.72" width=".42" height=".07" transform="translate(-10.58 8.04) rotate(-12.91)"/>
        <rect class="cls-1" x="30.84" y="50.53" width=".42" height=".07" transform="translate(-10.51 8.22) rotate(-12.91)"/>
        <rect class="cls-1" x="27.55" y="51.28" width=".42" height=".07" transform="translate(-10.81 7.54) rotate(-12.97)"/>
        <rect class="cls-1" x="31.66" y="50.34" width=".42" height=".07" transform="translate(-10.49 8.44) rotate(-12.97)"/>
        <rect class="cls-1" x="32.48" y="50.15" width=".42" height=".07" transform="translate(-10.38 8.57) rotate(-12.9)"/>
        <rect class="cls-1" x="29.19" y="50.9" width=".42" height=".07" transform="translate(-10.7 7.91) rotate(-12.99)"/>
        <rect class="cls-1" x="26.73" y="51.47" width=".42" height=".07" transform="translate(-10.83 7.32) rotate(-12.91)"/>
        <rect class="cls-1" x="22" y="52.58" width=".22" height=".07" transform="translate(-11.2 6.27) rotate(-12.91)"/>
        <rect class="cls-1" x="13.81" y="48.32" width=".07" height=".43" transform="translate(-35.79 39.37) rotate(-63.61)"/>
        <rect class="cls-1" x="15.35" y="49.09" width=".07" height=".43" transform="translate(-35.62 41.2) rotate(-63.64)"/>
        <rect class="cls-1" x="13.04" y="47.94" width=".07" height=".43" transform="translate(-35.88 38.49) rotate(-63.64)"/>
        <rect class="cls-1" x="14.58" y="48.71" width=".07" height=".43" transform="translate(-35.71 40.29) rotate(-63.63)"/>
        <rect class="cls-1" x="11.49" y="47.18" width=".07" height=".43" transform="translate(-36.04 36.62) rotate(-63.56)"/>
        <rect class="cls-1" x="12.27" y="47.56" width=".07" height=".43" transform="translate(-35.97 37.58) rotate(-63.64)"/>
        <rect class="cls-1" x="16.12" y="49.47" width=".07" height=".43" transform="translate(-35.54 42.1) rotate(-63.64)"/>
        <rect class="cls-1" x="21.52" y="52.15" width=".07" height=".43" transform="translate(-34.93 48.37) rotate(-63.59)"/>
        <rect class="cls-1" x="20.75" y="51.76" width=".07" height=".43" transform="translate(-35.01 47.45) rotate(-63.56)"/>
        <rect class="cls-1" x="19.2" y="51" width=".07" height=".43" transform="translate(-35.19 45.71) rotate(-63.64)"/>
        <rect class="cls-1" x="19.97" y="51.38" width=".07" height=".43" transform="translate(-35.1 46.59) rotate(-63.61)"/>
        <rect class="cls-1" x="17.66" y="50.23" width=".07" height=".43" transform="translate(-35.36 43.87) rotate(-63.6)"/>
        <rect class="cls-1" x="10.72" y="46.79" width=".07" height=".43" transform="translate(-36.13 35.74) rotate(-63.59)"/>
        <rect class="cls-1" x="16.89" y="49.85" width=".07" height=".43" transform="translate(-35.44 42.96) rotate(-63.59)"/>
        <rect class="cls-1" x="3.02" y="42.97" width=".07" height=".43" transform="translate(-37 26.75) rotate(-63.64)"/>
        <rect class="cls-1" x="4.56" y="43.74" width=".07" height=".43" transform="translate(-36.81 28.51) rotate(-63.58)"/>
        <rect class="cls-1" x="3.79" y="43.35" width=".07" height=".43" transform="translate(-36.91 27.65) rotate(-63.64)"/>
        <rect class="cls-1" x="2.24" y="42.59" width=".07" height=".43" transform="translate(-37.09 25.84) rotate(-63.64)"/>
        <rect class="cls-1" x=".7" y="41.83" width=".07" height=".43" transform="translate(-37.23 23.98) rotate(-63.56)"/>
        <rect class="cls-1" x="1.47" y="42.21" width=".07" height=".43" transform="translate(-37.17 24.94) rotate(-63.64)"/>
        <rect class="cls-1" x="8.41" y="45.65" width=".07" height=".43" transform="translate(-36.4 33.07) rotate(-63.64)"/>
        <rect class="cls-1" x="9.95" y="46.41" width=".07" height=".43" transform="translate(-36.22 34.85) rotate(-63.61)"/>
        <rect class="cls-1" x="9.18" y="46.03" width=".07" height=".43" transform="translate(-36.31 33.97) rotate(-63.64)"/>
        <rect class="cls-1" x="7.64" y="45.27" width=".07" height=".43" transform="translate(-36.49 32.17) rotate(-63.65)"/>
        <rect class="cls-1" x="5.33" y="44.12" width=".07" height=".43" transform="translate(-36.72 29.4) rotate(-63.56)"/>
        <rect class="cls-1" x="6.1" y="44.5" width=".07" height=".43" transform="translate(-36.64 30.32) rotate(-63.59)"/>
        <rect class="cls-1" x="6.87" y="44.88" width=".07" height=".43" transform="translate(-36.57 31.26) rotate(-63.64)"/>
        <rect class="cls-1" x="18.43" y="50.62" width=".07" height=".43" transform="translate(-35.28 44.79) rotate(-63.61)"/>
        <rect class="cls-1" x="29.95" y="38.25" width=".43" height=".07" transform="translate(-18.05 45.41) rotate(-60.17)"/>
        <rect class="cls-1" x="31.23" y="36.01" width=".43" height=".07" transform="translate(-15.46 45.39) rotate(-60.17)"/>
        <rect class="cls-1" x="30.38" y="37.5" width=".43" height=".07" transform="translate(-17.19 45.4) rotate(-60.17)"/>
        <rect class="cls-1" x="30.8" y="36.75" width=".43" height=".07" transform="translate(-16.33 45.39) rotate(-60.16)"/>
        <rect class="cls-1" x="25.24" y="46.46" width=".43" height=".07" transform="translate(-27.54 45.45) rotate(-60.17)"/>
        <rect class="cls-1" x="31.66" y="35.26" width=".43" height=".07" transform="translate(-14.6 45.39) rotate(-60.17)"/>
        <rect class="cls-1" x="27.38" y="42.73" width=".43" height=".07" transform="translate(-23.23 45.43) rotate(-60.17)"/>
        <rect class="cls-1" x="26.95" y="43.47" width=".43" height=".07" transform="translate(-24.09 45.43) rotate(-60.16)"/>
        <rect class="cls-1" x="26.52" y="44.22" width=".43" height=".07" transform="translate(-24.95 45.44) rotate(-60.17)"/>
        <rect class="cls-1" x="25.67" y="45.71" width=".43" height=".07" transform="translate(-26.68 45.44) rotate(-60.17)"/>
        <rect class="cls-1" x="29.52" y="38.99" width=".43" height=".07" transform="translate(-18.92 45.4) rotate(-60.16)"/>
        <rect class="cls-1" x="26.09" y="44.97" width=".43" height=".07" transform="translate(-25.82 45.44) rotate(-60.17)"/>
        <rect class="cls-1" x="29.09" y="39.74" width=".43" height=".07" transform="translate(-19.78 45.41) rotate(-60.17)"/>
        <rect class="cls-1" x="28.66" y="40.49" width=".43" height=".07" transform="translate(-20.64 45.41) rotate(-60.16)"/>
        <rect class="cls-1" x="28.24" y="41.23" width=".43" height=".07" transform="translate(-21.5 45.41) rotate(-60.16)"/>
        <rect class="cls-1" x="27.81" y="41.98" width=".43" height=".07" transform="translate(-22.37 45.42) rotate(-60.16)"/>
        <rect class="cls-1" x="23.53" y="49.44" width=".43" height=".07" transform="translate(-30.99 45.46) rotate(-60.17)"/>
        <rect class="cls-1" x="23.95" y="48.7" width=".43" height=".07" transform="translate(-30.13 45.45) rotate(-60.16)"/>
        <rect class="cls-1" x="23.1" y="50.19" width=".43" height=".07" transform="translate(-31.86 45.48) rotate(-60.18)"/>
        <rect class="cls-1" x="22.24" y="51.68" width=".43" height=".07" transform="translate(-33.58 45.47) rotate(-60.17)"/>
        <rect class="cls-1" x="24.38" y="47.95" width=".43" height=".07" transform="translate(-29.27 45.45) rotate(-60.17)"/>
        <rect class="cls-1" x="21.81" y="52.43" width=".43" height=".07" transform="translate(-34.44 45.47) rotate(-60.16)"/>
        <rect class="cls-1" x="24.81" y="47.2" width=".43" height=".07" transform="translate(-28.4 45.46) rotate(-60.18)"/>
        <rect class="cls-1" x="22.67" y="50.94" width=".43" height=".07" transform="translate(-32.72 45.46) rotate(-60.16)"/>
        <rect class="cls-1" x="4.15" y="15.36" width=".42" height=".07" transform="translate(-9.54 7.48) rotate(-44.54)"/>
        <rect class="cls-1" x="14.97" y="4.72" width=".42" height=".07" transform="translate(1.03 12.01) rotate(-44.55)"/>
        <rect class="cls-1" x="5.36" y="14.18" width=".42" height=".07" transform="translate(-8.37 7.99) rotate(-44.54)"/>
        <rect class="cls-1" x="8.96" y="10.63" width=".42" height=".07" transform="translate(-4.85 9.5) rotate(-44.55)"/>
        <rect class="cls-1" x="8.36" y="11.22" width=".42" height=".07" transform="translate(-5.43 9.24) rotate(-44.54)"/>
        <rect class="cls-1" x="3.55" y="15.95" width=".42" height=".07" transform="translate(-10.13 7.23) rotate(-44.54)"/>
        <rect class="cls-1" x="2.95" y="16.54" width=".42" height=".07" transform="translate(-10.72 6.98) rotate(-44.54)"/>
        <rect class="cls-1" x="4.75" y="14.77" width=".42" height=".07" transform="translate(-8.96 7.74) rotate(-44.54)"/>
        <rect class="cls-1" x="6.56" y="12.99" width=".42" height=".07" transform="translate(-7.2 8.49) rotate(-44.54)"/>
        <rect class="cls-1" x="7.76" y="11.81" width=".42" height=".07" transform="translate(-6.02 8.99) rotate(-44.54)"/>
        <rect class="cls-1" x="5.96" y="13.59" width=".42" height=".07" transform="translate(-7.78 8.24) rotate(-44.54)"/>
        <rect class="cls-1" x="13.17" y="6.49" width=".42" height=".07" transform="translate(-.73 11.26) rotate(-44.54)"/>
        <rect class="cls-1" x="12.57" y="7.08" width=".42" height=".07" transform="translate(-1.32 11.01) rotate(-44.55)"/>
        <rect class="cls-1" x="13.77" y="5.9" width=".42" height=".07" transform="translate(-.15 11.51) rotate(-44.54)"/>
        <rect class="cls-1" x="14.37" y="5.31" width=".42" height=".07" transform="translate(.44 11.76) rotate(-44.54)"/>
        <rect class="cls-1" x="11.36" y="8.26" width=".42" height=".07" transform="translate(-2.5 10.5) rotate(-44.54)"/>
        <rect class="cls-1" x="9.56" y="10.04" width=".42" height=".07" transform="translate(-4.26 9.75) rotate(-44.55)"/>
        <rect class="cls-1" x="10.16" y="9.45" width=".42" height=".07" transform="translate(-3.67 10) rotate(-44.54)"/>
        <rect class="cls-1" x="10.76" y="8.86" width=".42" height=".07" transform="translate(-3.08 10.25) rotate(-44.54)"/>
        <rect class="cls-1" x="11.96" y="7.67" width=".42" height=".07" transform="translate(-1.91 10.76) rotate(-44.55)"/>
        <rect class="cls-1" x="7.16" y="12.4" width=".42" height=".07" transform="translate(-6.61 8.74) rotate(-44.55)"/>
        <rect class="cls-1" x="2.53" y="17.06" width=".22" height=".07" transform="translate(-11.24 6.76) rotate(-44.56)"/>
        <rect class="cls-1" x="1.6" y="24.51" width=".43" height=".07" transform="translate(-22.79 23.72) rotate(-83.84)"/>
        <rect class="cls-1" x="1.78" y="22.8" width=".43" height=".07" transform="translate(-20.92 22.37) rotate(-83.84)"/>
        <rect class="cls-1" x="1.69" y="23.66" width=".43" height=".07" transform="translate(-21.85 23.04) rotate(-83.84)"/>
        <rect class="cls-1" x="1.87" y="21.94" width=".43" height=".07" transform="translate(-19.99 21.7) rotate(-83.84)"/>
        <rect class="cls-1" x="2.24" y="18.52" width=".43" height=".07" transform="translate(-16.26 19.01) rotate(-83.84)"/>
        <rect class="cls-1" x="2.34" y="17.67" width=".43" height=".07" transform="translate(-15.32 18.34) rotate(-83.84)"/>
        <rect class="cls-1" x="1.5" y="25.37" width=".43" height=".07" transform="translate(-23.72 24.39) rotate(-83.85)"/>
        <rect class="cls-1" x="2.15" y="19.38" width=".43" height=".07" transform="translate(-17.19 19.69) rotate(-83.85)"/>
        <rect class="cls-1" x="2.06" y="20.23" width=".43" height=".07" transform="translate(-18.12 20.35) rotate(-83.84)"/>
        <rect class="cls-1" x="1.97" y="21.09" width=".43" height=".07" transform="translate(-19.06 21.03) rotate(-83.84)"/>
        <rect class="cls-1" x=".95" y="30.5" width=".43" height=".07" transform="translate(-29.32 28.42) rotate(-83.84)"/>
        <rect class="cls-1" x=".4" y="35.63" width=".43" height=".07" transform="translate(-34.92 32.45) rotate(-83.84)"/>
        <rect class="cls-1" x=".3" y="36.49" width=".43" height=".07" transform="translate(-35.85 33.12) rotate(-83.84)"/>
        <rect class="cls-1" x=".49" y="34.78" width=".43" height=".07" transform="translate(-33.98 31.78) rotate(-83.84)"/>
        <rect class="cls-1" x=".21" y="37.34" width=".43" height=".07" transform="translate(-36.78 33.8) rotate(-83.85)"/>
        <rect class="cls-1" x="-.16" y="40.76" width=".43" height=".07" transform="translate(-40.51 36.48) rotate(-83.84)"/>
        <rect class="cls-1" x=".58" y="33.92" width=".43" height=".07" transform="translate(-33.05 31.11) rotate(-83.84)"/>
        <rect class="cls-1" x="-.06" y="39.91" width=".43" height=".07" transform="translate(-39.58 35.82) rotate(-83.85)"/>
        <rect class="cls-1" x=".12" y="38.2" width=".43" height=".07" transform="translate(-37.71 34.47) rotate(-83.84)"/>
        <rect class="cls-1" x=".03" y="39.05" width=".43" height=".07" transform="translate(-38.65 35.14) rotate(-83.84)"/>
        <rect class="cls-1" x=".67" y="33.07" width=".43" height=".07" transform="translate(-32.12 30.43) rotate(-83.84)"/>
        <rect class="cls-1" x="1.23" y="27.93" width=".43" height=".07" transform="translate(-26.52 26.4) rotate(-83.84)"/>
        <rect class="cls-1" x="1.04" y="29.64" width=".43" height=".07" transform="translate(-28.38 27.75) rotate(-83.84)"/>
        <rect class="cls-1" x="1.14" y="28.79" width=".43" height=".07" transform="translate(-27.45 27.07) rotate(-83.84)"/>
        <rect class="cls-1" x="1.32" y="27.08" width=".43" height=".07" transform="translate(-25.59 25.73) rotate(-83.84)"/>
        <rect class="cls-1" x=".86" y="31.35" width=".43" height=".07" transform="translate(-30.25 29.09) rotate(-83.85)"/>
        <rect class="cls-1" x=".77" y="32.21" width=".43" height=".07" transform="translate(-31.18 29.76) rotate(-83.84)"/>
        <rect class="cls-1" x="1.41" y="26.22" width=".43" height=".07" transform="translate(-24.65 25.06) rotate(-83.84)"/>
        <rect class="cls-1" x="2.68" y="17.03" width=".07" height=".43" transform="translate(-14.63 19.15) rotate(-87.3)"/>
        <rect class="cls-1" x="11.28" y="17.43" width=".07" height=".43" transform="translate(-6.86 28.11) rotate(-87.25)"/>
        <rect class="cls-1" x="20.73" y="17.88" width=".07" height=".43" transform="translate(1.72 37.99) rotate(-87.31)"/>
        <rect class="cls-1" x="19.87" y="17.84" width=".07" height=".43" transform="translate(.92 37.08) rotate(-87.25)"/>
        <rect class="cls-1" x="21.59" y="17.92" width=".07" height=".43" transform="translate(2.5 38.89) rotate(-87.31)"/>
        <rect class="cls-1" x="22.45" y="17.96" width=".07" height=".43" transform="translate(3.28 39.79) rotate(-87.31)"/>
        <rect class="cls-1" x="19.01" y="17.8" width=".07" height=".43" transform="translate(.16 36.2) rotate(-87.31)"/>
        <rect class="cls-1" x="15.58" y="17.64" width=".07" height=".43" transform="translate(-2.95 32.61) rotate(-87.31)"/>
        <rect class="cls-1" x="13.86" y="17.56" width=".07" height=".43" transform="translate(-4.51 30.81) rotate(-87.31)"/>
        <rect class="cls-1" x="18.15" y="17.76" width=".07" height=".43" transform="translate(-.62 35.3) rotate(-87.31)"/>
        <rect class="cls-1" x="14.72" y="17.6" width=".07" height=".43" transform="translate(-3.73 31.71) rotate(-87.31)"/>
        <rect class="cls-1" x="16.44" y="17.68" width=".07" height=".43" transform="translate(-2.17 33.51) rotate(-87.32)"/>
        <rect class="cls-1" x="17.29" y="17.72" width=".07" height=".43" transform="translate(-1.4 34.4) rotate(-87.3)"/>
        <rect class="cls-1" x="7.84" y="17.27" width=".07" height=".43" transform="translate(-9.96 24.54) rotate(-87.32)"/>
        <rect class="cls-1" x="6.98" y="17.23" width=".07" height=".43" transform="translate(-10.74 23.63) rotate(-87.3)"/>
        <rect class="cls-1" x="6.12" y="17.19" width=".07" height=".43" transform="translate(-11.52 22.72) rotate(-87.25)"/>
        <rect class="cls-1" x="4.4" y="17.11" width=".07" height=".43" transform="translate(-13.08 20.94) rotate(-87.3)"/>
        <rect class="cls-1" x="3.54" y="17.07" width=".07" height=".43" transform="translate(-13.86 20.05) rotate(-87.31)"/>
        <rect class="cls-1" x="5.26" y="17.15" width=".07" height=".43" transform="translate(-12.3 21.84) rotate(-87.3)"/>
        <rect class="cls-1" x="9.56" y="17.35" width=".07" height=".43" transform="translate(-8.41 26.33) rotate(-87.3)"/>
        <rect class="cls-1" x="12.14" y="17.47" width=".07" height=".43" transform="translate(-6.07 29.02) rotate(-87.31)"/>
        <rect class="cls-1" x="10.42" y="17.39" width=".07" height=".43" transform="translate(-7.63 27.23) rotate(-87.31)"/>
        <rect class="cls-1" x="13" y="17.52" width=".07" height=".43" transform="translate(-5.3 29.9) rotate(-87.25)"/>
        <rect class="cls-1" x="8.7" y="17.31" width=".07" height=".43" transform="translate(-9.18 25.43) rotate(-87.3)"/>
      </g>
    </g>
  </g>
</svg>