<svg width="13" height="13" viewBox="0 0 13 13" fill="none" xmlns="http://www.w3.org/2000/svg">
<g id="Component 5">
<circle id="Ellipse 5" cx="6.8307" cy="6.17835" r="5.52991" fill="#D9D9D9" stroke="white"/>
<path id="Profile" d="M10.4231 9.47685H3.23832C3.14127 9.47685 3.06201 9.39638 3.06201 9.29785V8.33556C3.06201 6.88556 5.72113 6.29932 6.83071 6.29932C7.94029 6.29932 10.5994 6.88556 10.5994 8.33556V9.29785C10.5994 9.39638 10.5201 9.47685 10.4231 9.47685ZM6.83071 6.01194C5.72436 6.01194 4.82505 5.09892 4.82667 3.9757C4.82505 2.85248 5.72436 1.93945 6.83071 1.93945C7.93706 1.93945 8.83637 2.85248 8.83637 3.9757C8.83637 5.09892 7.93706 6.01194 6.83071 6.01194Z" fill="#717171"/>
</g>
</svg>
