<svg width="24" height="28" viewBox="0 0 24 28" fill="none" xmlns="http://www.w3.org/2000/svg">
<path fill-rule="evenodd" clip-rule="evenodd" d="M11.8798 3.07857C10.917 3.07857 9.99369 3.47317 9.31291 4.17556C8.63212 4.87795 8.24966 5.8306 8.24966 6.82394C8.24966 7.81727 8.63212 8.76993 9.31291 9.47232C9.99369 10.1747 10.917 10.5693 11.8798 10.5693C12.8426 10.5693 13.7659 10.1747 14.4467 9.47232C15.1275 8.76993 15.5099 7.81727 15.5099 6.82394C15.5099 5.8306 15.1275 4.87795 14.4467 4.17556C13.7659 3.47317 12.8426 3.07857 11.8798 3.07857ZM7.199 1.99454C8.44042 0.713707 10.1242 -0.00585938 11.8798 -0.00585938C13.6354 -0.00585938 15.3192 0.713707 16.5606 1.99454C17.802 3.27538 18.4994 5.01256 18.4994 6.82394C18.4994 8.63531 17.802 10.3725 16.5606 11.6533C15.3192 12.9342 13.6354 13.6537 11.8798 13.6537C10.1242 13.6537 8.44042 12.9342 7.199 11.6533C5.95757 10.3725 5.26015 8.63531 5.26015 6.82394C5.26015 5.01256 5.95757 3.27538 7.199 1.99454ZM0.135254 24.0086C0.135254 19.3196 4.27654 15.8569 8.95178 15.8569H14.8078C19.4831 15.8569 23.6243 19.3196 23.6243 24.0086V26.2118C23.6243 27.0635 22.9551 27.754 22.1296 27.754C21.304 27.754 20.6348 27.0635 20.6348 26.2118V24.0086C20.6348 21.3972 18.2197 18.9413 14.8078 18.9413H8.95178C5.53994 18.9413 3.12477 21.3972 3.12477 24.0086V26.2118C3.12477 27.0635 2.45555 27.754 1.63001 27.754C0.804481 27.754 0.135254 27.0635 0.135254 26.2118V24.0086Z" fill="#B3B3B3"/>
</svg>
