<svg width="34" height="34" viewBox="0 0 34 34" fill="none" xmlns="http://www.w3.org/2000/svg">
<path id="Vector" d="M17 0.500244C7.88736 0.500244 0.5 7.8876 0.5 17.0002C0.5 26.1134 7.88737 33.5002 17 33.5002C26.1131 33.5002 33.5 26.1134 33.5 17.0002C33.5 7.88761 26.1132 0.500244 17 0.500244ZM17 30.5317C9.55811 30.5317 3.5 24.4451 3.5 17.0002C3.5 9.55682 9.55664 3.50018 17 3.50018C24.4434 3.50018 30.5 9.55685 30.5 17.0002C30.5 24.445 24.4419 30.5317 17 30.5317ZM24 15.5002H18.5V10.0002C18.5 9.1721 17.8281 8.50024 17 8.50024C16.1719 8.50024 15.5 9.1721 15.5 10.0002V15.5002H10C9.17186 15.5002 8.5 16.1721 8.5 17.0002C8.5 17.8284 9.17186 18.5002 10 18.5002H15.5V24.0002C15.5 24.8284 16.1719 25.5002 17 25.5002C17.8281 25.5002 18.5 24.8284 18.5 24.0002V18.5002H24C24.8281 18.5002 25.5 17.8284 25.5 17.0002C25.5 16.1721 24.8281 15.5002 24 15.5002Z" fill="#FF811C" stroke="#FF811C"/>
</svg>
