<svg width="32" height="32" viewBox="0 0 32 32" fill="none" xmlns="http://www.w3.org/2000/svg">
<g id="arrow_back_ios_new_FILL0_wght400_GRAD0_opsz24 1">
<g id="Group">
<path id="Vector" d="M5.6797 17.1474H20.3034C21.0012 17.1474 21.5654 16.6088 21.5654 15.9465C21.5654 15.2842 20.9995 14.7456 20.3034 14.7456H5.6797L7.31257 13.1918C7.80471 12.7235 7.80471 11.9624 7.31257 11.4924C6.82042 11.0241 6.02069 11.0241 5.52679 11.4924L1.73903 15.0968C1.70915 15.1253 1.68103 15.1537 1.65466 15.1855C1.64236 15.1989 1.63357 15.2122 1.62302 15.2273C1.60896 15.2457 1.5949 15.2624 1.5826 15.2808C1.57029 15.2975 1.56151 15.3143 1.5492 15.3327C1.53866 15.3494 1.52811 15.3644 1.51932 15.3828C1.50878 15.4012 1.50175 15.418 1.49296 15.4364C1.48417 15.4531 1.47538 15.4715 1.46659 15.4899C1.45956 15.5066 1.45253 15.525 1.4455 15.5434C1.43847 15.5618 1.42968 15.5819 1.42441 15.6019C1.41914 15.6203 1.41386 15.6371 1.41035 15.6555C1.40507 15.6755 1.3998 15.6956 1.39453 15.7157C1.39101 15.7358 1.3875 15.7575 1.38398 15.7776C1.38047 15.796 1.37695 15.8127 1.37519 15.8311C1.37168 15.8696 1.36992 15.908 1.36816 15.9482C1.36816 15.9482 1.36816 15.9482 1.36816 15.9498C1.36816 15.9515 1.36816 15.9498 1.36816 15.9515C1.36816 15.99 1.36992 16.0301 1.37519 16.0686C1.37695 16.087 1.38047 16.1037 1.38398 16.1221C1.3875 16.1439 1.38926 16.1639 1.39453 16.1857C1.39804 16.2057 1.40507 16.2258 1.41035 16.2459C1.41562 16.2643 1.41914 16.2827 1.42441 16.3011C1.42968 16.3212 1.43847 16.3396 1.4455 16.3579C1.45253 16.3763 1.4578 16.3947 1.46659 16.4115C1.47362 16.4299 1.48241 16.4466 1.4912 16.4633C1.49999 16.4817 1.50878 16.5001 1.51932 16.5185C1.52811 16.5352 1.53866 16.5503 1.5492 16.567C1.55975 16.5854 1.57029 16.6021 1.5826 16.6205C1.5949 16.6373 1.60896 16.654 1.62127 16.6707C1.63357 16.6858 1.64412 16.7008 1.65466 16.7142C1.67927 16.7426 1.70563 16.7711 1.73376 16.7978C1.73376 16.7978 1.73551 16.8012 1.73727 16.8012L5.52327 20.4039C5.76934 20.6381 6.09275 20.7551 6.41616 20.7551C6.73957 20.7551 7.06298 20.6381 7.30905 20.4039C7.8012 19.9356 7.8012 19.1746 7.30905 18.7046L5.67619 17.1507L5.6797 17.1474Z" fill="white"/>
<path id="Vector (Stroke)" fill-rule="evenodd" clip-rule="evenodd" d="M7.3131 11.4928C7.80524 11.9628 7.80524 12.7238 7.3131 13.1921L5.68023 14.7459H20.304C21 14.7459 21.566 15.2845 21.566 15.9468C21.566 16.6092 21.0017 17.1477 20.304 17.1477H5.68023L5.67671 17.1511L7.30958 18.7049C7.80172 19.1749 7.80172 19.9359 7.30958 20.4042C7.06351 20.6384 6.7401 20.7555 6.41669 20.7555C6.09328 20.7555 5.76987 20.6384 5.5238 20.4042L1.7378 16.8015C1.73604 16.8015 1.73429 16.7982 1.73429 16.7982C1.70616 16.7714 1.6798 16.743 1.65519 16.7146C1.6508 16.709 1.64641 16.7031 1.6419 16.6971C1.63556 16.6886 1.62898 16.6799 1.62179 16.6711C1.61564 16.6627 1.60905 16.6543 1.60246 16.646C1.59587 16.6376 1.58928 16.6293 1.58313 16.6209C1.57082 16.6025 1.56028 16.5858 1.54973 16.5674C1.54682 16.5627 1.54391 16.5583 1.54103 16.5538C1.53349 16.5422 1.52621 16.531 1.51985 16.5189C1.5093 16.5005 1.50052 16.4821 1.49173 16.4637C1.48294 16.4469 1.47415 16.4302 1.46712 16.4118C1.46097 16.4001 1.45654 16.3876 1.45202 16.3748C1.45009 16.3693 1.44814 16.3638 1.44603 16.3583C1.44396 16.3529 1.44173 16.3474 1.43948 16.342C1.43412 16.3289 1.42865 16.3156 1.42494 16.3014C1.4223 16.2922 1.4201 16.283 1.41791 16.2738C1.41571 16.2646 1.41351 16.2554 1.41088 16.2462C1.40912 16.2395 1.40717 16.2329 1.40521 16.2262C1.40131 16.2128 1.3974 16.1994 1.39506 16.186C1.39146 16.1712 1.38949 16.1571 1.38749 16.1428C1.38656 16.1361 1.38563 16.1294 1.38451 16.1225C1.38404 16.12 1.38357 16.1175 1.3831 16.1151C1.38008 16.0995 1.37724 16.0849 1.37572 16.0689C1.37067 16.032 1.36884 15.9936 1.3687 15.9566C1.36869 15.955 1.36869 15.9534 1.36869 15.9519V15.9485C1.37045 15.9084 1.37221 15.8699 1.37572 15.8314C1.37724 15.8155 1.38008 15.8008 1.3831 15.7853C1.38356 15.7828 1.38404 15.7804 1.38451 15.7779C1.38627 15.7679 1.38803 15.7574 1.38978 15.747C1.39154 15.7365 1.3933 15.7261 1.39506 15.716L1.41088 15.6558C1.41376 15.6407 1.41784 15.6267 1.42213 15.612C1.42306 15.6088 1.424 15.6056 1.42494 15.6023C1.42896 15.587 1.43502 15.5717 1.44079 15.5571C1.44259 15.5526 1.44436 15.5481 1.44603 15.5438C1.45306 15.5254 1.46009 15.507 1.46712 15.4902C1.47591 15.4718 1.4847 15.4534 1.49349 15.4367C1.49581 15.4319 1.498 15.4271 1.50017 15.4224C1.50623 15.4094 1.51209 15.3967 1.51985 15.3832C1.52674 15.3688 1.53471 15.3564 1.54291 15.3437C1.54517 15.3402 1.54745 15.3366 1.54973 15.333C1.55483 15.3254 1.55933 15.318 1.56373 15.3109C1.56993 15.3007 1.57593 15.2909 1.58313 15.2812C1.59174 15.2683 1.60122 15.2562 1.61096 15.2438C1.61513 15.2385 1.61934 15.2331 1.62355 15.2276C1.62508 15.2255 1.62657 15.2233 1.62804 15.2212C1.63672 15.2087 1.64467 15.1973 1.65519 15.1858C1.68156 15.154 1.70968 15.1256 1.73956 15.0972L5.52731 11.4928C6.02122 11.0245 6.82095 11.0245 7.3131 11.4928ZM1.37606 14.9449C1.41401 14.8997 1.452 14.8619 1.4854 14.8301L5.27363 11.2252C5.90951 10.6223 6.9325 10.6217 7.56726 11.2257L7.56773 11.2262C8.21168 11.8411 8.21238 12.8453 7.56726 13.4592L6.60252 14.3772H20.304C21.1862 14.3772 21.9346 15.0639 21.9346 15.9468C21.9346 16.8295 21.1883 17.5164 20.304 17.5164H6.59549L7.56422 18.4383C8.20816 19.0532 8.20887 20.0574 7.56374 20.6713C7.24431 20.9753 6.82786 21.1242 6.41669 21.1242C6.00552 21.1242 5.58907 20.9753 5.26964 20.6713L1.4968 17.0811C1.48456 17.0707 1.47429 17.0605 1.46597 17.0516C1.43271 17.019 1.40279 16.9863 1.3764 16.9558L1.37086 16.9494L1.36562 16.9428C1.35809 16.9332 1.35037 16.9229 1.34608 16.9172C1.34539 16.9162 1.34479 16.9154 1.34429 16.9148C1.33928 16.9081 1.33738 16.9057 1.33633 16.9044L1.33038 16.8971L1.3248 16.8895C1.32291 16.887 1.32019 16.8835 1.31289 16.8742L1.31195 16.873C1.30594 16.8654 1.29601 16.8528 1.28613 16.8394L1.28124 16.8327L1.27665 16.8258C1.26229 16.8044 1.24843 16.7826 1.2343 16.7584C1.23315 16.7566 1.23291 16.7563 1.23262 16.7558C1.23206 16.755 1.23128 16.7539 1.22304 16.741C1.21644 16.7306 1.20692 16.7153 1.19691 16.6968C1.18202 16.6703 1.16996 16.6454 1.16213 16.6291C1.15482 16.6152 1.14225 16.5908 1.13013 16.5619C1.12042 16.5412 1.11374 16.5235 1.10975 16.5126C1.10759 16.5067 1.10537 16.5004 1.10412 16.4969L1.10353 16.4952L1.10206 16.4911C1.10173 16.4902 1.1016 16.4898 1.10163 16.4899C1.10164 16.4899 1.10175 16.4902 1.10163 16.4899C1.10154 16.4897 1.10127 16.489 1.10111 16.4886L1.09934 16.4842L1.09865 16.4826C1.09713 16.4789 1.09456 16.4726 1.09215 16.4665C1.08653 16.4524 1.07742 16.4286 1.0695 16.3994C1.06502 16.3835 1.06153 16.3688 1.05965 16.3609L1.0593 16.3595C1.0568 16.349 1.05645 16.3478 1.05645 16.3478L1.05532 16.3439L1.05428 16.3399L1.05258 16.3339L1.0477 16.3171C1.04441 16.3055 1.03892 16.2857 1.03419 16.2619C1.02926 16.2398 1.02627 16.2209 1.02436 16.2079C1.02268 16.1965 1.02211 16.1922 1.02174 16.1894C1.02158 16.1882 1.02147 16.1873 1.02132 16.1863C1.0187 16.173 1.01305 16.144 1.00958 16.1125C1.002 16.0544 1 15.9988 1 15.9519V15.9486L1.36869 15.9485L1.00035 15.9324C1.00207 15.8931 1.00414 15.8463 1.00856 15.7979L1.0087 15.7964C1.01211 15.7607 1.01886 15.7265 1.02157 15.7128C1.02165 15.7124 1.02173 15.712 1.02181 15.7116L1.0262 15.6858L1.02629 15.6853C1.02798 15.6752 1.02992 15.6637 1.03189 15.6524L1.03455 15.6372L1.05191 15.5712C1.0584 15.5415 1.06649 15.5143 1.06952 15.5041C1.06968 15.5035 1.06983 15.5031 1.06996 15.5026C1.07703 15.4769 1.08492 15.4552 1.09019 15.4414C1.09306 15.4338 1.09585 15.4268 1.09768 15.4222L1.10163 15.4121L1.10243 15.4101C1.10891 15.3931 1.11781 15.3698 1.12724 15.3474L1.13064 15.3393L1.1355 15.3291C1.1425 15.3144 1.15203 15.2945 1.16235 15.2744C1.16663 15.265 1.17925 15.2378 1.19315 15.2121C1.20336 15.192 1.21321 15.1754 1.22075 15.1632C1.22511 15.1562 1.22921 15.1498 1.23189 15.1457L1.23786 15.1364L1.2405 15.1322L1.24325 15.1281C1.24406 15.1269 1.24438 15.1263 1.24732 15.1215C1.24851 15.1196 1.25013 15.117 1.25239 15.1133C1.25797 15.1042 1.26819 15.0877 1.28165 15.0689C1.29744 15.0461 1.31766 15.0201 1.32635 15.0091C1.33482 14.9968 1.35334 14.9708 1.37606 14.9449Z" fill="white"/>
<path id="Vector_2" d="M26.8364 2.36877H10.847C10.1492 2.36877 9.58496 2.90734 9.58496 3.56968V8.37497C9.58496 9.03898 10.1509 9.57588 10.847 9.57588C11.543 9.57588 12.109 9.03731 12.109 8.37497V4.77058H25.5726V27.1211H12.109V23.5184C12.109 22.8544 11.543 22.3175 10.847 22.3175C10.1509 22.3175 9.58496 22.8561 9.58496 23.5184V28.3237C9.58496 28.9877 10.1509 29.5246 10.847 29.5246H26.8364C27.5342 29.5246 28.0984 28.986 28.0984 28.3237V3.56968C28.0984 2.90567 27.5324 2.36877 26.8364 2.36877Z" fill="white"/>
<path id="Vector (Stroke)_2" fill-rule="evenodd" clip-rule="evenodd" d="M10.8475 2H26.8369C27.7188 2 28.4676 2.68461 28.4676 3.5696V28.3236C28.4676 29.2063 27.7212 29.8932 26.8369 29.8932H10.8475C9.96563 29.8932 9.2168 29.2086 9.2168 28.3236V23.5183C9.2168 22.6353 9.96529 21.9487 10.8475 21.9487C11.7293 21.9487 12.4782 22.6333 12.4782 23.5183V26.7524H25.2045V5.13919H12.4782V8.37489C12.4782 9.25788 11.7297 9.94449 10.8475 9.94449C9.96563 9.94449 9.2168 9.25987 9.2168 8.37489V3.5696C9.2168 2.68694 9.96319 2 10.8475 2ZM10.8475 2.36869H26.8369C27.5329 2.36869 28.0989 2.90559 28.0989 3.5696V28.3236C28.0989 28.986 27.5347 29.5245 26.8369 29.5245H10.8475C10.1515 29.5245 9.58549 28.9876 9.58549 28.3236V23.5183C9.58549 22.856 10.1515 22.3174 10.8475 22.3174C11.5435 22.3174 12.1095 22.8543 12.1095 23.5183V27.121H25.5732V4.7705H12.1095V8.37489C12.1095 9.03723 11.5435 9.57579 10.8475 9.57579C10.1515 9.57579 9.58549 9.0389 9.58549 8.37489V3.5696C9.58549 2.90726 10.1497 2.36869 10.8475 2.36869Z" fill="white"/>
</g>
</g>
</svg>
