<svg width="8" height="8" viewBox="0 0 8 8" fill="none" xmlns="http://www.w3.org/2000/svg">
<g clip-path="url(#clip0_2655_3642)">
<path d="M5.22533 5.60817L5.60033 5.23317L4.27533 3.89984V2.22484H3.77533V4.09984L5.22533 5.60817ZM4.00033 7.33317C3.54477 7.33317 3.11421 7.24567 2.70866 7.07067C2.3031 6.89567 1.94894 6.65678 1.64616 6.354C1.34338 6.05123 1.10449 5.69706 0.929492 5.2915C0.754492 4.88595 0.666992 4.45539 0.666992 3.99984C0.666992 3.54428 0.754492 3.11373 0.929492 2.70817C1.10449 2.30261 1.34338 1.94845 1.64616 1.64567C1.94894 1.34289 2.3031 1.104 2.70866 0.929004C3.11421 0.754004 3.54477 0.666504 4.00033 0.666504C4.45588 0.666504 4.88644 0.754004 5.29199 0.929004C5.69755 1.104 6.05171 1.34289 6.35449 1.64567C6.65727 1.94845 6.89616 2.30261 7.07116 2.70817C7.24616 3.11373 7.33366 3.54428 7.33366 3.99984C7.33366 4.45539 7.24616 4.88595 7.07116 5.2915C6.89616 5.69706 6.65727 6.05123 6.35449 6.354C6.05171 6.65678 5.69755 6.89567 5.29199 7.07067C4.88644 7.24567 4.45588 7.33317 4.00033 7.33317ZM4.00033 6.83317C4.7781 6.83317 5.44477 6.55539 6.00033 5.99984C6.55588 5.44428 6.83366 4.77761 6.83366 3.99984C6.83366 3.22206 6.55588 2.55539 6.00033 1.99984C5.44477 1.44428 4.7781 1.1665 4.00033 1.1665C3.22255 1.1665 2.55588 1.44428 2.00033 1.99984C1.44477 2.55539 1.16699 3.22206 1.16699 3.99984C1.16699 4.77761 1.44477 5.44428 2.00033 5.99984C2.55588 6.55539 3.22255 6.83317 4.00033 6.83317Z" fill="#717171"/>
</g>
<defs>
<clipPath id="clip0_2655_3642">
<rect width="8" height="8" fill="white"/>
</clipPath>
</defs>
</svg>