<svg width="17" height="20" viewBox="0 0 17 20" fill="none" xmlns="http://www.w3.org/2000/svg">
<g id="CLOSE">
<path id="Vector (Stroke)" fill-rule="evenodd" clip-rule="evenodd" d="M0.408178 0.46451C0.952416 -0.154837 1.8348 -0.154837 2.37904 0.46451L16.3151 16.3239C16.8593 16.9432 16.8593 17.9474 16.3151 18.5667C15.7709 19.1861 14.8885 19.1861 14.3442 18.5667L0.408178 2.70736C-0.136059 2.08802 -0.136059 1.08386 0.408178 0.46451Z" fill="#CCCCCC"/>
<path id="Vector (Stroke)_2" fill-rule="evenodd" clip-rule="evenodd" d="M16.3151 0.46451C16.8593 1.08386 16.8593 2.08802 16.3151 2.70736L2.37904 18.5667C1.8348 19.1861 0.952416 19.1861 0.408178 18.5667C-0.136059 17.9474 -0.136059 16.9432 0.408178 16.3239L14.3442 0.46451C14.8885 -0.154837 15.7709 -0.154837 16.3151 0.46451Z" fill="#CCCCCC"/>
</g>
</svg>
