<svg width="24" height="24" viewBox="0 0 24 24" fill="none" xmlns="http://www.w3.org/2000/svg">
<g clip-path="url(#clip0_3582_7018)">
<path d="M21 2H2.1L2 9H8V22H18.3C18.7 22 18.8 21.5 18.4 21.4L15 20V9L18 8H21V2ZM4 7V4H12V20H10V7C8.4 7 4 7 4 7Z" fill="black"/>
<path d="M17 15C17.5523 15 18 14.5523 18 14C18 13.4477 17.5523 13 17 13C16.4477 13 16 13.4477 16 14C16 14.5523 16.4477 15 17 15Z" fill="black"/>
</g>
<defs>
<clipPath id="clip0_3582_7018">
<rect width="24" height="24" fill="white"/>
</clipPath>
</defs>
</svg>
