<svg width="32" height="32" viewBox="0 0 32 32" fill="none" xmlns="http://www.w3.org/2000/svg">
<g id="motion_sensor_idle_24dp_FILL0_wght400_GRAD0_opsz24 3">
<g id="Vector">
<path d="M27.3004 29.3666L0.900391 2.96665L2.80039 1.06665L29.2004 27.4666L27.3004 29.3666Z" fill="#FAFAFA"/>
<path d="M19.334 6.66662V12H22.0007V6.66662C22.0007 5.93328 21.7395 5.30551 21.2173 4.78328C20.6951 4.26106 20.0673 3.99995 19.334 3.99995C19.334 3.99995 11.6106 3.99822 11.334 3.99995C11.0574 4.00168 10.4887 4.03444 9.92865 4.3949L12.2004 6.66662H19.334Z" fill="#FAFAFA"/>
<path d="M8.86732 8.51691C8.73398 8.83913 8.66732 9.18913 8.66732 9.56691V20H11.334V9.60024L9.43398 7.66691C9.18954 7.91135 9.00065 8.19469 8.86732 8.51691Z" fill="#FAFAFA"/>
<path d="M14.0007 25.3333V28H19.334C19.7118 28 20.0562 27.9278 20.3673 27.7833C20.6784 27.6389 20.9562 27.4444 21.2007 27.2L19.334 25.3333H14.0007Z" fill="#FAFAFA"/>
<path d="M9.45065 27.2167C9.97287 27.7389 10.6007 28 11.334 28H16.6673V25.3333H11.334L11.334 20H8.66732L8.66732 25.3333C8.66732 26.0667 8.92843 26.6944 9.45065 27.2167Z" fill="#FAFAFA"/>
<path d="M19.334 13.8002L22.0007 16.4669V12H19.334V13.8002Z" fill="#FAFAFA"/>
<path d="M14.0007 25.3333V28H19.334C19.7118 28 20.0562 27.9278 20.3673 27.7833C20.6784 27.6389 20.9562 27.4444 21.2007 27.2L19.334 25.3333H14.0007Z" fill="#FAFAFA"/>
<path d="M19.3337 20L22.0004 20.6666L22.0004 25.3333C22.0004 25.7111 21.9282 26.0555 21.7837 26.3666C21.6393 26.6777 21.4451 26.9556 21.2007 27.2L19.334 25.3333L19.3337 20Z" fill="#FAFAFA"/>
</g>
</g>
</svg>
