<svg width="32" height="32" viewBox="0 0 32 32" fill="none" xmlns="http://www.w3.org/2000/svg">
<g id="crop_9_16_24dp_FILL0_wght400_GRAD0_opsz24 1">
<path id="Vector" d="M11.3332 28C10.5998 28 9.97206 27.7389 9.44984 27.2167C8.92762 26.6944 8.6665 26.0667 8.6665 25.3333V6.66667C8.6665 5.93333 8.92762 5.30556 9.44984 4.78333C9.97206 4.26111 10.5998 4 11.3332 4H19.3332C20.0665 4 20.6943 4.26111 21.2165 4.78333C21.7387 5.30556 21.9998 5.93333 21.9998 6.66667V25.3333C21.9998 26.0667 21.7387 26.6944 21.2165 27.2167C20.6943 27.7389 20.0665 28 19.3332 28H11.3332ZM11.3332 6.66667V25.3333H19.3332V6.66667H11.3332Z" fill="#FAFAFA"/>
</g>
</svg>
