<svg width="24" height="24" viewBox="0 0 24 24" fill="none" xmlns="http://www.w3.org/2000/svg">
<g id="crop_16_9_24dp_FILL0_wght400_GRAD0_opsz24">
<path id="Vector" d="M7 5C7 4.45 7.19583 3.97917 7.5875 3.5875C7.97917 3.19583 8.45 3 9 3L15 3C15.55 3 16.0208 3.19583 16.4125 3.5875C16.8042 3.97917 17 4.45 17 5L17 19C17 19.55 16.8042 20.0208 16.4125 20.4125C16.0208 20.8042 15.55 21 15 21L9 21C8.45 21 7.97917 20.8042 7.5875 20.4125C7.19583 20.0208 7 19.55 7 19L7 5ZM9 5L9 19L15 19L15 5L9 5Z" fill="#1779DE"/>
</g>
</svg>
