<svg width="16" height="16" viewBox="0 0 16 16" fill="none" xmlns="http://www.w3.org/2000/svg">
<g id="drag_pan_24dp_FILL0_wght400_GRAD0_opsz24 1">
<path id="Vector" d="M8.00016 14.6673L5.16683 11.834L6.11683 10.884L7.3335 12.1007V8.66732H3.91683L5.1335 9.86732L4.16683 10.834L1.3335 8.00065L4.15016 5.18398L5.10016 6.13398L3.90016 7.33398H7.3335V3.90065L6.11683 5.11732L5.16683 4.16732L8.00016 1.33398L10.8335 4.16732L9.8835 5.11732L8.66683 3.90065V7.33398H12.0835L10.8668 6.13398L11.8335 5.16732L14.6668 8.00065L11.8335 10.834L10.8835 9.88398L12.1002 8.66732H8.66683V12.084L9.86683 10.8673L10.8335 11.834L8.00016 14.6673Z" fill="#1779DE"/>
</g>
</svg>
