<svg width="34" height="34" viewBox="0 0 34 34" fill="none" xmlns="http://www.w3.org/2000/svg">
<path id="Vector" d="M28.9855 0.000244141H5.01198C2.25539 0.000244141 0 2.25563 0 5.01222V28.9883C0 31.7449 2.25539 34.0002 5.01198 34.0002H28.988C31.7446 34.0002 34 31.7449 34 28.9883V5.01222C33.9975 2.25563 31.7446 0.000244141 28.9855 0.000244141ZM28.6635 18.1474H24.6289V32.7447H18.5919V18.1474H15.5722V13.1153H18.5919V10.0956C18.5919 5.99081 20.296 3.54872 25.1451 3.54872H29.176V8.5795H26.6549C24.7704 8.5795 24.6451 9.28493 24.6451 10.5968L24.6289 13.1153H29.196L28.6635 18.1474Z" fill="#FF811C"/>
</svg>
