<svg width="19" height="19" viewBox="0 0 19 19" fill="none" xmlns="http://www.w3.org/2000/svg">
<g clip-path="url(#clip0_10194_13501)">
<path d="M7.82227 16.2917V12.3145L10.6632 16.2917V12.3145" stroke="#FF811C" stroke-width="1.5" stroke-linecap="round" stroke-linejoin="round"/>
<path d="M10.6631 3.22363V7.76909H15.2085" stroke="#FF811C" stroke-width="1.5" stroke-linecap="round" stroke-linejoin="round"/>
<path d="M3.27637 9.47363V3.79181C3.27637 3.64112 3.33623 3.4966 3.44278 3.39005C3.54934 3.28349 3.69386 3.22363 3.84455 3.22363H11.2309L15.2082 7.20091V9.47363" stroke="#FF811C" stroke-width="1.5" stroke-linecap="round" stroke-linejoin="round"/>
<path d="M2.70801 15.1554H3.84437C4.2211 15.1554 4.5824 15.0057 4.84878 14.7393C5.11517 14.4729 5.26483 14.1116 5.26483 13.7349C5.26483 13.3582 5.11517 12.9969 4.84878 12.7305C4.5824 12.4641 4.2211 12.3145 3.84437 12.3145H2.70801V16.2917" stroke="#FF811C" stroke-width="1.5" stroke-linecap="round" stroke-linejoin="round"/>
<path d="M15.7765 14.7932H16.3446V15.3613C16.0179 15.9224 15.4426 16.2917 14.7821 16.2917C13.7594 16.2917 12.9355 15.404 12.9355 14.3031C12.9355 13.2022 13.7594 12.3145 14.7821 12.3145C15.1379 12.3132 15.4854 12.4224 15.7765 12.627" stroke="#FF811C" stroke-width="1.5" stroke-linecap="round" stroke-linejoin="round"/>
</g>
<defs>
<clipPath id="clip0_10194_13501">
<rect width="18.1818" height="18.1818" fill="white" transform="translate(0.151367 0.666992)"/>
</clipPath>
</defs>
</svg>
