<svg width="25" height="25" viewBox="0 0 25 25" fill="none" xmlns="http://www.w3.org/2000/svg">
<path d="M3.16036 4.17515C3.16036 3.07198 3.5986 2.01398 4.37866 1.23392C5.15872 0.45386 6.21671 0.0156251 7.31989 0.0156251C8.80673 0.0156251 10.1529 0.650898 11.2072 1.87909C11.6125 2.36008 11.9589 2.88948 12.2357 3.45517C12.5125 2.88797 12.8574 2.35857 13.2642 1.87607C14.317 0.650898 15.6631 0.0156251 17.1515 0.0156251C17.8635 0.015493 18.5636 0.198117 19.1848 0.546015C19.806 0.893913 20.3274 1.39544 20.6993 2.00258C21.0712 2.60972 21.281 3.30216 21.3087 4.0136C21.3363 4.72504 21.1809 5.43167 20.8573 6.06584H21.6892C23.1503 6.06584 24.3361 7.25169 24.3361 8.71281V11.7379C24.3361 12.7937 23.7175 13.7058 22.8236 14.1308V21.5695C22.8236 22.2715 22.5447 22.9448 22.0483 23.4412C21.5519 23.9376 20.8786 24.2165 20.1766 24.2165H4.29478C3.59276 24.2165 2.91949 23.9376 2.42309 23.4412C1.92668 22.9448 1.64781 22.2715 1.64781 21.5695V14.1308C0.753889 13.7042 0.135254 12.7937 0.135254 11.7379V8.71281C0.135254 7.25169 1.3211 6.06584 2.78222 6.06584H3.61413C3.32372 5.49864 3.16036 4.8558 3.16036 4.17515ZM11.1013 14.3849H3.91664V21.5695C3.91664 21.7783 4.08605 21.9477 4.29478 21.9477H11.1013V14.3849ZM13.3701 14.3849V21.9477H20.1766C20.2769 21.9477 20.3731 21.9078 20.444 21.8369C20.5149 21.766 20.5547 21.6698 20.5547 21.5695V14.3849H13.3701ZM13.3701 8.33468V12.1161H21.6892C21.7894 12.1161 21.8856 12.0762 21.9565 12.0053C22.0275 11.9344 22.0673 11.8382 22.0673 11.7379V8.71281C22.0673 8.61253 22.0275 8.51635 21.9565 8.44543C21.8856 8.37452 21.7894 8.33468 21.6892 8.33468H13.3701ZM2.78222 8.33468C2.68194 8.33468 2.58576 8.37452 2.51484 8.44543C2.44393 8.51635 2.40409 8.61253 2.40409 8.71281V11.7379C2.40409 11.9467 2.57349 12.1161 2.78222 12.1161H11.1013V8.33468H2.78222ZM7.31989 2.28446C6.81845 2.28446 6.33754 2.48365 5.98297 2.83823C5.62839 3.1928 5.4292 3.67371 5.4292 4.17515C5.4292 4.67659 5.62839 5.1575 5.98297 5.51207C6.33754 5.86665 6.81845 6.06584 7.31989 6.06584H10.8124C10.46 4.82857 9.99257 3.94675 9.48435 3.35383C8.83396 2.59453 8.10037 2.28446 7.31989 2.28446ZM13.659 6.06584H17.1515C17.6529 6.06584 18.1338 5.86665 18.4884 5.51207C18.843 5.1575 19.0422 4.67659 19.0422 4.17515C19.0422 3.67371 18.843 3.1928 18.4884 2.83823C18.1338 2.48365 17.6529 2.28446 17.1515 2.28446C16.371 2.28446 15.6389 2.59453 14.9885 3.35383C14.4788 3.94675 14.0114 4.82857 13.659 6.06584Z" fill="#B3B3B3"/>
</svg>
