<svg width="34" height="34" viewBox="0 0 34 34" fill="none" xmlns="http://www.w3.org/2000/svg">
<path d="M17 34C12.4913 34 8.1673 32.2089 4.97918 29.0208C1.79107 25.8327 0 21.5087 0 17C0 12.4913 1.79107 8.1673 4.97918 4.97918C8.1673 1.79107 12.4913 0 17 0C21.5087 0 25.8327 1.79107 29.0208 4.97918C32.2089 8.1673 34 12.4913 34 17C34 21.5087 32.2089 25.8327 29.0208 29.0208C25.8327 32.2089 21.5087 34 17 34ZM30.175 20.4C30.7501 18.1698 30.7501 15.8302 30.175 13.6H23.681C23.8385 15.8639 23.8385 18.1361 23.681 20.4H30.175ZM28.781 23.8H23.307C23.0223 25.8491 22.4796 27.854 21.692 29.767C24.6784 28.6653 27.186 26.5547 28.781 23.8ZM13.736 20.4H20.264C20.4485 18.1371 20.4485 15.8629 20.264 13.6H13.736C13.5515 15.8629 13.5515 18.1371 13.736 20.4ZM14.161 23.8C14.858 27.88 16.082 30.6 17 30.6C17.918 30.6 19.142 27.88 19.839 23.8H14.161ZM3.825 20.4H10.319C10.1615 18.1361 10.1615 15.8639 10.319 13.6H3.825C3.24993 15.8302 3.24993 18.1698 3.825 20.4ZM5.219 23.8C6.81404 26.5547 9.32158 28.6653 12.308 29.767C11.594 28.135 11.05 26.095 10.693 23.8H5.219ZM28.781 10.2C27.186 7.44533 24.6784 5.33466 21.692 4.233C22.406 5.865 22.95 7.905 23.307 10.2H28.781ZM14.161 10.2H19.839C19.142 6.12 17.918 3.4 17 3.4C16.082 3.4 14.858 6.12 14.161 10.2ZM5.219 10.2H10.693C11.033 7.905 11.594 5.865 12.308 4.233C9.32158 5.33466 6.81404 7.44533 5.219 10.2Z" fill="#FF811C"/>
</svg>
