<svg width="35" height="25" viewBox="0 0 35 25" fill="none" xmlns="http://www.w3.org/2000/svg">
<path fill-rule="evenodd" clip-rule="evenodd" d="M0 2.15517C0 0.964904 0.95549 0 2.13415 0H32.8659C34.0445 0 35 0.964904 35 2.15517C35 3.34544 34.0445 4.31034 32.8659 4.31034H2.13415C0.95549 4.31034 0 3.34544 0 2.15517ZM0 12.5C0 11.3097 0.95549 10.3448 2.13415 10.3448H32.8659C34.0445 10.3448 35 11.3097 35 12.5C35 13.6903 34.0445 14.6552 32.8659 14.6552H2.13415C0.95549 14.6552 0 13.6903 0 12.5ZM0 22.8448C0 21.6546 0.95549 20.6897 2.13415 20.6897H32.8659C34.0445 20.6897 35 21.6546 35 22.8448C35 24.0351 34.0445 25 32.8659 25H2.13415C0.95549 25 0 24.0351 0 22.8448Z" fill="#B3B3B3"/>
</svg>
