<svg width="32" height="32" viewBox="0 0 32 32" fill="none" xmlns="http://www.w3.org/2000/svg">
<g id="help_FILL0_wght400_GRAD0_opsz24 1">
<path id="Vector" d="M15.9337 23.9993C16.4003 23.9993 16.7948 23.8382 17.117 23.516C17.4392 23.1938 17.6003 22.7993 17.6003 22.3327C17.6003 21.866 17.4392 21.4716 17.117 21.1493C16.7948 20.8271 16.4003 20.666 15.9337 20.666C15.467 20.666 15.0725 20.8271 14.7503 21.1493C14.4281 21.4716 14.267 21.866 14.267 22.3327C14.267 22.7993 14.4281 23.1938 14.7503 23.516C15.0725 23.8382 15.467 23.9993 15.9337 23.9993ZM14.7337 18.866H17.2003C17.2003 18.1327 17.2837 17.5549 17.4503 17.1327C17.617 16.7105 18.0892 16.1327 18.867 15.3993C19.4448 14.8216 19.9003 14.2716 20.2337 13.7493C20.567 13.2271 20.7337 12.5993 20.7337 11.866C20.7337 10.6216 20.2781 9.66602 19.367 8.99935C18.4559 8.33268 17.3781 7.99935 16.1337 7.99935C14.867 7.99935 13.8392 8.33268 13.0503 8.99935C12.2614 9.66602 11.7114 10.466 11.4003 11.3993L13.6003 12.266C13.7114 11.866 13.9614 11.4327 14.3503 10.966C14.7392 10.4993 15.3337 10.266 16.1337 10.266C16.8448 10.266 17.3781 10.4605 17.7337 10.8493C18.0892 11.2382 18.267 11.666 18.267 12.1327C18.267 12.5771 18.1337 12.9938 17.867 13.3827C17.6003 13.7716 17.267 14.1327 16.867 14.466C15.8892 15.3327 15.2892 15.9882 15.067 16.4327C14.8448 16.8771 14.7337 17.6882 14.7337 18.866ZM16.0003 29.3327C14.1559 29.3327 12.4225 28.9827 10.8003 28.2827C9.1781 27.5827 7.76699 26.6327 6.56699 25.4327C5.36699 24.2327 4.41699 22.8216 3.71699 21.1993C3.01699 19.5771 2.66699 17.8438 2.66699 15.9993C2.66699 14.1549 3.01699 12.4216 3.71699 10.7993C4.41699 9.17713 5.36699 7.76602 6.56699 6.56602C7.76699 5.36602 9.1781 4.41602 10.8003 3.71602C12.4225 3.01602 14.1559 2.66602 16.0003 2.66602C17.8448 2.66602 19.5781 3.01602 21.2003 3.71602C22.8225 4.41602 24.2337 5.36602 25.4337 6.56602C26.6337 7.76602 27.5837 9.17713 28.2837 10.7993C28.9837 12.4216 29.3337 14.1549 29.3337 15.9993C29.3337 17.8438 28.9837 19.5771 28.2837 21.1993C27.5837 22.8216 26.6337 24.2327 25.4337 25.4327C24.2337 26.6327 22.8225 27.5827 21.2003 28.2827C19.5781 28.9827 17.8448 29.3327 16.0003 29.3327ZM16.0003 26.666C18.9781 26.666 21.5003 25.6327 23.567 23.566C25.6337 21.4993 26.667 18.9771 26.667 15.9993C26.667 13.0216 25.6337 10.4993 23.567 8.43268C21.5003 6.36602 18.9781 5.33268 16.0003 5.33268C13.0225 5.33268 10.5003 6.36602 8.43366 8.43268C6.36699 10.4993 5.33366 13.0216 5.33366 15.9993C5.33366 18.9771 6.36699 21.4993 8.43366 23.566C10.5003 25.6327 13.0225 26.666 16.0003 26.666Z" fill="#FAFAFA"/>
</g>
</svg>
