<svg width="34" height="34" viewBox="0 0 34 34" fill="none" xmlns="http://www.w3.org/2000/svg">
<path id="Vector" d="M9.86 0.000244141H24.14C29.58 0.000244141 34 4.42024 34 9.86024V24.1402C34 26.7553 32.9612 29.2632 31.1121 31.1123C29.263 32.9614 26.755 34.0002 24.14 34.0002H9.86C4.42 34.0002 0 29.5802 0 24.1402V9.86024C0 7.24521 1.03882 4.73728 2.88793 2.88817C4.73704 1.03906 7.24497 0.000244141 9.86 0.000244141ZM9.52 3.40024C7.89687 3.40024 6.34023 4.04503 5.19251 5.19275C4.04478 6.34047 3.4 7.89712 3.4 9.52024V24.4802C3.4 27.8632 6.137 30.6002 9.52 30.6002H24.48C26.1031 30.6002 27.6598 29.9555 28.8075 28.8077C29.9552 27.66 30.6 26.1034 30.6 24.4802V9.52024C30.6 6.13724 27.863 3.40024 24.48 3.40024H9.52ZM25.925 5.95024C26.4886 5.95024 27.0291 6.17413 27.4276 6.57264C27.8261 6.97116 28.05 7.51166 28.05 8.07524C28.05 8.63883 27.8261 9.17933 27.4276 9.57785C27.0291 9.97636 26.4886 10.2002 25.925 10.2002C25.3614 10.2002 24.8209 9.97636 24.4224 9.57785C24.0239 9.17933 23.8 8.63883 23.8 8.07524C23.8 7.51166 24.0239 6.97116 24.4224 6.57264C24.8209 6.17413 25.3614 5.95024 25.925 5.95024ZM17 8.50024C19.2543 8.50024 21.4163 9.39578 23.0104 10.9898C24.6045 12.5839 25.5 14.7459 25.5 17.0002C25.5 19.2546 24.6045 21.4166 23.0104 23.0107C21.4163 24.6047 19.2543 25.5002 17 25.5002C14.7457 25.5002 12.5837 24.6047 10.9896 23.0107C9.39553 21.4166 8.5 19.2546 8.5 17.0002C8.5 14.7459 9.39553 12.5839 10.9896 10.9898C12.5837 9.39578 14.7457 8.50024 17 8.50024ZM17 11.9002C15.6474 11.9002 14.3502 12.4376 13.3938 13.394C12.4373 14.3504 11.9 15.6476 11.9 17.0002C11.9 18.3528 12.4373 19.6501 13.3938 20.6065C14.3502 21.5629 15.6474 22.1002 17 22.1002C18.3526 22.1002 19.6498 21.5629 20.6062 20.6065C21.5627 19.6501 22.1 18.3528 22.1 17.0002C22.1 15.6476 21.5627 14.3504 20.6062 13.394C19.6498 12.4376 18.3526 11.9002 17 11.9002Z" fill="#FF811C"/>
</svg>
