<svg width="16" height="16" viewBox="0 0 16 16" fill="none" xmlns="http://www.w3.org/2000/svg">
<g id="link_24dp_FILL0_wght400_GRAD0_opsz24 1">
<path id="Vector" d="M7.33301 11.3332H4.66634C3.74412 11.3332 2.95801 11.0082 2.30801 10.3582C1.65801 9.70817 1.33301 8.92206 1.33301 7.99984C1.33301 7.07761 1.65801 6.2915 2.30801 5.6415C2.95801 4.9915 3.74412 4.6665 4.66634 4.6665H7.33301V5.99984H4.66634C4.11079 5.99984 3.63856 6.19428 3.24967 6.58317C2.86079 6.97206 2.66634 7.44428 2.66634 7.99984C2.66634 8.55539 2.86079 9.02761 3.24967 9.4165C3.63856 9.80539 4.11079 9.99984 4.66634 9.99984H7.33301V11.3332ZM5.33301 8.6665V7.33317H10.6663V8.6665H5.33301ZM8.66634 11.3332V9.99984H11.333C11.8886 9.99984 12.3608 9.80539 12.7497 9.4165C13.1386 9.02761 13.333 8.55539 13.333 7.99984C13.333 7.44428 13.1386 6.97206 12.7497 6.58317C12.3608 6.19428 11.8886 5.99984 11.333 5.99984H8.66634V4.6665H11.333C12.2552 4.6665 13.0413 4.9915 13.6913 5.6415C14.3413 6.2915 14.6663 7.07761 14.6663 7.99984C14.6663 8.92206 14.3413 9.70817 13.6913 10.3582C13.0413 11.0082 12.2552 11.3332 11.333 11.3332H8.66634Z" fill="#717171"/>
</g>
</svg>
