<svg width="48" height="48" viewBox="0 0 48 48" fill="none" xmlns="http://www.w3.org/2000/svg">
<g id="list_24dp_FILL0_wght400_GRAD0_opsz24 1">
<path id="Vector" d="M14 18V14H42V18H14ZM14 26V22H42V26H14ZM14 34V30H42V34H14ZM8 18C7.43333 18 6.95833 17.8083 6.575 17.425C6.19167 17.0417 6 16.5667 6 16C6 15.4333 6.19167 14.9583 6.575 14.575C6.95833 14.1917 7.43333 14 8 14C8.56667 14 9.04167 14.1917 9.425 14.575C9.80833 14.9583 10 15.4333 10 16C10 16.5667 9.80833 17.0417 9.425 17.425C9.04167 17.8083 8.56667 18 8 18ZM8 26C7.43333 26 6.95833 25.8083 6.575 25.425C6.19167 25.0417 6 24.5667 6 24C6 23.4333 6.19167 22.9583 6.575 22.575C6.95833 22.1917 7.43333 22 8 22C8.56667 22 9.04167 22.1917 9.425 22.575C9.80833 22.9583 10 23.4333 10 24C10 24.5667 9.80833 25.0417 9.425 25.425C9.04167 25.8083 8.56667 26 8 26ZM8 34C7.43333 34 6.95833 33.8083 6.575 33.425C6.19167 33.0417 6 32.5667 6 32C6 31.4333 6.19167 30.9583 6.575 30.575C6.95833 30.1917 7.43333 30 8 30C8.56667 30 9.04167 30.1917 9.425 30.575C9.80833 30.9583 10 31.4333 10 32C10 32.5667 9.80833 33.0417 9.425 33.425C9.04167 33.8083 8.56667 34 8 34Z" fill="#E8EAED"/>
</g>
</svg>
