<svg width="36" height="36" viewBox="0 0 36 36" fill="none" xmlns="http://www.w3.org/2000/svg">
<path d="M11.2498 8.4L7.49984 10.5L9.59984 6.75L7.49984 3L11.2498 5.1L14.9998 3L12.8998 6.75L14.9998 10.5L11.2498 8.4ZM29.2498 23.1L32.9998 21L30.8998 24.75L32.9998 28.5L29.2498 26.4L25.4998 28.5L27.5998 24.75L25.4998 21L29.2498 23.1ZM32.9998 3L30.8998 6.75L32.9998 10.5L29.2498 8.4L25.4998 10.5L27.5998 6.75L25.4998 3L29.2498 5.1L32.9998 3ZM20.0098 19.17L23.6698 15.51L20.4898 12.33L16.8298 15.99L20.0098 19.17ZM21.5548 10.935L25.0648 14.445C25.6498 15 25.6498 15.975 25.0648 16.56L7.55984 34.065C6.97484 34.65 5.99984 34.65 5.44484 34.065L1.93484 30.555C1.34984 30 1.34984 29.025 1.93484 28.44L19.4398 10.935C20.0248 10.35 20.9998 10.35 21.5548 10.935Z" fill="white"/>
</svg>
