<svg width="8" height="12" viewBox="0 0 8 12" fill="none" xmlns="http://www.w3.org/2000/svg">
<path d="M2.00033 11.3332C1.63366 11.3332 1.31977 11.2026 1.05866 10.9415C0.797548 10.6804 0.666992 10.3665 0.666992 9.99984C0.666992 9.63317 0.797548 9.31928 1.05866 9.05817C1.31977 8.79706 1.63366 8.6665 2.00033 8.6665C2.36699 8.6665 2.68088 8.79706 2.94199 9.05817C3.2031 9.31928 3.33366 9.63317 3.33366 9.99984C3.33366 10.3665 3.2031 10.6804 2.94199 10.9415C2.68088 11.2026 2.36699 11.3332 2.00033 11.3332ZM6.00033 11.3332C5.63366 11.3332 5.31977 11.2026 5.05866 10.9415C4.79755 10.6804 4.66699 10.3665 4.66699 9.99984C4.66699 9.63317 4.79755 9.31928 5.05866 9.05817C5.31977 8.79706 5.63366 8.6665 6.00033 8.6665C6.36699 8.6665 6.68088 8.79706 6.94199 9.05817C7.2031 9.31928 7.33366 9.63317 7.33366 9.99984C7.33366 10.3665 7.2031 10.6804 6.94199 10.9415C6.68088 11.2026 6.36699 11.3332 6.00033 11.3332ZM2.00033 7.33317C1.63366 7.33317 1.31977 7.20262 1.05866 6.9415C0.797548 6.68039 0.666992 6.3665 0.666992 5.99984C0.666992 5.63317 0.797548 5.31928 1.05866 5.05817C1.31977 4.79706 1.63366 4.6665 2.00033 4.6665C2.36699 4.6665 2.68088 4.79706 2.94199 5.05817C3.2031 5.31928 3.33366 5.63317 3.33366 5.99984C3.33366 6.3665 3.2031 6.68039 2.94199 6.9415C2.68088 7.20262 2.36699 7.33317 2.00033 7.33317ZM6.00033 7.33317C5.63366 7.33317 5.31977 7.20262 5.05866 6.9415C4.79755 6.68039 4.66699 6.3665 4.66699 5.99984C4.66699 5.63317 4.79755 5.31928 5.05866 5.05817C5.31977 4.79706 5.63366 4.6665 6.00033 4.6665C6.36699 4.6665 6.68088 4.79706 6.94199 5.05817C7.2031 5.31928 7.33366 5.63317 7.33366 5.99984C7.33366 6.3665 7.2031 6.68039 6.94199 6.9415C6.68088 7.20262 6.36699 7.33317 6.00033 7.33317ZM2.00033 3.33317C1.63366 3.33317 1.31977 3.20262 1.05866 2.9415C0.797548 2.68039 0.666992 2.3665 0.666992 1.99984C0.666992 1.63317 0.797548 1.31928 1.05866 1.05817C1.31977 0.797059 1.63366 0.666504 2.00033 0.666504C2.36699 0.666504 2.68088 0.797059 2.94199 1.05817C3.2031 1.31928 3.33366 1.63317 3.33366 1.99984C3.33366 2.3665 3.2031 2.68039 2.94199 2.9415C2.68088 3.20262 2.36699 3.33317 2.00033 3.33317ZM6.00033 3.33317C5.63366 3.33317 5.31977 3.20262 5.05866 2.9415C4.79755 2.68039 4.66699 2.3665 4.66699 1.99984C4.66699 1.63317 4.79755 1.31928 5.05866 1.05817C5.31977 0.797059 5.63366 0.666504 6.00033 0.666504C6.36699 0.666504 6.68088 0.797059 6.94199 1.05817C7.2031 1.31928 7.33366 1.63317 7.33366 1.99984C7.33366 2.3665 7.2031 2.68039 6.94199 2.9415C6.68088 3.20262 6.36699 3.33317 6.00033 3.33317Z" fill="#AEAEAE"/>
</svg>
