<svg width="20" height="21" viewBox="0 0 20 21" fill="none" xmlns="http://www.w3.org/2000/svg">
<path d="M10 20.3398L5.75 16.0898L7.175 14.6648L9 16.4898V11.3398H3.875L5.7 13.1398L4.25 14.5898L0 10.3398L4.225 6.11484L5.65 7.53984L3.85 9.33984H9V4.18984L7.175 6.01484L5.75 4.58984L10 0.339844L14.25 4.58984L12.825 6.01484L11 4.18984V9.33984H16.125L14.3 7.53984L15.75 6.08984L20 10.3398L15.75 14.5898L14.325 13.1648L16.15 11.3398H11V16.4648L12.8 14.6398L14.25 16.0898L10 20.3398Z" fill="#FCFCFC"/>
</svg>
