<svg width="32" height="32" viewBox="0 0 32 32" fill="none" xmlns="http://www.w3.org/2000/svg">
<g id="preview_24dp_FILL0_wght400_GRAD0_opsz24 1">
<path id="Vector" d="M6.66667 28C5.93333 28 5.30556 27.7389 4.78333 27.2167C4.26111 26.6944 4 26.0667 4 25.3333V6.66667C4 5.93333 4.26111 5.30556 4.78333 4.78333C5.30556 4.26111 5.93333 4 6.66667 4H25.3333C26.0667 4 26.6944 4.26111 27.2167 4.78333C27.7389 5.30556 28 5.93333 28 6.66667V25.3333C28 26.0667 27.7389 26.6944 27.2167 27.2167C26.6944 27.7389 26.0667 28 25.3333 28H6.66667ZM6.66667 25.3333H25.3333V9.33333H6.66667V25.3333ZM16 22.6667C14.1778 22.6667 12.55 22.1722 11.1167 21.1833C9.68333 20.1944 8.64444 18.9111 8 17.3333C8.64444 15.7556 9.68333 14.4722 11.1167 13.4833C12.55 12.4944 14.1778 12 16 12C17.8222 12 19.45 12.4944 20.8833 13.4833C22.3167 14.4722 23.3556 15.7556 24 17.3333C23.3556 18.9111 22.3167 20.1944 20.8833 21.1833C19.45 22.1722 17.8222 22.6667 16 22.6667ZM16 20.6667C17.2444 20.6667 18.3778 20.3722 19.4 19.7833C20.4222 19.1944 21.2222 18.3778 21.8 17.3333C21.2222 16.2889 20.4222 15.4722 19.4 14.8833C18.3778 14.2944 17.2444 14 16 14C14.7556 14 13.6222 14.2944 12.6 14.8833C11.5778 15.4722 10.7778 16.2889 10.2 17.3333C10.7778 18.3778 11.5778 19.1944 12.6 19.7833C13.6222 20.3722 14.7556 20.6667 16 20.6667ZM16 19.3333C16.5556 19.3333 17.0278 19.1389 17.4167 18.75C17.8056 18.3611 18 17.8889 18 17.3333C18 16.7778 17.8056 16.3056 17.4167 15.9167C17.0278 15.5278 16.5556 15.3333 16 15.3333C15.4444 15.3333 14.9722 15.5278 14.5833 15.9167C14.1944 16.3056 14 16.7778 14 17.3333C14 17.8889 14.1944 18.3611 14.5833 18.75C14.9722 19.1389 15.4444 19.3333 16 19.3333Z" fill="#539FED"/>
</g>
</svg>
