<svg width="8" height="8" viewBox="0 0 8 8" fill="none" xmlns="http://www.w3.org/2000/svg">
<g clip-path="url(#clip0_2655_6598)">
<path d="M7.225 7.65853L6.25833 6.69186C5.98056 6.89742 5.675 7.05575 5.34167 7.16686C5.00833 7.27797 4.65556 7.33353 4.28333 7.33353C3.82222 7.33353 3.38889 7.24603 2.98333 7.07103C2.57778 6.89603 2.225 6.65853 1.925 6.35853C1.625 6.05853 1.3875 5.70575 1.2125 5.3002C1.0375 4.89464 0.95 4.46131 0.95 4.0002C0.95 3.62797 1.00556 3.2752 1.11667 2.94186C1.22778 2.60853 1.38611 2.30297 1.59167 2.0252L0.5 0.933529L0.858333 0.575195L7.58333 7.3002L7.225 7.65853ZM3.925 6.8252V6.14186C3.73056 6.14186 3.56667 6.06964 3.43333 5.9252C3.3 5.78075 3.23333 5.61131 3.23333 5.41686V5.0502L1.525 3.34186C1.49722 3.45297 1.47778 3.5627 1.46667 3.67103C1.45556 3.77936 1.45 3.88908 1.45 4.0002C1.45 4.72242 1.68472 5.35297 2.15417 5.89186C2.62361 6.43075 3.21389 6.74186 3.925 6.8252ZM6.975 5.9752L6.61667 5.61686C6.77778 5.37797 6.90139 5.12103 6.9875 4.84603C7.07361 4.57103 7.11667 4.28908 7.11667 4.0002C7.11667 3.41131 6.95556 2.87658 6.63333 2.39603C6.31111 1.91547 5.88056 1.56408 5.34167 1.34186V1.49186C5.34167 1.68631 5.275 1.85575 5.14167 2.0002C5.00833 2.14464 4.84444 2.21686 4.65 2.21686H3.925V2.9252L2.30833 1.30853C2.58611 1.10297 2.89167 0.94464 3.225 0.833529C3.55833 0.722418 3.91111 0.666862 4.28333 0.666862C4.74444 0.666862 5.17778 0.754362 5.58333 0.929362C5.98889 1.10436 6.34167 1.34186 6.64167 1.64186C6.94167 1.94186 7.17917 2.29464 7.35417 2.7002C7.52917 3.10575 7.61667 3.53908 7.61667 4.0002C7.61667 4.37242 7.56111 4.7252 7.45 5.05853C7.33889 5.39186 7.18056 5.69742 6.975 5.9752Z" fill="#717171"/>
</g>
<defs>
<clipPath id="clip0_2655_6598">
<rect width="8" height="8" fill="white"/>
</clipPath>
</defs>
</svg>