<svg width="55" height="54" viewBox="0 0 55 54" fill="none" xmlns="http://www.w3.org/2000/svg">
<path d="M52 27C52 40.2548 41.031 51 27.5 51C13.969 51 3 40.2548 3 27C3 13.7452 13.969 3 27.5 3C41.031 3 52 13.7452 52 27Z" fill="#D9D9D9"/>
<path fill-rule="evenodd" clip-rule="evenodd" d="M54.497 27.0001C54.497 41.6057 42.4102 53.4459 27.5002 53.4459C12.5903 53.4459 0.503418 41.6057 0.503418 27.0001C0.503418 12.3944 12.5903 0.554199 27.5002 0.554199C42.4102 0.554199 54.497 12.3944 54.497 27.0001ZM27.5002 51.0001C41.0312 51.0001 52.0002 40.2549 52.0002 27.0001C52.0002 13.7452 41.0312 3.00006 27.5002 3.00006C13.9693 3.00006 3.00023 13.7452 3.00023 27.0001C3.00023 40.2549 13.9693 51.0001 27.5002 51.0001Z" fill="#F5F5F5"/>
<path d="M42.0962 40.125H12.9038C12.5095 40.125 12.1875 39.8047 12.1875 39.4126V35.5825C12.1875 29.8113 22.9917 27.4779 27.5 27.4779C32.0083 27.4779 42.8125 29.8113 42.8125 35.5825V39.4126C42.8125 39.8047 42.4905 40.125 42.0962 40.125ZM27.5 26.3342C23.0048 26.3342 19.3509 22.7002 19.3574 18.2296C19.3509 13.759 23.0048 10.125 27.5 10.125C31.9952 10.125 35.6491 13.759 35.6491 18.2296C35.6491 22.7002 31.9952 26.3342 27.5 26.3342Z" fill="#717171"/>
</svg>
