<svg width="8" height="8" viewBox="0 0 8 8" fill="none" xmlns="http://www.w3.org/2000/svg">
<g clip-path="url(#clip0_2655_6592)">
<path d="M3.83333 7.33366C3.37222 7.33366 2.93889 7.24616 2.53333 7.07116C2.12778 6.89616 1.775 6.65866 1.475 6.35866C1.175 6.05866 0.9375 5.70588 0.7625 5.30033C0.5875 4.89477 0.5 4.46144 0.5 4.00033C0.5 3.53921 0.5875 3.10588 0.7625 2.70033C0.9375 2.29477 1.175 1.94199 1.475 1.64199C1.775 1.34199 2.12778 1.10449 2.53333 0.929492C2.93889 0.754492 3.37222 0.666992 3.83333 0.666992C4.29444 0.666992 4.72778 0.754492 5.13333 0.929492C5.53889 1.10449 5.89167 1.34199 6.19167 1.64199C6.49167 1.94199 6.72917 2.29477 6.90417 2.70033C7.07917 3.10588 7.16667 3.53921 7.16667 4.00033C7.16667 4.46144 7.07917 4.89477 6.90417 5.30033C6.72917 5.70588 6.49167 6.05866 6.19167 6.35866C5.89167 6.65866 5.53889 6.89616 5.13333 7.07116C4.72778 7.24616 4.29444 7.33366 3.83333 7.33366ZM3.475 6.82533V6.14199C3.28056 6.14199 3.11667 6.06977 2.98333 5.92533C2.85 5.78088 2.78333 5.61144 2.78333 5.41699V5.05033L1.075 3.34199C1.04722 3.4531 1.02778 3.56283 1.01667 3.67116C1.00556 3.77949 1 3.88921 1 4.00033C1 4.72255 1.23472 5.3531 1.70417 5.89199C2.17361 6.43088 2.76389 6.74199 3.475 6.82533ZM5.925 5.92533C6.04722 5.79199 6.15417 5.65033 6.24583 5.50033C6.3375 5.35033 6.41528 5.19338 6.47917 5.02949C6.54306 4.8656 6.59028 4.69755 6.62083 4.52533C6.65139 4.3531 6.66667 4.1781 6.66667 4.00033C6.66667 3.41144 6.50556 2.87671 6.18333 2.39616C5.86111 1.9156 5.43056 1.56421 4.89167 1.34199V1.49199C4.89167 1.68644 4.825 1.85588 4.69167 2.00033C4.55833 2.14477 4.39444 2.21699 4.2 2.21699H3.475V2.94199C3.475 3.03644 3.4375 3.11421 3.3625 3.17533C3.2875 3.23644 3.20278 3.26699 3.10833 3.26699H2.41667V4.00033H4.56667C4.66111 4.00033 4.73889 4.03644 4.8 4.10866C4.86111 4.18088 4.89167 4.26421 4.89167 4.35866V5.41699H5.25C5.41111 5.41699 5.55278 5.46421 5.675 5.55866C5.79722 5.6531 5.88056 5.77533 5.925 5.92533Z" fill="#717171"/>
</g>
<defs>
<clipPath id="clip0_2655_6592">
<rect width="8" height="8" fill="white"/>
</clipPath>
</defs>
</svg>