<svg width="16" height="17" viewBox="0 0 16 17" fill="none" xmlns="http://www.w3.org/2000/svg">
<g id="redo_24dp_FILL0_wght400_GRAD0_opsz24">
<path id="Vector" d="M6.59935 13.166C5.52157 13.166 4.59657 12.816 3.82435 12.116C3.05213 11.416 2.66602 10.5438 2.66602 9.49935C2.66602 8.4549 3.05213 7.58268 3.82435 6.88268C4.59657 6.18268 5.52157 5.83268 6.59935 5.83268H10.7993L9.06602 4.09935L9.99935 3.16602L13.3327 6.49935L9.99935 9.83268L9.06602 8.89935L10.7993 7.16602H6.59935C5.89935 7.16602 5.29102 7.38824 4.77435 7.83268C4.25768 8.27713 3.99935 8.83268 3.99935 9.49935C3.99935 10.166 4.25768 10.7216 4.77435 11.166C5.29102 11.6105 5.89935 11.8327 6.59935 11.8327H11.3327V13.166H6.59935Z" fill="#655F5F"/>
</g>
</svg>
