<svg width="32" height="32" viewBox="0 0 32 32" fill="none" xmlns="http://www.w3.org/2000/svg">
<g id="redo_24dp_FILL0_wght400_GRAD0_opsz24">
<path id="Vector" d="M13.1997 25.334C11.0441 25.334 9.19412 24.634 7.64967 23.234C6.10523 21.834 5.33301 20.0895 5.33301 18.0007C5.33301 15.9118 6.10523 14.1673 7.64967 12.7673C9.19412 11.3673 11.0441 10.6673 13.1997 10.6673H21.5997L18.133 7.20065L19.9997 5.33398L26.6663 12.0007L19.9997 18.6673L18.133 16.8007L21.5997 13.334H13.1997C11.7997 13.334 10.583 13.7784 9.54967 14.6673C8.51634 15.5562 7.99967 16.6673 7.99967 18.0007C7.99967 19.334 8.51634 20.4451 9.54967 21.334C10.583 22.2229 11.7997 22.6673 13.1997 22.6673H22.6663V25.334H13.1997Z" fill="#FAFAFA"/>
</g>
</svg>
