<svg width="24" height="24" viewBox="0 0 24 24" fill="none" xmlns="http://www.w3.org/2000/svg">
<g id="rotate_right_24dp_FILL0_wght400_GRAD0_opsz24 1">
<path id="Vector" d="M13.0498 22.0008V19.9508C13.6165 19.8674 14.1706 19.7174 14.7123 19.5008C15.254 19.2841 15.7665 19.0008 16.2498 18.6508L17.6498 20.1008C16.9498 20.6341 16.2165 21.0633 15.4498 21.3883C14.6831 21.7133 13.8831 21.9174 13.0498 22.0008ZM11.0498 22.0008C8.7498 21.7008 6.84147 20.7049 5.3248 19.0133C3.80814 17.3216 3.0498 15.3341 3.0498 13.0508C3.0498 11.8008 3.2873 10.6299 3.7623 9.53828C4.2373 8.44661 4.87897 7.49661 5.6873 6.68828C6.49564 5.87995 7.44564 5.23828 8.5373 4.76328C9.62897 4.28828 10.7998 4.05078 12.0498 4.05078H12.1998L10.6498 2.50078L12.0498 1.05078L16.0498 5.05078L12.0498 9.05078L10.6498 7.65078L12.2498 6.05078H12.0498C10.0998 6.05078 8.44564 6.72995 7.0873 8.08828C5.72897 9.44661 5.0498 11.1008 5.0498 13.0508C5.0498 14.7841 5.61647 16.3049 6.7498 17.6133C7.88314 18.9216 9.31647 19.7008 11.0498 19.9508V22.0008ZM19.0998 18.6508L17.6498 17.2508C17.9998 16.7674 18.2831 16.2549 18.4998 15.7133C18.7165 15.1716 18.8665 14.6174 18.9498 14.0508H20.9998C20.9165 14.8841 20.7123 15.6841 20.3873 16.4508C20.0623 17.2174 19.6331 17.9508 19.0998 18.6508ZM20.9998 12.0508H18.9498C18.8665 11.4841 18.7165 10.9299 18.4998 10.3883C18.2831 9.84661 17.9998 9.33412 17.6498 8.85078L19.0998 7.45078C19.6331 8.10078 20.0581 8.81745 20.3748 9.60078C20.6915 10.3841 20.8998 11.2008 20.9998 12.0508Z" fill="#1779DE"/>
</g>
</svg>
