<svg width="20" height="14" viewBox="0 0 20 14" fill="none" xmlns="http://www.w3.org/2000/svg">
<path d="M7 13.3398L5.6 11.9398L7.35 10.1398C5.21667 9.85651 3.45833 9.27318 2.075 8.38984C0.691667 7.50651 0 6.48984 0 5.33984C0 3.95651 0.9625 2.77734 2.8875 1.80234C4.8125 0.827344 7.18333 0.339844 10 0.339844C12.8167 0.339844 15.1875 0.827344 17.1125 1.80234C19.0375 2.77734 20 3.95651 20 5.33984C20 6.37318 19.4458 7.29818 18.3375 8.11484C17.2292 8.93151 15.7833 9.53984 14 9.93984V7.88984C15.2833 7.55651 16.2708 7.14401 16.9625 6.65234C17.6542 6.16068 18 5.72318 18 5.33984C18 4.80651 17.2875 4.17318 15.8625 3.43984C14.4375 2.70651 12.4833 2.33984 10 2.33984C7.51667 2.33984 5.5625 2.70651 4.1375 3.43984C2.7125 4.17318 2 4.80651 2 5.33984C2 5.73984 2.425 6.21901 3.275 6.77734C4.125 7.33568 5.33333 7.75651 6.9 8.03984L5.6 6.73984L7 5.33984L11 9.33984L7 13.3398Z" fill="#FCFCFC"/>
</svg>
