<svg width="24" height="26" viewBox="0 0 24 26" fill="none" xmlns="http://www.w3.org/2000/svg">
<path fill-rule="evenodd" clip-rule="evenodd" d="M6.9652 4.851C6.9652 2.21918 9.1006 0.125 11.6765 0.125C14.2525 0.125 16.3879 2.21918 16.3879 4.851C16.3879 6.40364 15.6242 7.81243 14.4177 8.67784L16.6379 18.9641H21.428C22.2229 18.9641 22.9127 19.6159 22.9127 20.4707V23.531C22.9127 24.3859 22.2229 25.0377 21.428 25.0377H2.33184C1.53689 25.0377 0.847168 24.3859 0.847168 23.531V20.4707C0.847168 19.6159 1.53689 18.9641 2.33184 18.9641H6.69859L8.91988 8.66812C7.7242 7.80086 6.9652 6.39847 6.9652 4.851ZM11.6765 2.04136C10.0858 2.04136 8.83516 3.3256 8.83516 4.851C8.83516 5.89295 9.4349 6.85915 10.3915 7.34264L11.0492 7.67504L8.20027 20.8804H2.71713V23.1213H21.0427V20.8804H15.1364L12.2861 7.67537L12.9508 7.34524C13.9139 6.86684 14.5179 5.89759 14.5179 4.851C14.5179 3.3256 13.2672 2.04136 11.6765 2.04136Z" fill="#B3B3B3"/>
<path fill-rule="evenodd" clip-rule="evenodd" d="M6.8402 4.851C6.8402 2.14969 9.03202 0 11.6765 0C14.321 0 16.5129 2.14969 16.5129 4.851C16.5129 6.4165 15.7567 7.83914 14.557 8.73087L16.7388 18.8391H21.428C22.2911 18.8391 23.0377 19.546 23.0377 20.4707V23.531C23.0377 24.4558 22.2911 25.1627 21.428 25.1627H2.33184C1.46873 25.1627 0.722168 24.4558 0.722168 23.531V20.4707C0.722168 19.546 1.46873 18.8391 2.33184 18.8391H6.59769L8.78065 8.72071C7.59177 7.82752 6.8402 6.41136 6.8402 4.851ZM11.6765 0.25C9.16918 0.25 7.0902 2.28867 7.0902 4.851C7.0902 6.35697 7.82881 7.72233 8.99327 8.56694L9.05926 8.6148L6.7995 19.0891H2.33184C1.60505 19.0891 0.972168 19.6858 0.972168 20.4707V23.531C0.972168 24.316 1.60505 24.9127 2.33184 24.9127H21.428C22.1548 24.9127 22.7877 24.316 22.7877 23.531V20.4707C22.7877 19.6858 22.1548 19.0891 21.428 19.0891H16.537L14.2782 8.62406L14.3448 8.57627C15.5196 7.73357 16.2629 6.36207 16.2629 4.851C16.2629 2.28867 14.1839 0.25 11.6765 0.25ZM11.6765 2.16636C10.1549 2.16636 8.96016 3.39458 8.96016 4.851C8.96016 5.8446 9.53229 6.76831 10.4479 7.23108L11.1918 7.60703L8.30118 21.0054H2.84213V22.9963H20.9177V21.0054H15.0355L12.1434 7.60669L12.8952 7.23329C13.8167 6.77556 14.3929 5.84915 14.3929 4.851C14.3929 3.39458 13.1981 2.16636 11.6765 2.16636ZM8.71016 4.851C8.71016 3.25662 10.0167 1.91636 11.6765 1.91636C13.3363 1.91636 14.6429 3.25662 14.6429 4.851C14.6429 5.94604 14.0112 6.95811 13.0064 7.45719L12.4289 7.74406L15.2373 20.7554H21.1677V23.2463H2.59213V20.7554H8.09936L10.9067 7.74306L10.3352 7.4542C9.33751 6.94998 8.71016 5.9413 8.71016 4.851Z" fill="#B3B3B3"/>
</svg>
