<svg width="24" height="24" viewBox="0 0 24 24" fill="none" xmlns="http://www.w3.org/2000/svg">
<path d="M18 2H6C4.9 2 4 2.9 4 4V20C4 21.1 4.9 22 6 22H18C19.1 22 20 21.1 20 20V4C20 2.9 19.1 2 18 2ZM6 4H18V11H14V10H12.7V9.2H13.3L12.6 6.3C12.8 6.2 13 5.9 13 5.6C13 5.1 12.6 4.6 12 4.6C11.4 4.6 11 5 11 5.6C11 5.9 11.2 6.2 11.4 6.4L10.7 9.3H11.3V10H10V11H6V4ZM17 20V19H15.7V18.2H16.3L15.6 15.3C15.9 15.1 16.1 14.8 16.1 14.5C16.1 14 15.7 13.5 15.1 13.5C14.5 13.5 14.1 13.9 14.1 14.5C14.1 14.8 14.3 15.1 14.5 15.3L13.8 18.2H14.4V19H13V20H11V19H9.7V18.2H10.3L9.6 15.3C9.9 15.1 10.1 14.8 10.1 14.5C10.1 14 9.7 13.5 9.1 13.5C8.5 13.5 8.1 13.9 8.1 14.5C8.1 14.8 8.3 15.1 8.5 15.3L7.8 18.2H8.4V19H7V20H6V13H18V20H17Z" fill="black"/>
</svg>
