<svg width="18" height="19" viewBox="0 0 18 19" fill="none" xmlns="http://www.w3.org/2000/svg">
<path d="M10 18.3398H2C1.45 18.3398 0.979167 18.144 0.5875 17.7523C0.195833 17.3607 0 16.8898 0 16.3398V8.33984H10V18.3398ZM1 16.3398H9L6.4 12.8398L4.5 15.3398L3.1 13.4898L1 16.3398ZM2 2.33984H0C0 1.78984 0.195833 1.31901 0.5875 0.927344C0.979167 0.535677 1.45 0.339844 2 0.339844V2.33984ZM4 2.33984V0.339844H6V2.33984H4ZM8 2.33984V0.339844H10V2.33984H8ZM12 2.33984V0.339844H14V2.33984H12ZM12 18.3398V16.3398H14V18.3398H12ZM16 2.33984V0.339844C16.55 0.339844 17.0208 0.535677 17.4125 0.927344C17.8042 1.31901 18 1.78984 18 2.33984H16ZM0 6.33984V4.33984H2V6.33984H0ZM16 16.3398H18C18 16.8898 17.8042 17.3607 17.4125 17.7523C17.0208 18.144 16.55 18.3398 16 18.3398V16.3398ZM16 14.3398V12.3398H18V14.3398H16ZM16 10.3398V8.33984H18V10.3398H16ZM16 6.33984V4.33984H18V6.33984H16Z" fill="#FCFCFC"/>
</svg>
