<svg width="8" height="8" viewBox="0 0 8 8" fill="none" xmlns="http://www.w3.org/2000/svg">
<g clip-path="url(#clip0_2655_6603)">
<path d="M1.16667 2.6665H5.83333V1.99984H1.16667V2.6665ZM1.16667 7.33317C0.983333 7.33317 0.826389 7.26789 0.695833 7.13734C0.565278 7.00678 0.5 6.84984 0.5 6.6665V1.99984C0.5 1.8165 0.565278 1.65956 0.695833 1.529C0.826389 1.39845 0.983333 1.33317 1.16667 1.33317H1.5V0.666504H2.16667V1.33317H4.83333V0.666504H5.5V1.33317H5.83333C6.01667 1.33317 6.17361 1.39845 6.30417 1.529C6.43472 1.65956 6.5 1.8165 6.5 1.99984V3.8915C6.39444 3.8415 6.28611 3.79984 6.175 3.7665C6.06389 3.73317 5.95 3.70817 5.83333 3.6915V3.33317H1.16667V6.6665H3.26667C3.30556 6.78873 3.35139 6.90539 3.40417 7.0165C3.45694 7.12762 3.51944 7.23317 3.59167 7.33317H1.16667ZM5.5 7.6665C5.03889 7.6665 4.64583 7.504 4.32083 7.179C3.99583 6.854 3.83333 6.46095 3.83333 5.99984C3.83333 5.53873 3.99583 5.14567 4.32083 4.82067C4.64583 4.49567 5.03889 4.33317 5.5 4.33317C5.96111 4.33317 6.35417 4.49567 6.67917 4.82067C7.00417 5.14567 7.16667 5.53873 7.16667 5.99984C7.16667 6.46095 7.00417 6.854 6.67917 7.179C6.35417 7.504 5.96111 7.6665 5.5 7.6665ZM6.05833 6.7915L6.29167 6.55817L5.66667 5.93317V4.99984H5.33333V6.0665L6.05833 6.7915Z" fill="#717171"/>
</g>
<defs>
<clipPath id="clip0_2655_6603">
<rect width="8" height="8" fill="white"/>
</clipPath>
</defs>
</svg>