<svg width="17" height="16" viewBox="0 0 17 16" fill="none" xmlns="http://www.w3.org/2000/svg">
<g id="settings_24dp_FILL0_wght400_GRAD0_opsz24 1">
<path id="Vector" d="M6.66647 14.6667L6.39981 12.5333C6.25536 12.4778 6.11925 12.4111 5.99147 12.3333C5.86369 12.2556 5.73869 12.1722 5.61647 12.0833L3.63314 12.9167L1.7998 9.75L3.51647 8.45C3.50536 8.37222 3.4998 8.29722 3.4998 8.225V7.775C3.4998 7.70278 3.50536 7.62778 3.51647 7.55L1.7998 6.25L3.63314 3.08334L5.61647 3.91667C5.73869 3.82778 5.86647 3.74445 5.9998 3.66667C6.13314 3.58889 6.26647 3.52222 6.39981 3.46667L6.66647 1.33334H10.3331L10.5998 3.46667C10.7442 3.52222 10.8804 3.58889 11.0081 3.66667C11.1359 3.74445 11.2609 3.82778 11.3831 3.91667L13.3665 3.08334L15.1998 6.25L13.4831 7.55C13.4942 7.62778 13.4998 7.70278 13.4998 7.775V8.225C13.4998 8.29722 13.4887 8.37222 13.4665 8.45L15.1831 9.75L13.3498 12.9167L11.3831 12.0833C11.2609 12.1722 11.1331 12.2556 10.9998 12.3333C10.8665 12.4111 10.7331 12.4778 10.5998 12.5333L10.3331 14.6667H6.66647ZM7.83314 13.3333H9.14981L9.38314 11.5667C9.72758 11.4778 10.047 11.3472 10.3415 11.175C10.6359 11.0028 10.9054 10.7944 11.1498 10.55L12.7998 11.2333L13.4498 10.1L12.0165 9.01667C12.072 8.86111 12.1109 8.69722 12.1331 8.525C12.1554 8.35278 12.1665 8.17778 12.1665 8C12.1665 7.82222 12.1554 7.64722 12.1331 7.475C12.1109 7.30278 12.072 7.13889 12.0165 6.98334L13.4498 5.9L12.7998 4.76667L11.1498 5.46667C10.9054 5.21111 10.6359 4.99722 10.3415 4.825C10.047 4.65278 9.72758 4.52222 9.38314 4.43334L9.16647 2.66667H7.8498L7.61647 4.43334C7.27203 4.52222 6.95258 4.65278 6.65814 4.825C6.36369 4.99722 6.09425 5.20556 5.8498 5.45L4.1998 4.76667L3.5498 5.9L4.98314 6.96667C4.92758 7.13334 4.88869 7.3 4.86647 7.46667C4.84425 7.63334 4.83314 7.81111 4.83314 8C4.83314 8.17778 4.84425 8.35 4.86647 8.51667C4.88869 8.68334 4.92758 8.85 4.98314 9.01667L3.5498 10.1L4.1998 11.2333L5.8498 10.5333C6.09425 10.7889 6.36369 11.0028 6.65814 11.175C6.95258 11.3472 7.27203 11.4778 7.61647 11.5667L7.83314 13.3333ZM8.53314 10.3333C9.17758 10.3333 9.72758 10.1056 10.1831 9.65C10.6387 9.19445 10.8665 8.64445 10.8665 8C10.8665 7.35556 10.6387 6.80556 10.1831 6.35C9.72758 5.89445 9.17758 5.66667 8.53314 5.66667C7.87758 5.66667 7.3248 5.89445 6.8748 6.35C6.42481 6.80556 6.1998 7.35556 6.1998 8C6.1998 8.64445 6.42481 9.19445 6.8748 9.65C7.3248 10.1056 7.87758 10.3333 8.53314 10.3333Z" fill="#FAFAFA"/>
</g>
</svg>
