<svg width="32" height="28" viewBox="0 0 32 28" fill="none" xmlns="http://www.w3.org/2000/svg">
<path fill-rule="evenodd" clip-rule="evenodd" d="M1.2448 1.2448C2.04183 0.447766 3.12283 0 4.25 0H15.625C16.7522 0 17.8332 0.447766 18.6302 1.2448C19.4272 2.04183 19.875 3.12283 19.875 4.25V7.5C19.875 8.05228 19.4273 8.5 18.875 8.5C18.3227 8.5 17.875 8.05228 17.875 7.5V4.25C17.875 3.65326 17.6379 3.08097 17.216 2.65901C16.794 2.23705 16.2217 2 15.625 2H4.25C3.65326 2 3.08097 2.23705 2.65901 2.65901C2.23705 3.08097 2 3.65326 2 4.25V23.75C2 24.3467 2.23705 24.919 2.65901 25.341C3.08097 25.7629 3.65326 26 4.25 26H15.625C16.2217 26 16.794 25.7629 17.216 25.341C17.6379 24.919 17.875 24.3467 17.875 23.75V20.5C17.875 19.9477 18.3227 19.5 18.875 19.5C19.4273 19.5 19.875 19.9477 19.875 20.5V23.75C19.875 24.8772 19.4272 25.9582 18.6302 26.7552C17.8332 27.5522 16.7522 28 15.625 28H4.25C3.12283 28 2.04183 27.5522 1.2448 26.7552C0.447766 25.9582 0 24.8772 0 23.75V4.25C0 3.12283 0.447766 2.04183 1.2448 1.2448Z" fill="#717171"/>
<path fill-rule="evenodd" clip-rule="evenodd" d="M24.6679 8.41789C25.0584 8.02737 25.6916 8.02737 26.0821 8.41789L30.9571 13.2929C31.3476 13.6834 31.3476 14.3166 30.9571 14.7071L26.0821 19.5821C25.6916 19.9726 25.0584 19.9726 24.6679 19.5821C24.2774 19.1916 24.2774 18.5584 24.6679 18.1679L27.8358 15H10.75C10.1977 15 9.75 14.5523 9.75 14C9.75 13.4477 10.1977 13 10.75 13H27.8358L24.6679 9.83211C24.2774 9.44158 24.2774 8.80842 24.6679 8.41789Z" fill="#717171"/>
</svg>
