<svg width="26" height="26" viewBox="0 0 26 26" fill="none" xmlns="http://www.w3.org/2000/svg">
<path d="M1.20054 12.1579L1.20049 12.1579C1.09912 12.2593 1.02444 12.3715 0.969529 12.4996C0.913696 12.6299 0.885254 12.7701 0.885254 12.9041C0.885254 13.0334 0.911866 13.1825 0.970837 13.3117C1.02562 13.4386 1.09992 13.5498 1.20049 13.6504L1.37688 13.474L1.20049 13.6504L12.4966 24.9465C12.598 25.0478 12.7101 25.1225 12.8383 25.1774C12.9685 25.2333 13.1088 25.2617 13.2428 25.2617C13.3721 25.2617 13.5211 25.2351 13.6504 25.1761C13.7772 25.1213 13.8884 25.047 13.989 24.9465L25.2851 13.6504C25.3865 13.549 25.4612 13.4368 25.5161 13.3087C25.5719 13.1784 25.6004 13.0382 25.6004 12.9041V3.2238C25.6004 2.51711 25.3179 1.83339 24.8139 1.33734L24.741 1.2655H24.7331C24.2445 0.808395 23.5942 0.553711 22.9232 0.553711H13.2428C13.1053 0.553711 12.9634 0.580766 12.8352 0.639306C12.7084 0.694088 12.5972 0.768384 12.4966 0.868943L1.20054 12.1579ZM3.66819 13.119L3.66806 13.1189C3.54503 12.9958 3.54503 12.8053 3.66806 12.6823L13.5904 2.75996C13.6489 2.70145 13.7271 2.66948 13.8122 2.66948H22.9232C23.0708 2.66948 23.2135 2.72885 23.3158 2.83114C23.4181 2.93344 23.4775 3.07614 23.4775 3.2238V12.3347C23.4775 12.4199 23.4455 12.498 23.387 12.5565L13.4575 22.486C13.3345 22.609 13.144 22.609 13.021 22.486L3.66819 13.119Z" fill="#B3B3B3" stroke="#B3B3B3" stroke-width="0.5"/>
<path d="M16.3749 9.77292C16.8304 10.2285 17.4426 10.4847 18.0832 10.4847C18.7238 10.4847 19.343 10.2285 19.7915 9.77292C20.247 9.31737 20.5033 8.70523 20.5033 8.06462C20.5033 7.42401 20.247 6.80475 19.7915 6.35632C19.3359 5.90789 18.7238 5.64453 18.0832 5.64453C17.4426 5.64453 16.8233 5.90078 16.3749 6.35632C15.9264 6.81187 15.6631 7.42401 15.6631 8.06462C15.6631 8.70523 15.9193 9.32449 16.3749 9.77292ZM17.5137 7.48807C17.6632 7.33859 17.8696 7.25318 18.0832 7.25318C18.2967 7.25318 18.5031 7.33859 18.6526 7.48807C18.8021 7.63754 18.8875 7.84396 18.8875 8.0575C18.8875 8.27104 18.8021 8.47746 18.6526 8.62693C18.5031 8.77641 18.2967 8.86182 18.0832 8.86182C17.8696 8.86182 17.6632 8.77641 17.5137 8.62693C17.3643 8.47746 17.2789 8.27104 17.2789 8.0575C17.2789 7.84396 17.3643 7.63754 17.5137 7.48807Z" fill="#B3B3B3"/>
</svg>
