<svg width="80" height="80" viewBox="0 0 80 80" fill="none" xmlns="http://www.w3.org/2000/svg">
<g id="task_alt_FILL0_wght400_GRAD0_opsz24 1">
<path id="Vector" d="M40.0003 73.3327C35.3892 73.3327 31.0559 72.4577 27.0003 70.7077C22.9448 68.9577 19.417 66.5827 16.417 63.5827C13.417 60.5827 11.042 57.0549 9.29199 52.9993C7.54199 48.9438 6.66699 44.6105 6.66699 39.9993C6.66699 35.3882 7.54199 31.0549 9.29199 26.9993C11.042 22.9438 13.417 19.416 16.417 16.416C19.417 13.416 22.9448 11.041 27.0003 9.29102C31.0559 7.54102 35.3892 6.66602 40.0003 6.66602C43.6114 6.66602 47.0281 7.19379 50.2503 8.24935C53.4725 9.3049 56.4448 10.7771 59.167 12.666L54.3337 17.5827C52.2225 16.2493 49.9725 15.2077 47.5837 14.4577C45.1948 13.7077 42.667 13.3327 40.0003 13.3327C32.6114 13.3327 26.3198 15.9299 21.1253 21.1243C15.9309 26.3188 13.3337 32.6105 13.3337 39.9993C13.3337 47.3882 15.9309 53.6799 21.1253 58.8743C26.3198 64.0688 32.6114 66.666 40.0003 66.666C47.3892 66.666 53.6809 64.0688 58.8753 58.8743C64.0698 53.6799 66.667 47.3882 66.667 39.9993C66.667 38.9993 66.6114 37.9993 66.5003 36.9993C66.3892 35.9993 66.2225 35.0271 66.0003 34.0827L71.417 28.666C72.0281 30.4438 72.5003 32.2771 72.8337 34.166C73.167 36.0549 73.3337 37.9993 73.3337 39.9993C73.3337 44.6105 72.4587 48.9438 70.7087 52.9993C68.9587 57.0549 66.5837 60.5827 63.5837 63.5827C60.5837 66.5827 57.0559 68.9577 53.0003 70.7077C48.9448 72.4577 44.6114 73.3327 40.0003 73.3327ZM35.3337 55.3327L21.167 41.166L25.8337 36.4993L35.3337 45.9993L68.667 12.5827L73.3337 17.2493L35.3337 55.3327Z" fill="#FF811C"/>
</g>
</svg>
