<svg width="28" height="29" viewBox="0 0 28 29" fill="none" xmlns="http://www.w3.org/2000/svg">
<path d="M17.9949 25.0188L18.057 24.9103C18.0553 24.9093 18.0544 24.9085 18.0539 24.9081L18.0535 24.9077L18.0534 24.9075L18.0534 24.9075L18.0533 24.9073C18.0533 24.9071 18.0531 24.9063 18.0531 24.9049V8.98441C18.0531 8.90751 18.0606 8.85131 18.0832 8.80827C18.1024 8.77151 18.1403 8.73034 18.2342 8.70054L22.8385 7.41406L22.8386 7.41436L22.8505 27.7447L22.9117 27.6356L22.9115 27.6356L22.911 27.6352L22.9098 27.6346L22.9087 27.6339L22.8995 27.6288L22.8638 27.6087L22.7276 27.5323L22.237 27.2568L20.7079 26.3982C19.5687 25.7586 18.3547 25.0771 18.056 24.9097L17.9949 25.0188ZM17.9949 25.0188C17.9527 24.9946 17.9281 24.9532 17.9281 24.9049V8.98441C17.9281 8.82224 17.9562 8.65661 18.1986 8.5807L17.9949 25.0188ZM13.8504 27.2091H10.75C10.7431 27.2091 10.7415 27.2042 10.7415 27.2029V7.25227C10.7415 6.81149 10.3773 6.46133 9.93838 6.46133H1.81162C1.80473 6.46133 1.80311 6.45651 1.80311 6.45521V1.80051C1.80311 1.79621 1.80451 1.79422 1.80558 1.79315C1.80676 1.79197 1.80854 1.79094 1.81162 1.79094H13.8504V27.2091Z" fill="#B3B3B3" stroke="#B3B3B3" stroke-width="0.25"/>
</svg>
