<svg width="16" height="17" viewBox="0 0 16 17" fill="none" xmlns="http://www.w3.org/2000/svg">
<g id="undo_24dp_FILL0_wght400_GRAD0_opsz24">
<path id="Vector" d="M4.66602 13.166V11.8327H9.39935C10.0993 11.8327 10.7077 11.6105 11.2243 11.166C11.741 10.7216 11.9993 10.166 11.9993 9.49935C11.9993 8.83268 11.741 8.27713 11.2243 7.83268C10.7077 7.38824 10.0993 7.16602 9.39935 7.16602H5.19935L6.93268 8.89935L5.99935 9.83268L2.66602 6.49935L5.99935 3.16602L6.93268 4.09935L5.19935 5.83268H9.39935C10.4771 5.83268 11.4021 6.18268 12.1743 6.88268C12.9466 7.58268 13.3327 8.4549 13.3327 9.49935C13.3327 10.5438 12.9466 11.416 12.1743 12.116C11.4021 12.816 10.4771 13.166 9.39935 13.166H4.66602Z" fill="#655F5F"/>
</g>
</svg>
