<svg width="32" height="32" viewBox="0 0 32 32" fill="none" xmlns="http://www.w3.org/2000/svg">
<g id="undo_24dp_FILL0_wght400_GRAD0_opsz24">
<path id="Vector" d="M9.33301 25.334V22.6673H18.7997C20.1997 22.6673 21.4163 22.2229 22.4497 21.334C23.483 20.4451 23.9997 19.334 23.9997 18.0007C23.9997 16.6673 23.483 15.5562 22.4497 14.6673C21.4163 13.7784 20.1997 13.334 18.7997 13.334H10.3997L13.8663 16.8007L11.9997 18.6673L5.33301 12.0007L11.9997 5.33398L13.8663 7.20065L10.3997 10.6673H18.7997C20.9552 10.6673 22.8052 11.3673 24.3497 12.7673C25.8941 14.1673 26.6663 15.9118 26.6663 18.0007C26.6663 20.0895 25.8941 21.834 24.3497 23.234C22.8052 24.634 20.9552 25.334 18.7997 25.334H9.33301Z" fill="#FAFAFA"/>
</g>
</svg>
