<svg width="32" height="32" viewBox="0 0 32 32" fill="none" xmlns="http://www.w3.org/2000/svg">
<g id="visibility_24dp_FILL0_wght400_GRAD0_opsz24 1">
<path id="Vector" d="M15.9997 21.334C17.6663 21.334 19.083 20.7507 20.2497 19.584C21.4163 18.4173 21.9997 17.0007 21.9997 15.334C21.9997 13.6673 21.4163 12.2507 20.2497 11.084C19.083 9.91732 17.6663 9.33398 15.9997 9.33398C14.333 9.33398 12.9163 9.91732 11.7497 11.084C10.583 12.2507 9.99967 13.6673 9.99967 15.334C9.99967 17.0007 10.583 18.4173 11.7497 19.584C12.9163 20.7507 14.333 21.334 15.9997 21.334ZM15.9997 18.934C14.9997 18.934 14.1497 18.584 13.4497 17.884C12.7497 17.184 12.3997 16.334 12.3997 15.334C12.3997 14.334 12.7497 13.484 13.4497 12.784C14.1497 12.084 14.9997 11.734 15.9997 11.734C16.9997 11.734 17.8497 12.084 18.5497 12.784C19.2497 13.484 19.5997 14.334 19.5997 15.334C19.5997 16.334 19.2497 17.184 18.5497 17.884C17.8497 18.584 16.9997 18.934 15.9997 18.934ZM15.9997 25.334C12.7552 25.334 9.79967 24.4284 7.13301 22.6173C4.46634 20.8062 2.53301 18.3784 1.33301 15.334C2.53301 12.2895 4.46634 9.86176 7.13301 8.05065C9.79967 6.23954 12.7552 5.33398 15.9997 5.33398C19.2441 5.33398 22.1997 6.23954 24.8663 8.05065C27.533 9.86176 29.4663 12.2895 30.6663 15.334C29.4663 18.3784 27.533 20.8062 24.8663 22.6173C22.1997 24.4284 19.2441 25.334 15.9997 25.334ZM15.9997 22.6673C18.5108 22.6673 20.8163 22.0062 22.9163 20.684C25.0163 19.3618 26.6219 17.5784 27.733 15.334C26.6219 13.0895 25.0163 11.3062 22.9163 9.98398C20.8163 8.66176 18.5108 8.00065 15.9997 8.00065C13.4886 8.00065 11.183 8.66176 9.08301 9.98398C6.98301 11.3062 5.37745 13.0895 4.26634 15.334C5.37745 17.5784 6.98301 19.3618 9.08301 20.684C11.183 22.0062 13.4886 22.6673 15.9997 22.6673Z" fill="#FAFAFA"/>
</g>
</svg>
