<svg width="32" height="32" viewBox="0 0 32 32" fill="none" xmlns="http://www.w3.org/2000/svg">
<g id="visibility_off_24dp_FILL0_wght400_GRAD0_opsz24 1">
<path id="Vector" d="M21.4663 17.7334L19.533 15.8001C19.733 14.7556 19.433 13.7778 18.633 12.8667C17.833 11.9556 16.7997 11.6001 15.533 11.8001L13.5997 9.86673C13.9775 9.68895 14.3608 9.55562 14.7497 9.46673C15.1386 9.37784 15.5552 9.3334 15.9997 9.3334C17.6663 9.3334 19.083 9.91673 20.2497 11.0834C21.4163 12.2501 21.9997 13.6667 21.9997 15.3334C21.9997 15.7778 21.9552 16.1945 21.8663 16.5834C21.7775 16.9723 21.6441 17.3556 21.4663 17.7334ZM25.733 21.9334L23.7997 20.0667C24.6441 19.4223 25.3941 18.7167 26.0497 17.9501C26.7052 17.1834 27.2663 16.3112 27.733 15.3334C26.6219 13.089 25.0275 11.3056 22.9497 9.9834C20.8719 8.66118 18.5552 8.00007 15.9997 8.00007C15.3552 8.00007 14.7219 8.04451 14.0997 8.1334C13.4775 8.22229 12.8663 8.35562 12.2663 8.5334L10.1997 6.46673C11.1108 6.08895 12.0441 5.80562 12.9997 5.61673C13.9552 5.42784 14.9552 5.3334 15.9997 5.3334C19.3552 5.3334 22.3441 6.26118 24.9663 8.11673C27.5886 9.97229 29.4886 12.3778 30.6663 15.3334C30.1552 16.6445 29.483 17.8612 28.6497 18.9834C27.8163 20.1056 26.8441 21.089 25.733 21.9334ZM26.3997 30.1334L20.7997 24.6001C20.0219 24.8445 19.2386 25.0278 18.4497 25.1501C17.6608 25.2723 16.8441 25.3334 15.9997 25.3334C12.6441 25.3334 9.65523 24.4056 7.03301 22.5501C4.41079 20.6945 2.51079 18.289 1.33301 15.3334C1.79967 14.1556 2.38856 13.0612 3.09967 12.0501C3.81079 11.039 4.6219 10.1334 5.53301 9.3334L1.86634 5.60007L3.73301 3.7334L28.2663 28.2667L26.3997 30.1334ZM7.39967 11.2001C6.75523 11.7778 6.16634 12.4112 5.63301 13.1001C5.09967 13.789 4.64412 14.5334 4.26634 15.3334C5.37745 17.5778 6.9719 19.3612 9.04967 20.6834C11.1275 22.0056 13.4441 22.6667 15.9997 22.6667C16.4441 22.6667 16.8775 22.639 17.2997 22.5834C17.7219 22.5278 18.1552 22.4667 18.5997 22.4001L17.3997 21.1334C17.1552 21.2001 16.9219 21.2501 16.6997 21.2834C16.4775 21.3167 16.2441 21.3334 15.9997 21.3334C14.333 21.3334 12.9163 20.7501 11.7497 19.5834C10.583 18.4167 9.99967 17.0001 9.99967 15.3334C9.99967 15.089 10.0163 14.8556 10.0497 14.6334C10.083 14.4112 10.133 14.1778 10.1997 13.9334L7.39967 11.2001Z" fill="#FAFAFA"/>
</g>
</svg>
