<svg width="16" height="16" viewBox="0 0 16 16" fill="none" xmlns="http://www.w3.org/2000/svg">
<g id="warning-bold" clip-path="url(#clip0_8439_37856)">
<path id="Vector" d="M8 6.5V8.5" stroke="#FAFAFA" stroke-width="1.5" stroke-linecap="round" stroke-linejoin="round"/>
<path id="Vector_2" d="M7.1374 2.50016L1.6374 12.0002C1.54978 12.1519 1.50357 12.324 1.50342 12.4993C1.50326 12.6745 1.54916 12.8467 1.63651 12.9986C1.72386 13.1506 1.8496 13.2768 2.00113 13.3649C2.15266 13.4529 2.32466 13.4995 2.4999 13.5002H13.4999C13.6751 13.4995 13.8471 13.4529 13.9987 13.3649C14.1502 13.2768 14.2759 13.1506 14.3633 12.9986C14.4506 12.8467 14.4965 12.6745 14.4964 12.4993C14.4962 12.324 14.45 12.1519 14.3624 12.0002L8.8624 2.50016C8.77543 2.3482 8.64987 2.22192 8.49841 2.13409C8.34695 2.04626 8.17498 2 7.9999 2C7.82481 2 7.65284 2.04626 7.50138 2.13409C7.34992 2.22192 7.22436 2.3482 7.1374 2.50016V2.50016Z" stroke="#FAFAFA" stroke-width="1.5" stroke-linecap="round" stroke-linejoin="round"/>
<path id="Vector_3" d="M8 12C8.55228 12 9 11.5523 9 11C9 10.4477 8.55228 10 8 10C7.44772 10 7 10.4477 7 11C7 11.5523 7.44772 12 8 12Z" fill="#FAFAFA"/>
</g>
<defs>
<clipPath id="clip0_8439_37856">
<rect width="16" height="16" fill="white"/>
</clipPath>
</defs>
</svg>
