<svg width="24" height="25" viewBox="0 0 24 25" fill="none" xmlns="http://www.w3.org/2000/svg">
<path d="M23.4148 23.3494L19.9657 19.8005V6.1478L18.3368 3.04624C18.2167 2.80977 18.0364 2.61178 17.8154 2.47367C17.5945 2.33555 17.3413 2.26255 17.0832 2.26255C16.8252 2.26255 16.572 2.33555 16.3511 2.47367C16.1301 2.61178 15.9498 2.80977 15.8297 3.04624L14.2999 6.15513V13.964L1.34634 0.619245C1.24728 0.515838 1.12072 0.445315 0.982793 0.416668C0.844867 0.388021 0.701825 0.402548 0.571904 0.458395C0.441983 0.514243 0.33107 0.608882 0.253305 0.730246C0.175541 0.85161 0.134448 0.994201 0.135266 1.13984V7.06434H1.67213V8.23751H0.135266V12.9302H1.67213V14.1033H0.135266V18.9793H1.67213V20.1525H0.135266V23.87C0.135266 24.0644 0.209883 24.2509 0.342702 24.3884C0.475521 24.526 0.655663 24.6032 0.843497 24.6032H22.912C23.0527 24.6041 23.1904 24.5615 23.3076 24.481C23.4248 24.4005 23.5163 24.2857 23.5702 24.1512C23.6241 24.0167 23.6382 23.8686 23.6105 23.7258C23.5828 23.583 23.5147 23.4519 23.4148 23.3494ZM5.80112 18.796V12.153L12.2248 18.796H5.80112ZM18.5493 20.3431H15.7164V18.5614H18.5493V20.3431ZM18.5493 17.4102H15.7164V6.51442L17.0903 3.75014L18.5493 6.52175V17.4102Z" fill="#B3B3B3"/>
</svg>
