<svg width="34" height="28" viewBox="0 0 34 28" fill="none" xmlns="http://www.w3.org/2000/svg">
<path id="Vector" d="M33.2904 4.37413C33.0969 3.52717 32.7174 2.75479 32.1899 2.13429C31.6625 1.51379 31.0056 1.06694 30.285 0.838461C27.6326 0.000244288 17 0.000244141 17 0.000244141C17 0.000244141 6.36741 0.000243994 3.71496 0.834002C2.99405 1.06174 2.33683 1.50834 1.80931 2.12896C1.28178 2.74957 0.902515 3.52234 0.709598 4.36967C-1.25193e-07 7.49069 0 14.0002 0 14.0002C0 14.0002 -1.25193e-07 20.5098 0.709598 23.6264C1.10045 25.3474 2.25402 26.7028 3.71496 27.162C6.36741 28.0002 17 28.0002 17 28.0002C17 28.0002 27.6326 28.0002 30.285 27.162C31.7498 26.7028 32.8996 25.3474 33.2904 23.6264C34 20.5098 34 14.0002 34 14.0002C34 14.0002 34 7.49069 33.2904 4.37413ZM13.6228 19.9748V8.02572L22.4263 13.9557L13.6228 19.9748Z" fill="#FF811C"/>
</svg>
