<?xml version="1.0" encoding="UTF-8"?>
<svg id="_レイヤー_2" data-name="レイヤー 2" xmlns="http://www.w3.org/2000/svg" viewBox="0 0 129.56 129.56">
  <defs>
    <style>
      .cls-1 {
        fill: #bea271;
      }
    </style>
  </defs>
  <g id="logo">
    <g id="_饑7" data-name="ﾑ饑7">
      <path class="cls-1" d="m119.93,98.71c6.1-9.88,9.63-21.5,9.63-33.93s-3.53-24.06-9.63-33.93V9.63h-21.22C88.84,3.53,77.21,0,64.78,0s-24.06,3.53-33.93,9.63H9.63v21.22C3.53,40.72,0,52.35,0,64.78s3.53,24.06,9.63,33.93v21.22h21.22c9.88,6.1,21.5,9.63,33.93,9.63s24.06-3.53,33.93-9.63h21.22v-21.22Zm8.8-33.93c0,11.79-3.22,22.83-8.8,32.32V32.46c5.58,9.49,8.8,20.53,8.8,32.32Zm-9.63,33.69c-5.2,8.36-12.28,15.43-20.64,20.64H31.09c-8.36-5.2-15.43-12.28-20.63-20.64V31.09c5.2-8.36,12.28-15.43,20.63-20.64h67.38c8.36,5.2,15.43,12.28,20.64,20.64v67.38Zm0-88.02v19.11c-4.96-7.63-11.48-14.15-19.11-19.11h19.11ZM64.78.83c11.79,0,22.83,3.22,32.32,8.8H32.46C41.95,4.04,52.99.83,64.78.83ZM10.45,10.45h19.11c-7.63,4.96-14.15,11.48-19.11,19.11V10.45ZM.83,64.78c0-11.79,3.22-22.83,8.8-32.32v64.64C4.04,87.61.83,76.57.83,64.78Zm9.63,54.33v-19.11c4.96,7.63,11.48,14.15,19.11,19.11H10.45Zm54.33,9.63c-11.79,0-22.83-3.22-32.32-8.8h64.64c-9.49,5.58-20.54,8.8-32.32,8.8Zm35.22-9.63c7.63-4.96,14.15-11.48,19.11-19.11v19.11h-19.11Z"/>
    </g>
  </g>
</svg>