<?xml version="1.0" encoding="UTF-8"?>
<svg id="_レイヤー_2" data-name="レイヤー 2" xmlns="http://www.w3.org/2000/svg" viewBox="0 0 338.06 120.34">
  <defs>
    <style>
      .cls-1 {
        fill: #bc632f;
      }

      .cls-2 {
        fill: #3598af;
      }
    </style>
  </defs>
  <g id="_編集モード" data-name="編集モード">
    <g>
      <g>
        <path class="cls-1" d="m57.05,1.92c0-1.12-.79-1.65-2.32-1.72-4.19-.19-7.8-.2-8.81-.2-1.18,0-4.22,0-8.41.2-1.53.07-2.32.6-2.32,1.72s2.38,3.63,2.38,8.52c0,.34.09,30.08.12,37.71h0c0,32.19-9.25,40.51-17.17,41.26-3.34.32-5.99-.08-6.53-2.63-.64-3.03,2.31-4.62,1.96-7.99-.2-1.96-1.74-7.86-9.55-6.47-8.81,1.57-12.15,24.1,14.44,24.1,34.23,0,33.72-33.97,33.71-47.32.02-5.63.05-38.86.05-39.22,0-4.9,2.46-6.84,2.46-7.96Z"/>
        <path class="cls-1" d="m279.46,96.42c-4.39,0-7.98-1.18-10.68-3.49-2.77-2.37-4.19-5.71-4.22-9.92,0-8.9,6.67-14.53,19.84-16.74,3.94-.61,4.77-.88,4.94-.95.46-.19,1.66-.69,1.66-3.4,0-2.07-.41-3.53-1.23-4.32-.84-.81-1.78-1.21-2.88-1.21-1.9,0-3.62,1.06-5.27,3.24-2.29,3.02-5.05,4.56-8.2,4.56-2.01,0-3.59-.61-4.7-1.8-1.07-1.16-1.62-2.42-1.62-3.74,0-2.29.88-5.53,5.09-7.9,4.94-2.77,10.24-4.18,15.76-4.18h2.4c2.87,0,5.66.62,8.29,1.84,2.72,1.27,4.86,3.22,6.35,5.82,1.48,2.59,2.2,7.91,2.2,16.28,0,10.82.59,15.98.63,16.36.43,3.56,1.23,4.5,2.38,4.67,1.42.21.83,1.8-1.43,2.82-2.44,1.09-5.46,1.48-8.82,1.48-2.46,0-4.58-1.09-6.32-3.25-.32-.4-.54-.64-.68-.77-.19.09-.54.29-1.08.67-3.61,2.47-7.53,3.77-11.68,3.89l-.06.06h-.66Zm.92-14.67c0,1.17.4,3.54,3.41,4.1,5.03.94,7.19-3.06,7.19-3.92.07-1.07.16-4.71.19-6.61.01-.63-.55-1.11-1.17-.98-2.81.55-9.63,2.4-9.63,7.41Z"/>
        <path class="cls-1" d="m335.76,84.92h.02s-.01-.17-.02-.26c0-.73.02-47.75.02-48.01,0-4.54,2.28-6.81,2.28-7.84s-.73-1.53-2.15-1.6c-3.88-.17-7.24-.18-8.17-.18-1.1,0-3.92,0-7.8.18-1.42.06-2.15.55-2.15,1.6s2.21,3.37,2.21,7.91v50.02c0,4.54-2.21,6.88-2.21,7.91s.73,1.53,2.15,1.6c3.88.17,6.71.18,7.8.18.94,0,4.29,0,8.17-.18,1.42-.06,2.15-.55,2.15-1.6s-2.28-3.29-2.28-7.84c0-.2,0-.91-.02-1.88Z"/>
        <path class="cls-1" d="m158.69,57.57c0-4.61,2.28-6.91,2.28-7.96s-.73-1.55-2.15-1.62c-3.88-.18-7.24-.18-8.17-.18-1.1,0-4.17,0-8.06.18-1.42.06-2.15.56-2.15,1.62s2.28,3.34,2.28,7.96c0,.73.06,19.61.04,22.89-.19,1.16-1.22,4.51-6.74,4.51-4.77,0-6.45-2.87-6.51-4.55-.02-3.27.04-22.12.04-22.85,0-4.61,2.28-6.91,2.28-7.96s-.73-1.55-2.15-1.62c-3.88-.18-7.24-.18-8.17-.18-1.1,0-4.17,0-8.05.18-1.42.06-2.15.56-2.15,1.62s2.28,3.34,2.28,7.96c0,.73.03,20.05.03,20.06,0,5.36-2.64,18.78,19.42,18.78,5.53,0,8.87-2.54,10.73-4.65,1.04,2.23,3.05,3.87,7,3.87,1.1,0,4.17,0,8.05-.18,1.42-.06,2.15-.56,2.15-1.62s-2.28-3.34-2.28-7.96v-28.3Z"/>
        <path class="cls-1" d="m106.55,61.34c-2.21-5.94-6.32-10.29-12.23-12.93-3.09-1.38-6.16-2.08-9.12-2.08h-2.31c-3.36,0-6.72.77-9.98,2.28-5.79,2.73-9.83,7.03-12.01,12.77-1.11,2.97-1.69,6.02-1.71,8.97l-.05.89v.78c0,6.88,2.12,12.7,6.3,17.32,1.98,2.14,4.52,3.87,7.57,5.13,3.03,1.26,6.16,1.9,9.2,1.9h.03c.49.03.99.05,1.49.05,6.3,0,11.95-2.22,16.82-6.63,2.35-2.19,4.23-4.95,5.61-8.23,1.37-3.26,2.07-6.64,2.07-10.05v-.83c0-3.16-.56-6.3-1.67-9.34Zm-22.87,25.56c-5.48,0-8.48-6.99-8.48-15.62s2.26-15.62,8.48-15.62c5.8,0,8.48,6.99,8.48,15.62s-2.68,15.62-8.48,15.62Z"/>
        <path class="cls-1" d="m189.95,48.74c-2.75.59-5.13,1.47-7.26,2.53-1.17-1.66-3.1-2.81-6.39-2.81-1.1,0-4.17,0-8.06.18-1.42.06-2.15.56-2.15,1.62s2.28,3.34,2.28,7.96c0,.73.11,10.41.04,15.41h0c0,.12,0,.26,0,.38,0,.12,0,.25,0,.37h0c.07,5.09-.04,11.41-.04,12.14,0,4.61-2.28,6.91-2.28,7.96s.73,1.55,2.15,1.62c3.88.18,7.24.18,8.17.18,1.1,0,4.17,0,8.05-.18,1.42-.06,2.15-.56,2.15-1.62s-2.28-3.34-2.28-7.96c0-.73-.11-7.04-.04-12.14h0c0-.12,0-.25,0-.37,0-.12,0-.26,0-.38h0c-.03-1.96-.03-4.63-.02-7.21.05-5.97,3.45-10.51,7.23-11.72,2.82-.9,5.17-1.05,6.1,1.05,1.11,2.48-1.13,4.4-.2,7.24.54,1.65,2.96,6.44,9.42,3.79,7.29-2.98,5.98-22.99-16.9-18.04Z"/>
        <path class="cls-1" d="m285.64,99.13c-6.88-1.22-8.23,3.97-8.41,5.7-.3,2.97,2.29,4.37,1.73,7.03-.47,2.25-2.8,2.59-5.75,2.31-6.97-.66-14.32-7.32-14.04-32.26,0,0,0,0-.01,0-.02-2.39-.02-13.9,0-16.02,0-.01.02-.01.02-.02,0-5.36,2.64-18.8-19.42-18.8-5.52,0-8.85,2.48-10.71,4.55-1.03-2.25-3.05-3.91-7.01-3.91-1.1,0-4.17,0-8.06.18-1.42.06-2.15.56-2.15,1.62s2.28,3.34,2.28,7.96v28.3c0,4.61-2.28,6.91-2.28,7.96s.73,1.55,2.15,1.62c3.88.18,7.24.18,8.17.18,1.1,0,4.17,0,8.05-.18,1.42-.06,2.15-.56,2.15-1.62s-2.28-3.34-2.28-7.96c0-.73-.06-19.61-.04-22.89.19-1.15,1.21-4.51,6.74-4.51,4.76,0,6.45,2.86,6.51,4.55.02,3.27-.03,21.52-.03,22h.03c.04,11.79,1.49,35.42,29.66,35.42,23.4,0,20.46-19.83,12.7-21.21Z"/>
      </g>
      <g>
        <path class="cls-2" d="m93.4,2.43c0-1.05-.99-1.18-1.1-1.18h-22.83c-.11,0-1.1.13-1.1,1.18,0,1.13,0,4.86,0,4.86,0,1.77.52,1.72.81,1.71.91-.03,3.09-3.57,4.72-3.57h2.14c.75,0,1.36.6,1.37,1.35.01,2.28.04,6.76.05,8.02,0,1.93-.02,9.91-.02,10.05,0,2-1,2.86-1,3.32s.32.67.95.7c1.71.08,3.19.08,3.6.08.48,0,1.73,0,3.44-.08.63-.03.95-.24.95-.7s-.97-1.48-.97-3.48c0-.15-.04-8.17-.05-9.95,0-1.35.01-5.64.02-7.94,0-.75.61-1.36,1.37-1.36h2.17c1.63,0,3.81,3.54,4.72,3.57.28,0,.81.06.81-1.71,0,0,0-3.73,0-4.86Z"/>
        <path class="cls-2" d="m174.38,28.95c-1.79,0-3.26-.48-4.36-1.43-1.13-.97-1.71-2.33-1.72-4.05,0-3.64,2.73-5.94,8.1-6.84,1.61-.25,1.95-.36,2.02-.39.19-.08.68-.28.68-1.39,0-.85-.17-1.44-.5-1.77-.34-.33-.73-.49-1.17-.49-.77,0-1.48.43-2.15,1.32-.94,1.24-2.06,1.86-3.35,1.86-.82,0-1.47-.25-1.92-.74-.44-.47-.66-.99-.66-1.53,0-.94.36-2.26,2.08-3.23,2.02-1.13,4.18-1.71,6.44-1.71h.98c1.17,0,2.31.25,3.39.75,1.11.52,1.98,1.32,2.59,2.38.61,1.06.9,3.23.9,6.65,0,4.42.24,6.53.26,6.68.18,1.45.5,1.84.97,1.91.58.09.34.74-.59,1.15-1,.45-2.23.6-3.6.6-1,0-1.87-.45-2.58-1.33-.13-.16-.22-.26-.28-.31-.08.04-.22.12-.44.27-1.47,1.01-3.08,1.54-4.77,1.59l-.02.02h-.27Zm.38-5.99c0,.48.16,1.45,1.39,1.68,2.05.38,2.94-1.25,2.94-1.6.03-.44.06-1.92.08-2.7,0-.26-.22-.45-.48-.4-1.15.22-3.93.98-3.93,3.03Z"/>
        <g>
          <path class="cls-2" d="m144.38,13.4c0-1.88.93-2.82.93-3.25s-.3-.64-.88-.66c-1.59-.07-2.96-.08-3.34-.08-.45,0-1.7,0-3.29.08-.58.03-.88.23-.88.66s.93,1.37.93,3.25v11.56c0,1.88-.93,2.82-.93,3.25s.3.63.88.66c1.59.07,2.96.08,3.34.08.45,0,1.7,0,3.29-.08.58-.03.88-.23.88-.66s-.93-1.37-.93-3.25v-11.56Z"/>
          <path class="cls-2" d="m141.11,7.89c2.17,0,3.93-1.62,3.93-3.62s-1.76-3.62-3.93-3.62-3.93,1.62-3.93,3.62,1.76,3.62,3.93,3.62Z"/>
        </g>
        <path class="cls-2" d="m132.22,11.84c-1.46-1.85-3.46-2.79-5.94-2.79-1.13,0-2.49.28-4.05.83l-.37.13c-.19-.01-.2-.07-.21-.13-.02-.1-.06-1.65-.07-3.9,0-.94.02-1.68.02-1.82,0-1.86.93-2.78.93-3.2s-.3-.63-.88-.65c-1.59-.07-2.96-.07-3.34-.07-.45,0-1.6,0-3.19.07-.58.03-.88.23-.88.65s.9,1.37.9,3.23c0,.09.02.43.03.91h0c.01,1.59.14,4.22.1,8.49-.12,13.02-.11,12.91-.88,14.07-.57.85,1.93,1.22,3.06,1.22.2,0,6.23.07,6.66.07h.45c1.22,0,2.49-.26,3.76-.76,2.36-.94,4.11-2.72,5.2-5.28.56-1.31.85-2.67.85-4.04v-.47c0-2.54-.72-4.75-2.14-6.55Zm-4.66,7.87c0,1.58-.34,2.92-1,3.98-.61.97-1.27,1.44-2.01,1.44h-.87c-.69,0-1.21-.21-1.58-.66-.4-.47-.6-1.16-.6-2.06,0-.13,0-.28-.02-.4l-.07-1.22v-.45s-.02-.12-.02-.12v-.99s-.02-.12-.02-.12v-.38c0-3.2.34-4.48.63-4.99.35-.62,1-.92,1.99-.92h.32c.87,0,1.6.46,2.23,1.41.68,1.02,1.03,2.44,1.03,4.2v1.26Z"/>
        <path class="cls-2" d="m111.61,14.62c-.9-2.43-2.58-4.2-4.99-5.28-1.26-.56-2.52-.85-3.72-.85h-.94c-1.37,0-2.74.31-4.08.93-2.36,1.12-4.02,2.87-4.91,5.22-.45,1.21-.69,2.46-.7,3.66l-.02.36v.32c0,2.81.86,5.19,2.57,7.07.81.87,1.85,1.58,3.09,2.1,1.24.52,2.52.78,3.76.78h.01c.2.01.41.02.61.02,2.57,0,4.88-.91,6.87-2.71.96-.89,1.73-2.02,2.29-3.36.56-1.33.84-2.71.84-4.11v-.34c0-1.29-.23-2.58-.68-3.82Zm-9.34,10.44c-2.24,0-3.47-2.86-3.47-6.38s.92-6.38,3.47-6.38c2.37,0,3.47,2.86,3.47,6.38s-1.1,6.38-3.47,6.38Z"/>
        <path class="cls-2" d="m226.09,14.62c-.9-2.43-2.58-4.2-4.99-5.28-1.26-.56-2.52-.85-3.72-.85h-.94c-1.37,0-2.74.31-4.08.93-2.36,1.12-4.02,2.87-4.91,5.22-.45,1.21-.69,2.46-.7,3.66l-.02.36v.32c0,2.81.86,5.19,2.57,7.07.81.87,1.85,1.58,3.09,2.1,1.24.52,2.52.78,3.76.78h.01c.2.01.41.02.61.02,2.57,0,4.88-.91,6.87-2.71.96-.89,1.73-2.02,2.29-3.36.56-1.33.84-2.71.84-4.11v-.34c0-1.29-.23-2.58-.68-3.82Zm-9.34,10.44c-2.24,0-3.47-2.86-3.47-6.38s.92-6.38,3.47-6.38c2.37,0,3.47,2.86,3.47,6.38s-1.1,6.38-3.47,6.38Z"/>
        <path class="cls-2" d="m158.45,9.53c-1.12.24-2.1.6-2.96,1.03-.48-.68-1.27-1.15-2.61-1.15-.45,0-1.7,0-3.29.08-.58.03-.88.23-.88.66s.93,1.37.93,3.25c0,.3.04,4.25.02,6.3h0s0,.11,0,.16c0,.05,0,.1,0,.15h0c.03,2.08-.02,4.66-.02,4.96,0,1.88-.93,2.82-.93,3.25s.3.64.88.66c1.59.07,2.96.08,3.34.08.45,0,1.7,0,3.29-.08.58-.03.88-.23.88-.66s-.93-1.37-.93-3.25c0-.3-.04-2.88-.02-4.96h0s0-.1,0-.15c0-.05,0-.11,0-.16h0c-.01-.8-.01-1.89,0-2.95.02-2.44,1.41-4.29,2.95-4.79,1.15-.37,2.11-.43,2.49.43.45,1.01-.46,1.8-.08,2.96.22.68,1.21,2.63,3.85,1.55,2.98-1.22,2.44-9.39-6.9-7.37Z"/>
        <path class="cls-2" d="m237.87,9.53c-1.12.24-2.1.6-2.96,1.03-.48-.68-1.27-1.15-2.61-1.15-.45,0-1.7,0-3.29.08-.58.03-.88.23-.88.66s.93,1.37.93,3.25c0,.3.04,4.25.02,6.3h0s0,.11,0,.16c0,.05,0,.1,0,.15h0c.03,2.08-.02,4.66-.02,4.96,0,1.88-.93,2.82-.93,3.25s.3.64.88.66c1.59.07,2.96.08,3.34.08.45,0,1.7,0,3.29-.08.58-.03.88-.23.88-.66s-.93-1.37-.93-3.25c0-.3-.04-2.88-.02-4.96h0s0-.1,0-.15c0-.05,0-.11,0-.16h0c-.01-.8-.01-1.89,0-2.95.02-2.44,1.41-4.29,2.95-4.79,1.15-.37,2.11-.43,2.49.43.45,1.01-.46,1.8-.08,2.96.22.68,1.21,2.63,3.85,1.55,2.98-1.22,2.44-9.39-6.9-7.37Z"/>
        <path class="cls-2" d="m203.75,21.22c-2.54-.92-3.63.87-3.85,1.55-.21.66-.02,1.19.12,1.72.13.69.09,1.89-1.48,1.49-1.32-.33-1.92-3.72-1.79-5.93.02-.31.05-7.15.09-7.4.13-.09,2.92-.26,2.92-1.47,0-1.11-2.77-1.52-2.78-1.53-.06-.15-.11-1.74-.14-3.72,0-.94.02-1.68.02-1.82,0-1.86.93-2.78.93-3.2s-.3-.63-.88-.65c-1.59-.07-3.12-.07-3.5-.07-.45,0-1.6,0-3.19.07-.58.03-.88.23-.88.65s.9,1.37.9,3.23c0,.14.04.86.05,1.82,0,2.06-.02,3.71-.05,3.8-.4.14-2.1.35-2.1,1.43,0,.6.71,1.32,2.11,1.36-.04.23-.07,7.14-.06,7.58.06,2.73,1.42,8.77,8.71,8.82.32,0,.67-.02,1.04-.05.7-.03,1.31-.15,1.86-.31.05-.01.09-.03.13-.04.18-.06.37-.12.54-.19.07-.03.16-.05.22-.08.09-.04.16-.1.24-.15,3.27-1.79,2.95-6.13.82-6.91Z"/>
        <path class="cls-2" d="m274.28.39c-5.93,1.53-11.5,15.32-14.24,22-.93-2.14-1.79-4.48-2.4-6.37-.36-1.2-.66-2.3-.68-2.39-.47-2.13.72-2.15.72-2.85,0-.43-.46-.64-1.04-.66-1.59-.07-3.62-.07-4-.07-.45,0-2.79,0-4.37.07-.58.03-.88.23-.88.66s.57.73,1.68,2.49c.45.71.9,1.59,1.38,2.56,0,0,0,.02,0,.03.23.43,1.35,2.79,2.85,6.11,1.24,2.73,2.37,5.88,3.08,7.61-1.78,5.29-4.46,7.53-6.57,7.73-1.2.11-2.15-.03-2.35-.94-.23-1.09.83-1.66.71-2.87-.07-.71-.63-2.83-3.43-2.33-3.17.56-4.37,8.66,5.19,8.66,7.46,0,11.57-10.06,14.22-16.82,3.11-7.05,6.02-14.32,8.61-17.7.82-1.07,1.81-1.15,1.81-.41,0,2,1.76,3.62,3.93,3.62.89,0,1.69-.28,2.35-.74,2.69-1.42,2.24-9.66-6.56-7.39Z"/>
      </g>
    </g>
  </g>
</svg>