<?xml version="1.0" encoding="UTF-8"?>
<svg id="_レイヤー_2" data-name="レイヤー 2" xmlns="http://www.w3.org/2000/svg" viewBox="0 0 287.14 788.41">
  <defs>
    <style>
      .cls-1 {
        fill: #333;
      }
    </style>
  </defs>
  <g id="_編集モード" data-name="編集モード">
    <path class="cls-1" d="m183.37,647.66l-25.92-.06.02-9.16h-.04v-28.46h1.92c9.41,0,17.04-8.78,17.04-19.64s-7.64-19.62-17.04-19.62h-1.92v-264.9c12.85,7.83,27.54,12.25,42.92,12.25,47.87,0,86.8-41.56,86.8-92.6,0-40.08-24.23-74.47-57.9-87.25,4.04-21.75.77-44.69-9.87-64.34-14.79-27.3-41.83-44.54-71.23-46.03,4.33-2.52,7.32-7.38,7.32-13.01,0-8.2-6.24-14.86-13.95-14.86s-13.93,6.66-13.93,14.86c0,5.88,3.22,10.92,7.85,13.33-12.13,1.32-23.98,5.24-34.62,11.8-32.69,20.14-48.47,59.67-41.96,97.1-19.64,7.14-36.61,21.67-47.24,41.31-23.93,44.19-9.7,100.94,31.75,126.46,13.19,8.11,28.18,12.4,43.34,12.42,13.95,0,27.42-3.67,39.48-10.22v263.66h-1.93c-9.4,0-17.02,8.77-17.02,19.62s7.62,19.64,17.02,19.64h1.93v178.43h31.23v-63.03l25.81.06-.03,10.66,77.77.14.03-15.26-13.72-.02.02-19.83-22.87-.04.04-24.4,22.89.04.04-21.36,13.73.02.04-16.77-77.8-.13v9.16ZM113.45,63.36c29.43-18.12,67.03-7.35,84.02,24.01,9.35,17.28,10.35,37.13,4.57,54.56-1-.24-2.03-.4-3.1-.4-7.57,0-13.69,6.45-13.91,14.48-16.37,9.15-30.88,12.26-43.33,12.26-14.82,0-26.74-4.47-34.93-8.94-1.41-.77-2.55-1.51-3.74-2.25,0,0,.01-.04.01-.05,0-8.22-6.24-14.89-13.94-14.89-.93,0-1.83.1-2.73.29-9.94-29.34.86-62.93,27.07-79.07Zm22.07,201.27c-18.51,25.74-52.45,33.54-79.5,16.89-29.41-18.11-39.48-58.24-22.5-89.62,9.34-17.28,24.99-28.16,42.04-31.54,1.42,6.6,6.92,11.53,13.56,11.53,2.37,0,4.56-.69,6.53-1.78,12.63,7.15,36.32,25.67,41.07,67.78-5.02,2.24-8.58,7.54-8.58,13.72,0,5.66,3.01,10.53,7.39,13.04Zm-19.98-91.33c7.45,2.56,16.11,4.47,26.18,4.5h.04c7.4,0,15.43-1.07,23.97-3.51-9.37,9.52-18.64,23.43-23.84,43.03-5.86-20.69-16.32-34.74-26.34-44.01Zm56.13,7.99c6.27-6.39,12.54-10.63,17.21-13.23.35-.19.62-.31.94-.49,2.45,2.28,5.62,3.71,9.14,3.71,6.13,0,11.28-4.25,13.14-10.13,28.34,5.87,49.76,32.42,49.76,64.34,0,36.24-27.54,65.61-61.51,65.61-20.65,0-38.78-10.98-49.94-27.65,3.38-2.72,5.61-7,5.61-11.86,0-6.28-3.66-11.62-8.81-13.8,2.71-27.78,13.62-45.34,24.46-56.5Z"/>
  </g>
</svg>